<svg xmlns="http://www.w3.org/2000/svg" viewBox="20 20 200 200"><path fill="none" stroke="#ebe4e0" stroke-width="4" d="M16.655 29.97c3.351-4.512 7.759-6.729 12.736-11.354M17.696 29.743c3.298-3.019 7.022-6.537 13.5-10.246m-8.49 13.758c3.002-.912 2.851-6.236 7.676-11.927M22.641 33.87c2.467-4.005 4.978-7.123 7.975-14.115M19.168 39.947c3.02-4.51 9.735-9.289 22.024-20.738M16.5 41.71c9.156-7.685 20.055-17.616 24.224-21.174M24.58 46.81c2.69-6.465 11.423-16.174 16.894-27.689M23.529 45.867c5.702-8.403 13.097-18.71 17.017-26.034M17.733 52.518c8.3-6.049 20.054-17.65 33.888-32.44M15.741 55.25c9.993-9.636 18.37-17.543 36.676-34.969M24.693 60.875c6.604-12.97 15.86-28.796 27.269-42.174M23.028 59.126c9.649-13.57 19.747-26.968 28.677-39.052m-34.318 44.66c16.19-13.122 31.616-28.625 44.408-44.775m-44.254 46.6C27.737 55.339 38.405 45.9 62.259 19.546M22.861 71.658c8.423-12.482 19.88-24.954 38.4-52.124M22.326 70.956C37.533 53.88 51.274 34.886 62.837 20.45M17.013 76.812c21.657-17.99 42.047-38.747 57.89-56.02M16.596 78.044c23.18-23.563 43.965-46.893 56.566-57.716M24.275 82.464c18.207-20.34 33.684-44.72 48.76-63.622m-50.34 65.27c17.663-20.983 33.44-42.592 50.4-64.647M15.578 90.763C38.304 67.297 58.367 49.5 82.493 18.748m-65.34 71.546c19.12-19.326 39.4-40.89 66.264-70.79M24.525 95.418c20.468-26.168 39.302-51.501 60.742-75.623M22.49 94.656c23.623-28.305 48.357-57.11 60.318-75.414m-66.68 82.963c21.211-21.67 45.241-44.23 76.38-83.546m-76.17 84.704C46.43 72.785 73.412 41.48 93.824 18.987m-71.185 88.7C51.61 74.46 79.358 41.429 94.816 19.878M22.664 107.18c26.418-30.245 50.07-60.418 71.84-88.02m-78.758 97.002c28.387-29.967 55.41-57.152 88.567-96.066m-87.476 95.893c19.728-20.768 38.964-41.832 87.31-96.58m-83 100.086c23.802-28.837 46.466-54.492 84.09-101.6M22.333 119.76c20.82-23 41.529-47.597 82.622-100.238M17.317 127.096c24.014-25.34 45.02-50.942 99.006-106.753m-98.61 107.545c21.472-26.274 46.628-52.197 98.417-108.02M21.306 130.77c38.311-40.953 72.468-86.496 95.853-109.992m-94.04 111.037c28.216-34.677 55.063-67.352 92.794-111.39M18.972 140.26C59.333 91.555 98.88 47.276 125.685 18.597M17.501 139.991c23.074-23.729 45.646-48.404 109.229-119.67M22.66 146.274C61.534 98.682 98.24 54.43 126.348 19.966M23.683 144.653c21.402-28.367 44.439-58.208 102.37-125.001m-107.5 131.732c39.853-45.382 85.673-94.576 117.825-133.712M16.544 151.454c46.52-46.656 88.897-95.18 120.784-131.456M22.858 157.906c39.162-46.824 78.417-95.154 115.01-139.718M22.815 156.926c35.872-42.785 71.18-87.058 114.09-136.415M17.043 164.286c50.654-56.3 98.612-110.67 127.95-143.925M18.078 162.722C43.22 132.865 69.632 105.333 147.2 20.03M21.765 169.045C58.43 126.504 90.02 87.758 147.31 20.2M23.88 169.364c23.49-31.033 48.47-60.431 123.595-149.686M18.363 177.728C69.978 114.743 124.51 51.965 157.615 19.73M17.457 176.155C56.445 133.638 96.017 90.953 157.05 19.46M22.777 181.74C61.67 130.323 104.287 83.603 156.28 19.07M22.434 181.559c31.684-38.65 63.754-77.331 135.332-162.03M16.445 188.284c33.332-34.09 66.249-70.874 150.48-167.78M17.496 187.67C70.082 130.35 122.38 71.636 168.806 20.43M24.354 192.964C79.811 128.42 132.266 63.49 169.313 21.106M22.044 193.479C70.25 139.584 116.237 83.792 168.174 20.49M18.214 201.677C73.377 136.832 128.898 75.953 178.117 20.38M16.747 200.42c40.783-47.39 83.69-94.112 161.54-179.756M24.461 206.05C82.98 136.285 141.944 67.388 178.056 21.159m-155.508 184.7c58.528-69.451 117.68-138.604 156.075-185.166M17.888 210.811C80.33 142.804 139.974 74.043 188.313 20.637m-171.7 192.32C52.54 172.272 88.817 132.681 189.81 19.903M24.303 217.27c33.831-38.981 65.16-78.784 163.77-197.624m-165.5 197.717C71.22 161.369 120.324 104.03 188.68 20.788M24.6 218.397C89.403 140.11 156.056 66.074 201.093 20.393M22.564 218.269C89.89 143.242 154.356 70.26 200.247 20.69M29.133 223.33C90.831 149.99 152.757 74.409 199.605 19.423M29.642 222.97c35.667-44.32 70.299-86.345 171.056-202.59M33.708 218.575c44.491-49.837 88.206-98.421 176.341-197.357m-176.304 196.3c70.35-74.97 138.593-152.985 176.623-197.317M40.956 221.429C84.102 168.791 125.18 118.377 210.253 21.69M39.105 222.866C82.66 171.965 123.447 122.698 210.12 19.855M45.04 218.284c40.405-49.312 83.827-97.088 176.073-197.056M43.647 218.856c69.594-77.606 139.726-154.133 175.874-196.65M51.124 224.52c46.27-58.688 91.674-113.846 167.836-202.448M50.356 222.783c40.827-48.281 81.627-96.962 168.977-200.856M53.418 217.922c34.594-35.802 72.23-75.946 165.436-183.496m-164.696 183.9c56.499-61.249 113.425-124.21 166.059-183.995M61.779 223.137c41.245-53.343 86.775-106.926 156.766-187.846M60.28 223.725c58.36-72.403 120.071-144.81 160.543-190.698M66.647 219.109c35.903-43.739 74.608-86.598 153.23-172.83M65.518 218.526c36.594-41.609 73.883-82.256 155.278-173.306M71.5 222.381c49.845-57.575 99.025-116.096 147.528-177.536M71.314 224.2c56.609-69.605 115.042-139.788 149.734-178.597M77.271 219.32c32.782-44.991 72.985-83.113 143.579-159.142M76.32 218.05c35.541-39.306 70.546-77.634 142.668-158.69M81.445 223.28C134.12 164.112 184.629 102.52 218.3 58.926M82.114 224.234c50.038-61.526 103.06-124.822 138.29-166.148M85.75 217.398c37.233-42.93 78.718-87.376 133.813-147.461M85.878 218.767c46.28-50.34 92.52-100.579 133.652-148.797M94.158 225.1c25.331-34.644 54.014-65.025 127.383-155.385M92.32 224.067c31.204-37.33 61.409-74.124 127.417-154.287M96.165 219.91c32.514-35.14 62.958-69.847 123.529-135.362M96.887 218.318c23.496-28.6 48.906-56.907 122.539-135.188M101.456 221.98c35.941-37.314 65.461-76.487 116.63-137.488M103.187 224.075c45.094-57.171 92.1-112.886 117.32-140.502M108.586 219.87c38.685-42.664 77.75-88.322 112.65-125.744M107.298 218.14c29.254-31.427 54.913-60.021 112.396-124.299M113.99 224.535c39.498-50.94 79.5-97.717 107.296-129.92M114.245 223.339c40.878-50.216 82.59-99.614 105.155-129.101M118.478 218.626c28.155-32.647 56.545-60.444 101.583-111.543M117.65 217.27c25.127-25.557 49.618-52.257 103.518-110.888M123.58 223.817c25.648-31.038 47.501-61.291 96.8-116.499m-95.882 116.85c26.894-33.924 53.422-66.395 95.537-117.849M129.096 218.18c32.122-35.763 68.715-75.024 91.745-98.477m-91.485 98.313c26.76-27.258 51.134-55.871 90.888-99.088m-84.48 104.01c23.03-29.521 48.41-59.793 84.227-103.015m-85.08 103.142c26.965-32.997 54.807-66.427 83.966-103.394m-80.287 99.044c24.25-27.693 49.538-53.25 82.534-88.296m-81.372 86.918c16.825-18.19 33.618-36.087 80.982-84.982m-74.801 90.541c22.61-26.184 45.188-55.03 72.04-90.258m-72.047 91.335c17.97-23.836 37-47.428 73.376-92.834m-69.892 87.475c27.456-26.782 50.57-56.261 72.194-74.925m-70.714 73.418c17.136-17.587 33.447-36.024 70.054-74.433M154.15 221.24c14.961-17.143 29.416-34.722 65.474-77.804m-63.25 79.052c25.109-30.271 49.965-60.623 62.878-78.957m-59.912 75.703c19.31-17.183 32.07-32.493 61.965-64.544m-60.348 63.939c17.893-18.29 34.722-38.485 58.453-63.932m-53.959 70.414c10.408-15.624 22.754-31.928 53.42-68.909m-53.094 66.077c19.565-22.453 39.347-46.905 54.245-66.605m-49.717 60.234c15.646-12.895 32.981-31.494 51.434-48.633m-49.536 50.656c14.143-14.865 28.69-30.117 47.452-49.45m-40.577 54.295c6.492-11.253 15.316-23.479 39.353-54.786m-42.053 55.181c18.437-21.916 34.508-44.335 44.666-55.997m-39.352 49.408c8.986-5.2 17.541-13.886 36.556-34.673m-36.431 35.704c9.72-7.821 18.962-16.797 37.385-37.425m-30.68 41.97c11.478-14.178 21.843-33.297 29.335-42.081m-30.201 43.794c11.247-13.118 20.783-27.265 32.444-42.957m-27.514 37.2c8.62-7.959 18.569-13.776 28.357-25.511m-28.67 26.017c6.354-7.035 11.884-11.404 28.32-25.21m-23.49 29.362c8.858-11.046 13.615-19.312 23.78-29.852m-23.043 30.713c5.686-8.073 12.124-17.634 21.544-31.787m-15.11 24.787c3.594-3.234 5.753-5.458 15.073-10.405m-16.085 10.708c7.071-4.432 13.412-9.891 15.779-11.719m-9.142 19.269c1.296-4.653 6.192-11.724 9.457-21.705m-10.496 20.21c4.549-6.742 6.73-11.889 10.634-19.094m-5.044 14.205c1.264-.998 2.725-.757 5.178-2.192m-5.962 1.855c2.104-.43 3.36-.49 6.214-1.14m-.374 6.696c.3-2.078.303-3.74.709-6.717m-.081 6.63c-.12-2.371-.283-4.205.194-6.663"/></svg>