<svg xmlns="http://www.w3.org/2000/svg" fill="#222" viewBox="0 0 2660 1228"><path d="M1272.334 4.069c2.22-3.65 4.96-8.78 9.98-8.27 2.98-.39 5.22 2.41 6.02 4.99.88 9.26-2.07 18.22-4.1 27.12-7.44 25.99-12.78 52.65-14.39 79.66-.91 5.76-.19 11.65-.41 17.47-.44 10.39 1.62 20.65 2.04 31 .65 6.56-5.38 13.6-12.25 12.14-5.81-2.52-5.65-9.92-6.63-15.23-.26-9.48-.18-18.98-.03-28.47.81-4.72.54-9.58 1.31-14.3.31-8.97 1.93-17.82 2.73-26.75.39-2.3.75-4.61 1-6.94.39-2.32.76-4.65.99-6.99 2.12-13.53 4.24-27.06 7.01-40.47 1.82-8.41 3.17-17.07 6.73-24.96zM595.674 1.459c5.41-2.81 12.5-.8 15.96 4.12-.08 5.78-1.87 11.42-4.32 16.6-2.31 4.24-6.79 6.37-11.07 8.11-1.33 0-2.65.01-3.96.02-2.72-6.09-5.73-12.56-5.33-19.38.74-4.59 4.95-7.37 8.72-9.47zM227.754 29.409c18.93-7.44 39.16-11.31 59.41-12.63 7.41.26 15.01-.87 22.18 1.55 9.67 2.87 18.5 10.59 20.54 20.77 1.42 9.65-4.35 18.33-10.14 25.46-5.26 6.82-12.14 12.06-18.8 17.42 2.35 1.62 5.05 2.53 7.7 3.53 9.6 4.6 18.38 12.62 20.75 23.37 1.29 6.65.85 13.86-2.15 20.04-4.08 8.67-10.55 16.07-17.85 22.19-13.16 11.59-29.53 20.27-47.23 21.66-5.91.09-11.93.48-17.56-1.68-1.23-.93-2.63-1.66-3.6-2.85-.79-4.4 1.02-9.44 5.24-11.38 8.46-4.12 18.12-.55 26.93-3.13 11.69-3.42 22.29-10.28 30.66-19.08 5.5-5.87 9.73-13.97 7.81-22.2-3.92-13.76-21.88-20.84-34.34-14.16-2.16.94-4.34 1.83-6.47 2.84-4.05 1.04-8.31.81-12.39.11-2.69-2.32-3.82-6.04-2.74-9.42 5.12-4.17 11.46-6.51 17.4-9.26 10.84-4.49 20.2-11.91 28.22-20.36 5.28-5.37 10.63-12.3 9.59-20.3-.99-4.61-4.98-7.99-9.44-9.09-7.65-1.98-15.63-.76-23.4-.38-8.01 1.5-16.18 2.52-23.84 5.45-2.53.79-4.92 2.06-6.73 4.03-.76 4.92-2.02 9.75-2.66 14.69-.38 1.99-.72 4-1.01 6.01-3.53 22.3-6.97 44.62-9.72 67.03-1.29 8.45-.33 17.03-.68 25.54-.46 4.56-2.33 9.69-7.16 11.16-2.98-.19-6.36.59-8.85-1.5-2.47-1.5-3.2-4.42-4.37-6.85-.6-3.23-1-6.58-.24-9.81 1.43-6.69 3.12-13.33 4.31-20.07 2.1-11.18 3.83-22.42 5.48-33.67 1.54-11.81 3.41-23.6 4.38-35.47-.23-3.08.82-6.7-1.33-9.29-2.48-2.85-6.69-.27-9.61-2.17-2.61-1.71-3.06-5.22-2.43-8.04 3.11-5.13 8.8-7.83 14.14-10.06zM1135.714 24.299c18.74-4.8 38.04-8.27 57.46-7.51 12.84.81 26.78 4.74 34.96 15.36 6.45 8.08 6.6 19.59 3.43 29.05-3.19 8.66-9.1 16.24-16.28 21.98-17.14 14.39-38.7 22.2-60.21 27.31-6.33 1.66-12.9 2.42-19.07 4.61-3.09.49-2.77 4.11-3.22 6.45-.93 10.82-1.46 21.66-1.34 32.53-.09 5.49-3.04 12.32-9.25 12.74-4.99.65-8.9-4.08-8.75-8.78-.38-8.01.91-15.95 1.72-23.89 1.54-12.22 2.98-24.44 4.44-36.67.99-8.34 2.04-16.67 3-25.01 1-9.04 2.88-18.55-.12-27.39-4.69-1.74-6.04-6.96-5.59-11.47 4.48-5.81 12.24-7.11 18.82-9.31zm7.62 15.08c-1.36.39-.95 2.24-1.3 3.31-2.09 18.67-4.16 37.4-6.77 55.98 7.02-1.47 14.21-2.15 21.11-4.22 12.43-2.83 24.33-7.66 35.66-13.44 8.35-4.5 16.66-9.94 21.95-18.02 3.4-4.99 4.24-11.31 3.14-17.16-1.22-4.79-4.7-8.73-9.12-10.84-8.9-4.52-19.14-3.8-28.79-3.69a155.945 155.945 0 0 0-35.88 8.08zM523.234 49.999c5.04-.43 10.51-.75 15.12 1.71 3.7 2.69 4.5 7.38 4.21 11.67-1.48 2.68-3.89 5.97-7.37 5.42-3.05-.65-5.7-3.1-9-2.54-5.27.66-10.01 3.28-14.9 5.18-6.63 3.14-13.96 6.43-17.77 13.09-2.5 4.97-.63 11.28 3.7 14.59 12.01 9.6 28.12 12.91 38.92 24.18 6.14 6.36 6.6 17.01 1.44 24.08-4.08 5.84-10.53 9.46-16.97 12.15-10.64 4.32-21.86 7.48-33.35 8.27-5.52-.13-11.49.77-16.52-2.07-4.05-1.97-5.87-7.15-4.36-11.29 1.24-2.73 4.3-3.57 6.81-4.69 3.95-.34 7.82.44 11.64 1.4 4.83.44 9.69-.19 14.49-.74 9.25-2.16 19.88-3.5 26.4-11.2-.55-1.86-.85-3.97-2.39-5.31-5.83-6.2-13.78-9.65-21.17-13.57-7.12-4.15-14.63-7.91-20.61-13.68-2.92-3.13-5.42-7.17-5.13-11.62-.86-12.51 6.85-24.06 16.88-30.89 9.11-6.26 18.95-12.01 29.93-14.14zM872.734 64.079c11.73-7.65 24.81-15.75 39.42-14.29 2.13.56 4.22 1.24 6.26 2.12.95 1.4 1.95 2.78 2.96 4.16.41 3.14 1.55 6.83-.63 9.58-1.1 1.21-2.48 2.13-3.67 3.21-3.27.36-5.93-1.69-8.9-2.55-5.27-.55-10.02 2.25-14.79 4.03-7.43 3.25-15.52 6.65-20.15 13.69-2.66 4.86-1.19 11.38 3.15 14.79 8.58 7.01 19.22 10.71 28.71 16.25 5.5 3.7 11.51 7.52 14.18 13.9 1.78 3.43 1.07 7.36 1.22 11.06-2.41 9.41-10.74 15.48-19.26 19.04-13 5.29-26.88 9.3-41.03 8.75-5.37.24-11.38-1.4-14.22-6.34-.84-3.47-.95-7.47 2.17-9.86 2.28-.8 4.49-2.1 7.01-1.9 4.11-.35 7.91 1.83 12.02 1.58 8.12.04 16.11-1.56 23.89-3.79 5.21-1.6 10.43-3.88 14.08-8.09-.39-2.05-.84-4.27-2.48-5.71-7.79-7.97-18.67-11.48-27.91-17.34-7.18-4.39-15.76-8.87-18.41-17.49-2.68-13.77 5.41-28.01 17.18-34.93l-.8.13zM964.824 59.619c9.66-5.95 20.7-11.05 32.35-9.83 2.11.57 4.2 1.24 6.24 2.12.95 1.4 1.95 2.78 2.96 4.17.41 3.13 1.54 6.8-.62 9.56-1.1 1.22-2.48 2.13-3.67 3.22-3.26.36-5.92-1.67-8.88-2.55-5.27-.56-10.03 2.24-14.8 4.02-7.02 3.09-14.63 6.22-19.36 12.58-2.07 2.3-2.25 5.64-2.03 8.58 1.23 6.45 7.42 9.89 12.64 12.89 8.64 5.13 18.38 8.4 26.26 14.78 5.43 3.79 10.15 9.97 9.58 16.92-.02 1.31-.02 2.63 0 3.95-2.29 8.87-9.85 14.86-17.87 18.42-13.67 5.82-28.41 10.04-43.38 9.36-5.09.11-10.6-1.72-13.26-6.34-.32-2.62-1.26-5.6.47-7.93 2.97-3.72 8.29-4.37 12.7-3.53 9.35 2.71 19.21.61 28.45-1.54 6.4-1.65 13.09-3.93 17.56-9.07-.42-2.01-.83-4.22-2.45-5.64-7.77-7.99-18.65-11.51-27.9-17.35-7.19-4.41-15.81-8.9-18.46-17.54-1.42-7.37.18-15.23 4.1-21.63 4.37-7.77 11.78-13.23 19.37-17.62zM803.304 52.919c4.49-.24 9.32-.79 13.43 1.48 5.08 2.9 8.87 8.61 8.28 14.61.23 8.49-3.81 16.3-8.97 22.78-8.37 9.53-18.69 17.08-29.32 23.86-5.77 4.02-12.3 6.8-18.06 10.83-2.48 1.72-2.33 4.99-2.19 7.66.22 7.1 5.65 13.74 12.77 14.84 14.67 2.37 28.75-5.08 39.44-14.53 4.31-3.26 7.32-8.06 12.02-10.8 2.19-1.61 4.73.97 4.31 3.28.64 6.64-3.85 12.22-8.14 16.74-7.76 8.29-17.3 14.89-27.82 19.16-11.09 3.76-24.01 4.79-34.69-.79-10.51-5.86-15.39-18.47-14.93-30.06-.63-13.43 2.9-26.8 8.99-38.7 5.53-11.49 13.46-21.77 23.07-30.13 6.26-5.17 13.77-8.9 21.81-10.23zm-3.67 14.94c-5.18 1.81-9.49 5.46-13.07 9.52-9.51 9.6-15.5 22.19-18.66 35.21 12.84-7.96 26.11-16 35.94-27.69 3.73-4.5 7.07-11.04 3.94-16.74-2.52-1.29-5.52-1.14-8.15-.3zM1340.684 66.339c7.06-5.73 15.31-10.44 24.47-11.54 3.34 0 7-.61 10 1.29 3.42 2.03 5.12 5.74 7.35 8.86 2.1 2.51 6.01 1.06 8.39 3.16.71.6 1.42 1.23 2.14 1.89.26 5.76-.8 11.42-1.95 17.04-.33 2-.63 4-.99 6-1.61 9.95-3.47 19.95-3.17 30.07-.01 7.75.35 15.99 4.3 22.88 1.69 3.05 4.99 4.44 7.47 6.7 1.62 1.26 1.17 3.45 1.4 5.24-2.98 4.96-8.99 8.5-14.86 7.23-6.1-2.26-9.37-8.53-11.31-14.34-2.64-8.31-3.26-17.11-2.96-25.78-10.33 14.1-22.71 27.61-39.02 34.72-6.51 2.68-14.41 4.14-20.86.58-5.62-3.15-8.73-9.27-10.12-15.35-1.6-18.9 6.26-37.11 16.78-52.39 6.47-9.68 13.94-18.81 22.94-26.26zm5.61 13.83c-7.18 7.65-13.34 16.25-18.6 25.33-4.35 7.26-7.81 15.13-9.5 23.45-.1 4.81-1.34 10.27 1.7 14.47 2.59 3.41 7.66 2.73 11.16 1.23 8.14-4.02 14.62-10.56 20.75-17.12 7.32-8.23 14.3-17.06 18.46-27.35 2.91-6.87 3.99-14.53 2.85-21.9-.65-3.63-2.93-7.29-6.81-7.95-8.05-1.15-14.59 4.75-20.01 9.84zM364.964 65.669c1.49-2.52 3.62-4.51 6.18-5.93 4.89-.8 10.41 1.51 11.77 6.61.97 8.63-3.12 16.55-5.58 24.56-3.99 10.99-7.1 22.45-7.88 34.15.33 6.49-1.47 14.57 3.99 19.45 5.81 2.61 11.82-1.32 16.43-4.68 12.69-10 22.03-23.69 28.91-38.17 4.5-9.11 7.55-18.85 11.74-28.09.99-2.49 2.87-4.39 4.88-6.08 2.6-.56 5.75-1.59 8.02.38 3.03 2.31 2.9 6.6 2.27 10-2.74 9.83-4.94 19.85-6.06 30-1.17 8.01-.51 16.13-.63 24.19.64 5.51 1.46 11.16 3.99 16.17 2.06 3.63 5.97 5.91 7.28 10.04-1.85 5.19-8.17 7.72-13.36 6.97-4.93-1.39-7.42-6.44-9.3-10.77-4.11-11.37-3.74-23.65-3.64-35.55-6.35 10.06-13.09 19.97-21.42 28.51-7.72 7.03-16.39 14.63-27.31 15.37-7.13.9-12.94-4.62-16.79-9.96-5.11-8.01-4.71-17.83-4.45-26.93 1.51-14.23 5.23-28.08 8.48-41.98 1.14-6.03 2.7-12.08 2.48-18.26zM572.864 79.359c.69-6.37.42-14.45 6.5-18.36 4.66-.9 10.74.38 12.79 5.18 1.02 3.93-.43 7.93-1.39 11.73-5.06 17.99-10.63 36.23-10.33 55.1.12 4.83-.37 9.7.35 14.5.57 4.23 1.78 8.39 1.76 12.7-1.99 2.54-4.41 4.71-7.35 6.07-4.95 1.08-9.87-2.02-10.79-7.05-2.1-10.62-.7-21.57.58-32.22 1.85-16.01 5.38-31.75 7.88-47.65zM623.074 75.859c.7-5.18 3.43-10.19 7.78-13.19 2.05.07 4.11.32 6.14.78 3.91 2.4 4.6 7.39 4.48 11.61.47 13.8-2.84 27.35-5.16 40.87-.96 5.88-2.85 11.72-2.26 17.74 1.59-1.28 2.86-2.91 3.87-4.69 7.88-13.51 14.45-27.78 23-40.92 4.2-5.99 8.53-12.18 14.71-16.31 5.23-3.87 12.11-5.35 18.49-4.17 5.86 1.75 10.45 6.67 12.59 12.32 5.89 14.71 5.65 30.84 8.58 46.22 1.09 4.67 1.32 11.18 6.43 13.33 4.69 1.8 8.87-2.09 13.53-1.72.57.8 1.17 1.6 1.78 2.4 1.05 5.77-3.55 10-7.69 13.12-5.93 3.79-14.17 4.44-20.35.96-7.01-4.61-7.74-13.75-9.26-21.24-2.51-13.22-1.69-27.12-6.62-39.81-1.33-3.25-3.72-7.6-7.89-6.92-5.72.64-9.8 5.49-13.02 9.86-12.34 17.66-20.61 37.71-31.95 55.97-2.84 4.54-6.72 8.86-12.08 10.26-3.36-.65-7.33-1.02-9.35-4.17-2.9-3.82-1.75-8.89-1.72-13.32 2.41-16.17 4.99-32.39 5.46-48.76.89-6.7.06-13.49.51-20.22zM1433.354 62.719c4.3-.59 9.42 1.6 9.96 6.37 1.46 7.72.61 15.76-.48 23.5-1.63 11.4-3.96 22.67-6.04 33.99-.44 2.34-.39 4.72-.32 7.09 2.38-1.46 3.54-4.06 4.9-6.37 5.41-9.34 10.21-19.01 15.48-28.42 5.03-8.47 10.05-17.17 17.29-23.98 4.92-4.51 11.27-7.91 18.1-7.67 7.6-.57 14.01 5.51 16.73 12.14 7.1 17.31 5.64 36.56 10.56 54.41.94 3.37 3.82 6.61 7.64 6.05 3.58.4 6.54-2.67 10.13-2 3.07 1.2 2.4 5.29 1.7 7.8-2.86 4.64-7.28 8.6-12.62 10.08-6.74 1.71-15.12.68-19.15-5.68-3.75-6.71-4.57-14.59-5.72-22.07-1.77-11.25-1.52-22.94-5.48-33.75-1.18-3.08-2.7-6.52-5.92-7.87-5.8-1.02-10.55 3.57-13.87 7.7-12.09 16.34-20.05 35.2-30.27 52.67-3.03 5.11-6.01 10.66-11.2 13.9-3.88 2.63-9.35 1.47-12.67-1.5-3.67-3.73-2.64-9.42-2.5-14.13 3.31-21.49 6.26-43.14 5.84-64.93-.43-6.58 2.32-13.59 7.91-17.33zM1086.344 242.869c5.92-.98 11.93-.44 17.91-.57 11.33-.17 22.69.38 34.01-.4h85.94c9.63.77 19.32.2 28.98.44 6.64 1.11 13.4.26 20.11.65 6.18.6 12.4.19 18.61.3l1.05.65c9.13-.34 18.22.5 27.35.41 5.44 1.04 11 .17 16.49.85 12.37.11 24.7 1.37 37.1 1.09l1.07.65c15.67-.29 31.25 1.58 46.93 1.34l1.07.66c15.01-.25 29.92 1.62 44.94 1.35l1.05.65c22.67.09 45.25 2.29 67.93 2.34l1.06.65c4.14-.03 8.3-.19 12.45.27 3.54.38 7.2-.42 10.68.61 14.43.15 28.78 1.42 43.21 1.53 9.2 1.29 18.6.19 27.78 1.74-.29 4.14-.93 8.25-.81 12.42-5-.5-10.03-.17-15.02-.69-3.63-.31-7.36.47-10.89-.56-45.39-1.56-90.7-3.97-136.08-5.68-8.26-1.02-16.71-.21-24.91-1.32-3.93-.2-7.86.09-11.75-.39-3.75-.41-7.61.45-11.25-.61-11.44-.05-22.82-.94-34.23-1.25-4.57-.7-9.29.41-13.77-.75-16.45-.19-32.81-1.53-49.26-1.58-5-1.01-10.11-.16-15.14-.73-4.61-.44-9.24.04-13.83-.26-5.61-1.04-11.32-.24-16.97-.6-6.29-.64-12.62-.16-18.92-.33-11.25-1.42-22.64.1-33.92-.97-28.73-.05-57.45.01-86.17-.03-16.32.86-32.68.14-49.01.47-4.61.88-9.3.46-13.94.54-23-.2-45.96.72-68.97.38-13.61 1.18-27.34.41-41 .61-18.34.77-36.71.28-55.06.39-13.26 1.27-26.64.34-39.95.62-14.01-.3-27.98.59-41.98.4-13.69.01-27.38-.02-41.07.01-8.24 1.13-16.59.38-24.88.59-18.35 0-36.71.02-55.06-.01-12.67.77-25.38.26-38.06.41-23.33 0-46.67-.02-70 .01-8.28 1.14-16.67.38-25 .59h-91.99c-16.33.18-32.68-.4-48.98.41-90.04-.03-180.07 0-270.11-.02.01-4.28-.01-8.57.02-12.85 85.71-.01 171.42 0 257.13 0 7.34-.06 14.68.22 22-.4 50.34.01 100.68 0 151.02.01 2.34.01 4.62-.7 6.98-.62 31.99.02 63.97-.01 95.96.02 22.32-.82 44.69-.23 67.03-.41 7.97-.2 16 .51 23.93-.58 13.33-.06 26.66 0 40-.02 14.7.19 29.37-.7 44.08-.4 12.96-.28 26 .64 38.92-.61 13.02.01 26.05 0 39.08.01 6.98.2 13.94-.69 20.93-.4 11.67-.25 23.4.6 35.03-.61 12.01.01 24.03 0 36.05.02 14.67-.86 29.4-.17 44.1-.44zM2539.404 214.829c5.33-.02 10.68 0 16.03-.01-.02 9.32-.04 18.64.02 27.97 3.67.78 7.37 1.52 11.01 2.53-.08-7.83.01-15.66-.05-23.49 1.89 1.23 3.76 2.48 5.64 3.8-.11 6.41-.12 12.83-.02 19.24 2.14 1.56 5.19 1.5 7.72 2.38 12.96 2.87 25.87 7.96 39.37 6.37 4.94-.96 9.35-3.45 13.54-6.15 1.43-.93 2.5 1.12 1.33 2.17-12.64 20.44-24.23 41.78-31.45 64.79-.7-.64-1.49-1.21-1.51-2.2-2.13-11.28-6.34-22.37-13.54-31.4-5.45-6.31-11.69-12.13-19.29-15.73-4.04-2.22-8.47-3.48-12.71-5.13-.11 28.62-.04 57.25-.02 85.88 3.63 1.03 7.27 2.05 10.91 3.14.11-25.42.04-50.83.03-76.25 10.1 4.12 20.25 10.98 24.1 21.62-3.34-.79-5.18-3.87-7.82-5.74a92.832 92.832 0 0 0-10.67-7.73c-.07 23.25-.02 46.49-.02 69.73 12.14 3.52 24.27 7.36 35.63 12.98 19.52 9.02 33.61 28.56 36.26 49.88 1.32 11.73.97 23.9-2.92 35.16-7.27 21.37-24.95 38.36-45.65 46.82-12.58 5.26-26.37 6.42-39.86 5.83.05 11.84.04 23.69.04 35.55-5.38-.02-10.75.05-16.1-.05 0-6.96-.04-13.91.02-20.85-23.89-3.3-46.78-13.26-71.16-12.64-6.64.16-13.22 1.31-19.38 3.81-1.05-1.99-1.93-4.04-2.78-6.09 10.31-3.47 21.35-4.85 32.15-3.15 20.65 2.79 40.63 9 61.15 12.5-.02-3.65-.02-7.3 0-10.94-11.53-1.44-22.83-4.24-34.11-6.9-12.88-3.04-25.69-7.68-39.08-7.24-8.93-.23-17.31 3.57-25.01 7.68-.59-1.18-1.14-2.35-1.66-3.51 13.62-21.62 25.65-44.44 33.98-68.66l3.11-.08c1.55 6.12 2.11 12.51 4.61 18.38 6.22 18.94 21.44 34.81 40.45 41.12 5.66 2.27 11.74 3.02 17.71 4.12 0-27.72.05-55.43-.02-83.15-13.57-3.66-27.22-7.07-40.56-11.52-7.26-2.57-15-5.09-20.28-11-3.17-3.69-5.72-7.94-7.43-12.48 2.39 1.55 5.4 2.34 7.45 4.43 5.1 7.09 13.42 10.75 21.39 13.65 12.93 4.32 26.35 6.94 39.48 10.57-.04-3.5-.04-7 .01-10.49-18.26-4.16-37-7.9-53.6-16.92-10.72-6.32-18.3-16.93-22.94-28.29-5.09-11.62-5.81-24.58-4.46-37.04 1.38-11.29 5.49-22.31 12.41-31.39 5.98-7.34 13.12-13.84 21.51-18.33 14.31-7.75 30.87-10.87 47.04-10.52.06-9.01.05-18.02 0-27.03zm-41.17 63.19c-7.07 9.67-8.05 22.93-3.94 34.01 2.52 6.23 6.85 11.68 12.23 15.72 9.37 7.5 20.99 11.35 32.44 14.42.08-22.89-.08-45.78.1-68.67-7.34.64-14.78 3-20.33 8-8.69 7.18-11.39 19.8-8.11 30.32 2.16 6.09 6.09 11.61 11.15 15.64 1.96 1.88 4.98 3.01 5.81 5.83-.7-.22-2.09-.65-2.79-.86-7.87-4.17-15.39-10.06-18.79-18.56-4.37-10.93-2.02-24.32 5.9-33.07 6.62-7.96 16.78-12.62 27.13-12.66-.08-3.44-.09-6.87.02-10.29-15.86-.66-31.63 7.3-40.82 20.17zm56.8 110.07c-.06 32.72-.02 65.45-.01 98.17 3.82.15 7.61-.51 11.38-1.15-.01-27.56.07-55.11-.04-82.67 8.71 1.85 17.34 4.74 24.84 9.63 5.86 3.9 11.6 9.21 13.26 16.32-2.79-.8-4.36-3.4-6.39-5.23-7.3-7.16-16.97-10.92-26.58-13.83-.03 25.3-.03 50.59.02 75.88 6.06-.85 11.71-3.22 17.28-5.66 8.73-4.83 16.6-11.93 20.35-21.37 4.38-11.57 3.93-25.16-2.03-36.09-4.91-9.82-12.86-18.08-22.32-23.58-9.44-4.73-19.77-7.2-29.76-10.42z"/><path d="M2642.224 254.169c1.52.72 3.06 1.46 4.67 2.18-3.51 7.39-8.15 14.19-11.74 21.55-7.21 13.33-13.6 27.08-19.81 40.91-1.64-.72-3.21-1.45-4.7-2.32 10.25-20.9 19.03-42.62 31.58-62.32zM1947.804 300.859c3.02-3.77 7.48-6.92 12.56-6.22 2.39 2.23 3.72 5.19 3.2 8.51-4.34 6.59-9.77 12.34-15.15 18.07-11.7 12.92-24.32 24.97-35.64 38.23-3.69 3.98-4.35 9.56-5.21 14.68-1.7 11.93-2.78 23.94-3.95 35.93-.27 3.56-.32 7.25-1.46 10.66-2.44 2.57-6.39 2.73-9.7 2.7-1.63-1.43-3.5-2.86-3.82-5.14-.93-8.4.46-16.83 1.64-25.14 1.18-10.45 4.45-21.3 1.52-31.69-9.48-10.35-17.35-22-26.05-32.98-5.02-6.64-12.16-11.14-18.21-16.71-2.55-2.36-5.03-5.74-3.96-9.4 2.19-2.53 5.25-5.04 8.87-4.04 6.46 2.41 11.36 7.51 16.16 12.26 11.48 12.3 20.83 26.44 32.53 38.55.8.89 2.34 1.29 3.12.06 14.47-16.14 30.43-30.99 43.55-48.33zM2043.204 300.159c5.19-.68 10.73-2.47 15.82-.24 1.94.53 3 2.56 3.57 4.37 2.21 5.14-4.06 11.33-9.17 9.02-6.71.39-13.26 1.94-19.94 2.63-10.91 1.73-22.1.13-32.95 2.41-2.39.39-4.59 1.88-5.54 4.11-1.65 3.87-1.77 8.12-2.67 12.18-1.38 7.71-3.99 15.28-3.95 23.2 7.6.02 15.15-1.07 22.71-1.87 9.46-1.09 18.61-4.09 28.13-4.75 3.72-.08 8.11.14 10.87 3.02.93 3.14.47 7.28-2.67 9.04-4.25 2.17-9.13 2.42-13.75 3.13-14.4 2.06-29.01 2.74-43.21 5.95-4.53.9-4.71 6.16-5.64 9.78-1.34 7.91-3.04 15.86-2.92 23.93.98 4.72 6.71 4.3 10.43 4.14 18-2.1 35.85-5.24 53.69-8.35 3.36.48 7.25 2.47 7.92 6.14.07 2.16.75 5.16-1.82 6.16-6.71 2.88-14.11 3.57-21.32 3.95-17.3.75-34.35 4.23-51.57 5.73-3.98-.58-8.98.24-11.9-3.01-2.73-4.53-2.44-10.36-.47-15.14 3.7-12.95 5.16-26.42 7.18-39.7 1.07-15.36 6.32-30.31 5.32-45.82-1.73-3.12-3.25-6.35-3.9-9.88 1.59-3.74 6.08-4.94 9.81-4.37 7 1.04 14.01-.38 21-.83 12.37-1.18 24.68-2.92 36.94-4.93zM2132.044 298.829c8.25-.16 16.8-.7 24.61 2.55 4.6 1.97 9.72 4.77 11.27 9.92.54 4.27-.41 8.75-2.7 12.41-1.73 2.58-5.06 2.72-7.83 2.67-.01-1.48-.01-2.96.05-4.41-.72-3.37-2.1-6.75-5.21-8.55-12.66-3.94-26.46-2.37-38.86 1.8-7.75 2.76-15.68 6.89-19.8 14.36-.68 3.76-1.26 7.93.97 11.34 2.55 5.37 8.3 7.85 13.37 10.26 13.77 5.61 28.61 8.41 41.87 15.29 4.52 2.56 9.06 5.7 11.55 10.41 3.33 5.96 1.72 13.74-2.57 18.81-8.11 10.39-19.8 17.57-32.06 22.07-11.04 3.92-22.66 7.16-34.47 6.58-5.41.28-11.18-.5-15.7-3.66-3.11-2.15-2.5-6.56-1.12-9.53.83-1.61 1.58-4.14 3.86-3.95 3.69.21 7.1 1.88 10.69 2.69 12.89 2.57 26.29-.35 37.97-6.02 7.13-3.31 14.46-7.15 19.32-13.53 1.61-1.93 2.03-4.49 1.56-6.91-2.72-4.58-8.17-6.17-12.78-8.07-15-6.09-31.34-9.06-45.26-17.59-12.07-6.91-15.7-24.54-7.87-35.9 5.84-9 15.96-13.58 25.47-17.66 7.65-2.67 15.56-4.69 23.67-5.38zM2293.904 321.279c-1.06-7.88 6.36-15.69 14.35-14.5 6.22 1.13 10.74 6 15.96 9.2 26.32 18.28 52.78 36.35 78.98 54.79-32.73 15.78-65.42 31.66-98.17 47.41-7.59 3.76-17.75-2.65-17.64-11.08-.32-5.25 3-10.18 7.71-12.36 11.5-5.73 23.17-11.12 34.69-16.83-41.29-3.44-82.62-6.6-123.95-9.65.86-8.52 1.1-17.1 2.17-25.6 41.25 3.33 82.51 6.51 123.78 9.6-10.26-7.41-20.77-14.48-31.15-21.72-3.24-2.28-5.43-5.58-6.73-9.26zM2637.864 376.759c3.3.27 5.01 3.43 7.09 5.6 9.04 9.72 14.17 22.6 15.7 35.69 1.22 12.75.17 25.85-4.35 37.92-7.38 19.41-21.66 35.96-39.11 47.06-13.62 8.84-29.81 12.21-45.72 13.92.04 11.63.02 23.26.01 34.89-7.21.02-14.4-.02-21.59.02-1.43-1.84-2.92-3.61-4.09-5.6 6.86-.11 13.72-.03 20.6-.04-.05-11.48.04-22.95-.05-34.43 3.52-1.07 7.3-.14 10.87-1.12 11.13-1.71 21.94-5.47 31.9-10.74 19.79-9.68 35.25-27.46 42.55-48.22 7.02-22.21 4.75-47.96-8.76-67.33-1.63-2.59-3.98-4.73-5.05-7.62zM203.704 381.449c2.02-1.05 4.34-1.29 6.59-1.23 7.71.09 15.44-.31 23.11.69 5.86 2.1 12.39-.14 18.34 1.59 9.06 1.17 18.2 2.02 27.2 3.5 6.95 2.32 14.69 2.07 21.3 5.52 2.24.2 4.55.39 6.64 1.36 2.41 1.17 5.36.76 7.55 2.48 7.38 1.09 13.95 4.97 21.22 6.56 3.51 2.31 7.51 3.76 11.31 5.55 4.42 1.07 7.93 4.17 12.19 5.66 2.88 2.29 6.1 3.96 9.47 5.44 4.4 2.52 8.31 5.85 12.77 8.27.98.93 1.91 2.03 3.39 2.19.25.6.52 1.21.8 1.84 1.94.53 3.34 1.99 4.86 3.22 4.43 3.78 9.27 7.41 12.34 12.46 1.95.32 2.78 1.98 3.47 3.66 1.75 2.39 3.37 4.89 5.49 7 4.24 7.32 8.74 14.66 11.31 22.79 1.66 3.43.75 7.33.97 11.01-.02 16.38.03 32.76-.02 49.14.24 5.15-3.03 9.47-3.44 14.53-1.95 1.69-.55 5.01-2.81 6.62-1.53 3.28-2.88 6.65-3.62 10.22-2.47 2.99-3.47 6.75-5.35 10.03-.56 1.36-1.06 2.76-1.46 4.19-2.25 3.07-3.4 6.82-5.82 9.76-.7 2.34-1.97 4.43-3.57 6.27-1.47 2.56-2.86 5.17-4.71 7.49-1.6 3.47-3.66 6.68-5.7 9.9-2.28 4.22-4.76 8.36-7.85 12.05-4.82 5.03-7.04 12.04-12.55 16.5-2.24 4.65-6.15 8.25-8.86 12.62-2.18 3.12-5.06 5.86-6.74 9.27-1.86 1.39-2.97 3.42-4.13 5.37-4 3.52-5.78 8.79-9.62 12.47-3.04 5.99-6.86 11.5-10.67 17-.32.21-.98.62-1.31.83-1.05 3.56-2.81 6.97-5.39 9.66-1.71 5.32-6.1 9.44-7.14 15.02-.4.28-1.22.86-1.62 1.15-.49 1.29-.98 2.59-1.46 3.92-1.94 3.48-4.49 6.9-4.67 11.04-2.26 2.6-2.53 6.62-4.81 9.43.33 1.08.18 2.13-.47 3.14-1.39 4.34-3.13 8.61-3.78 13.16-1.44.96-.82 2.8-1.08 4.24-3.9 1.6-7.31 4.32-11.46 5.28-6.43 2.12-12.49 5.9-19.36 6.28.68-2.97 2.2-5.66 2.86-8.63 1.77-2.9 1.27-6.68 2.88-9.71 1.11-3.24 1.97-6.56 3.4-9.68-.42-3.6 2.69-6.33 2.48-9.92 2.65-2.63.99-7.08 3.66-9.81.45-1.68.92-3.35 1.28-5.03 2.05-3.22 2.7-7.44 2.64-11.29l1.3.32c-.01-1.41.18-2.77.57-4.09-.07-1.5.83-2.65 1.67-3.77-.17-4.26 2.24-7.97 4.14-11.59.51-1.22 1.14-2.34 1.76-3.47.85-2.12 1.43-4.31 1.99-6.5 1.69-1.03 2.45-2.78 2.93-4.6 1.5-2.16 2.42-4.76 4.58-6.39.35-3.56 3.11-6.07 4.94-8.93 1.18-2.57 2.68-5 4.42-7.22.72-2.51 2.32-4.5 4.11-6.32 4.78-7.04 9.39-14.19 14.9-20.69 2.47-3.9 6.09-7.05 8.24-11.18 3.74-4.34 6.83-9.2 9.94-13.98 1.43-1.52 3.07-2.89 3.86-4.87 1.12-1.91 2.18-3.87 3.7-5.48 1.74-1.93 2.06-4.68 3.78-6.6-.08-.15-.25-.44-.33-.59 2.4-3.25 4.9-6.49 6.71-10.11 1.78-2.6 3.35-5.36 4.26-8.38 1.53-1.94 2.22-4.31 2.78-6.66.89-.95 1.83-1.84 2.67-2.81 1.73-2.43.69-5.95 2.91-8.06.4-1.73.94-3.42 1.5-5.09.58-1.19 1.13-2.37 1.7-3.54 1.81-4.69 2.2-9.72 3.36-14.55 1.69-3.77-.24-8.14 1.76-11.79 1.47-2.52 1.05-5.63-.41-8.04-.76-4.14-.46-8.33-.63-12.49-1.93-3.74-1.8-8.06-3.56-11.82-2.99-5.44-4.71-11.63-8.9-16.33-.77-.8-1.27-1.72-1.51-2.78-1.33-1.3-2.63-2.62-3.97-3.88-2.2-5.15-7.4-8.17-11.13-12.14a8.214 8.214 0 0 1-2.91-1.92c-3.65-3.63-8.37-5.9-12.11-9.41-4.85-2.33-9.09-5.91-14.04-8.15-6.98-3.06-13.91-6.25-20.85-9.4-2.84-1.86-6.69-1.36-9.22-3.69-1.49-.36-3.02-.69-4.2-1.71-2.72-.52-5.42-1.15-7.85-2.51-3.07-.51-6.03-1.42-8.84-2.74-1.69-.15-3.37-.46-4.88-1.22-3.01-1.52-6.55-.87-9.68-1.91-3.71-2.01-8.13-1.15-12.05-2.48-5.52-1.82-11.37-.69-17.02-1.42-5.62-.75-11.29-.23-16.94-.39-4.38.04-8.79-.21-13.14.43-5.61.84-11.55-.79-16.92 1.53-4.8.46-9.65.74-14.39 1.52-4.39 2.14-9.4 1.65-14.01 2.97-5.04 1.33-10.25 2.03-15.04 4.24-.3-.01-.88-.02-1.17-.03-5.67 1.91-11.05 4.54-16.84 6.12-6.16 2.47-12.28 5-18.22 7.96-1.27.52-2.23 1.49-3.03 2.59-3.81-.33-6.09 3.12-9.47 4.03-2.07 1.26-3.99 2.73-5.89 4.23-2.05 2.59-5.57 3.07-7.6 5.58-2.55 1.14-4.53 3.14-6.47 5.09-3.92 1.45-6.06 5.31-9.17 7.89-2.96 3.82-4.98 8.44-8.93 11.39-1.25 3.88-4.14 6.99-5.1 10.98-2.04 6.49-5.71 12.78-5.15 19.79-2.54 7.23-.93 15.29.29 22.7.78 3.07.52 6.35 1.64 9.35 1.04 2.16 1.34 4.58 1.76 6.93 2.15 4.36 3.58 9.12 4.85 13.83 1.61 1.25 1.89 3.29 2.5 5.11 1.91 2.27 2.51 5.37 4.09 7.9 2.64 3.9 4.65 8.18 7.02 12.26 1.17 1.69 2.14 3.52 3.51 5.09.41 1.01.82 2.03 1.23 3.07 1.05 1.17 1.99 2.45 2.51 3.97.74.84 1.48 1.7 2.22 2.58.75 3 4.08 4.29 5.46 6.96 1.14 2.11 2.41 4.15 3.76 6.15 1.65 1.5 2.75 3.51 4.24 5.18 1.72 1.65 2.52 4.02 4.32 5.62 2.26 2.21 4.57 4.44 5.87 7.39.73.82 1.32 1.74 1.86 2.74 3.07 3.06 4.99 7.07 8.32 9.93 1.99 3.08 5.04 5.66 5.69 9.44.36.4 1.07 1.22 1.43 1.62 1.65 4.14 5.17 7.29 6.6 11.6l1.67 1.27c.72 2.01 1.35 4.11 2.61 5.88 2.14 4.25 4.86 8.3 5.76 13.06 1.87 1.94 1.42 5.02 3.31 7.02 1.28 3.16 3.31 6.24 3.39 9.74 1.65 1.73 1.78 4.27 2.19 6.52.37.41 1.11 1.25 1.49 1.67.55 2.99.61 6.18 2.01 8.96.62 3.04 1.17 6.1 1.74 9.17 4.62 3.16 4.58 9.25 4.79 14.26 3.59 3.4-.14 9.53 2.84 12.81-.24 7.63.63 15.21.37 22.85-.08 2.26.02 4.57.69 6.77-1.13-.46-2.25-.92-3.35-1.41-3.92-.86-8.57-.32-11.79-2.99-1.65-.14-3.29-.37-4.83-.97-4.21-1.33-8.67-2.2-12.44-4.59-.97-2.1-.24-4.76-1.7-6.73-.46-3.61-1.83-7.07-1.76-10.74-1.48-2.18-2-4.76-2.64-7.24-1.21-3.58-2.79-7.04-3.6-10.72-1.16-5.02-4.85-9.16-5.06-14.38-.35-.18-1.06-.54-1.41-.72-.5-4.06-3.32-7.22-4.96-10.82-.46-2.17-1.52-4.1-2.56-6.01-1.28-1.57-2.03-3.44-2.83-5.25-.83-1.63-1.98-3.13-2.29-4.96-.3-.3-.89-.9-1.19-1.2-.69-1.88-1.37-3.84-2.76-5.32-2.18-2.01-2.3-5.24-4.29-7.37-.13-.37-.41-1.09-.54-1.46-1.29-1.23-2.4-2.58-3.49-3.95-.53-1.16-1.05-2.3-1.58-3.42-4.1-5.85-8.75-11.31-12.7-17.29-1.25-2.05-2.95-3.76-4.77-5.28-.15-.49-.44-1.46-.59-1.94-3.33-2.54-4.98-6.64-8.29-9.16-.64-1.04-1.27-2.03-1.9-3.03-.62-.78-1.21-1.55-1.8-2.31-1.53-2.42-3.05-4.85-5.03-6.93-1.39-1.59-2.63-3.29-3.91-4.94-2.54-3.47-5.33-6.81-7.06-10.8-3.47-1.54-2.95-5.82-5.51-7.93-1.01-1.02-1.75-2.23-2.34-3.5-1.67-2.13-3.1-4.44-4.13-6.94-1.13-1.47-2.11-3.03-3.27-4.44-1.12-4.14-3.36-8.16-6.28-11.28-1.04-2.41-1.78-4.95-1.79-7.57-.26-.02-.77-.05-1.02-.06-.64-2.34-1.95-4.4-2.68-6.68-.2-.6-.6-1.81-.81-2.42-.3-.23-.91-.7-1.22-.93-.24-3.64-2.22-6.77-3.4-10.13-1.64-3.04-1.12-6.78-3.05-9.71-.63-6.98-2.78-13.71-2.97-20.71-.56-6.35.05-12.69.35-19.02 2.05-4.24 1.63-9.2 2.61-13.74 1.89-3.36 2.16-7.38 4.36-10.63 1.45-4.35 5.17-7.51 6.19-11.99.97-3.21 3.95-5.12 5.49-7.98 1.81-2.6 3.33-5.47 5.73-7.58 4.25-3.94 8.03-8.38 12.54-12.03 1.8-.94 3.29-2.36 5.16-3.18.88-1.19 2-2.15 3.24-2.93.27-.36.81-1.07 1.08-1.43 2.34-.38 3.77-2.34 5.28-3.95 2.42-.53 3.9-2.57 5.6-4.17 1.93-.67 4.12-1.13 5.37-2.9 2.71-1.65 5.31-3.49 8.02-5.13 3.76-1.56 7.74-3.07 10.71-5.93 2.46-.52 4.56-1.92 6.8-2.98 4.23-1.67 8.29-3.82 12.68-5.15.3-.34.91-1 1.22-1.33 1.72-.43 3.46-.84 5.22-1.13 4.98-3.36 11.54-3 16.71-6.01 1.77-.91 3.8-1.04 5.74-1.4 2.27-1.52 5.17-1.04 7.56-2.25 3.46-1.88 7.68-.82 11.09-2.81 4.16-1.57 8.76-.57 12.77-2.58 7.85-.86 15.58-2.36 23.44-3.11 6.5-.99 13.12-.06 19.64-.84zM2490.414 430.009c1.8-.39 3.63-.9 5.43-1.49 2.02 8.62 4.03 17.46 8.79 25.06 5.87 9.91 15.37 16.96 25.04 22.87 1.1.51 1.71 1.42 1.84 2.74-8.77-1.4-16.3-6.88-22.73-12.69-10.19-9.52-16.65-22.7-18.37-36.49zM1830.574 499.129c3.87-.78 7.72-1.62 11.64-2.18-10.92 34.08-21.8 68.17-32.83 102.22-1.76 6.43-8.32 10.93-14.95 10.05-6.27-1.85-11.46-8.16-10.31-14.84 4.2-13.17 8.2-26.4 12.75-39.45-23.73 20.75-46.97 42.13-70.51 63.11-3.4 2.93-6.6 6.07-9.99 9-16.36 14.64-32.66 29.36-49.01 44.01-3.4 2.92-6.61 6.06-9.99 8.99-4.9 4.48-9.97 8.79-14.78 13.38-1.05.78-1.99 1.85-3.24 2.25-5.2-6.43-11.23-12.17-16.26-18.7 5.81-6.3 12.75-11.53 18.91-17.51 11.71-10.45 23.39-20.94 35.06-31.45 3.39-2.93 6.59-6.07 10-8.99 3.38-2.94 6.59-6.08 10-9 3.39-2.94 6.6-6.08 10.01-9.01 24-21.38 47.7-43.11 71.82-64.35l.32-.96c-4.7 1.43-9.56 2.15-14.33 3.23-1.7.33-3.37.65-5.01 1-1.71.33-3.38.65-5.04.99-5.87 1.21-11.73 3.03-17.76 2.99-4.26-.03-7.32-3.22-9.9-6.19-.6-1.91-1.34-3.77-1.74-5.71.29-4.21 1.93-8.67 5.65-11.03 4.28-2.64 9.43-3.05 14.24-4.11 20.41-4.27 40.83-8.47 61.24-12.73 8.01-1.62 16.01-3.32 24.01-5.01z"/><path d="m253.884 560.569.73 1.33.08-1.11c5.5-.74 11.16-1 16.65.07 2.67 1.41 5.85 1.26 8.72 2.08 2.61 2.25 6.63 2.22 8.95 5.09 3.68.16 5.78 3.41 8.95 4.8 3.03 1.21 4.68 4.26 7.52 5.79 1.8 3.29 5.28 5.5 7.69 8.44 3.02 2.14 3.54 6.11 6.1 8.64.68 1.65 1.45 3.28 2.12 4.95-.72.21-2.17.61-2.89.82-.24.38-.71 1.15-.95 1.54-2.83.56-4.21 3.6-7.02 4.08.09.29.26.86.35 1.15-3.53 1.05-6.21 4.22-8.91 6.66-1.54-3.73-3.44-7.61-6.63-10.17-.91-2.89-2.82-5.27-4.27-7.87-.44-1.17-1.62-1.62-2.73-1.81-.21-.55-.62-1.65-.83-2.2-3.3-3.06-6.35-6.38-9.59-9.49-5.74-3.44-11.75-8.13-18.85-7.01-3.21 1.63-6.37 3.4-9.52 5.15-2.05 1.85-3.91 3.94-6.26 5.42-1.76 1.29-3.23 3.02-5.38 3.68-.8.69-1.61 1.39-2.43 2.08-.26.4-.77 1.2-1.03 1.6-3.2 1.21-5.45 3.88-7.64 6.39-.35-.13-1.06-.38-1.42-.51l.09 1.15c-2.56 1.3-4.75 3.22-7.34 4.44-.89.47-2.76.85-1.73 2.44-4.2 1.13-7.31 4.68-11.52 5.78-4.6 3.15-9.94 4.81-14.99 7.08-.31-.14-.94-.42-1.25-.56l.04.71c-4.35 1.2-8.84 1.36-13.32 1.46-.29.29-.87.86-1.16 1.14-1.74.03-3.47.02-5.19.01-.72-.92-1.64-1.35-2.74-1.28-3.83.11-7.52-.98-11.3-1.36-2.7-1.95-6.04-2.69-9-4.13-1.88-1.04-3.8-2-5.66-3.04-1.51-1.48-3.32-2.58-5.06-3.72-1-.84-1.86-2.38-3.45-1.88.7-1.8-1.46-2.54-2.27-3.75-1.08-.76-2.01-1.73-2.83-2.74-.39-.11-1.17-.32-1.56-.43-1.46-2.29-2.19-5.07-4.3-6.87l-.28-1.53c-1.82-1.61-3.27-3.81-3.75-6.18 1.54-2.07 4.45-2.36 6.62-3.58 5.68-2.07 10.66-5.57 16.2-7.93.7-.55 1.4-1.09 2.09-1.64.53 6.41 4.48 11.66 7.12 17.32 1.17 1.76 3.01 2.95 4.6 4.32-.01.44-.05 1.32-.06 1.76.45.04 1.35.11 1.8.15.29 1.53 1.13 2.39 2.53 2.58l.04 1.03c2 1.16 3.72 2.76 5.85 3.74 6.09 2.42 12.73 1.65 18.99.47 2.17-1.94 4.83-3.17 7.46-4.33 0-.28-.01-.84-.01-1.13.55-.02 1.65-.07 2.2-.1 1.36-1.25 2.85-2.34 4.5-3.16 1.16-1.25 2.56-2.25 4.14-2.87 1.9-1.86 3.76-3.76 5.73-5.54 2.09-.41 3.25-2.35 4.86-3.54 3.82-3.6 8.64-6.01 12.14-9.94 1.42-.57 2.85-1.11 4.32-1.55-.1-.27-.3-.82-.41-1.09 3.59-.37 5.86-3.43 8.97-4.87 2.74-1.14 5.1-3.05 8.22-3.36 1.39-.87 2.98-1.29 4.52-1.78 1.57-.28 3.75.56 4.64-1.29zM1003.174 616.329c10.59-.63 21.52-1.66 31.85 1.41 12.4 3.37 23.46 12.9 27.06 25.46 3.3 10.87 2.66 23.01-2.22 33.32-7.48 15.39-21.79 26.14-36.94 33.28-9.48 4.34-19.52 7.19-29.58 9.79-5.36 1.48-10.81 3.07-15.43 6.27-3.03 2.09-6.81 3.63-10.52 2.76-2.31-1.36-3.69-3.71-5.15-5.84.03-3.62 2.48-6.53 3.3-9.95.88-3.87 1.49-7.84 1.45-11.81 1.1-17.79 3.2-35.51 5.66-53.16.65-4.99 2.13-9.94 1.7-15.01-.97-4.17-6.65-2.97-8.81-6.14-1.11-4.02 1.98-8.39 5.8-9.42 10.61-.15 21.26.19 31.83-.96zm-15.02 12c-3.07 17.26-5.49 34.63-7.48 52.04-.72 9.91-2.24 19.99-.54 29.87 1.84-.03 3.69-.03 5.56-.02 7.55-1.8 15.06-3.82 22.43-6.28 15.96-5.29 31.58-15.03 39.4-30.42 3.75-7.55 4.84-16.4 3.32-24.66-2.04-10.32-10.81-18.26-20.74-20.93-13.76-3.87-28.03-.3-41.95.4zM1123.094 618.869c8.97-4.26 19.21-4.28 28.88-3.04 11 1.72 21.03 7.95 28.13 16.45 1.35 1.76 2.19 3.84 3.18 5.84 2.39 8.27 2.29 17.15.94 25.59-2.68 10.24-7.19 20.04-13.61 28.48-7.38 9.44-16.02 18-25.81 24.92-.52.12-1.55.36-2.06.48-2.1 3.01-5.95 4.11-9.14 5.63-9.34 3.81-19.6 4.62-29.58 4.04-6.21-1.25-11.9-4.8-15.82-9.75-5.66-6.53-10.03-14.72-10.33-23.49-.74-12.46 3.49-24.58 8.66-35.73 7.9-16.28 19.86-31.6 36.56-39.42zm2.97 11.14c-10.63 6.41-17.94 16.82-24.48 27.1-4.45 7.67-7.91 16.02-9.5 24.77-.77 6.61-1.47 13.72 1.48 19.93 2.81 6.09 8.32 10.96 14.82 12.76 14.14 1.69 28.21-4.32 38.5-13.8 12.86-11.46 23.06-27.14 24.44-44.65.35-6.99.18-14.8-4.71-20.34-6.23-6.54-15.49-9.52-24.33-9.93-5.69-.48-11.42 1.11-16.22 4.16zM1267.634 616.149c6.39-.87 12.99-3.02 19.33-.64 2.37 1.99 2.68 5.2 2.54 8.09a22.223 22.223 0 0 1-5.17 4.35c-1.96-.96-4.07-.47-6.1-.23-7.72.41-15.32 2.01-23.03 2.55-7.29-.12-14.61-.01-21.8 1.26-3.92.88-5.98 4.83-6.31 8.55-1.08 9.13-4.51 17.89-4.73 27.13 12.76.13 25.44-2.11 37.87-4.84 5.23-.8 10.89-1.92 15.88.5 2.98 1.42 2.24 5.61.89 8-1.98 2.32-5.14 2.9-7.98 3.43-14.44 2.48-29.17 3.01-43.52 6.09-1.61.56-4.01.85-4.41 2.85-2.7 8.85-3.44 18.16-4.53 27.3 1.18 4.97 6.79 4.47 10.78 4.23 15.86-1.84 31.56-4.82 47.31-7.37 2.45.61 5.16 1.58 6.38 4.02.65 1.84.31 3.87.5 5.81-6.06 4.38-14.03 4.27-21.17 4.86-15.13.77-30.04 3.64-45.09 5.13-3.73-.49-8.05.33-11.21-2.07-2.32-3.06-2.46-7.3-1.95-10.96 4.14-12.77 5.56-26.23 7.46-39.47 1.17-13.87 5.57-27.43 4.83-41.46-2.03-2.62-3.31-5.88-3.13-9.22 2.62-4.76 8.75-3.11 13.17-2.86 14.45-1.11 28.89-2.61 43.19-5.03zM1319.754 624.659c11.73-6.36 25-10.44 38.44-9.95 8.18-.41 17.14 1.29 23.23 7.16 4.05 4 2.91 10.44.58 15.04-1.48 2.73-4.82 2.93-7.55 3.02.42-4.61-1.02-10.55-6.01-12.01-8.16-2.62-17-1.81-25.31-.42-8 1.78-16.08 4.69-22.29 10.19-4.43 3.71-5.9 10.66-2.76 15.63 2.56 4.81 7.9 6.95 12.57 9.18 12.61 5.19 26.43 7.45 38.28 14.48 5.26 3.17 10.59 8.43 10.14 15.06.23 5.74-3.42 10.7-7.45 14.41-7.93 8.6-18.64 14.04-29.64 17.6-8.07 2.32-16.31 4.79-24.8 4.29-6.08.32-13.07-.29-17.34-5.18-.46-3.85.82-7.51 3.12-10.56 4.58-.07 8.7 2.32 13.22 2.8 12.39 1.82 24.83-2 35.64-7.89 4.76-2.7 9.69-5.51 13.03-9.97 1.52-1.74 1.45-4.19 1.69-6.33-1.44-2.08-3.37-3.75-5.69-4.72-12.18-5.72-25.49-8.45-37.77-13.91-6.08-2.9-12.97-5.94-16.1-12.31-3.13-5.13-3.79-11.31-2.77-17.13 1.8-8.27 8.48-14.4 15.54-18.48zM1479.644 615.489c4.4-2.8 8.27 2.34 8.37 6.43.15 6.54-2.48 12.74-3.63 19.12-3.58 12.33-4.58 25.15-6.43 37.8-1.38 7.69-.88 15.51-.95 23.28-.05 4.69 1.11 9.3 1.03 14.01.16 5.34-6.86 10.04-11.4 6.58-2.37-2.37-2.38-6.03-3.05-9.1-1.48-21.06 3.95-41.7 5.88-62.55 1.49-9.56 3.49-19.04 4.62-28.65.08-3.33 2.88-5.48 5.56-6.92zM1575.644 618.459c10.37-1.2 20.96-2.17 31.28-.05 4.15 1.24 5.37 7.17 3.1 10.5-3.26 2.1-7.27.18-10.82.28-6.7.05-13.4-.1-20.09.1-6.12 1.13-12.68.45-18.48 3.08-2.23 1.39-2.06 4.39-2.56 6.68-1.73 13.67-3.55 27.37-4.07 41.14l-.63 1.07c-.13 11.68-1.68 23.65 1.64 35.05-.56 3.03-1.79 5.86-4.16 7.92-4.02.75-7.96-1.74-9.03-5.64-2.14-8.01-1.18-16.38-1.41-24.58.34-8.39 1.63-16.73 2.05-25.12l.56-1.15c.34-10.66 2.96-21.12 3.43-31.75.34-1.97-1.78-2.39-3.21-2.19-9.73-.17-19.37 1.44-29.05 2.03-5.09-.17-10.59.86-15.09-2.14-.7-2.87-1.63-6.61 1.35-8.54 5.25-2.31 11.16-.58 16.64-1.86 19.64.48 39.13-2.19 58.55-4.83zM261.174 640.729c.87-2.23 1.63-4.52 3.01-6.48 5.59 2.74 12.21 2.91 17.56 6.13-.77 1.75-1.31 3.7-2.79 5.02-.51 1.87-.95 3.77-1.69 5.58l.37.45c-1.27.98-1.94 2.42-2.54 3.87-.8 1.46-1.58 3-1.69 4.71-.31 3.08-2.23 5.66-3.39 8.47-.89 3.74-2.34 7.32-3.9 10.82-1.31 6.1-3.08 12.06-5.59 17.78-.8 7.76-4.45 14.82-5.74 22.48-1.18 5.6-1.77 11.41-4.15 16.73.29 2.84.37 5.85-1.08 8.45-2.01 3.74-.62 8.18-2.01 12.14-1.63 1.91-.61 4.56-.74 6.85-2.06 3.83-.32 8.37-2.32 12.23.18.37.53 1.11.71 1.48-2.88 7.14-.59 15.28-3.33 22.49 8.03-.47 16.32-1.2 23.85-4.26 6.07-.47 11.63-3.11 17.6-4.05 2.29-1.44 5.46-1.01 7.34-3.08 1.72-.42 3.55-.74 4.84-2.07 2.47-.52 4.87-1.28 7.33-1.8.55-3.54 3.65-5.96 3.71-9.68l1.24-1.12c.59-2.86 2.83-4.91 3.76-7.63 3.33 1.11 6.99 2.17 9.46 4.84 1.08.3 2.17.62 3.27.94 2.04 2.72 5.66 3.71 7.51 6.59.84 1.28 1.99 2.29 3.22 3.23l-.66.52c1.44.63 2.24 1.99 3.24 3.15 1.07 3.76.89 7.7-.12 11.46-1.04 1.65-1.92 3.45-3.39 4.8-1.69 1.99-3.91 3.49-5.4 5.68-1.48.58-2.84 1.41-4.03 2.47-2.87.96-5.46 2.5-7.81 4.38-3.66 1.7-7.9 2.32-11.19 4.72-5.58 1.51-10.95 3.57-16.78 4.08-3.53 1.86-7.43 2.31-11.35 2.48-3.5 1.83-7.66 1.67-11.5 2.33-.46.31-1.37.93-1.83 1.24-4.01.29-8.47-.45-12.16 1.28-18.21 1.8-36.55 1.45-54.85 1.37-6.72-.73-13.53-.44-20.16-1.79-3.98-1.12-8.28-.22-12.25-1.46-4.22-1.28-8.72-1.18-12.91-2.54-2.01-1.42-4.67-.25-6.81-1.33-6.91-2.72-14.71-2.65-21.31-6.11-3.04-.66-5.57-2.57-8.6-3.24-2.93-.65-4.71-3.32-7.4-4.39-2.12-.97-3.99-2.43-6.23-3.08-1.89-3.01-5.35-4.7-7.32-7.66-1.07-3.01-3.27-5.76-2.8-9.11-.46-2.86 1.19-5.21 2.04-7.77a97.5 97.5 0 0 1 1.57-2.5c2.78-1.88 5.07-4.36 7.21-6.91.47-.05 1.41-.14 1.87-.19 3.28-2.42 6.79-4.98 10.99-5.31 1.99.92 1.58 3.42 2.14 5.2 1.49 2.85 1.58 6.18 3 9.08 2.13.28 3.9 1.53 5.77 2.49 1.56.81 3.49.97 4.73 2.37 2.07.49 4.24.94 6.01 2.23 4.78.71 9.2 2.79 13.59 4.74 5.43.9 10.51 3.21 16.09 3.46 3.14 1.99 7.13 1.1 10.61 2.11-.54-3.32-1.33-6.67-1.04-10.03l-1.26-.29c.39-.43 1.17-1.31 1.56-1.75-.39-.42-1.16-1.27-1.55-1.7l1.82-.5c-.42-.32-1.27-.96-1.7-1.28.31-.37.94-1.1 1.25-1.46-.83-4.99-1.36-9.98-1.13-15.05-1.42-5.22-.13-10.64-1.58-15.87-1.29-3.42-.05-7.12-.93-10.61-.9-3.98.4-8.42-1.98-12.02.09-4.23-.44-8.42-.49-12.63.05-1.07-.22-2.04-.81-2.9 0-3.51-.76-6.95-1.54-10.35.87-4.77-1.61-9.11-2.1-13.76.31-4.46-1.37-8.75-1.18-13.19-2.04-2.81-1.13-6.38-1.97-9.54-1.18-3.54-1.34-7.29-2.22-10.9 6.68-4.5 14.43-7.42 21.57-11.22.59-.22 1.78-.67 2.38-.89.45.45 1.36 1.37 1.82 1.82-.29 4.85-.72 10.05 1.39 14.58-.17.35-.51 1.07-.67 1.43.16 2.11.32 4.25.3 6.38 1.85 3.97.73 8.42 1.36 12.63-.44 5.78 2 11.29 1.73 17.06-.18 5.28.93 10.51.53 15.82.56 3.66.12 7.44 1.07 11.05.58 2.01.34 4.13.15 6.2.07 2.21-.27 4.49.31 6.68 1.29 4.9.4 10.02.59 15.03-.16 5.12 1.12 10.18.52 15.31.25 5-.07 10.03.28 15.04.06 1.69 1.34 3.42.39 5.08.19.16.58.48.77.64-.85 1.06-.8 2.17.01 3.26-.2.16-.61.48-.81.64.68.89.67 1.81-.08 2.7.42 1.13.35 2.25-.2 3.36.33.14 1 .43 1.33.57-.41.31-1.23.93-1.64 1.25.57.51 1.15 1.03 1.73 1.57 9.57-.1 19.13.09 28.7-.1.07-1.23.41-2.37 1.01-3.43.28-3.1.45-6.21.9-9.28.25-2.63 1.56-4.99 1.88-7.59.43-3.45.15-7.02 1.51-10.29 1.17-2.55.96-5.32 1.23-8.01 1.2-2.97 1.5-6.18 2.55-9.18-.26-1.69.01-3.4 1.1-4.74.41-2.89 1.11-5.73 1.34-8.63.21-1.53 0-3.13.48-4.57 2.73-5.14 2.14-11.24 4.07-16.64 1.43-3.67.82-8.03 3.29-11.27.27-3.34 1.16-6.58 1.4-9.91 2.11-3.03 1.56-6.96 3.04-10.09l-.04-.87c1.11-2.84 1.61-5.85 2.59-8.71.26-2.21.74-4.38 1.61-6.42.48-2.02 1.02-4.02 1.65-5.98 3.32-5.57 2.79-12.69 6.27-18.25.3-2.58.87-5.1 1.62-7.56zM1641.304 745.029c6.05-6 12.09-12.03 18.08-18.1 5.65 5.3 11 10.9 16.49 16.36 14.62 13.73 28.52 28.22 42.78 42.34 12.54 11.4 24.14 23.81 36.24 35.7 5.49 5.85 11.67 10.97 17.23 16.75 10.67 10.67 21.34 21.33 32 32 7.15 6.16 13.5 13.17 20.27 19.75 7.47 7.54 15.07 14.95 22.46 22.57-3.6-12.76-6.86-25.59-10.43-38.35-1.43-4.06.14-8.61 2.77-11.8 1.71-2.35 4.64-3.13 7.06-4.51 1.6-.05 3.22-.04 4.88.03 4.42 1.2 8.2 4.42 9.79 8.78 1.71 5.08 2.8 10.36 4.3 15.52 7.93 29.32 15.86 58.64 23.76 87.97 1.41 2.96-2.48 1.18-3.69 1.05-30.62-8-61.3-15.75-91.95-23.62-5.48-1.57-12.04-1.98-15.82-6.8-1.94-2.7-3.76-6.11-2.91-9.51.58-5.72 5.6-9.66 10.69-11.44 1.51-.02 3.07.04 4.63.25 12.96 3.49 25.96 6.81 38.99 10.03-17.51-16.07-33.49-33.75-50.97-49.83-9.46-9.49-18.95-18.96-28.42-28.43-14.86-14.17-29.27-28.81-43.78-43.33-14.75-13.49-28.36-28.19-42.74-42.07-7.56-6.77-14.39-14.3-21.71-21.31zM752.984 737.869c2.98-6.74 12.06-10.17 18.41-6 31.33 17.98 62.35 36.52 93.75 54.39-28.67 17.34-57.9 33.82-86.76 50.86-4.27 2.13-8.13 5.85-13.16 5.77-6.13.46-11.61-4.57-13.14-10.26-.63-5.52 2.13-10.96 6.9-13.8 11.25-6.45 22.36-13.15 33.65-19.52-78.57.12-157.15.07-235.72.02-.1-8.56.01-17.11-.07-25.66 78.6.11 157.19-.12 235.78.11-10.26-6.07-20.6-12.01-30.88-18.04-3.38-1.91-6.91-4.18-8.44-7.91-1.29-3.1-2.06-6.86-.32-9.96zM1469.034 800.819c5.8-5.39 12.85-10.7 21.17-10.61 4.35.06 8.73-.16 13.1.12 6.67 1.27 11.95 6.14 15.9 11.41 2.74 5.31 2.32 11.46 2.32 17.27.14 6.24-1.48 12.82-5.66 17.62-4.89 6.52-12.81 9.54-20.26 12.11-4.64 1.73-9.34 3.26-14.05 4.75-2 5.16-3.19 10.58-4.95 15.82-1.47 3.96-6.26 4.31-9.85 4.08-1.86-5.85-.8-12.11 1.91-17.5 1.91-3.47 2.83-7.91 6.48-10.04 8.25-5.48 17.96-8.04 26.91-12.09 4.47-2.12 6.97-6.92 7.83-11.6.37-5.17-.43-10.53-2.74-15.18-3.42-5.2-10.38-5.36-15.95-5.15-5.95-.22-12.4 2.64-14.47 8.58-1.6 4.41-7.04 4.04-10.85 3.95-3.54-4.44-.39-10.22 3.16-13.54zM1090.674 798.719c1-4.98 9.3-6.59 11.01-1.26 1.38 8.88-1.14 17.8-3.17 26.41-6.67 27.61-20.26 52.76-32.37 78.23-2.38.93-4.98 2.51-7.56 1.36-4.46-1.72-6.81-6.21-8.72-10.29-7.12-15.82-12.73-32.26-19.03-48.41-4.5 6.28-8.08 13.16-11.92 19.85-7.09 12.49-14.07 25.06-21.85 37.15-2 2.94-3.88 6.11-6.87 8.18-6.9-1.2-9.23-8.51-10.86-14.35-6.5-23.79-10.58-48.16-15.07-72.39-1.19-6.38-4.35-12.42-3.93-19.03 1.02-1.84 2.29-3.51 4.05-4.68.75-.24 2.24-.71 2.99-.95 2.54.98 4.69 2.97 5.56 5.61 3.18 8.08 3.88 16.83 5.47 25.31 3.36 20.43 6.63 40.97 12.68 60.82 6.5-10.59 13.21-21.06 19.61-31.71 4.87-8.04 8.85-16.56 12.97-24.98 1.84-4.29 3.94-10.21 9.6-10.04 2.44 2.32 4.04 5.29 5.33 8.4 7.32 18.31 12.85 37.41 21.97 54.97 11.31-18.76 20.3-39.03 25.4-60.38 2.36-9.12 3.52-18.5 4.71-27.82zM1152.024 800.909c9.06-5.41 19.9-6.59 30.23-5.38 11.3.9 21.81 6.8 29.4 15.09 2.17 2.11 3.42 4.92 4.66 7.66 2.17 6.93 1.88 14.26 1.57 21.43-1.62 9.91-5.64 19.37-11.02 27.82-5.2 8.3-12.29 15.13-19.3 21.89-5.54 4.9-11.57 9.25-18.14 12.67a63.838 63.838 0 0 1-28.14 5.26c-6.59.53-12.84-2.77-17.6-7.08-7.52-7.77-13.54-18.12-12.81-29.26-.38-7.83 2.15-15.39 4.44-22.76 7.11-18.89 18.99-36.96 36.71-47.34zm17.91 4.93c-13.24 2.52-22.85 13.12-30.31 23.61-6.99 9.67-12.39 20.66-14.56 32.45-.69 4.03-.59 8.12-.53 12.21.4 7.01 4.59 13.19 10.02 17.42 6.33 4.39 14.38 3.65 21.56 2.21 11.02-2.58 20.65-9.27 28.41-17.34 11.62-12.09 20.52-28.15 19.89-45.33.17-6.37-1.76-13.24-6.9-17.35-7.68-6.2-17.88-8.44-27.58-7.88zM1255.234 798.759c12.68-2.28 25.57-4.27 38.5-3.4 7.53 1.15 15.19 3.9 20.38 9.74 6.43 5.93 7.96 15.74 5.29 23.83-3.34 9.77-11.58 16.84-20.02 22.27-4.77 3.1-10.2 4.88-15.12 7.66 9.1 8.76 19.6 15.89 29.74 23.38 5.19 3.87 11.19 6.75 15.9 11.23 3.96 5.22-3.08 12.37-8.61 10.01-5.75-2.3-10.63-6.27-15.5-10-11.44-8.79-22.19-18.43-33.72-27.09-2.73-1.75-5.35-4.42-8.82-4.12-1.65.05-3.13-.6-4.62-1.12-.42-.55-1.25-1.64-1.66-2.19-.04-1.37-.06-2.73-.07-4.07 1.3-2.45 3.42-4.14 5.97-5.17 2.78.03 5.61-.08 8.39.35 5.86.95 11.16-2.4 16.22-4.83 7.61-4.28 16.02-9.15 19.32-17.73 1.63-4.42 2.07-10.06-1.25-13.82-4.62-5.67-12.23-8.27-19.39-7.87-8.05-.24-16.14.54-23.97 2.41-3.04.89-4.15 4.17-4.86 6.93-2.63 11.08-4.28 22.36-6.06 33.61-1.56 12.38-3.68 24.76-3.28 37.28-.33 4.99 1.26 9.84 1.09 14.83-1.49 2.48-3.56 5.43-6.76 5.45-4.58.56-7.54-4.22-7.9-8.19-.76-28.72 5-57.06 10.55-85.09-.16-3.45-4.26-5.97-2.94-9.73 1.93-5.2 8.49-5.97 13.2-4.56zM1359.364 796.089c1.54-1.36 3.81-.71 5.71-.96 2.4 1.46 4.48 3.85 4 6.9-.51 9.16-3.94 17.91-4.58 27.09-1.17 8.38-1.91 16.81-2.88 25.21 8.15-5.25 15.72-11.42 22.4-18.45 6.06-6.29 13.3-11.39 18.78-18.25 5.11-5.74 7.86-13.24 13.47-18.59 4.02.01 7.5 3.14 8.74 6.83.73 4.65-2.86 8.24-5.48 11.59-12.75 13.57-27.43 25.12-41.38 37.4 15.24 10.8 29.24 23.36 45.28 33.02 4.89 3.24 10.97 3.21 16.62 3.42.25 4.09-.01 9.21-4.1 11.42-5.25 2.78-11.31.18-16.12-2.33-10.63-6.44-20.32-14.26-30.29-21.64-7.4-5.85-15.02-11.46-23.46-15.7-4.87 1.17-5.95 6.37-7.01 10.55-1.86 7.79-1.56 15.84-2.74 23.72-.69 3.22-1.57 6.62-3.75 9.19-1.46 1.83-4.02 1.16-6.03 1.34-1.11-1.34-2.6-2.46-3.09-4.15-.57-4.64 1.02-9.09 1.63-13.61 1.42-8.65 2.16-17.37 3.15-26.07 1.67-19.38 3.69-38.74 6.83-57.95.76-3.51 1.12-7.71 4.3-9.98z"/><path d="M103.434 825.819c1.79.71 3.58 1.43 5.52 1.64 1.75 2.02 4.17 3.75 6.89 4.09 4.78 3.44 10.87 3.83 15.73 7.03 3.66-.17 6.69 2.07 10.13 2.88 3.08 1.62 6.61 1.56 9.92 2.34 5.53 2.43 11.84 1.65 17.59 3.41 8.64.92 17.09 3.27 25.84 3.01 16.62-.35 33.43 1.21 49.86-2.02 3.15-.64 6.47-.12 9.52-1.29 5.25-1.92 10.93-1.27 16.31-2.51 3.17-1.04 6.46-1.54 9.73-2.09.93-1.07 2.37-1.1 3.66-1.38 4.37-.74 8.5-2.46 12.87-3.21 4.35-1.68 8.74-3.42 13.36-4.22l1.27-.79c.66-.15 1.98-.46 2.63-.61-1.04 3.28-1.41 6.75-1.27 10.2-1.3.39-2.6.77-3.9 1.15-.24.3-.73.9-.97 1.2-2.35.19-4.6.97-6.55 2.29-4.74 1.67-9.15 4.12-13.88 5.78-2.62 2.07-6.31 1.41-9.09 3.14-2.02 1.16-4.32 1.54-6.62 1.61-.2.3-.61.89-.81 1.19-4.17.41-7.9 2.55-12.08 2.88-1.64.1-3.14.8-4.42 1.81-5.96.73-11.7 2.58-17.64 3.38-3.04 1.51-6.41 1.93-9.76 2.07-4.26.03-8.26 1.71-12.51 1.74-1.72.69-3.59.71-5.41.83-5.96 1.97-12.39 1.37-18.45 2.93-1.38-.04-2.75-.03-4.11.01-5.1 1.73-10.59.23-15.78 1.42-3.21.8-6.55.47-9.82.52-4.06-.13-8.08.64-12.13.48-.28.07-.83.22-1.11.3-1.96-.72-3.88.71-5.85.69-10.97.3-21.94.47-32.92.45a9.06 9.06 0 0 1-3.83-.88c.26-5.27-.55-10.51-.36-15.78-1.14-3.48-.35-7.21-.62-10.79-.68-1.1-1.12-2.32-.97-3.61.01-7.1 0-14.19.03-21.29zM302.804 867.359c2.35-1.2 4.71-2.4 7.13-3.46.44 2.21-.5 4.19-1.42 6.14-.05 3.35-.39 6.69-.54 10.05-.23.38-.7 1.14-.93 1.52-.15 1.81-.42 3.64-.7 5.47-1.57.83-3.1 1.73-4.68 2.54-8.36 4.45-17.16 8.27-26.2 11.15-5.38 1.86-10.66 4.18-16.33 5.05-3.2 1.7-6.85 2.31-10.43 2.54-1.98 1.46-4.53 1.41-6.83 1.9-3.73.5-7.22 2.12-11.04 2.08-6.1 2.67-12.97 1.66-19.22 3.65-5.02.44-10.12.56-15.02 1.82-.35-.01-1.03-.02-1.37-.03-1.08.12-2.15-.02-3.16-.36-2.59 1.8-5.87 1.32-8.84 1.39-24.52 1.51-49.23 1.14-73.8.46-.17-.67-.51-2-.67-2.67.08-1.34.07-2.69.09-3.99-.26-.41-.78-1.21-1.04-1.61.52-6.42-1.61-12.81-.23-19.16 5.83.49 11.77-.07 17.53.94 4.43-.48 8.87.23 13.31-.12 2.67-.46 4.99 1.39 7.67 1.14 7-.02 14.02.14 21.02-.14.41-.29 1.23-.87 1.63-1.15 12.79.72 25.63-.64 38.4-1.56 1.95-.08 4.05.13 5.77-1.02 4.62-.21 9.16-1.22 13.79-1.45 1.66-1.13 3.69-1.13 5.62-1.36 6.54-.53 12.88-2.37 19.35-3.41 2.51-1.58 5.77-.99 8.22-2.67 3.49-.92 7.12-1.19 10.61-2.14 4.75-1.44 9.24-3.78 14.26-4.22 3-2.33 6.76-3.37 10.38-4.31 2.54-1.04 5-2.31 7.67-3.01zM296.104 916.599c1.66-1.67 3.97-2.15 6.17-2.71-.82 4.22-.16 8.77-1.77 12.78.2.29.6.86.8 1.15-.38.45-1.15 1.34-1.53 1.78l1.7.61c-.35.39-1.05 1.16-1.4 1.54-.42 4.14-.96 8.29-1.42 12.44-.24.39-.73 1.16-.98 1.55.22 1.74.29 3.5.44 5.28-.61.13-1.83.39-2.45.53-3.14 1.57-6.75 1.59-9.96 2.96-3.41 1.64-7.23 1.86-10.85 2.79-6.85 2.12-14.05 3.35-21.17 4.36-4.78 1.38-9.84 1.3-14.63 2.64-7.06 1.84-14.47.79-21.55 2.4-7.08.71-14.19.55-21.3.55-14.1.46-28.01-2.31-41.87-4.4-4.46-1.86-9.26-2.5-13.93-3.51-4.04-2.12-8.97-2.41-12.62-5.04a55.47 55.47 0 0 0-3.17-.86c-1.7-2.06-4.65-1.94-6.88-3.09-2.53-1.35-4.57-3.44-7.25-4.49-.23-2.69-.55-5.39-.58-8.07 5.09-.31 10.12.65 15.17 1.06 4.47-.68 8.98.28 13.46-.26.45.26 1.36.78 1.82 1.04 12.95-.21 25.91-.06 38.87-.02 2 .01 3.87-.91 5.87-.88 7.4-.11 14.72-1.3 22.11-1.5 1.97-.03 4.08-.1 5.71-1.37.16.17.48.49.64.65 5.26-1.08 10.73-1.45 16.12-1.79 4.81-1.82 10.1-1.63 15.04-2.99 3.93-1.35 8.56-.75 12.09-3.01 3.21-.55 6.33-1.5 9.54-2.07 3.01-.24 5.15-3.05 8.32-2.48 2.9-1.4 6.06-2.04 9.08-3.11.98-.27 1.98-.5 2.98-.7 2.83-1.87 6.03-3.22 9.38-3.76z"/><path d="M248.884 972.849c7.16-.2 13.22-4.4 19.56-7.17-.76 2.98-2.98 5.32-3.82 8.25-.32.28-.96.85-1.29 1.13-.59 1.43-1.29 2.82-2 4.21-2.9 3.82-4.55 8.38-7.11 12.42-3.35 5.17-5.99 10.82-9.48 15.86-.74 1.67-1.45 3.36-2.17 5.06-4.17 5.74-7.56 12.08-10.74 18.44-1.76.55-3.66.98-5.03 2.31-5.42 1.46-11.05.81-16.59.94-9.97-.06-19.95.13-29.92-.1-3.02.42-4.93-2.72-7.99-2.13-3.06-3.74-3.84-8.73-6.15-12.89-1.75-5.12-4.56-9.79-6.36-14.87-1.13-2.24-1.92-4.6-2.39-7.03-.29-.04-.87-.12-1.15-.15-1.69-6.94-5.99-12.97-7.63-19.95-.36-.2-1.08-.61-1.44-.81-.22-3.26-1.87-6.05-3.25-8.89 3.26.88 6.14 2.68 9.09 4.27 2.41.76 5.06.83 7.25 2.24 2.59 1.65 6.38.09 8.51 2.59 2.34-.37 4.6.43 6.83 1.09 15.73 2.65 31.79 2.02 47.66 1.08 2.85.01 5.61-.72 8.37-1.36 2.76-1.33 6.13.21 8.68-1.72 2.92-.4 5.79-1.07 8.68-1.64l-.12-1.18zM1989.974 1053.959c-.34-6.65 7.94-10.13 13.51-8.25 3.23 4.39 3.64 10.07 2.63 15.28-6.58 24.54-11.17 49.57-15.25 74.63-2.3 8.98-.72 18.25-1.86 27.34-2.91 4.49-8.71 5.71-13.64 4.58-4.1-2.92-7.25-7.17-9-11.87-1.95-4.97-5.86-8.75-8.82-13.08-14.47-18.72-26.89-38.92-38.26-59.64-4.86 16.38-7.21 33.4-9.81 50.26-.83 7.26-2.8 14.44-2.48 21.8-.04 4.17.52 8.96-2.33 12.43-1.94 2.97-5.67 6.07-9.36 4.21-3.56-1.17-4.2-5.38-4.33-8.61-.89-9.89 2.96-19.25 4.91-28.77 4.53-20 8.49-40.15 11.49-60.44 1.25-5.95-.37-12.16 1.71-17.97 2.49-3.21 6.7-5.17 10.73-3.74 3.9.74 4.88 5.1 5.63 8.38 4.43 19.53 15.85 36.32 26.45 52.96 7.42 10.86 15.02 21.64 23.65 31.6 5.77-24 10.05-48.34 13.14-72.82.84-6.07.68-12.2 1.29-18.28zM2088.064 1046.769c8.49-.33 17.16-.2 25.28 2.66 9.1 3.56 17.9 8.93 23.62 17.02 3.72 5.03 4.74 11.48 5.06 17.58-.12 5.14.45 10.38-.84 15.44-4.39 19.7-16.59 36.87-31.6 50-5.51 5.27-11.68 9.9-18.31 13.67-11.86 6.62-25.85 8.53-39.24 7.47-11.01-1.81-19.2-10.88-24.35-20.23-4.72-8.23-5.67-18.02-4.33-27.26 1.74-12 6.34-23.37 11.94-34.04 8.83-16.39 21.94-31.21 39.22-38.84 4.35-1.64 8.86-3.14 13.55-3.47zm-1.11 12.42c-11.49 2.58-20.45 11.05-27.67 19.89-12.63 15.66-22.82 35.08-21.24 55.76 1.02 9.41 7.49 18.13 16.45 21.38 3.79 1.59 7.97.9 11.98.98 14.42-1.28 27.61-9.11 37.35-19.57 14.77-14.22 25.34-34.61 22.79-55.55-.17-5.75-3.08-11.2-7.58-14.72-8.96-7.06-20.9-9.67-32.08-8.17zM501.514 1063.979c35.59-3.17 71.13-6.92 106.72-10.19 5.14-.81 10.39 1.7 13.12 6.11 2.27 2.77 1.56 6.51 1.67 9.82-2.17 4.3-5.66 8.72-10.8 9.24-13.35 1.43-26.75 2.48-40.09 4 87.64 40.16 175.17 80.61 262.74 120.93 3.72 1 7.58-.1 11.37-.06 325.72-19.13 651.44-38.18 977.18-57.29 2.93-.46 5.92-.28 8.9-.28.96 8.25.82 16.57 1.8 24.83-10.26 1.25-20.64 1.27-30.94 2.12-317.28 18.58-634.56 37.25-951.86 55.86-8.33.28-16.63 1.32-24.98 1.15l.16-2.28c-88.24-40.65-176.53-81.18-264.73-121.93 5.4 8.58 11.6 16.65 17.28 25.07 2.31 3.34 4.96 6.53 6.68 10.26 2.21 5.6-.38 12.84-5.87 15.51-3.78 2.2-8.61 1.81-12.41-.11-3.88-2.84-6.35-7.07-9.06-10.94-13.59-19.38-27.15-38.79-40.75-58.17-5.27-7.96-11.32-15.42-16.13-23.65z"/></svg>