<svg xmlns="http://www.w3.org/2000/svg" viewBox="0 0 240 240" fill="none" stroke-width="4"><path stroke="#aaa" d="M102.597 72.131c17.622-12.51 31.352-30.51 43.15-42.876m-44.665 45.416c12.305-12.317 23.26-24.387 45.498-47.101m-38.044 52.464c14.961-19.434 26.727-37.72 40.193-52.58m-40.497 50.977c14.245-18.893 29.81-38.49 38.004-49.596m-35.36 47.919c9.608-11.633 17.865-22.931 48.21-50.71m-47.778 50.367c11.43-12.962 23.126-24.888 50.333-51.421M115.72 82.252c17.627-20.378 31.403-40.872 44.007-55.919m-42.776 55.18c12.325-16.754 24.714-34.199 44.68-56.222m-34.034 42.486c14.996-17.246 33.444-32.198 42.378-40.789M127.497 69.83C138.6 56.437 152.303 42.82 170.354 24.6m-38.255 48.214c14.795-15.252 25.117-32.101 38.641-47.575m-36.812 48.564c8.067-11.504 16.918-23.02 36.237-47.83m-12.446 17.58c6.954-2.269 11.058-4.386 24.207-17.023m-22.85 18.585c6.486-5.142 11.967-10.882 21.767-18.733m-15.314 24.934c4.35-7.632 4.26-11.137 16.192-25.318m-17.048 24.095c4.832-7.041 7.527-11.414 15.708-23.023M95.466 131.657c6.286-5.887 10.48-8.703 14.055-12.65M94.6 131.29c5.442-4.758 9.799-8.123 15.384-12.286m-7.227 17.663c1.328-3.806 3.472-7.433 8.18-18.12m-9.99 16.676c2.907-5.34 6.982-10.89 9.096-15.334m58.316-75.788c8.751-5.407 11.997-9.305 18.623-12.103M170.13 44.134c5.571-4.292 11.13-8.925 17.45-13.41m-10.972 17.664c1.078-4.008 4.713-12.719 9.21-19.626m-9.684 21.53c2.613-3.609 5.053-8.909 10.36-19.657M100.222 136.64c4.483-4.482 6.736-3.894 16.607-14.674m-16.125 14.842c5.917-4.939 11.134-9.604 16.81-13.767m-12.582 19.822c4.584-9.084 8.245-17.526 12.385-18.649m-10.66 17.612c4.145-7.311 7.734-13.526 11.475-19.071m56.815-72.368c4.907-4.011 11.441-10.043 18.75-13.794m-17.234 12.132c4.651-2.92 10.805-7.66 18.532-13.218m-12.858 20.5c2.321-7.752 8.258-17.398 10.955-20.304m-11.104 18.84c4.04-4.686 6.47-9.97 12.721-20.622m-87.388 106.304c4.631-2.802 9.331-6.108 18.21-14.363m-19.005 15.799c6.218-4.726 11.533-10.588 19.079-14.795m-14.967 19.442c5.645-3.6 6.952-8.058 14.452-18.488m-12.685 18.777c4.688-5.286 6.425-10.73 12.166-19.45m57.22-74.915c5.806-.733 13.334-7.873 16.787-11.922M183.36 53.802c4.488-4.015 7.297-7.33 16.771-13.61M189.78 58.939c4.194-7.746 5.5-11.487 12.313-16.992m-13.106 17.31c3.123-4.007 5.432-8.67 11.098-18.542m-85.343 106.54c8.165-8.623 11.327-11.648 18.828-17.185m-18.994 14.391c5.967-4.162 12.853-10.817 18.815-15.636m-12.651 20.498c4.615-8.711 9.045-17.09 13.889-19.532m-14.097 20.264c2.965-5.104 6.557-9.988 13.037-21.78m51.9-64.484c7.642-8.153 13.81-11.26 17.647-18.886m-18.003 16.941c6.135-3.55 11.058-7.414 18.882-14.115m-12.05 20.063c3.607-4.83 5.301-9.104 14.52-22.758M192.79 67.508c4.3-8.21 7.887-15.867 12.96-21.026m-81.985 99.705c10.708-10.544 21.506-17.441 27.861-25.849m-28.392 26.5c10.69-9.7 20.401-18.94 28.784-27.577m-24.602 35.112c9.92-12.524 15.078-21.223 23.553-34.689M129.29 153.7c4.766-8.623 9.005-15.763 22.37-32.725m36.372-45.52c6.306-7.39 11.06-12.889 20.665-19.075m-21.577 17.9c6.38-7.074 12.96-11.228 22.486-19.585m-17.82 24.463c4.452-9.41 11.996-16.108 15.247-26.22m-14.523 26.67c3.836-6.537 9.08-12.95 17.384-24.468m-76.964 93.94c21.085-23.473 45.051-48.99 76.739-84.608m-77 85.125c32.108-34.284 62.232-68.039 79.644-86.177m-75.723 89.783c22.282-25.251 45.368-51.292 74.375-91.098m-73.07 91.381c19.606-23.532 41.178-49.114 74.256-89.528m-68.892 81.056c25.297-23.777 50.99-53.313 70.646-72.302m-68.539 73.336c26.013-27.342 52.537-55.844 68.594-71.36m-62.867 77.5c13.987-20.618 29.051-37.849 60.834-76.24m-60.483 76.158c12.51-16.888 26.68-34.273 60.705-78.332m-42.705 57.443c12.467-15.885 26.288-26.174 35.97-37.144m-34.93 35.911c8.155-8.699 17.761-17.155 35.215-35.672m-30.99 42.294c11.156-15.393 19.917-28.74 33.484-41.855m-30.962 39.77c10.713-14.288 20.365-28.967 29.597-40.756"/><path stroke="#000" d="M156.56 24.64c-6.496.297-15.348 3.24-20.181 8.946m19.281-9.435c-7.683 3.157-14.316 6.618-20.326 10.368m1.146-.999c-4.068 3.53-39.306 39.05-44.211 42.062m44.676-43.488c-5.672 4.987-40.766 41.633-40.65 42.132m-2.113 1.82c-.5.794-.965 1.54-.865 1.52m.831-1.485c-.33.581-.71 1.195-.952 1.694m.06-.135c.52-.071.988.047 1.578-.15m-1.663.317c.374-.203.757-.27 1.79-.38m-.081.013c7.87-1.189 12.897-.952 20.53-.124m-20.852 2.012c8.407-2.063 12.757-2.087 20.481-2.858m2.426 2.432c.682-.307 1.159-.265 3.588.706m-3.772-.78c.947.202 2.456.518 3.67.609m-.12.411c4.794-7.15 9.984-12.145 14.336-15.388m-13.88 14.833c4.41-3.166 8.14-8.378 15.052-13.748m-.419-.665c11.424-14.704 14.846-13.134 16.32-18.121m-14.885 18.8c12.65-14.05 14.43-14.084 17.48-16.997m-.915.078c11.351-4.489 18.415-4.801 26.91 5.033m-28.905-3.945c13.614-7.02 23.759-1.975 29.507 5.17M182 53.28c5.033 7.04 8.74 12.212 8.772 19.502m-9.288-19.752c4.804 3.963 8.806 12.33 10.545 17.165m-1.549 1.965c1.396 4.202-1.009 9.692-4.342 12.951m5.257-14.904c.584 6.02-3.445 11.302-2.26 15.777m-2.255-.544c-2.454-.632-10.458 11.27-22.003 20.145m21.687-21.145c1.215 2.547-10.242 13.7-21.297 20.42m1.293 1.62c-16.179 18.486-17.34 19.578-24.12 21.258m25.728-22.432c-19.251 20.294-20.787 20.043-21.9 21.881m-2.028-.387c-6.93 4.504-9.737 1.673-19.114-.53m18.599-.317c-3.408 3.268-10.303 4.468-16.787 1.45m-.218.597c-3.227-2.832-7.486-4.038-7.78-6.417m7.69 5.637c-1.306 1.272-7.04-.586-11.143-5.988m2.033 1.728c-2.9-2.992-7.072-6.556-13.498-2.168m13.808 1.084c-6.567-4.566-9.301-1.793-13.382-3.05m1.472.214c-4.953.545-6.514 5.36-7.158 9.018m6.769-10.401c-5.332.077-7.51 7.966-8.478 8.354m.627 1.269c.258 2.712-1.577 8.965 5.015 11.803m-3.86-13.57c-1.645 6.458-2.116 7.593 4.498 12.037m-1.093 1.49c10.719 10.406 24.928 13.646 38.39 11.758m-36.885-12.474c7.636 8.854 21.56 13.06 34.17 14.321m.885-1.605c8.075.839 16.124-2.717 24.582-10.29m-22.873 10.787c6.731-2.72 17.097-6.61 19.643-12.062m2.008 2.285c5.395-4.105 38.496-37.975 42.126-41.897m-40.432 41.315c4.501-2.3 39.452-37.333 39.854-41.914m.772-.304c3.988-5.038 6.343-11.366 8.273-16.498m-9.927 14.776c5.9-4.707 8.257-10.218 8.257-14.923m.357 1.045c.179-6.769 1.513-15.882.962-22.76m-2.368 23.926c3.643-7.758 5.098-20.171 2.546-21.966m-1.22-1.84c-4.725-16.199-15.943-29.922-32.636-34.904m30.91 35.147c-.495-13.913-13.48-27.33-30.096-35.01m-.098.527c-6.272-2.966-17.133-4.93-21.518-.364m21.567.437c-8.01-3.932-14.543-4.342-24.971-.049m2.042-1.864"/><path stroke="#777" d="M21.502 153.543c15.702-10.883 24.786-23.19 63.402-60.703m-62.377 62.486c22.965-25.52 47.059-48.583 60.203-63.934m-55.049 70.6c15.205-18.723 31.463-38.208 55.884-70.591m-53.842 69.238c11.443-15.348 22.298-29.31 54.168-68.623m-59.922 77.62c26.11-32.102 55.506-59.81 74.023-84.066m-75.448 81.824c24.345-25.743 48.629-52.187 74.928-81.45m-71.088 87.768c29.109-32.202 56.612-66.839 73.473-87.774m-70.732 86.835c22.731-26.874 44.437-54.671 68.4-85.39m-74.93 89.965c9.87-5.738 15.3-11.65 25.162-21.124m-22.665 21.88c4.96-5.914 10.077-9.473 24.277-22.268m-16.975 28.84c1.045-8.006 8.2-17.358 17.95-27.643m-18.95 26.056c3.539-7.838 9.272-16.104 17.794-27.096m8.814-16.956c13.002-16.146 27.905-28.048 49.432-49.928m-48.656 49.056c11.388-11.806 24.163-24.398 49.076-51.59m-44.305 57.12c11.45-13.495 21.407-26.97 42.851-55.324m-41.59 56.203c14.3-19.514 29.294-39.575 43.2-57.355m-78.315 98.945c.491-2.528 7.088-8.537 16.692-15.643M28.35 185c4.562-4.612 9.828-8.063 18.314-16.33M34.69 190.548c3.538-7.368 7.448-13.248 14.556-19.251M34.21 190.759c4.238-5.935 7.217-13.8 12.132-22.06m50.366-63.33c4.272-4.456 13.187-10.276 22.218-15.767m-22.095 16.4c5.419-3.288 10.696-9.063 21.579-17.72m-17.44 22.77c7.073-4.732 9.71-14.389 16.322-22.858M102.694 111.1c6.619-7.775 11.284-17.675 15.147-23.067M34.09 193.787c4.703-6.008 9.64-10.886 17.356-14.48M32.313 193.33c7.583-5.855 13.05-10.802 17.42-16.36m-12.978 19.712c8.224-7.395 13.341-15.66 15.741-20.549m-13.648 21.774c1.825-4.249 5.493-8.91 12.016-19.95m54.115-68.622c5.155-5.568 9.593-7.834 21.563-17.441m-20.759 16.343c6.132-5.111 11.921-9.478 19.004-16.296m-12.75 22.57c4.757-6.379 9.204-13.23 12.282-24.018m-11.596 21.38c3.294-4.857 7.865-10.808 12.724-19.718M37.013 200.32c6.573-5.043 10.654-12.576 17.347-15.134M38.16 198.473c5.246-2.88 9.048-7.304 17.293-13.652m-11.192 18.713c4.306-7.497 8.442-15.263 12.528-19.875m-12.996 19.542c5.261-6.713 9.324-13.651 11.645-19.62m59.755-75.009c5.49-2.918 10.067-5.958 18.415-10.569m-19.205 12.674c4.165-3.26 8.861-7.851 18.31-14.183m-11.796 18.732c2.264-4.445 5.653-7.839 10.274-20.157m-10.03 19.575c3.451-5.417 5.653-10.951 10.641-18.533M45.717 202.93c7.728-3.53 11.294-11.286 14.623-12.633m-16.465 12.93c6.31-5.258 12.321-10.382 17.467-13.92m-11.873 19.57c4.575-7.31 5.725-9.275 13.399-18.66m-11.903 17.695c3.097-5.33 6.836-11.494 10.743-19.234m58.151-73.596c5.057-2.253 11.313-7.214 17.945-13.365m-15.501 13.935c2.881-3.91 6.679-6.91 15.869-13.81m-10.877 18.924c3.374-7.434 8.684-12.433 8.258-20.304m-8.18 19.127c2.092-3.896 4.372-7.725 9.344-16.964M53.971 204.89c2.913-4.178 11.291-10.652 19.087-13.395m-21.75 15.603c7.952-6.817 16.359-12.833 20.13-16.218M59.59 210.734c-.275-2.96 2.735-5.842 11.783-21.236m-14.31 23.408c5.486-9.07 10.224-14.607 13.804-23.063m-11.275 19.646c5.287-5.7 10.21-10.879 22.675-23.007m-21.992 23.716c9.661-8.122 18.155-15.837 23.32-22.805m-16.57 28.475c3.195-11.743 10.921-18.234 16.66-29.2M65.297 214.1c7.499-10.243 14.388-20.689 18.358-26.113m-14.98 22.231c14.52-12.822 26.247-28.613 53.214-53.134M71.305 210.02c14.544-15.782 29.644-32.648 49.158-52.091m-45.618 56.936c15.512-15.635 28.793-32.583 44.784-57.782m-42.616 58.462c9.193-11.435 18.335-24.171 44.498-57.112M82.129 206.53c11.606-10.236 25.025-22.888 47.946-44.263m-47.063 46.995c18.075-20.432 35.598-38.102 45.951-48.801m-38.665 53.314c8.889-15.19 16.962-28.647 38.018-51.675M89.15 214.088c9.553-13.555 18.827-25.217 39.97-54.57m-23.37 35.192c10.017-13.062 24.661-26.417 33.865-33.733m-34.942 34.64c10.7-12.227 23.786-23.692 35.428-36.654m-30.35 41.434c9.002-10.846 18.575-26.85 31.466-41.925m-30.851 42.735c8.867-11.944 16.144-23.64 31.12-41.547"/><path stroke="#000" d="M96.88 86c-6.603 2.247-14.526 2.886-20.788 6.364m20.282-7.41c-4.305 3.478-12.254 3.33-19.023 10.63M76.48 94c-5.56 3.492-39.352 39.22-43.7 40.617M78.03 94.81c-5.958 2.681-42.614 36.688-45.206 40.051m.857 1.62c-11.16 15.51-12.876 33.385-4.164 50.917m2.657-49.657c-7.43 14.443-12.245 33.233-1.736 47.162m-1.157 1.338c4.486 12.133 16.808 23.255 29.312 25.568M30.538 185.98c4.232 12.627 16.667 21.738 29.589 26.53m.273-1.071c4.864 3.049 18.39 3.272 22.645 1.602m-22.597-1.334c7.153-.394 15.359-.278 24.996-1.097m-2.084 1.069c5.086-.86 9.53-2.827 13.876-6.476m-14.361 4.955c7.252.5 13.262-1.964 15.284-3.81m.801-1.629c7.411-2.929 45.217-45.515 43.691-46.456m-42.058 45.275c4.604-3.37 45.218-43.478 42.688-46.17m.319 2.231c-1.28-.58-.794 1.892-6.457-1.069m5.647-.546c2.413 3.64-1.115 1.574-5.982.777m2.072 1.158c-6.824 1.437-13.186-.755-18.07.396m19.364-1.952c-8.484 3.728-12.761.35-22.022.76m1.872-1.124c-.716-.287-2.318-.607-3.628-.399m3.507.868c-.86-.33-1.72-.678-3.667-1.364m.944.37c-5.087 2.937-12.053 10.05-14.874 12.732m13.223-13.932c-2.951 5.342-6.09 7.524-14.47 16.463m.461-.978c-7.527 7.169-15.612 16.578-17.286 15.57m15.949-16.105c-4.793 8.557-14.627 15.322-15.956 15.869m.413.506c-3.01 1.074-6.15 4.289-10.99 2.324m9.888-4.05c-1.222 4.138-6.406 3.6-11.62 2.746m.162 2.02c-8.27.13-12.627-1.702-17.432-9.967m15.54 9.63c-5.098-.955-11.97-2.968-17.314-9.312m.566 1.089c-5.894-9.957-8.23-16.982-3.43-29.767m2.426 28.311c-8.658-6.627-10.07-16.258-5.877-28.8M48.8 154c1.025-2.366 4.938-3.14 20.38-23.297m-21.767 21.645c2.745-2.985 3.509-1.902 20.61-20.508m1.257-.08c18.44-17.82 18.724-20.498 20.56-19.471m-22.557 21.407c18.177-17.702 20.698-20.35 25.383-21.935m-1.066-.801c6.277-2.888 14.932-3.504 21.21-3.007m-21.063 4.718c6.07-5.892 11.005-4.436 17.988-5.119m1.145 1.648c3.726 2.875 4.896 1.683 8.091 6.282m-7.873-5.933c1.878-.435 4.386 3.857 6.732 5.77m1.53-1.239c4.825 3.675 7.148 6.331 10.263 4.88m-12.121-6.08c6.7 5.933 9.866 6.069 12.173 3.472M130.96 118c5.506.236 8.59-3.885 6.298-8.192m-7.35 7.789c4.945-1.935 7.069-4.18 9.028-8.44m.264.603c1.059-5.752-1.795-7.696-4.11-12.943m6.032 14.31c-2.708-6.194-.884-11.17-7.474-13.115m.992-.012c-1.849-4.026-7.894-4.84-12.427-7.136m12.483 8.422c-2.516-5.977-10.437-8.403-10.528-11.976m-2.088 2.29c-8.19-1.546-19.529-4.327-24.346-3.915m24.111 5.87c-5.268-7.288-18.315-8.034-27.069-6.92M96.88 86"/></svg>