<svg xmlns="http://www.w3.org/2000/svg" viewBox="0 0 240 240"><g fill="none" stroke-width="4"><path stroke="#ffbe1a" d="M13.453 104.071c5.042-3.544 9.864-8.959 21.903-16.038M13.651 106.17c5.226-4.29 9.705-10.19 20.55-18.809M20.72 110.155c3.742-4.292 6.397-11.845 15.385-23.722M19.92 110.687c3.1-5.785 7.495-12.389 14.139-22.433m-21.83 28.02c15.401-15.248 32.504-32.128 54.044-51.406m-52.508 52.186c9.809-9.622 21.613-20.742 52.775-53.56M19.89 124.143c9.888-16.976 22.007-32.264 44.674-61.803m-44.032 61.517c9.999-15.145 20.348-27.874 45.13-60.545M14.59 130.605c15.154-14.297 28.767-29.254 69.563-74.508m-70.756 73.578c27.027-28.471 55.496-56.625 69.337-73.97m-61.89 79.748C33.934 117.799 52 98.646 85.646 56.893m-65.894 78.182c24.665-29.322 47.4-58.99 64.321-79.93m-69.367 89.33c23.577-28.374 45.759-56.384 88.635-97.087m-89.307 94.426c28.358-29.18 55.894-59.886 86.683-93.874m-80.431 99.716c25.033-29.817 50.842-64.637 80.25-100.755M19.123 147.18a11700.3 11700.3 0 0 1 82.47-99.012M13.69 156.027c27.166-34.413 56.551-62.948 108.063-117.48M12.798 155.198c22.46-23.995 44.638-48.039 107.94-118.05M21.41 159.158c25.955-32.925 49.623-64.412 99.578-121.797M19.573 159.488c25.233-28.941 48.94-60.359 101.491-122.242M11.878 167.756C56.531 121.79 99.14 76.138 133.667 37.233M12.983 167.373c43.042-46.148 83.469-90.32 118.59-129.889M19.007 171.794c27.973-32.307 55.122-64.22 111.883-135.075M19.357 171.173c30.6-35.429 60.183-71.578 112.817-134.686M19.283 170.645c22.782-23.724 46.712-51.37 89.909-93.188m-88.818 94.482c33.057-37.723 69.139-75.98 86.259-93.744M24.655 179.14c31.023-41.3 61.538-79.553 82.536-101.418m-80.834 99.934c20.962-25.348 40.598-52.28 80.4-100.348m-2.023-4.999c13.833-10.907 25.857-23.497 33.554-29.436m-32.517 29.592c8.542-7.638 18.93-17.69 32.73-30.404m-25.354 34.548c8.53-13.045 17.182-24.187 27.28-34.567m-27.859 36.119c7.947-11.53 15.908-22.725 25.371-37.415M26.141 174.672c28.923-28.557 53.962-56.696 89.818-95.112m-88.927 97.056c18.592-21.463 37.71-40.946 88.67-95.5m-83.197 99.329c23.178-26.837 45.808-54.913 81.888-99.327m-81.128 100.61c17.347-24.833 37.062-47.164 81.106-101.99m12.603-17.693c1.896-1.789 8.38-3.903 14.674-9.087m-16.595 9.977c4.251-2.603 7.847-6.667 15.492-11.402M129.642 68.46c2.248-5.544 5.042-6.9 11.686-17.053m-10.822 16.571c4.745-6.076 6.67-11.673 9.22-15.8M35.583 177.237C62.005 152.05 88.96 122.81 127.11 81.54m-93.027 97.914c30.292-33.384 59.026-64.85 91.456-99.18M42.715 185.819c26.346-34.673 52.065-69.825 84.298-107.383M40.443 183.65c34.68-40.034 67.432-80.873 85.8-103.859M41.7 183.39c22.767-29.617 46.97-55.192 96.213-103.713m-95.19 101.3c37.491-38.036 71.845-77.228 92.858-101.512M49.254 187.353c22.629-25.58 41.527-53.175 88.04-105.944m-88.7 104.63c24.691-27.136 46.635-55.991 87.517-105.81M50.728 184.176c40.317-38.448 76.946-80.25 96.889-103.796M51.903 184.312c28.518-30.574 57.181-60.345 94.346-103.35M55.453 188.196c33.872-38.863 68.464-77.99 91.445-107.427M57.85 190.07c32.362-39.108 63.974-78.514 88.775-108.478M59.707 186.937c36.64-35.698 69.066-74.678 98.848-107.7M60.227 186.253c21.154-22.045 43.757-45.718 96.19-104.447M63.694 190.878c23.256-25.058 47.363-51.074 95.359-110.26M64.933 192.14C94.548 156.603 124.2 120.6 157.698 80.28M68.702 190.67c30.855-35.838 58.673-68.078 97.886-110.184M67.947 189.892c28.427-30.904 55.624-62.686 100.351-109.011M74.031 194.51c26.592-30.073 53.268-62.1 92.29-114.725M74.166 194.877c27.96-32.294 54.283-64.376 93.303-114.132M78.281 192.253c24.192-33.094 54.948-64.4 101.946-109.464M76.175 191.276c23.463-23.593 46.346-49.55 101.2-109.7M83.1 195.443c21.994-25.868 43.478-54.159 95.365-115.193M82.209 196.949c23.46-27.238 45.15-55.259 97.019-115.448M86.58 191.422c30.944-33.922 65.655-69.584 103.634-111.702M87.035 192.374c38.495-43.319 76.883-84.923 101.715-112.257M94.28 196.743c19.524-26.293 43.429-55.366 95.859-114.878M93.182 197.319c26.395-32.173 52.534-64.776 94.825-115.988M95.91 190.434c32.801-28.619 61.87-60.9 76.648-78.425m-75.616 79.304c16.563-16.041 33.572-33.878 77.108-81.087m-70.483 87.383a6140.682 6140.682 0 0 0 72.325-88.85m-71.393 88.157c23.366-29.97 47.462-59.83 68.85-87.044m-2.163-5.299c5.921-2.168 10.5-7.89 28.671-24.804M172.86 105.42c6.102-7.15 15.178-13.92 27.744-23.968m-23.794 28.427c10.022-8.946 18.704-23.126 24.63-29.613m-22.156 31.352c5.007-7.091 8.868-14.66 20.198-30.596m-90.198 112.489c12.038-18.35 29.472-31.583 65.294-72.107m-66.458 70.771c16.464-17.675 33.872-35.525 65.812-69.18m-60.649 73.03c16.573-15.394 28.643-33.838 59.46-74.528m-57.935 76.185c12.913-18.844 28.087-38.035 57.846-75.384m9.624-15.969c5.567-4.817 12.463-10.03 25.386-25.62m-24.871 25.293c9.979-8.212 18.685-15.997 27.337-24.994m-20.56 30.515c5.143-8.873 14.266-21.763 19.478-31.637m-20.275 31.018c5.182-7.266 11.096-15.364 21.154-29.738m-91.678 108.21c13.632-13.751 28.538-28.56 47.654-46.28m-46.509 47.56c14.963-14.504 31.178-30.895 45.08-46.461m-38.35 52.87c10.315-12.946 16.688-24.211 37.597-53.96m-38.75 53.924c16.003-20.657 29.489-39.503 39.473-52.745m30.823-39.277c7.586-8.8 18.764-18.013 23.455-21.349m-25.342 22.31c7.789-7.46 15.31-13.553 24.953-23.319m-18.205 28.069c3.8-5.834 6.211-9.065 17.41-27.105m-17.189 27.417c5.778-9.776 13.914-21.946 18.229-27.999M130.985 190.3c4.374-4.95 10.702-12.556 22.96-18.99m-24.86 20.22c5.928-6.263 13.692-11.152 24.975-21.08m-17.576 25.491c3.927-3.093 5.557-9.926 19.16-27.156m-19.706 28.327c4.81-6.833 8.896-11.527 17.684-27.226m51.217-63.995c6.36-5.765 17.28-15.068 19.407-18.595m-20.013 19.172c7.435-5.857 15.185-13.074 20.158-17.401m-15.949 22.386c4.457-8.387 11.74-12.11 15.081-22.744m-12.514 23.322c4.8-10.145 10.962-18.123 13.7-24.36"/><path stroke="#000" d="M94.986 194.706c26.13-1.144 42.952-2.56 46.601-2.091m-45.736 3.895c25.52-2.732 45.572-1.266 48.024-5.823m-.649 1.157c9.61-5.841 10.557-13.306 10.812-17.258m-12.668 18.338c11.842-4.492 11.264-16.27 13.025-17.221m-2.205-1.481c-.77-4.244 3.475-8.45 5.827-11.552m-4.06 12.947c-2.22-4.632-.053-8.864 2.828-10.188m.607-1.989c.869-1.105 3.644-3.036 5.072-8.554m-5.526 6.916c1.043 2.204 4.506-4.297 5.536-6.843m.876 1.029c.636-3.106 3.078-8.386 1.233-12.752m-1.568 11.303c2.562-2.207 4.122-6.358-.392-8.523m1.735-1.602c-2.14-4.546-.217-9.55 2.273-9.847m-2.86 8.02c.317-2.669 1.234-8.16 5.117-11.016m-1.398 1.629c5.487-3.79 9.265-11.714 5.968-21.14m-6.346 23.066c5.227-7.63 9.409-12.374 4.767-23.29m.903.286c-1.548-1.218-.7-5.04.722-5.02m.61 6.63c-.448-1.883.833-5.6 3.442-6.576m-3.454.12c6.701 2.979 17.112 2.242 37.76 1.618m-36.477-.09c7.13-.838 14.143.21 36.178-.471m-.945.387c3.835.02 14.206-5.497 16.333-15.466m-17.146 16.579c6.173-2.994 15.82-4.969 13.835-15.606m1.99-1.329c-1.647-9.497-10.241-11-13.172-13.313m13.783 12.414c-.915-8.25-10.21-12.66-14.784-12.28m-.098-1.098c-26.508-.016-53.948 2.75-103.36 2.25m103.054-.258c-24.396.958-49.89 1.439-101.695-1.1m-.836.839c-1.85-1.57-3.459-3.128-2.452-1.11m2.89 2.504c-2.112-.89-1.378-2.542-2.855-5.074m-.283 1.016c-.995-2.181.865-4.16 2.292-2.998m-2.882 4.389c-1.072-4.264 3.157-3.785 3.128-5.318m.072 1.191c1.151 1.121 3.971.608 13.717-8.866m-12.602 10.038c-1.114.549 1.817-3.181 14.444-6.909m-.205-1.697c12.32-7.301 21.016-13.761 14.334-27.12M123.933 69.43c12.662-10.646 20.854-15.955 14.602-28.319m.515 1.026c-.123-4.864-10.447-6.27-10.625-5.486m12.207 6.143c-1.652-7.841-12.366-7.365-11.236-7.611m-1.704.51c-4.077.398-4.368 1.211-8.658-.08m7.751 1.046c-1.752 1.201-5.26-2.134-7.505-.071m.852.797c-8.906 5.317-19.213 8.713-30.046 13.949m30-15.62c-10.458 6.33-20.968 13.688-29.118 16.202m.22-.257c-9.425 2.376-19.605 7.632-35.083 18.203m34.327-19.337c-7.699 3.57-21.504 11.445-30.778 18.693m-2.108-.909c-3.03-.038-3.183 3.788-5.95 5.142m5.412-4.586c.523 1.752-2.117 4.41-3.496 5.913m-1.96-.997c-7.374 11.452-16.96 18.641-28.714 19.278m28.808-19.284c-6.036 8.61-19.763 17.17-31.572 20.756m1.694-1.265c-.527.01-1.345.075-2.26.22m2.58-.44a7.11 7.11 0 0 1-2.335.534m-.079.091c-2.299.825-2.739.275-4.335 3.057m2.862-1.274c-.053-1.321-1.115 2.548-3.971 4.698m1.462-2.593c.64 25.782-2.012 52.677-.622 70.067m1.278-70.544c-.806 28.379.058 57.222-1.262 72.323m.502.046c-1.955 3.547-.257 2.29 4.91 4.085m-5-4.603c2.105 1.98 2.442 3.703 4.295 4.366m-.929.544c-.24 1.004.541-1.633-1.048 1.464m-.042-1.006c1.2 1.82 3.6-1.822.194.73m1.346-1.008c1.918 1.74 42.566 20.64 74.11 20.554m-74.227-20.165c-.49-.978 43.293 19.42 73.688 20.222m-1.069.391c.401-.111 1.199-.073 3.362-.46m-3.47.084c.626.082 1.266-.056 3.345-.034m-.067.09"/></g><path fill="none" stroke="#000" stroke-width="4" d="M130.708 107.245c15.565 2.804 33.158.03 44.066 1.714m-45.034-.219c11.749.438 25.234-.587 45.734-.417m-50.44 29.038c11.212.012 23.478 1.582 41.275 2.573m-40.945-.29c13.623.193 29.344-.654 40.508-1.35M120.29 167.5c15.366-.087 25.5 3.3 35.11.023m-35.104 2.352c6.853-1.767 15.12-.214 33.762-.732"/></svg>