<svg xmlns="http://www.w3.org/2000/svg" viewBox="0 0 240 240"><g fill="none" stroke-width="4"><path stroke="#00bd5e" d="M23.355 85.278c18.183-19.53 34.09-35.774 52.837-55.475m-52.977 55.33C39.705 67.64 57.418 50.035 75.92 31.077M30.25 91.567c15.19-21.24 26.756-38.866 43.956-60.985M30.585 90.38c16.177-22.397 34.61-45.902 45.56-59.742m-59.32 73.797c30.938-32.229 57.773-63.871 74.59-78.153m-74.046 77.211c21.346-22.276 41.11-44.615 72.45-77.805m-63.884 80.974c12.422-18.137 29.82-36.53 65.608-79.068m-66.767 80.383C41.947 85.864 60.19 63.264 91.22 25.141m-73.053 91.51c15.042-17.615 32.255-38.59 86.433-97.376m-88.265 97.963C36.013 94.673 56.05 74.243 105.19 19.933m-80.1 101.663c25.904-35.675 56.413-71.66 79.792-100.036m-81.535 99.808c22.063-26.416 44.898-53.37 81.805-101.525M19.14 127.181C55.99 84.764 92.21 43.485 116.98 18.465M19.394 127.667c18.75-23.215 39.136-44.304 98.507-107.97m-91.63 113.12c20.03-26.33 38.975-52.811 91.226-112.43M23.78 133.378c35.686-43.075 72.939-86.18 93.533-113.908M20.295 137.46C51.327 103 87.386 65.765 128.043 22.45M19.471 138.644C57.58 95.54 95.646 55.282 125.923 21.702m-98.3 122.703C46.16 119.342 67.346 93.6 124.726 22.37M26.824 143.668c25.792-31.82 51.062-63.113 100.292-121.796M22.612 148.578c36.46-41.14 71.691-76.114 112.328-126.706M23.5 146.034c35.686-40.227 72.775-79.73 112.633-123.451M29.969 151.188C49.742 123.24 74.947 95.965 136.327 21.902M28.048 152.412c41.374-47.721 78.63-94.31 107.94-130.692M26.327 157.207c26.676-31.23 52.412-59.575 121.378-134.21M26.463 156.36C69.27 106.546 115.134 55.695 146.72 24.391M32.003 162.496c37.028-44.32 70.78-89.857 113.529-139.448M31.528 160.839C57.962 128.422 85.15 97.551 145.316 22.65M30.252 163.301c32.109-35.374 64.59-74.329 125.107-135.123M30.457 163.696C74.744 113.289 119.08 61.508 154.607 26.97M35.064 168.46c44.922-55.303 90.862-108.32 118.395-142.764M34.921 168.107c26.624-28.864 52.07-60.754 118.353-141.562m-119.166 142.5c52.135-55.431 100.736-111.42 126.61-139.44M33.568 170.158c35.942-39.429 71.698-78.072 127.582-139.724M38.604 176.499c33.969-37.86 63.703-79.914 121.94-147.984M39.743 175.24c28.14-34.61 55.437-67.382 122.484-145.046M36.717 178.032C68.36 141.79 103.325 109.26 170.05 34.323M37.324 177.966C81.17 129.744 124.535 82.394 169.212 32.76M43.07 185.071c29.433-36.453 63.002-72.246 125.77-149.904M43.932 183.277C93.224 128.02 141.43 69.034 169.92 34.004M43.088 184.368C91.825 131.82 143.835 76.176 174.214 37.908M43.2 184.389c46.572-51.17 93.695-102.649 132.825-147.129M47.757 190.319c37.038-42.83 69.176-87.467 129.389-151.071M48.38 189.738c26.958-31.853 53.584-62.035 126.877-151.408M50.265 191.338C87.72 145.532 127.368 101.73 180.38 44.016M48.986 189.782c41.962-48.51 85.559-95.174 133.452-147.37M54.651 194.787c31.122-34.817 60.34-71.238 126.29-150.34M55.529 195.622c26.17-33.25 50.026-62.057 126.464-151.69M57.082 195.327c33.93-39.1 70.858-83.528 130.14-148.881M54.443 195.056c31.976-35.71 62.385-70.368 133.694-147.041m-127.9 150.772c31.421-33.856 61.122-72.257 128.594-151.32M60.797 201.036c50.897-61.131 100.72-122.524 127.44-153.577M62.211 197.633c36.415-40.514 76.824-79.728 130.706-144.751M61.478 200.099c49.77-53.744 98.808-107.51 132.444-147.466M68.31 205.103c31.2-38.188 61.612-74.834 124.234-152.313M67.752 203.937c39.76-46.603 81.733-95.734 127.15-150.689M66.41 205.948c53.516-54.532 105.053-112.634 133.806-145.383M68.425 204.963c35.185-39.11 69.081-76.255 131.772-146.335M75.065 208.914c37.972-40.795 74.08-84.056 124.036-150.612m-125.79 151.41c26.2-32.67 54.135-64.17 126.932-149.896M77.13 210.03c49.366-55.364 99.71-113.44 128.291-142.61M75.463 208.07c43.858-50.318 88.714-98.572 128.81-141.471M80.807 212.823c31.133-37.225 65.62-74.942 121.191-144.426M81.661 213.71c36.706-45.473 73.651-90.556 121.515-146.851M83.253 211.19c27.536-28.63 52.455-59.76 126.908-138.042M83.438 211.49c50.875-54.177 99.023-109.466 125.725-138.004M87.402 215.682c34.162-35.404 62.893-71.706 122.27-142.619M88.648 216.35c23.512-30.008 48.861-59.25 120.365-142.023M92.407 214.54c41.157-46.236 88.9-97.392 118.213-132.257M91.938 215.036c43.744-48.443 87.835-97.328 120.241-132.812M96.125 217.854c40.047-45.625 79.446-95.87 117.913-136.382M96.553 219.662c29.717-35.488 58.845-70.113 115.91-138.447M102.22 215.428c25.07-26.738 52.917-56.34 113.022-126.978M99.852 216.894c42.074-45.756 84.331-90.633 115.048-127.292m-109.617 131.45c31.088-35.366 60.873-71.58 110.588-131.904M106.964 221.73c23.799-30.855 48.09-60.183 107.97-130.995m-103.5 126.351c27.855-30.697 56.103-59.505 107.446-118.205M109.585 217.484c22.011-24.533 43.67-50.286 108.25-117.26m-103.884 121.49c38.438-40.348 75.007-85.221 104.059-121.879M115.316 223.442c37.073-44.342 71.95-88.276 101.834-124.831m-98.028 117.264c32.372-33.841 65.396-67.718 100.188-107.196m-99.248 108.495c28.057-30.636 56.751-62.467 98.584-107.746m-94.01 113.18c31.759-33.355 57.889-69.508 94.62-113.413m-92.19 112.85c23.691-27.048 46.047-55.458 91.896-112.357M133.075 216.88c30.09-34.151 60.594-69.691 86.552-98.428m-88.431 99.067c36.593-37.874 70.869-75.47 90.02-97.736m-81.7 102.945c14.178-21.916 32.497-42.681 79.941-103.883m-81.876 102.572c23.178-27.416 44.344-53.085 83.917-101.718m-74.236 94.676c19.774-24.228 40.836-46.222 71.01-79.445m-73.342 77.84c16.598-17.637 32.965-35.271 75.543-79.277m-70.443 86.07c25.145-29.704 45.909-59.163 70.039-86.559m-68.07 85.142c23.05-31.75 47.693-60.459 67.81-83.313m-57.778 70.921c18.886-19.401 35.197-35.607 54.211-53.557m-55.622 54.177c20.509-20.627 41.202-40.64 54.627-54.084m-45.968 58.718c15.98-20.878 37.007-48.269 44.052-60.45m-45.62 61.478c11.351-15.116 24.154-31.612 46.149-60.607"/><path stroke="#000" d="M20 120c-.368-78.078 82.992-126.373 151.512-88.211m-152.448 88.28c1.654-79.11 82.504-123.874 150.366-84.474m.57-2.198c29.455 18.854 51.814 52.114 50.31 86.277m-49.85-85.049c28.907 18.862 48.96 51.648 49.68 84.722M220 120c-.426 78.623-81.781 126.873-151.722 87.245m152.438-87.984c.558 77.778-82.197 125.109-148.67 86.413m-2.046.929c-30.5-18.091-48.719-51.716-49.584-84.938m48.968 84.543c-31.545-16.433-48.328-49.802-50.04-85.997"/></g><path fill="#fff" d="M50 100c-.16-22.825 23.308-40.26 48.285-25.575 8.456 5.499 15.16 11.8 14.25 25.62-2.207 21.858-31.007 40.65-46.356 22.383-13.197-3.557-18.568-9.045-12.951-22.433"/><path fill="none" d="M50 100c-.001-21.503 24.99-36.322 45.921-25.463m-44.84 23.902C50.05 78.356 76.914 63.883 93.327 75.522M95 74.019c9.97 6.31 16.063 16.001 13.777 24.866M93.664 72.12c9.766 7.051 17.134 15.81 15.862 26.475M110 100c-.371 21.154-24.106 36.601-45.146 27.349M109.552 99.1c1.043 26.185-25.121 38.081-42.844 25.166M65 125.981c-10.355-6.499-15.78-15.475-13.668-27.664m15.592 25.96c-11.313-2.069-15.75-13.393-17.563-25.741"/><path fill="#fff" d="M130 100c-2.665-20.591 27.568-37.267 42.257-24.84 15.057 7.028 14.815 17.07 19.875 21.296-1.22 29.579-24.431 39.896-48.446 27.046-8.076-3.008-10.15-11.629-11.328-26.86"/><path fill="none" d="M130 100c.08-23.627 23.867-36.885 46.095-25.685m-46.757 24.517c.807-22.396 26.256-37.618 43.973-24.005M175 74.02c7.582 6.293 14.307 15.886 16.677 26.095m-15.794-25.956c8.519 5.471 13.541 14.939 12.035 25.963M190 100c-.348 23.34-26.807 37.431-46.888 26.633m46.209-26.553c2.663 23.936-24.356 38.37-44.063 25.494m-.258.407c-7.531-4.846-14.752-16.469-13.199-27.47m11.274 26.48c-7.438-2.221-10.835-13.464-11.343-22.98"/><g fill="none" stroke-width="4"><path stroke="#222" d="M85.769 111.295c5.753-2.758 7.983-7.601 14.153-15.77M87.29 110.2c3.76-2.928 6.488-7.643 11.99-13.698m-4.846 19.552c4.42-5.123 7.76-10.636 10.115-12.938M94.54 115.58c2.838-3.797 6.324-7.859 10.31-12.459M100.803 112.806c-5.828-6.167-11.267-8.392-12.3-12.14m11.98 11.24c-2.044-1.313-6.4-5.154-12.755-11.503m16.135 5.328c-3.813-2.444-7.235-6.53-11.567-10.863m13.087 10.603c-3-3.433-7.035-6.528-12.182-9.801"/><path stroke="#000" d="M85 105c1.686-7.844 7.475-14.338 14.613-8.719m-15.815 7.222c.617-7.47 8.43-11.771 16.257-9.354M100 96.34c1.654.626 6.243 6.594 6.806 8.918m-6.583-9.908c2.078 4.05 7.02 4.712 4.725 8.663M105 105c-1.551 8.043-7.638 12.193-16.91 8.18m18.413-9.872c-2.646 9.732-7.879 12.01-17.985 8.678M90 113.66c-1.138-.696-3.307-3.284-5.03-8.614m6.02 7.528c-1.842-1.982-7.044-2.013-7.949-7.191"/></g><g fill="none" stroke-width="4"><path stroke="#222" d="M136.346 111.128c3.007-3.797 8.618-7.931 14.82-14.265m-13.498 13.535c1.679-2.808 5.756-6.53 12.499-14.4m-4.708 18.82c2.724-3.942 6.153-6.257 8.625-10.862m-9.122 10.826c1.254-2.542 3.717-5.732 8.735-11.759M149.135 112.986c-3-5.679-9.403-9.239-11.06-13.577m12.02 13.206c-4.33-3.51-7.05-6.923-13.315-12.416m19.024 4.934c-4.638-4.814-9.531-8.647-11.141-9.182m9.355 10.27c-2.183-3.272-4.249-4.897-10.884-9.856"/><path stroke="#000" d="M135 105c-1.87-6.356 6.34-13.344 16.639-7.447m-15.299 8.437c.292-9.983 9.218-12.432 14.058-9.344M150 96.34c4.37.24 6.328 6.43 4.147 8.975m-4.41-9.088c2.455 3.185 5.702 6.994 5.285 9.46M155 105c-1.249 7.415-8.726 10.98-14.308 8.468m13.171-10.446c1.055 9.309-8.11 16.038-12.065 12.553M140 113.66c-4.344-.326-5.789-4.548-5.968-8.312m4.007 9.809c-3.407-3.62-1.045-8.456-3.588-9.98"/></g><path fill="#fff" d="M75 135c-2.717-1.42-3.979-2.952-5.39-7.39.38-2.217 2.086-.71 4.021-.189 18.265-2.375 30.125 5.363 32.064 21.747 5.292-.416 14.632-.733 32.647-2.458-3.01-11.842 13.28-19.32 24.18-19.56 4.655-1.056 12.089 4.56 6.94 8.345 1.98-4.292-5.539-.463-6.413 2.082-16.681.124-20.45 13.873-17.326 23.843 4.495 9.175 9.519 15.01 16.448 10.874 6.294 1.721 8.765 5.01 5.093 9.576 3.448 4.923-3.672 2.68.906-.062-19.032 1.161-26.982-10.28-32.772-18.36-9.456-3.54-18.346-.93-32.002-1.17-2.536 9.49-14.847 25.748-26.745 20.423-1.908 5.848-8.523-4.774-8.026-4.816 5.958-2.112 6.76-4.823 8.92-5.936 10.653 5.534 22.3-16.507 15.68-25.137-7.412-9.304-13.924-11.384-19.108-13.477"/><path fill="none" d="M75 135c-2.27.04-4.316-5.576-4.26-8.527m5.509 8.897c-3.844-2.129-6.977-5.704-6.985-10.058m1.406 2.188c.374-2.82.9-2.588 5.72-1.845m-5.697.867c1.33.508 4.561-3.114 4.136-3.505M75 125c13.291-1.8 26.951 10.918 29.962 25.457m-28.357-24.972c12.178-1.972 25.69 11.13 26.499 23.746m2.482 2.252c11.873-1.267 23.189-2.732 27.987-1.086m-28.959-1.236c9.058 1.526 19.433 1.75 30.344-.084m.442.923c2.142-14.428 14.476-24.561 29.596-26.559m-31.517 27.95c5.359-17.246 17.316-27.282 32.983-27.74M165 125c4.912-1.684 6.059 5.482 4.168 6.913m-5.764-8.05c5.98 1.575 7.787 3.288 6.688 6.978m-.762 1.659c-2.4.261-.664 1.354-2.915 3.19m3.542-3.01c-2.902 1.951-1.695 1.688-5.688.407M165 135c-14.63-.014-23.352 18.23-16.797 28.575m15.674-29.655c-16.213-.44-25.028 17.234-17.205 31.78m1.007-.7c3.58 6.185 11.48 10.563 18.547 11.525m-17.63-10.986c1.745 6.119 10.667 10.19 15.116 11.324M165 175c5.592 1.129 6.883 4.382 5.524 8.29m-6.526-9.928c6.746 3.758 7.176 4.38 3.139 7.188m2.193 1.95c.83 2.19-1.202 4.494-3.507 3.1m5.04-1.561c-2.706-.89-5.741 2.315-5.814.901M165 185c-13.052-1.838-25.825-10.25-29.307-26.532m27.732 25.061c-11.986 2.987-27.74-9.604-29.823-24.271m1.497 1.88c-8.564-1.517-18.133-2.899-30.575.064m31.751-1.804c-12.643.592-24.568.356-31.066-.172m-.609.774c-2.922 16.062-14.262 26.278-31.187 23.813m31.919-25.481c-4.488 16.265-15.81 27.238-31.165 24.976M75 185c-3.787 1.19-6.377-2.414-5.388-5.889m7.097 5.083c-6.923-1.27-7.568-5.356-5.944-8.456m-.095 1.762c2.727-3.512 2.867-1.123 2.526-3.858m-1.725 4.336c-1.062-1.66 2.483-3.935 4.084-.7M75 175c16.335 1.681 24.664-15.736 16.256-30.44M73.94 175.701c16.107-.198 24.787-16.662 19.4-29.45M92.32 145c-3.93-5.909-10.85-8.17-16.522-10.85m17.786 9.016c-5.685-4.691-10.677-8.354-16.91-6.968"/><g fill="none" stroke-width="4"><path stroke="#222" d="M75.007 135.902c1.539-4.185 4.756-5.694 7.304-9.864m-7.902 9.335c2.756-3.81 6.194-6.992 7.435-8.355m.878 9.663c3.883-3.229 5.989-4.88 8.239-7.57m-7.487 7.883c2.146-2.526 5.195-6.026 7.319-8.24m-.853 12.286c1.28-1.555 4.07-4.076 6.297-5.76m-5.772 6.102c1.608-1.331 2.666-3.76 6.035-7.035m-2.845 15.193a38.725 38.725 0 0 0 7.71-8.914m-7.773 8.367c2.297-2.209 4.183-4.329 7.77-7.817M72.674 185.62c1.902-1.885 6.805-6.099 11.671-13.183M74.613 185.2c2.943-4.221 6.256-8.785 9.423-13.094m10.834-12.192c4.376-1.922 5.476-6.562 11.185-11.962m-11.911 13.27c2.936-2.852 5.224-5.4 10.235-12.119m-17.92 34.515c5.653-4.422 9.782-13.643 18.704-19.675m-18.69 19.921c2.844-5.087 7.022-9.476 17.804-20.71m2.046-3.326c1.597-2.41 6.278-6.02 7.165-10.607m-7.116 11.232c2.452-3.566 4.746-5.229 8.635-10.809m2.055 10.895c2.62-3.249 5.069-6.802 6.886-10.818m-7.579 10.405c3.272-3.944 5.977-6.58 8.712-9.315m2.502 7.206c9.132-7.052 16.512-18.955 28.5-32.695m-28.08 34.342c8.905-11.308 19.531-22.577 29.152-33.274m-19.34 34.241c.092-2.26 5.002-6.444 7.553-12.029m-8.867 13c4.31-4.904 7.688-9.345 10.345-11.528m9.685-11.952c3.093-3.63 9.303-9.032 9.872-13.274m-9.212 13.345c3.31-3.082 5.972-6.883 10.084-12.834m-27.117 44.548c2.302-1.9 3.126-6.225 6.02-7.432m-7.213 8.105c2.453-2.012 4.162-4.995 8.052-8.61m-1.636 13.698c.814-1.316 3.46-3.353 6.002-5.926m-6.718 6.657c2.883-2.892 4.788-5.346 6.098-6.603m-.088 11.875c1.961-2.88 3.919-2.944 6.924-7.611m-6.357 7.6c2.688-2.873 5.04-6.284 6.535-8.741m2.147 10.917c.504-2.624 2.483-3.013 7.878-8.54m-8.777 8.598c2.747-2.702 5.752-5.66 8.302-8.266M84.438 182.208c-3.628-2.236-5.595-2.291-11.836-8.635m10.227 9.046c-1.633-1.915-4.906-3.361-9-7.594m17.023 3.405c-1.444-1.841-3.574-3.64-9.103-6.83m8.333 6.57c-1.84-1.438-3.49-3.47-7.542-6.381m14.83 2.188c-2.725-.758-3.921-2.353-8.339-5.693m8.962 6.394c-1.82-1.517-3.956-3.448-7.642-7.289m12.823.64c-1.194-1.378-2.79-1.753-7.846-7.15m7.108 7.934c-2.859-3.397-5.634-5.558-8.095-7.275m10.368-1.066c-3.077-2.378-4.868-4.832-7.044-8.198m7.714 7.126c-2.727-2.058-5.18-3.752-8.19-6.664M75.207 134.2c.04-.341-1.222-1.36-2.9-3.226m3.272 3c-1.166-1.039-2.394-2.197-3.648-3.132m45.39 30.014c-4.478-4.858-7.087-7.547-11.867-11.774m11.68 10.57c-5.383-4.929-9.136-8.538-12.242-10.553m1.082-.005c-10.457-8.398-17.876-13.36-31.084-23.599m30.057 22.767c-10.07-7.516-18.894-15.257-29.554-25.15m75.665 56.538c-4.644-5.168-6.516-8.313-10.803-10.43m12.084 9.037c-5.922-2.878-9.025-7.141-12.86-9.317m-10.832-9.428c-4.118-2.139-7.905-5.766-9.427-10.687m10.451 9.989c-3.106-2.163-7.561-4.83-11.455-8.595m49.109 30.036c-7.257-1.389-10.24-7.982-14.44-12.188m14.211 13.221c-5.06-4.004-8.373-6.75-16.307-11.952m2.457.594c-7.381-7.06-12.089-10.121-24.775-19.452m23.045 17.065c-6.133-4.423-11.504-8.937-21.973-17.459m17.394 2.576c-2.012-.368-3.462-1.413-7.557-5.131m6.808 5.79c-2.696-2.333-5.605-4.738-7.046-6.28m10.75-1.008c-2.783-2.44-3.389-4.404-7.891-7.198m7.393 5.882c-2.607-2.252-5.574-3.997-8.643-6.22m12.205-.163c-1.913-2.253-3.698-4-6.012-5.647m6.343 4.885c-3.188-1.622-5.813-4.43-6.777-5.244m12.601-.609c-1.29-1.474-3.707-2.052-6.636-4.979m6.81 5.761c-2.051-2.161-4.971-4.09-6.34-4.959m16.11 3.116c-2.355-2.369-3.686-4.588-8.797-9.75m10.457 11.225c-4.462-3.268-7.74-7.414-10.905-10.375"/><path stroke="#000" d="M75 135c-3.141 1.403-4.433-3.937-4.948-5.92m3.061 4.51c-2.633 1.498-3.529-2.806-3.585-4.937m1.142-1.153c2.321-1.112 2.606-.648 3.343-3.861m-4.937 3.946c3.728-.629 2.982-1.232 7.161-2.801M75 125c13.053.904 27.4 10.934 30.903 26.85M74.786 125.52c14.93-1.25 26.549 8.238 28.391 25.878m.07-2.819c8.504.945 14.362 3.207 31.78 3.13m-29.65-1.43c8-.214 18.979-1.241 30.671-.782m-.648.504c2.425-12.83 16.635-23.804 30.462-24.223m-31.59 25.518c1.642-17.433 15.81-24.274 30.062-24.565M165 125c3.356-1.973 6.256 2.796 3.667 7.926m-1.859-9.205c.558 2.58 4.266 5.71 2.495 7.644m.027 1.135c-2.178 1.866-.983.826-2.685 3.022m4.5-1.368c-2.242 2.01-3.63-1.006-6.985 2.046m.84-1.2c-15.11-1.878-23.093 15.092-17.433 29.807m19.058-29.361c-16 .242-27.192 16.319-19.73 29.136m.784.418c5.23 5.88 10.854 10.923 16.609 11.279m-15.813-9.654c2.449 4.524 10.107 9.314 15.741 8.577M165 175c3.25 1.447 6.047 3.309 3.209 7.773m-3.009-6.775c4.415-3.177 4.301 2.293 4.908 6.376m-.778.126c-1.823-.192-4.126 1.787-4.36 2.493m5.866-2.18c-1.094 2.737-4.622 1.873-5.22 2.585M165 185c-13.889-1.434-28.438-12.228-28.447-25.825m30.151 26.27c-14.736-.514-29.2-9.43-29.11-24.333m-1.54-2.183c-6.423-.724-17.654 1.211-30.732 2.764m29.82-1.748c-11.588.112-24.855.651-30.74-.256m.198.311c-3.937 15.623-14.924 26.952-29.604 26.106m30.881-25.025c-1.785 12.625-16.876 25.19-29.584 21.715M75 185c-4.74.791-5.542-3.053-4.66-7.392m3.504 9.072c-1.589-.826-6.508-5.326-4.48-8.2m1.306-.98c-.95-1.043 1.398-3.364 5.307-.66m-4.931-1.229c-1.136.942 1.317 1.413 2.923-2.112M75 175c14.836-.373 24.3-18.305 18.07-29.502m-16.417 31.037c12.354-1.663 25.59-18.084 17.061-31.891m-1.393.356c-3.058-4.573-9.174-10.582-17.183-8.303m17.954 9.52c-3.917-9.039-9.622-12.207-20.17-13.188"/></g><path fill="none" stroke="#000" stroke-width="8" d="M55 60c12.7-.422 20.912-6.357 24.81-15.219m-24.347 16.3c10.063-2.206 21.227-7.612 26.431-17.674M185 60c-11.443 1.991-20.61-6.077-24.001-13.309m24.256 14.384c-12.863-.109-21.698-5.22-25.456-18.374"/></svg>