<svg xmlns="http://www.w3.org/2000/svg" viewBox="0 0 240 240"><g fill="none" stroke-width="4"><path stroke="#eee" d="M29.495 83.469c11.034-8.22 21.698-19.876 33.879-33.046m-35.84 35.338C41.578 70.725 57.777 55.782 65.11 48.466M34.806 91.261c7.196-14.153 18.041-29.283 30.624-42.306M33.41 89.588c8.828-11.46 18.452-22.877 31.239-41.29M17.323 107.66C33.64 90.729 50.548 77.002 84.949 35.306m-66.482 72.732C38.1 86.499 59.896 64.045 85.622 35.576m-59.66 78.631c20.803-30.722 46.628-60.26 61.645-77.585m-64.34 77.314C42.962 92.321 60.481 70.977 86.22 35.561m-67.313 87.006C41.487 93.857 67.3 69.25 107.39 24.601m-89.942 97.212C45.633 90 77.015 56.964 105.51 24.86M22.533 125.877c18.38-18.828 33.18-38.756 83.09-99.237M23.009 127.212c19.74-22.622 37.93-46.026 82.938-101.574m-83.989 99.826C54.951 92.762 90.81 57.081 117.764 23.898m-94.357 103.17c20.418-22.808 40.21-45.146 93.198-102.758M29.157 134.524c30.685-37.04 59.075-72.832 87.69-111.227m-87.91 109.69C47.176 109.866 66.79 86.23 117.886 24.482m-93.953 114.42c22.293-25.943 45.294-50.27 100.756-108.98M22.134 140.53c25.499-27.002 48.334-53.318 100.734-110.653M26.735 147.169c21.786-28.066 45.511-53.696 96.396-119.495M29.447 145.931c36.87-46.779 72.932-90.665 93.448-116.36m-97.67 118.327c40.762-43.154 80.774-86.29 109.815-118.366M26.213 146.28c32.471-33.922 65.745-69.095 105.97-115.602M33.73 152.108c35.746-44.122 74.738-89.44 98.677-119.73M32.196 151.211c38.309-45.3 77.08-91.237 100.073-120.784M33.33 155.204c42.32-51.119 83.597-97.723 114.049-125.24M31.16 154.398c25.103-27.218 49.617-55.377 114.9-125.64M36.294 159.75c28.87-35.787 60.98-70.66 111.008-129.906M38 159.72C79.882 107.236 121.458 58.07 146.344 28.37M39.885 159.666C69.63 124.81 99.957 93.006 154.293 31.1M39.315 158.374c32.484-34.342 65.08-71.597 114.077-127.235M42.93 161.808c33.279-38.97 67.897-78.662 110.885-129.1M44.438 162.497c29.773-36.54 61.425-74.06 108.929-130.894m-107.61 132.94c24.882-28.8 54.376-58.216 113.949-129.086M44.69 162.635c24.349-26.278 49.998-53.252 117.092-127.38M51.1 169.574c26.412-32.013 51.35-60.634 110.577-133.68M51.096 167.472c39.351-48.214 78.638-95.426 110.763-132.553m-106.7 129.67C86.96 129 116.909 98.69 167.2 40.242M53.66 163.097c40.821-41.945 80.754-85.783 114.382-123.38M61.998 171.026c29.144-38.13 62.106-75.97 108.08-132.64M60.248 168.548c41.078-47.802 81.182-96.08 107.523-128.496M63.504 166.39C105.89 118.95 150.29 67.83 174.1 43.11M62.775 166.398c39.287-42.272 77.352-83.384 113.132-123.159M70.527 170.339c33.875-42.496 69.78-83.611 104.338-128.303M68.058 172.3c40.108-48.987 80.545-95.86 108.471-129.14M63.1 177.935c23.087-24.14 47.73-50.348 118.588-130.453M63.708 180.008c27.396-33.362 56.628-65.488 118.345-131.02M67.247 183.18c39.74-41.638 72.129-82.564 113.085-136.28M69.688 183.96c24.44-28.1 47.61-58.47 111.722-135M62.377 192.155c45.565-49.225 86.594-95.566 127.47-138.618M61.86 191.576c37.182-40.325 74.333-80.573 127.13-139.935M68.228 196.423C115.644 141.575 161.743 86.6 189.345 53.408M69.037 196.083c37.916-42.964 74.17-88.246 119.298-143.88M63.138 204.945c31.557-39.304 69.238-77.703 131.063-148.74M61.154 204.863c48.832-54.14 98.809-107.623 133.355-147.198M66.917 211.619c47.729-61.436 98.315-121.372 129.441-155.743M67.44 210.109c27.976-32.566 54.807-64.228 126.51-152.592M65.27 209.737c49.666-52.973 100.33-104.404 135.353-145.279M67.166 211.767c48.43-52.736 97.488-106.287 132.466-146.222M73.924 216.079c45.546-55.002 92.962-111.006 124.13-151.103M72.355 215.697c26.97-31.009 53.631-63.82 127.249-150.734M74.628 213.17c6.362-3.77 13.64-10.625 15.848-13.898m-15.568 14.393c5.243-3.291 8.39-6.784 16-12.739M79.714 218.69c4.088-3.769 6.718-9.626 9.693-18.246m-9.717 19.674c3.962-4.714 6.473-11.565 11.925-18.37m-4.11-4.878c46.29-47.507 89.295-94.457 114.757-125.586M88.012 199.357c41.058-46.844 83.458-92.994 116.074-128.625M93.346 202.566c36.689-42.707 77.758-88.926 109.58-132.744M94.148 203.432c42.156-49.097 82.94-98.079 109.843-132.376M93.565 207.524c42.664-47.47 84.114-94.254 113.85-128.312M92.272 206.07c40.837-43.77 82.005-91.373 116.107-127M97.727 212.582c37.93-50.58 79.471-95.41 109.713-131.744M97.952 213.018c39.402-49.072 78.103-95.948 110.191-133.573M96.836 213.437c26.418-28.211 49.264-56.817 114.73-125.48M97.213 212.783c33.375-36.451 64.374-72.525 114.178-125.43M102.044 219.105c28.872-34.31 60.875-72.49 108.653-131.43M103.239 217.36c35.71-44.238 72.028-87.66 109.04-130.865M107.755 212.453c4.184-4.195 12.863-10.098 14.323-10.505m-14.969 11.192c6.092-3.277 10.43-7.611 15.072-11.874m-6.733 14.94c.004-3.982 2.504-9.605 7.597-13.717m-9.463 16.037c2.901-4.44 4.331-9.462 8.473-17.058m-4.37-4.223c33.161-29.906 64.445-63.688 98.642-107.571M118.794 199.08c36.446-39.975 73.315-81.968 99.673-107.464m-94.747 113.09c26.359-34.258 53.245-66.044 93.912-112.857m-92.306 111.879c33.095-37.743 63.526-77.869 92.499-112.303m-95.929 116.546c27.204-32.051 59.649-65.296 100.326-105.873M121.7 207.908c31.84-33.027 62.842-66.694 98.326-106.268m-91.75 111.606c19.174-25.509 41.138-52.497 90.71-113.288m-91.454 114.445c27.1-33.818 54.46-66.08 92.558-113.127m-93.004 110.082c38.924-35.062 72.054-74.07 93.767-98.902m-92.746 100.259c24.69-25.813 48.015-53.965 92.932-98.929M134.37 219.747c27.755-34.116 56.084-69.909 84.532-106.811m-84.438 104.24c19.89-21.928 39.69-47.339 85.707-103.878m-73.198 88.819c10.96-10.974 21.766-18.016 35.544-33.906m-33.276 34.885c6.003-7.38 12.866-15.248 35.03-35.46m-31.245 39.494c10.352-13.747 21.238-28.494 30.187-40.131m-27.738 39.408c11.763-15.548 23.39-30.068 28.952-39.497m-3.754-2.715c11.94-11.937 24.359-23.448 39.427-39.108m-38.945 39.172c12.078-11.698 24.217-23.716 39.158-38.008m-33.073 45.146c6.04-12.324 16.357-22.59 32.31-44.09m-32.591 43.365c8.214-11.587 18.853-23.798 34.573-45.886m-69.11 83.692c11.729-9.017 24.963-21.458 32.908-26.323m-33.379 28.256c8.361-8.246 14.484-14.598 30.79-29.469m-22.169 32.656c1.692-5.363 10.735-14.879 24.266-32.398m-27.027 34.054c8.643-13.294 19.306-23.976 24.935-35.514m11.27-19.93c7.032-4.159 17.286-13.23 21.77-16.932m-21.722 19.034c9.984-8.228 17.198-16.412 23.737-19.686m-15.29 22.504c1.012-5.895 5.496-11.551 16.506-22.845m-18.884 24.14c5.13-7.306 9.63-13.545 17.957-23.81m-59.612 71.306c9.126-7.517 19.498-16.629 26.513-20.16m-24.482 19.62c5.2-3.975 9.707-7.743 23.546-20.478m-18.269 25.185c5.044-6.477 12.311-13.482 19.483-25.849m-19.05 26.476c4.22-5.626 8.69-13.39 17.787-24.788"/><path stroke="#000" d="M20 125C18.437 49.948 103.51 1.468 168.03 40.15M18.216 126.665c2.794-80.87 83.53-128.532 150.707-89.304M170 38.397c31.135 16.482 51.972 52.537 48.604 85.484m-50.37-87.198c31.365 20.896 52.77 52.905 52.291 88.366M220 125c.512 22.094-16.28 38.384-40.839 39.51m39.497-40.026c3.016 20.707-15.207 39.472-36.537 42.815m-1.485-3.24c-.957 6.28-2.288 14.892-2.59 37.13m2.153-35.347c-.29 8.409-.298 19.284.328 33.372M180 200c-.531 12.305-11.811 18.538-23.723 14.058m24.13-12.554c.856 9.127-14.23 16.916-22.573 13.053m-.334-1.567c-3.167-2.779-6.82-7.09-5.628-12.417m7.365 11.687c-7.288-.478-8.082-6.357-8.378-14.34M150 200c-1.708 10.538-10.729 17.86-23.61 14.272m24.623-13.859c.659 10.679-12.33 17.039-21.322 10.454m-2.191 2.123c-4.545-3.04-8.128-5.746-8.797-11.82m10.727 10.102c-7.343-1.893-9.229-4.828-9.97-10.105M120 200c.134 10.797-11.803 17.06-21.127 11.75m22.562-11.242c-2.611 10.404-15.986 18.162-25.295 12.834m1.36-.352c-4.266-2.265-8.886-8.681-7.33-11.12m8.538 11.335c-5.504-4.72-7.045-7.743-7.46-12.198M90 200c-.091 10.998-10.883 20.147-23.746 14.962M88.53 201.19c1.737 10.066-9.84 15.317-19.592 10.721m-1.438 1.08c-5.227-2.532-9.434-8.815-5.737-11.542m6.594 13.308c-3.67-2.924-7.139-7.144-7.705-15.54m.252 1.238c-.16-13.698 1.166-23.648-.639-36.378m-.525 35.282c-.245-11.18.7-21.426-.079-35.226M60 165c-20.988 1.937-39.16-17.755-39.325-40.774m40.873 42.543c-25.332-.52-42.101-20.2-43.007-43.432"/></g><path fill="none" stroke="#000" stroke-width="4" d="M91.177 178.022c-2.816 6.263.746 13.164.018 21.468m-1.226-19.424c.266 6.068-.525 13.206-.276 20.157m29.125-18.71c1.937 3.949-.655 9.503.733 16.712m.929-17.594c-.351 4.082-1.495 9.384-.182 19.743m28.576-20.466c.337 7.94-.694 11.895 2.863 19.181m-1.16-19.114c-.933 8.44.126 14.654-.066 19.657"/><path fill="#fff" d="M40 110c-1.836-22.277 23.17-37.94 41.674-27.208 13.408 6.405 15.996 16.207 21.498 30.697-5.465 30.148-65.418 28.387-62.47-4.283L40 110"/><path fill="none" d="M40 110c-.27-24.104 26.109-35.809 44.3-25.662m-43.749 26.428C41.643 87.471 66.274 73.8 86.124 82.203M85 84.019c9.247 6.45 13.118 16.702 13.217 26.488m-14.695-24.89c10.36 4.147 14.229 14.898 14.403 22.392M100 110c-1.853 36.181-61.988 33.369-59.956.273m61.559 1.286c-1.421 32.078-63.66 31.43-60.983-3.455M40 110"/><g fill="none" stroke-width="4"><path stroke="#222" d="M37.623 107.752c7.699-6.17 17.597-13.353 26.694-25.45m-26.92 25.523c8.278-7.014 18.101-16.837 25.63-24.147m-17.96 28.98c1.453-4.657 5.166-10.405 18.75-28.179m-19.968 29.658c6.398-11.294 15.195-23.588 20.967-29.942m-24.627 33.322c5.291-7.524 14.647-13.198 32.022-33.456m-32.45 34.423c6.23-7.238 14.76-15.699 35.12-34.972m-27.423 41.267c6.629-15.06 17.32-26.137 26.673-41.172M46.37 123.44c5.72-8.891 10.722-15.39 27.904-40.247m-28.895 39.75c8.87-9.097 19.088-15.517 37.356-39.194m-38.499 39.316c13.237-10.22 25.286-23.588 40.318-38.595m-33.848 44.966c13.123-19.353 24.646-34.569 34.94-45.619m-34.193 45.539c9.652-14.803 21.87-30.65 33.506-44.745m-36.659 44.796c9.977-7.007 21.145-17.85 40.905-39.697M49.4 129.092c11.24-10.3 21.777-21.15 42.092-39.168m-36.292 44.724c12.679-14.853 23.61-29.938 33.69-43.262m-32.076 43.887c9.224-12.876 18.084-24.498 32.843-45.683m-33.146 45.83c13.82-16.291 29.909-31.792 39.84-41.843m-39.734 39.321c12.35-11.443 24.663-23.134 41.113-39.357m-35.675 45.893c14.878-16.897 24.064-33.125 34.942-47.306m-33.542 46.627c11.454-15.359 21.416-28.686 33.8-44.041m-30.933 39.13c12.556-9.048 21.295-16.336 36.527-33.41M68.02 133.52c12.807-12.633 25.309-25.632 33.544-32.12m-27.235 37.904c9.127-11.908 17.751-25.314 27.92-38.199m-28.86 38.563c10.69-13.479 19.257-27.29 28.85-37.75m-21.683 31.55c2.739-7.085 10.13-9.975 22.119-21.038M79.85 131.894c7.946-5.9 17.017-13.8 23.742-20.697m-18.688 28.366c8.42-11.014 12.285-20.422 16.113-26.307M85.76 137.55c3.47-3.924 7.339-10.492 16.952-24.976"/><path stroke="#000" d="M40 110c.627-22.512 26.292-38.191 45.186-26.434m-43.82 28.045C41.289 85.658 66.2 70.697 86.836 84.326M85 84.02c7.764 7.323 15.846 14.166 14.554 26.273M84.06 82.106c9.464 7.88 17.714 15.1 14.408 28.99M100 110c-.285 35.143-58.781 34.064-58.222.56m58.374 1.196c1.141 33.688-61.56 34.202-60.083-3.834M40 110"/></g><path fill="#fff" d="M140 110c-1.216-21.535 23.625-40.545 43.01-27.898 14.029 5.057 19.804 17.957 18.697 31.403-3.43 28.617-63.538 34.22-58.551-6.262L140 110"/><path fill="none" d="M140 110c1.063-23.882 24.814-35.794 46.086-24.187m-47.651 22.825c1.996-24.016 28.41-34.875 46.385-24.621m.18.002c9.588 6.694 15.855 14.615 14.431 26.184M186.803 85.26c6.379 6.357 12.84 13.779 12.845 24.642M200 110c.394 34.84-61.968 35.481-61.781-.703m62.749 2.341c-2.362 33.83-63.165 33.132-59.05-.926M140 110"/><g fill="none" stroke-width="4"><path stroke="#222" d="M139.48 106.218c6.98-6.406 16.497-15.188 27.229-24.345m-28.244 25.538c6.177-5.304 11.956-11.926 29.052-27.459m-24.677 31.483c8.552-9.68 18.044-20.46 23.626-30.192m-22.323 32.091c4.731-8.536 10.796-15.015 23.403-33.623m-26.934 38.549c10.958-15.954 23.628-27.723 35.784-36.928m-37.492 36.188c13.238-11.677 23.633-22.163 36.625-35.859m-29.059 42.968c4.546-12.831 13.025-22.96 28.725-42.908m-30.297 40.295c12.6-15.473 24.393-30.573 32.1-40.09m-31.302 41.265c10.904-11.131 26.905-26.234 37.714-40.173m-39.063 41.512c8.722-7.812 17.376-17.222 40.491-38.969m-32.658 43.203c11.255-13.301 19.82-28.693 32.44-45.202m-33.342 46.397c7.804-11.87 18.418-24.683 32.67-45.268m-32.62 43.713c16.484-15.582 28.328-28.7 38.376-39.504m-39.319 40.906c11.508-11.388 22.51-22.196 39.703-41.509m-32.457 45.576c10.758-18.701 25.04-33.938 34.105-42.85m-35.132 42.757c10.791-14.212 23.027-28.23 34.374-43.68m-30.625 41.161c11.977-12.002 25.474-26.349 37.125-34.848m-39.325 37.005c12.604-11.944 22.137-23.804 37.728-38.995m-30.168 42.265c8.002-12.226 17.058-24.6 29.691-40.73m-31.59 41.894c8.282-10.307 16.913-21.712 31.887-43.712m-27.72 39.287c7.197-4.912 14.432-14.78 29.755-30.437m-29.158 30.764c10.79-10.83 22.516-21.365 30.608-30.164m-23.556 37.251c5.227-8.059 9.16-14.7 24.153-37.711m-25.54 35.733c6.857-8.613 11.741-17.911 23.865-34.863m-17.296 27.086c7.476-2.956 9.81-8.593 20.28-15.281m-19.322 15.88c4.568-4.6 8.76-8.463 16.84-15.665m-9.962 18.413c4.84-6.897 8.076-14.698 9.318-19.606m-10.379 22.252c2.338-4.858 4.469-8.835 10.865-19.988"/><path stroke="#000" d="M140 110c-1.515-23.457 23.629-38.72 43.607-24.406m-43.249 23.938c-2.473-24.77 24.095-35.51 44.79-27.638M185 84.019c9.218 5.673 13.111 15.762 15.894 25.342M183.31 85.45c11.39 5.998 17.215 15.954 15.264 23.964M200 110c-1.408 33.896-59.16 33.92-61.637-.08m60.066-1.176c2.54 35.978-58.35 34.427-57.7.399M140 110"/></g><path fill="#fff" d="M110 130c8.088-13.823 11.5-14.335 22.906 1.72 4.235 20.477-33.083 15.324-25.394-2.295L110 130"/><path fill="none" d="M110 130c7.53-13.463 12.052-12.89 21.865-.413m-22.18-.749c5.181-11.913 12.554-11.618 18.489-.045M130 130c10.573 18.528-29.573 20.113-21.843-1.587m23.782 3.348c7.968 19.898-31.722 16.971-22.52-3.085M110 130"/><g fill="none" stroke-width="4"><path stroke="#222" d="M107.377 137.382c3.782-1.195 6.011-7.657 18.098-16.113m-19.593 15.826c6.478-3.332 10.303-6.4 19.075-14.802m-13.323 20.923c3.2-7.192 8.098-12.883 13.66-20.554m-11.59 20.178c3.141-5.995 7.792-13.905 11.064-19.772m-10.37 18.363c4.643-4.153 12.31-9.509 16.294-11.088m-16.89 12.308c5.613-5.344 12.597-9.889 16.6-12.95m-9.69 15.844c.41-2.62 3.144-7.25 8.771-17.08m-9.326 18.947c2.58-4.337 5.412-9.115 10.441-17.257"/><path stroke="#000" d="M110 130c6.874-11.544 15.31-13.474 21.782 1.832m-20.97-.097c4.533-15.306 10.897-15.336 20.16-3.386M130 130c11.518 21.265-28.022 21.805-19.687-1.196m19.49-.794c8.713 20.454-32.029 22.184-19.127.394M110 130"/></g></svg>