<svg xmlns="http://www.w3.org/2000/svg" viewBox="0 0 240 240"><g fill="none" stroke-width="2"><path stroke="#e68e00" d="M28.932 75.144c11.99-10.273 22.184-24.79 34.83-38.988M30.977 75.992c8.671-8.006 14.818-16.26 34.591-38.75M25.84 86.746c20.277-22.443 38.848-42.126 50.033-56.692M27.534 87.491c20.073-22.026 38.835-44.626 47.955-57.118M22.377 96.5C42.319 71.98 64.099 49.805 81.925 28.674M23.633 96.5C42.612 73.486 62.78 51.96 84.681 28.362M23.14 106.23c17.692-24.116 38.01-48.514 68.926-80.183m-71.6 80.284c23.787-28.6 47.53-56.135 69.401-79.58m-70.685 83.584c27.253-27.208 55.483-60.07 78.62-85.755m-77.586 87.944C49.99 79.8 77.823 46.47 97.02 24.5m-75.454 93.231c30.84-36.38 67.401-74.707 83.47-97.268M19.28 119.71c22.274-25.474 45.954-51.21 85.983-98.62M22.516 126.353C43.948 99.045 67.946 72.737 111.37 19.54M21.202 123.945c19.946-21.766 38.612-44.399 90.027-103.481M20.654 129.493c39.407-40.902 74.844-85.68 96.63-108.276M21.06 130.67c36.677-42.655 72.39-86.422 96.85-110.089M21.03 136.654c36.075-38.622 69.911-80.85 99.419-115.191M21.261 135.719C55.22 95.469 90.7 55.475 122.398 19.792M22.705 141.847c42.987-49.954 84.607-95.948 102.236-121.042M23.569 141.48C53.473 104.158 83.01 68.896 126.714 22.228M22.638 145.019c39.266-42.795 79.294-89.684 107.667-122.227M23.575 144.475C63.61 98.258 106.69 49.671 130.622 21.211M25.795 148.401c41.28-50.298 88.161-99.67 109.218-124.517M26.452 149.651c22.622-26.286 46.003-53.331 110.284-127.33M25.878 155.226C71.392 103.7 115.045 52.036 141.09 21.74M25.954 154.458C60.65 115.614 95.09 76.249 142.586 22.666M27.1 158.654c44.097-49.726 91.462-102.557 116.824-134.102M27.583 158.517c40.69-45.645 79.458-90.643 117.835-135.505M32.024 162.69c27.869-34.617 58.108-69.778 119.565-138.787M30.093 161.746c32.475-39.47 67.111-78.84 120.663-136.517M33.48 165.644c40-41.274 77.615-87.837 120.081-139.136M32.506 166.478C65.058 128.132 98.35 89.235 153.563 27.124M32.87 168.409c28.438-34.88 58.354-66.002 123.85-142.026M33.737 169.471c47.745-55.086 97.975-111.384 124.375-140.967M35.403 173.162C74.825 126.637 117.85 80.917 160.557 27.52M36.803 174.512C75.316 128.14 114.407 85.117 161.72 29.915M38.925 178.419c34.781-40.36 71.769-82.913 128.259-147.267M38.719 176.387c35.398-40.382 71.243-80.808 127.769-144.742M42.035 179.938c34.53-43.45 74.99-88.16 126.73-144.99M39.952 180.718C85.045 129.23 129.364 77.31 169.38 33.72M44.635 182.668c34.583-37.617 65.51-78.808 128.068-145.995M42.923 183.905C93.238 129.89 141.441 72.912 172.285 34.101M47.81 189.005C90.8 135.737 136.313 80.882 174.805 38.26M46.648 187.92c38.484-44.923 76.287-90.312 128.549-149.448M47.962 189.465c45.79-48.765 84.5-98.115 131.745-150.664M48.183 188.955c39.47-41.67 75.984-84.314 130.017-148.976M51.87 192.416c29.895-37.156 60.45-70.257 131.214-147.605M52.67 192.743c47.534-56.557 95.817-111.957 129.232-150.167m-124.9 153.013c41.736-51.783 84.02-100.26 127.01-148.74M55.426 195.151C99.021 143.566 143.552 93.37 184.65 45.052M58.23 197.473c41.477-48.539 80.888-93.142 129-149.07M57.583 198.042C87.005 161.48 117.943 126.28 189.09 47.4M62.335 201.083c41.553-51.886 86.69-104.098 129.732-150.892M60.95 201.042c25.815-31.693 51.54-60.812 131.638-151.499M66.159 200.513c49.744-53.569 97.647-109.317 127.436-146.174M64.608 201.525c44.644-50.922 87.703-100 129.33-147.537M67.127 204.348c43.34-50.639 89.805-102.324 128.992-149.774M67.687 204.836C118.515 145.9 170.55 87.592 196.135 56.996M69.326 205.446c49.05-55.093 99.82-111.666 132.113-147.137M70.89 207.416c32.333-38.543 66.76-77.754 128.05-148.088M72.633 208.204c34.324-35.749 66.446-74.185 128.582-145.898M74.625 208.821c28.769-33.223 58.26-64.636 127.376-146.09M77.797 211.996c51.91-58.276 97.506-115.118 125.612-146.791M78.33 211.691c24.541-31.692 50.452-61.29 124.961-144.836M83.817 211.127c27.803-33.447 53.714-65.313 121.426-139.651M82.439 212.006c29.853-34.27 60.252-70.21 122.568-142.528M84.426 212.501c39.967-42.248 76.995-88.749 124.79-139.7M85.52 213.362c25.222-30.395 51.73-60.66 123.225-139.112M90.76 214.612c35.921-35.71 68.888-75.68 118.348-136.444M89.617 214.298c43.529-46.874 85.26-95.331 119.956-136.144M93.593 216.772c42.374-47.598 86.083-95.129 117.488-137.321M94.886 216.687c42.69-52.985 88.907-103.762 116.79-134.965M96.609 219.08c39.114-43.047 79.25-87.216 119.28-132.196M98.478 218.12c31.849-38.835 65.749-76.462 116.243-132.427m-110.475 131.35c26.233-28.571 52.41-58.782 109.434-126.644M103.308 219.144c29.146-34.251 60.398-68.734 110.81-129.756M107.936 218.351c30.33-33.03 59.944-69.146 109.48-125.072M108.504 218.915c23.984-28.565 48.34-56.788 107.996-123.459m-103.986 123.09c31.043-34.417 66.124-71.66 107.117-117.844M113.058 219.48c27.105-32.436 55.117-64.95 104.344-120.31m-98.918 121.282c25.204-27.347 49.383-53.957 99.59-115.647M118.814 220c31.21-38.79 66.104-77.592 100.58-116.25m-95.536 115.472c35.387-39.092 74.44-85.147 95.266-108.267m-96.436 108.698c23.891-23.178 45.016-49.3 96.292-110.821m-89.236 111.68c28.421-32.136 54.535-66.56 89.044-105.625M128.97 218.722c18.34-18.948 36.13-41.044 90.324-102.502m-83.891 102.147c31.64-36.361 63.602-75.512 83.477-96.538m-83.999 96.382c28.969-32.108 56.171-65.208 86.292-97.14m-80.481 95.487c19.397-18.462 36.357-42.19 77.875-87.318m-77.231 87.353c20.787-21.462 39.438-45.28 78.35-88.387m-70.279 87.975c16.048-16.86 30.665-35.616 68.492-83.329m-68.887 81.762c28.538-31.006 54.611-63.004 69.918-81.09m-64.195 79.72c23.271-26.831 45.752-49.993 60.579-68.27m-59 68.91c22.318-25.994 43.892-52.65 60.786-70.83m-52.237 67.08c17.196-19.603 31.044-39.671 51.434-56.954m-52.024 56.662c15.234-17.864 31.975-37.57 50.16-56.915m-39.256 51.34c9.262-11.356 17.168-17.773 36.144-44.667m-37.014 44.05c11.596-12.565 23.4-26.325 38.325-43.632"/><path stroke="#000" d="M20 120c1.326-78.185 84.167-125.014 151.316-86.773m-151.862 87.9c.044-76.654 85.056-126.614 151.79-88.096m-1.244.366c31.194 17.807 51.122 49.928 49.068 84.74m-49.749-83.93c30.875 18.765 52.398 52.001 49.893 86.313M220 120c1.005 77.297-82.95 126.668-150.279 87.543m149.097-89.325c.252 79.461-83.786 128.35-148.419 88.706m-.399-.321c-30.579-19.197-48.478-52.313-50.773-88.07m52.41 89.993c-30.639-19.668-51.916-54.83-53.22-90.177"/></g><path fill="#fff" d="M50 80c11.652-10.213 29.749-10.95 43.548-3.46-4.138 38.238-3.44 76.01-6.878 136-8.933-4.843-22.498-13.102-33.652-21.106-5.539-44.895-4.66-90.987-4.973-112.64"/><path fill="none" d="M50 80c9.52-10.82 28.347-10.793 38.244 1.797m-38.252-3.212c10.101-9.225 27.017-10.412 41.052 1.111m.917-.101c-3.846 46.334-2.034 94.31-.757 136.395M89.32 80.01c-.037 43.768-.014 89.105 1.206 135.747M90 215.4c-15.805-5.234-27.894-14.17-40.959-25.186m40.313 24.761c-15.187-3.86-28.611-11.76-38.427-25.125m-2.682.867c2.86-26.908 3.444-58.282 3.106-111.274m-.655 112.084c-.878-26.921-.387-52.502-.632-110.84"/><g fill="none" stroke-width="2"><path stroke="#0a68ff" d="M49.73 85.619c4.57-4.035 8.485-7.04 10.151-12.222m-9.576 13.057c1.396-3.52 3.589-5.793 9.187-11.387m-9.08 16.587c4.787-1.879 5.353-8.295 15.796-19.902m-16.9 21.369c5.46-5.23 9.304-10.58 17.113-19.224M48.531 96.37c9.376-6.803 16.434-16.286 23.386-21.51M50.82 98.367c7.387-10.536 15.186-19.411 20.937-25.408m-21.867 29.867c7.361-6.009 12.946-12.435 27.103-26.799m-26.63 28.138c5.258-6.229 10.802-13.562 26.461-29.18M51.49 112.588C60.052 99.78 69.944 88.89 81.583 72.82m-30.96 38.57c5.896-9.984 13.612-18.137 31.158-36.192M50.373 118.22c8.151-9.936 13.737-19.18 35.585-42.879m-35.134 40.975c6.328-9.02 13.64-17.825 34.211-40.527m-35.8 48.634c9.41-14.35 17.46-25.036 38.772-44.537m-37.3 42.31c11.075-13.632 22.68-26.648 37.17-43.356m-35.941 47.692c15.096-17.66 32.07-35.538 40.499-47.24m-43.092 48.58c13.58-14.62 26.605-28.654 42.553-46.024m-42.013 54.22c10.75-13.731 19.183-22.841 43.433-46.922m-44.279 45.992C60.19 123.25 71.365 111.272 91.71 87.41m-40.962 55.62c13.643-19.277 29.58-36.716 38.776-48.615m-40.088 46.517c15.244-16.5 30.418-33.483 41.45-47.475m-40.098 51.96c14.927-16.007 27.407-29.672 40.21-45.442m-40.093 46.267c9.07-8.91 18.04-20.132 41.072-47.27m-40.556 52.643c13.019-14.952 25.296-30.228 37.965-47.406m-38.968 48.956c9.988-13.053 21.279-25.027 40.946-47.439M49.54 160.604c11.753-15.32 24.429-25.452 43.92-48.703m-43.064 46.567c13.219-14.8 26.439-31.62 41.65-46.806M51.505 167.09c5.764-10.374 15.209-20.184 38.067-48.646m-38.77 47.275c8.507-11.394 19.326-23.797 41.08-47.676m-43.01 53.429c13.523-13.937 22.728-28.552 42.195-46.645m-42.258 46.422c9.949-10.2 20.012-21.761 41.824-48.024m-40.76 52.39c11.033-10.939 18.941-22.088 41.597-45.385m-41.324 47.896c12.417-15.632 25.296-31.23 40.87-47.357m-42.031 51.13c15.733-18.106 33.416-37.735 42.233-47.468m-41.74 49.323c10.4-11.205 21.957-23.947 40.878-47.265M49.048 188.01c10.686-9.78 21.993-22.206 42.773-45.498M50.363 189.17c9.298-11.484 19.611-22.814 40.88-47.149m-38.159 52.01c13.787-13.781 24.122-30.11 39.526-44.336m-39.978 44.018c14.742-17.513 28.143-34.13 39-44.502M53.96 193.795c9.938-7.42 18.274-18.91 36.887-40.486M55.578 194.55c13.063-14.529 27.742-31.284 35.116-39.542m-31.807 41.528c14.388-15.07 24.59-26.837 32.701-37.5M59.4 197.58c9.984-14.166 23.258-26.368 31.129-37.331m-29.313 39.651c8.323-6.25 12.215-13.329 31.06-34.536m-30.917 34.443c8.458-9.182 16.44-19.12 30.753-33.546m-28.625 37.1c12.164-10.003 19.723-20.63 27.93-30.448m-27.392 30.935c6.138-7.421 12.885-14.904 27.994-31.96m-24.896 32.307c8.073-5.769 15.933-14.756 23.668-23.975m-21.787 25.423c6.362-9.185 13.106-15.675 21.801-27.077m-21.041 28.784c7.964-6.217 14.927-15.187 22.346-22.988M71.995 207.65c5.444-6.744 13.219-15.421 18.632-22.691m-17.182 22.98c5.55-3.197 10.204-11.24 19.877-18.738m-18.736 20.733c5.024-5.933 7.868-9.7 16.769-19.247M79.12 210.51c4.177-4.047 8.058-7.603 13.672-12.728m-14.107 13.484c3.673-3.929 6.86-7.965 12.596-14.149m-7.998 16.071c2.654-3.061 3.971-6.542 9.121-11.163m-9.665 12.051c2.584-4.778 6.949-9.16 8.216-11.894m-3.974 12.612c.32-1.053 2.329-2.48 3.984-5.73m-4.257 5.491c1.954-1.849 3.85-4.088 4.313-5.574"/><path stroke="#000" d="M50 80c9.177-9.994 28-11.345 39.381 1.297m-37.467.495c8.843-14.408 27.886-10.683 37.249-.093m.153-3.456c-.137 56.523.925 107.253.148 135.584m.435-134.37c-1.67 36.783-.953 71.286-.409 135.845m.51.098c-16.04-4.55-30.291-11.178-41.615-23.897m41.274 25.058c-14.547-3.731-29.661-15.753-38.503-26.61m-1.941 1.497c1.435-25.465-1.547-55.408-.143-112.118m.227 112.782c-.125-32.636.046-64.79 1.466-112.895"/></g><path fill="#fff" d="M190 80c-9.631-13.445-29.234-14.236-42.594-1.682 4.021 35.811-1.79 75.674-.712 137.497 20.895-6.54 35.29-12.846 46.886-21.142.064-37.715-3.907-69.657-3.674-117.67"/><path fill="none" d="M190 80c-11.918-11.77-28.518-9.735-38.81-.163m36.971-.143c-11.09-10.031-28.843-12.52-37.271 2.378m-1.61-2.744c-.167 39.744.992 79.675.875 137.09m.61-136.094c-.232 44.762.178 91.083-1.675 135.25m.91-.174c16.22-4.844 28.285-11.911 39.927-22.585m-41.248 23.812c17.203-6.812 29.582-13.09 41.366-24.156m1.818.074c-2.706-34.171-.939-65.61-2.477-114.405m1.094 112.836c-1.615-23.305-.393-46.668.288-111.473"/><g fill="none" stroke-width="2"><path stroke="#0a68ff" d="M149.841 87.534c1.54-5.089 4.57-6.014 10.52-13.776M149.03 85.922c2.647-1.918 5.435-4.703 10.614-10.833m-10.941 18.17c6.265-6.014 11.403-15.108 18.55-20.639m-17.175 19.757c5.342-5.881 11.1-11.426 16.763-19.147m-17.393 24.296c10.687-8.379 17.4-16.819 20.348-22.888m-19.76 24.316c4.629-4.603 8.165-9.715 20.65-25.721m-21.606 30.874c8.944-11.3 19.883-21.754 28.063-31.524m-27.542 32.49c9.507-11.464 18.381-21.041 27.8-31.977m-26.848 38.447c5.766-9.424 15.24-18.246 30.46-38.469m-31.367 36.743c9.991-9.624 18.604-20.995 31.712-34.699m-31.72 39.937c12.076-9.095 22.62-23.904 36.234-40.045m-35.915 41.866c11.438-12.221 22.709-26.106 33.765-40.791m-34.714 45.398c15.73-14.11 29.908-31.731 38.423-42.575m-37.325 43.16c9.182-9.83 15.919-18.509 37.503-43.555m-37.745 49.004c11.493-10.765 20.172-21.856 42.954-47.962m-42.044 48.535c8.604-9.134 16.724-18.509 40.94-47.44m-40.746 55.903c10.352-11.753 18.98-26.7 42.343-47.916m-42.421 44.998c13.693-16.952 29.723-34.03 40.9-47.496m-41.319 54.098c8.437-9.272 19.876-22.387 41.22-48.12m-40.87 47.974c13.338-13.92 25.225-29.614 40.715-46.36m-41.909 55.6c8.754-13.597 19.479-25.251 42.132-48.031m-42.156 45.557c14.348-14.251 28.017-29.953 41.58-46.061M149.67 154.05c17.961-20.538 33.716-37.276 40.858-47.408m-39.863 46.715c15.914-19.504 31.572-37.795 39.998-47.263m-40.602 51.335c17.688-16.053 30.759-34.623 40.59-47.103m-41.595 48.637c14.525-16.18 29.45-32.866 42.25-47.542m-41.948 52.802c15.296-15.383 27.493-31.581 42.967-48.344m-41.962 49.321c13.665-16.084 27.864-32.45 41.575-47.17m-43.921 53.85c15.959-16.055 34.047-37.439 42.536-46.143m-41.064 45.716c13.948-15.497 26.989-31.468 42.585-48.444m-43.697 55.213c16.094-16.008 33.166-33.766 43.38-46.14M148.79 178.82c12.838-15.68 24.853-29.418 42.15-48.235m-41.784 52.949c11.72-11.21 24.954-26.335 43.652-46.705M150.315 183c8.451-10.091 17.807-21.003 41.81-46.526m-41.084 51.85c11.731-13.48 29.526-32.768 41.443-44.66m-41.666 46.15c11.826-14.09 25.482-28.887 41.148-47.533m-41.801 53.367c8.531-12.019 20.242-23.62 39.828-46.5m-38.786 46.81c10.775-12.04 20.963-25.586 39.702-47.426m-39.777 53.824c11.83-11.575 19.966-23.39 38.813-49.067m-39.157 48.772c12.747-17.5 28.02-33.518 40.338-47.617m-42.199 55.814c8.326-11.402 19.223-23.52 40.147-49.34m-38.382 47.777c12.22-13.768 22.965-27.134 40.948-47.941m-42.886 52.12c14.124-12.241 24.627-29.61 42.6-48.433m-42.103 50.26c16.862-18.838 33.014-39.336 42.622-47.91m-39.065 48.88c15.157-13.455 28.332-30.746 37.68-42.637m-37.08 45.289c9.718-13.435 20.425-25.925 37.92-46.462m-29.592 41.772c9.747-8.592 16.693-22.411 31.173-36.364m-31.023 36.698c7.697-11.59 17.415-21.746 30.543-36.082m-20.18 29.978c4.84-9.743 14.448-17.274 17.895-21.393M172.153 206c7.46-6.822 12.3-13.11 20.061-20.426"/><path stroke="#000" d="M190 80c-11.663-12.735-27.243-12.007-41.792-.864m40.813-1.032c-12.056-8.278-27.8-8.939-39.255 1.027m.546.797c2.73 49.018 1.368 99.195-2.134 135.323m2.697-135.85c.027 48.793.07 97.467-.985 135.84m.11.159c13.218-6.665 28.758-13.106 39.794-25.148m-41.126 26.289c17.898-5.527 30.028-12.676 40.23-24.756m2.21 1.122c1.477-31.417-.825-61.396-.678-113.515m-.051 112.574c-1.973-35.658-1.418-71.05-.613-112.396"/></g><path fill="#fff" d="M100 100c-.156-14.446 13.132-23.635 27.99-16.233 4.954-.405 10.375 9.522 15.426 17.057-5.381 6.667-.708 14.085-.091 21.41-3.614 10.947-22.96 20.473-34.517 14.374-5.199-5.563-8.588-10.715-11.54-17.884 1.892-6.7 2.288-7.248 4.447-15.956"/><path fill="none" d="M100 100c-.768-14.63 16.252-25.579 28.836-16.023m-30.724 14.81c2.604-16.292 19.864-22.374 30.253-16.281m1.635.173c7.671 2.895 10.058 8.551 9.019 18.857m-9.703-19.524c4.84 4.22 10.552 11.61 9.374 17.688m1.354-1.507c1.513 6.188-.864 10.982.519 22.438m-.515-20.305c-.813 6.978-.144 13.549-1.03 20.495M140 120c-.71 14.412-15.436 26.652-29.524 16.429m29.747-16.593c-.231 16.751-17.54 25.048-30.898 17.936m.675-.451c-6.986-4.243-8.402-10.456-11.72-16.517m11.239 15.044c-4.43-.195-9.78-6.68-7.923-17.889m-2.733 3.488c2.691-10.094 2.187-16.232.081-23.39m.123 21.465c.113-5.054.616-12.873.16-19.008"/><g fill="none" stroke-width="2"><path stroke="#7c1355" d="M107.115 91.646c2.079-2.57 5.544-7.728 7.245-8.86m-8.058 8.547c2.044-2.364 3.471-4.565 9.285-9.231m-13.722 21.005c2.753-6.03 7.282-7.616 17.892-23.317m-18.164 22.474c6.504-6.81 10.98-12.83 18.12-21.085m-17.976 28.277c7.97-6.235 14.173-16.87 23.766-29.124m-23.18 28.251c9.766-10.883 16.913-20.887 23.806-27.08m-24.372 34.351c10.024-10.083 16.813-21.172 27.914-33.431m-27.862 31.225c7.417-5.928 13.251-13.64 27.46-30.231m-26.014 34.721c9.38-10.511 18.98-22.495 30.185-31.127m-29.745 32.167c10.894-12.587 23.853-27.894 29.163-33.163m-30.827 42.015c7.221-8.738 17.19-17.71 32.367-39.05m-31.902 36.39c6.416-6.302 14.382-14.248 32.888-38.516m-32.518 43.52c8.735-8.41 19.358-20.14 34.128-38.748M105.01 130.93c9.716-12.247 19.072-22.408 32.609-40.568m-31.11 45.458c8.816-10.552 16.839-20.56 35.18-40.247m-36.605 39.122c13.845-15.112 26.85-30.215 35.107-39.076m-31.113 42.675c11.148-11.12 20.293-22.198 30.575-37.979m-30.06 35.907c12.487-12.659 23.835-26.479 30.032-34.632m-28.179 36.909c9.147-9.027 17.302-18.007 30.373-29.933m-27.722 29.795c6.189-8.227 13.266-15.646 25.68-31.686m-23.01 33.693c5.186-5.62 10.427-13.256 25.535-27.266m-26.276 27.608c7.382-6.968 15.48-15.735 24.71-27.28m-19.555 28.29c6.313-4.11 9.82-11.191 20.29-21.048m-20.143 20.911c3.8-4.492 7.53-9.662 18.564-21.93m-13.85 19.244c4.133-3.08 8.51-9.196 14.65-14.804m-12.907 16.603c3.185-3.253 6.437-8.995 12.872-13.955"/><path stroke="#000" d="M100 100c.398-13.434 14.726-24.675 31.591-19.242M98.513 98.346c3.5-14.357 19.29-25.135 33.019-15.18M130 82.68c5.93 4.614 9.85 11.01 9.044 18.29m-9.074-19.634c6.785 4.254 8.051 12.724 10.912 19.184m-.73.404c-1.163 6.26.864 13.34.296 17.831m.165-18.174c.029 3.575-1.296 8.328.015 19.953M140 120c.85 14.522-16.521 24.156-30.767 17.965m32.736-19.715c-2.876 14.878-17.671 27.204-31.526 20.57m-.443-1.5c-5.861-2.773-10.164-10.267-8.224-18.2m9.314 19.69c-8.465-3.945-12.265-13.456-9.55-19.665m-.911.434c.468-6.183-2.126-11.259-2.08-17.721m.93 17.84c.51-6.289.255-11.537-.035-19.4"/></g><path fill="#fff" d="M53.5 83.5c-1.625 4.89-9.647-1.437-8.293-2.587-.973-3.636 1.225-4.996 2.6-1.323 12.326-13.999 29.472-13.966 49.076-6.193-2.515 8.497-3.677 10.191-6.435 9.148-.05 3.002-6.475 4.196-3.54-1.301-9.903-4.316-21.166-4.946-35.545 1.607l2.137.649"/><path fill="none" d="M53.5 83.5c-4.486 1.225-9.048 2.111-7.757-2.052m6.357 2.117c-3.003 2.201-3.857-1.604-7.383-5.398m.819 1.931c-1.291.099-.795-2.17-.938-5.145m1.635 6.072c.381-2.395-2.466-5.15-1.544-3.046M46.5 76.5c11.508-13.828 34.127-12.504 46.214 1.081M45.73 75.587c13.924-13.022 32.764-12.959 50.057.914M93.5 76.5c2.096 2.295-.597 6.665-3.564 8.896m2.525-10.407c5.496 5.12 1.33 9.611-.812 10.332m-1.55-.857c-2.304 1.393-3.772 1.519-1.62-.447m2.776 1.927c-2.037-1.096-1.474-2.4-2.502-3.664M86.5 83.5c-11.42-3.853-24.61-7.679-31.023 1.294m30.608-3.116c-9.372-4.611-22.271-2.487-31.48 3.094M53.5 83.5"/><g fill="none" stroke-width="2"><path stroke="#222" d="M47.111 82.765c1.08-3.765 4.342-5.147 5.866-9.33m-6.242 9.65c2.312-2.838 4.117-5.862 6.816-8.267M50.747 86.49c3.52-8.631 10.24-14.22 15.645-18.883M50.152 85.6c5.348-5.52 9.132-13.148 13.642-16.878m-8.247 18.04c5.467-6.702 12.052-13.484 14.51-19.165M54.474 85.953c5.051-6.478 10.753-11.951 15.027-17.4M63.885 81.95c1.978-5.642 8.917-10.868 12.517-13.03M64.21 81.068c2.689-5.024 7.2-9.442 11.456-13.444M70.41 79.673c2.424-3.227 4.002-5.903 7.353-8.87m-7.626 8.353c3.339-2.453 5.772-6.884 8.41-9.98m-3.366 9.95c1.11-2.066 3.313-3.054 9.532-8.704m-9.61 10.07c2.95-3.125 5.396-7.48 8.048-9.656m-3.336 9.6c3.008-2.118 4.117-5.63 5.972-7.52m-6.612 8.674c3.08-2.844 5.488-6.093 8.02-8.605m-4.297 10.566c2.952-2.192 3.767-5.799 7.113-9.443m-6.464 9.23c1.774-3.503 5.112-5.733 6.45-8.127M87.72 84.6c2.414-3.382 3.668-6.2 7.247-8.575m-7.35 8.128c1.83-1.78 3.588-3.883 6.327-7.209M53.55 83.644c-3.12-1.631-5.606-5.044-6.784-6.344m6.641 6.408c-2.348-2.26-4.23-4.42-6.866-6.752m11.265 3.784c-3.055-.62-6.577-4.807-8.834-7.117m8.383 7.542c-2.103-2.243-4.938-3.816-8.49-6.54m13.39 3.978c-2.505.116-4.385-2.696-11.273-8.226m11.239 10.142c-4.038-3.881-7.655-6.985-10.933-9.797m16.08 9.333c-5.155-4.753-7.484-7.83-10.968-10.23m11.01 9.299c-4.266-3.575-8.062-6.73-12-9.1m17.422 10.199c-3.53-1.68-4.454-4.068-12.729-11.378m13.77 10.629c-5.176-3.528-8.338-8.295-14.086-10.708m20.71 10.028c-1.672-3.302-9.205-2.966-14.675-11.14m16.032 13.91c-4.658-3.85-8.483-8.65-17.653-14.166m24.821 15.277c-2.669-2.073-9.15-6.792-15.61-16.68m16.323 17.87c-4.976-4.61-9.056-9.759-18.385-16.956m23.867 14.379c-6.693-3.965-11.5-6.23-16.478-11.332m15.72 12.072c-5.57-5.442-9.4-8.491-15.218-14.323"/><path stroke="#000" d="M53.5 83.5c-4.35.86-9.254-.231-7.029-4.827m6.459 4.332c-1.76 2.379-6.733-1.371-7.317-2.288m-.077-.619c-1.117-1.671 1.887-2.6 2.119-1.639m-2.425 2.592c.643-1.23.21-2.653.329-5.858M46.5 76.5c12.952-11.768 32.162-13.462 46.492-.073m-48.456 1.3c14.95-14.461 35.479-13.809 47.172-.455M93.5 76.5c.507 3.238-1.502 8.26-1.563 7.466m.036-7.25c4.191 4.951.134 9.022-2.543 7.834m.668-.086c-1.076 1.95-2.695-1.254-4.818-1.102m5.25-.031c-1.847 2.611-1.59.425-6.12-.352m2.09.521c-8.9-7.225-23.046-6.848-33.732-.576m31.791.67c-9.537-3.729-22.096-5.629-30.804-1.043m-.255.949"/></g><path fill="#fff" d="M153.5 83.5c-3.25 1.83-9.383-2.925-8.107-1.094 2.858-3.522 2.916-1.81 1.1-5.617 12.368-16.438 36.497-11.867 44.893-3.354 6.847 9.322 5.698 11.925-3.85 12.146.141-4.354 3.299-1.477-.795-3.589-8.79-4.916-21.947-2.538-29.816 2.515L153.5 83.5"/><path fill="none" d="M153.5 83.5c-2.028 3.456-5.966-.183-9.66-2.322m10.867 1.55c-2.82 3.006-6.76 2.48-7.63-3.763m-1.541 1.133c1.691.183.795-3.67 1.651-5.422m-.746 3.993c-1.127.581-.182 1.099-1.707-2.632m1.766.463c12.987-12.437 33.851-13.146 46.554 1.578m-44.943-1.773c10.934-12.995 30.872-12.907 45.505 2.042M193.5 76.5c4.04 2.024 1.268 6.089-2.963 9.034m1.927-9.358c3.726 3.688.756 6.712-1.576 9.362m-.79-1.074c-2.08-1.437-2.615 1.138-2.86-2.658m2.834 1.78c-2.453 2.093-.897.59-3.016-.788m-.556.702c-10.99-4.738-21.866-5.503-33.763.671m35.68-1.243c-10.348-5.756-24.78-4.092-34.88-.446M153.5 83.5"/><g fill="none" stroke-width="2"><path stroke="#222" d="M145.94 83.919c3.338-5.277 5.574-7.17 10.57-14.089m-9.885 12.172c2.592-2.254 6.313-6.867 9.478-10.569m-4.169 12.86c2.166-1.328 3.032-4.917 12.462-15.45M150.252 84.16c3.991-4.29 5.68-7.731 13.68-17.183m-6.235 15.763c1.487-3.717 6.234-7.897 11.045-16.84m-11.167 16.264c3.915-5.951 8.434-9.045 12.864-15.274m-6.43 13.237c3.243-5.026 9.93-8.808 10.34-13.891m-8.688 12.946c1.364-2.653 5.243-5.391 9.351-11.39m-5.535 12.132c3.794-4.524 7.114-9.323 11.334-9.823m-10.543 8.646c4.32-3.81 7.476-7.97 9.235-9.858M175.24 80.06c3.119-2.948 3.898-4.248 7.609-9.002m-7.716 10.016c2.647-3.355 5.055-7.262 9.107-11.166m-5.382 11.68c2.566-2.642 4.873-4.248 9.05-8.586m-8.345 8.291c3.6-3.197 6-6.36 7.812-9.134m-2.782 10.581c1.063-3.317 4.02-4.392 5.906-8.532m-6.602 8.041c1.606-2.908 4.755-5.016 7.384-7.807m-4.046 8.852c2.911-.938 3.61-4.023 6.656-6.237m-6.464 6.852c1.786-1.68 3.683-3.055 6.34-6.528m-39.683 5.284c-1.535.342-4.536-2.352-8.665-5.311m8.31 6.642c-1.969-2.247-4.288-4.52-7.867-7.1m11.344 4.18c-2.18.104-2.29-1.295-9.214-7.587m9.467 8.323c-1.853-1.958-4.231-3.83-8.196-7.64m12.981 5.084c-2.657-2.3-8.038-3.774-11.08-8.158m10.523 8.665c-2.74-2.176-6.943-5.936-9.123-7.418m13.357 6.65c-.82-2.916-2.791-3.675-10.23-8.798m12.002 8.781c-3.423-2.527-7.555-5.263-11.124-9.046m16.143 9.276c-3.359-2.642-3.447-6.022-13.661-12.335m13.853 12.744c-4.78-3.566-9.722-8.776-12.295-11.207m21.737 11.146c-8.75-4.676-13.426-8.745-16.162-12.406m14.267 14.315c-2.155-2.8-5.402-6.278-14.321-13.873m24.344 15.38c-4.947-4.015-12.185-7.85-21.188-17.152m20.96 17.17c-5.088-5.052-10.793-8.942-19.471-16.393m23.418 12.406c-4.476-2.308-11.109-3.457-16.864-10.36m15.076 12.715c-2.634-5.102-8.024-8.383-14.573-12.627"/><path stroke="#000" d="M153.5 83.5c-2.78 1.106-6.003 2.273-8.211-3.404m8.65 4.942c-4.28 2.824-9.788.637-10.405-3.216m2.002-1.724c1.167-2.152 1.906-4.452.095-2.106m-.508.773c-1.023-.12 1.24.184.838-2.285m.539.02c11.187-14.94 34.277-13.283 48.072 1m-49.134.81c14.179-15.138 36.219-15.499 48.644-.635M193.5 76.5c2.13 3.192.404 7.8-3.766 8.177m5.68-8.972c-.952 2.208.775 7.015-7.356 8.774m2.04-.015c.222 1.576-3.51.836-4.232.01m4.11-.448c-.646-.905-.17-.681-3.875.628m.399-1.154c-9.8-7.3-21.247-4.54-34.046-.369m35.059-1.47c-9.71-1.927-24.676-3.264-34.992-.407m.979 2.246"/></g></svg>