<svg xmlns="http://www.w3.org/2000/svg" viewBox="0 0 240 240"><g fill="none" stroke-width="4"><path stroke="#ffbe1a" d="M45.13 82.787c1.615-.248 4.3-1.295 6.539-1.048m-6.113 1.674c2.205-.71 4.97-1.741 6.778-1.887m-1.063 7.145c.395-3.02 1.014-5.262 1.573-7.374m-1.557 7.24c.437-3.314 1.034-5.793 1.089-7.277m8.392-15.62c3.713-1.553 5.603-4.884 14.13-9.97M60.542 65.673c5.66-4.129 9.734-8.19 14.43-10.597m-9.955 16.626c3.218-7.523 9.28-10.647 8.838-15.146m-7.578 14.53c3.171-4.613 5.19-8.165 8.206-15.65m4.705-8.72c3.7-4.041 8.48-7.394 10.963-9.183m-11.62 8.315c2.886-3.96 7.637-6.176 13.061-8.643m-8.268 13.593c1.801-3.574 4.31-7.86 6.644-13.59m-5.262 13.244c2.8-4.53 4.527-11.328 6.361-14.137M49.184 92.267c2.86-2.444 6.887-4.184 10.887-7.388m-12.314 7.755c3.636-3.05 6.15-3.951 13.232-9.401m-7.994 13.424c2.383-1.62 5.257-4.53 6.76-11.735m-6.127 12.945c2.491-5.672 5.428-9.418 7.069-14.461m2.991-10.371c7.36-4.407 12.227-9.751 19.054-14.32M63.486 73.078c4.094-2.51 7.002-4.464 16.864-12.49m-9.617 17.99c1.304-6.799 5.329-11.817 12.172-17.867m-12.74 18.942c3.825-6.942 7.817-14.183 11.225-19.972m2.652-7.376c1.628-5.477 9.931-5.881 14.447-14.202M82.202 52.352c5.252-4.043 10.156-6.501 17.228-13.448M89.488 58.55c4.305-6.223 6.951-14.306 11.71-18.21m-13.899 18.2c3.042-4.903 7.077-11.018 12.351-18.67m-48.14 60.198c2.628-1.725 10.045-4.637 16.828-12.995m-16.054 12.06c4.544-3.63 8.785-6.331 14.605-10.636m-8.962 17.336c1.147-7.246 4.325-9.063 10.926-18.92M57.75 105.493c2.48-4.236 5.114-7.771 9.326-17.402m1.346-6.729c4.05-3.438 5.493-5.614 16.155-13.673M68.115 82.453c7.154-6.637 14.198-11.562 17.238-14.832M75.56 88.227c1.737-6.14 4.802-10.4 8.687-20.46m-9.642 19.035c1.652-4.447 5.068-9.787 11.573-20.027m-2.18-7.118c6.74-4.455 12.94-9.978 22.157-15.899M85.267 60.596c4.555-2.643 8.95-6.917 20.749-16.157M93.457 66.504c4.542-9.63 7.156-17.28 10.744-22.382m-11.82 22.56c3.543-7.044 7.216-14.638 13.66-23.244m-49.513 63.11c3.349-3.471 7.68-7.71 14.31-11.19m-14.824 11.689c4.068-1.936 10.243-6.922 15.445-11.366m-9.936 16.55c5.33-2.818 8.22-9.004 11.906-17.345M62.41 112.875c2.792-6.25 6.885-12.941 9.732-17.96m-.239-6.286c7.06-4.917 13.211-8.062 18.161-14.169M70.581 89.373c6.28-2.733 11.698-7.567 19.08-15.162M78.516 93.903c2.179-7.816 5.977-13.689 9.457-17.65M77.475 94.495c2.62-3.125 5.036-7.176 12.671-20.14m.449-4.708c2.562-7.301 9.605-10.463 18.025-16.987M88.735 68.77c7.562-6.206 15.69-12.569 20.406-17.627m-12.343 22.42c5.514-7.137 8.975-16.32 14.122-21.768m-15.765 22.88c2.562-5.916 5.713-11.2 14.979-22.801m-.505-4.808c5.607-2.741 7.31-8.854 15.836-12.548m-16.627 11.575c2.563-2.82 7.057-4.517 16.067-11.678m-7.741 17.906c1.947-4.823 3.64-12.977 7.937-18.128m-9.39 17.259c3.069-7.11 5.442-12.421 8.118-17.02M59.018 116.55c5.617-2.746 8.878-6.62 17.378-15.388m-16.561 15.992c4.531-6.275 11.49-9.455 15.227-13.668m-11.808 19.165c2.9-5.432 6.81-8.225 10.501-20.274m-9.523 19.507c3.656-6.14 6.141-10.12 11.275-18.862m-.947-5.12c6.836-5.721 10.776-9.15 18.695-12.973M74.601 97.355c7.714-5.394 13.248-11.858 18.643-14.204m-13.458 18.764c2.453-5.051 6.591-6.709 11.13-20.018m-10.137 21.25c5.065-7.381 6.73-11.63 11.404-20.338m.066-5.972c8.881-8.087 17.35-15.584 22.488-16.66M92.257 76.7c8.562-5.61 14.276-11.904 22.127-18.057m-14.898 21.65c6.966-5.543 9.426-14.395 14.717-19.79M98.612 83.085c5.07-9.473 9.606-17.837 15.796-23.843m-.427-7.44c3.925-3.007 7.417-2.687 16.434-10.03m-17.506 11.602c5.82-3.458 12.636-8.161 16.38-12.175m-8.128 18.855c2.943-6.85 6.266-14.894 7.426-19.152M118.5 58.789c4.146-6.956 8.661-13.327 11.775-17.802m-68.884 82.52c6.63-3.794 12.584-11.435 18.196-12.844m-15.754 12.95c3.128-3.11 8.602-6.691 16.187-12.823m-11.677 18.651c1.49-2.921 6.103-10.908 10.033-17.857m-9.639 16.908c1.98-3.903 6.083-7.766 10.997-17.856m-.938-6.01c7.16-6.185 12.451-9.455 17.241-14.796m-16.854 16.023c4.977-5.979 11.291-9.846 16.907-15.087m-12.918 19.817c4.696-8.398 10.676-12.624 12.435-17.991M83.93 109.808c2.498-2.9 6.18-8.708 11.95-19.941m2.828-5.856c4.731-4.342 13.51-11.713 16.733-15.762M96.695 84.588c8.548-7.425 15.124-13.025 20.689-17.052m-16.146 22.599c6.085-7.175 7.591-11.887 15.483-22.015m-13.434 20.756c3.338-3.474 5.055-8.679 14.693-22.43m-.142-3.988c3.814-7.135 9.126-7.779 17.158-14.834M116.91 61.338c4.79-4.493 10.532-7.516 17.382-13.389m-9.477 17.4c1.383-5.25 7.947-13.302 9.593-16.657m-11.833 17.777c4.946-6.898 8.99-13.262 10.777-19.447m-68.637 84.39c7.39-4.032 10.431-5.593 17.164-13.906m-16.254 14.442c7.475-4.89 13.604-10.462 16.781-12.896m-8.318 18.25c.371-2.478.9-8.056 10.398-19.573M73.252 137.7c2.297-6.909 7.552-14.223 10.87-18.57m-3.071-4.535c6.803-7.318 12.529-12.69 18.425-16.377m-16.39 15.82c5.08-6.712 13.106-10.61 18.344-15.29m-11.464 19.058c2.842-8.137 6.15-15.913 12.549-17.98M88.006 119.25c4.494-7.019 9.044-14.97 12.172-20.78m2.31-5.423c6.315-6.259 12.658-13.105 19.057-16.833m-21.454 16.832c6.09-4.016 11-8.497 20.228-18.47m-14.398 23.263c5.754-6.27 12.842-17.7 16.883-21.261M105.74 97.905c4.581-4.27 7.148-11.512 15.315-23.612m.24-4.953c5.122-5.113 12.06-8.865 18.227-12.716M120.605 68.42c5.945-3.524 11.26-7.452 17.134-12.99m-11.701 18.084c3.68-2.642 3.86-7.536 11.131-17.042m-9.357 18.08c3.247-5.524 5.589-10.978 9.415-18.616m-68.782 83.068c6.915-3.978 13.41-8.501 17.085-12.642m-16.178 14.725c6.574-5.276 11.915-9.618 17.23-14.292m-10.839 17.206c3.81-3.858 6.722-12.78 10.36-15.749M75.15 146.157c4.225-5.538 6.745-10.592 12.2-20.142m-2.069-4.726c6.028-3.749 14.31-10.156 20.733-15.924m-19.698 16.643c2.934-3.09 8.285-7.264 17.36-15.395m-11.381 20.133c4.042-3.404 7.316-10.28 12.408-21.291m-13.014 20.511c5.782-6.771 9.918-14.429 12.66-19.947m1.085-4.14c4.412-7.01 9.26-11.378 19.886-19.071m-21.2 17.412c5.856-3.08 10.636-9.367 20.608-17.891m-13.806 24.86c5.087-8.948 9.051-15.584 11.85-23.001m-13.075 21.61c3.262-4.829 6.968-10.873 15.277-22.865m.975-4.856c2.647-3.712 7.969-8.39 16.559-15.752m-17.857 15.67c6.515-5.978 11.127-8.997 17.441-14.99m-11.86 20.894c2.579-6.515 7.48-13.653 10.973-20.455m-10.003 18.772c3.04-6.462 6.853-13.179 9.695-17.86m-65.114 84.669c1.93-4.246 7.351-7.691 14.736-15.447m-15.631 15.094c3.31-3.517 7.917-8.37 14.24-12.462m-10.146 15.387c1.349-1.152 5.105-5.064 12.505-15.403m-11.043 16.364c3.258-5.52 5.684-10.54 8.748-17.497m1.834-5.026c4.619-5.342 13.588-11.438 17.437-15.702m-18.166 13.735c4.525-2.57 7.947-6.253 18.425-13.445m-13.32 20.345c5.58-5.092 6.304-13.35 13.897-22.28m-13.254 22.155c3.588-7.59 6.654-12.736 12.254-19.823m1.498-6.742c2.256-2.516 8.86-10.518 20.813-16.995m-22.548 16.832c5.618-3.73 10.648-9.043 21.297-17.268m-14.233 23.029c1.401-5.772 6.856-15.275 11.747-23.066m-12.093 23.74c2.975-7.429 8.432-13.376 14.161-23.186m-.41-4.958c5.544-4.006 10.748-9.325 18.466-14.136m-18.292 11.95c4.247-1.358 7.858-5.846 17.831-12.972m-13.938 20.534c4.74-5.417 7.66-9.247 11.376-19.854M135.013 91.2c2.63-5.953 5.248-10.594 10.607-20.169m-67.156 84.37c11.488-12.05 25.49-24.956 34.794-33.848m-35.752 34.406c11.205-10.688 21.71-22.669 35.625-33.626m-31.588 39.315c13.55-16.17 26.465-30.137 31.526-39.908m-30.398 38.609c10.08-12.917 22.503-27.064 29.778-39.058m.108-3.58c3.015-7.18 9.435-12.141 18.83-16.816m-19.313 16.577c5.937-5.033 11.595-10.462 20.313-18.945m-15.328 21.554c2.519-2.872 8.778-7.526 16.677-22.498m-17.051 24.723c5.994-9.134 11.3-16.741 15.893-23.755m-.632-3.711c4.104-4.715 5.798-6.474 17.316-13.757m-17.89 13.12c5.099-5.457 12.144-9.532 17.525-14.515m-9.606 18.75c3.675-6.12 8.613-13.853 11.629-18.368M137.966 99.36c3.204-8.079 7.472-13.721 10.793-19.55m-68.035 83.746c17.438-18.855 33.19-35.317 56.702-55.753M80.11 164.255c15.392-15.096 30.418-31.123 56.166-57.423m-48.708 63.064c18.061-23.79 38.39-50.357 47.47-61.09M87.02 168.847a2580.14 2580.14 0 0 1 49.337-61.078m-2.085-6.23c5.597-5.223 7.414-8.538 18.743-12.998m-17.174 12.13c5.08-3.412 9.68-6.785 17.822-14.035m-11.775 20.445c1.864-5.88 6.248-7.853 10.243-21.264m-9.567 19.715c1.761-4.803 5.14-8.13 10.113-19.252M83.86 174.077c16.246-19.453 33.832-36.512 73.917-77.839m-75.473 78.364c22.156-21.702 41.54-45.36 74.373-79.473m-66.074 86.084c15.112-22.884 35.728-47.873 66.876-84.944m-68.46 82.1c22.698-26.107 42.837-52.444 67.136-82.628m-67.853 85.122c13.957-16.815 30.58-35.398 73.448-76.76m-75.058 78.169c25.223-26.816 49.602-53.564 73.236-79.604M94.37 187.076c25.354-32.949 49.727-62.49 64.67-84.993m-66.418 83.979c26.137-33.267 53.372-66.364 67.515-84.194m-69.644 84.799c12.918-12.083 27.797-26.902 47.016-45.409m-45.294 47.487c12.298-13.822 25.872-27.717 44.372-46.362m-40.522 50.504c14.902-18.14 32.688-36.353 42.276-51.44M98.227 193.41c11.767-15.659 22.506-31.373 38.86-51.868M150.77 121.4c3.027-4.323 8.499-6.443 12.662-10.168m-13.041 9.546c3.56-3.47 7.03-4.91 13.258-10.173m-7.338 15.586c2.342-4.69 2.163-6.14 6.127-14.925m-6.6 15.367c3.275-6.308 6.102-9.868 8.93-16.54m22.684-32.303c4.237-.802 7.95-5.433 11.723-8.184m-13.953 10.438c6.008-4.175 12.688-8.187 15.028-10.504m-8.805 15.223c5.454-5.572 6.296-11.838 8.647-14.518M191.32 84.48c3.583-5.445 8.23-12.734 10.277-15.005M96.751 192.699c9.613-5.356 15.02-13.457 39.517-36.051M97.615 195.12c9.408-11.059 20.778-22.322 37.42-39.143m-30.751 43.565c8.51-11.636 17.316-25.008 30.02-42.406m-31.85 42.7c11.668-13.42 20.99-25.408 31.552-43.81m-.82-6.466c20.193-17 39.382-39.464 75.198-78.414m-73.376 80.368c17.032-18.427 33.321-35.34 74.776-81.745m-67.933 84.248c16.818-20.333 34.518-40.364 67.477-82.053m-67.94 82.9c14.967-16.876 28.94-36.044 68.305-84.541M102.821 199.637c9.744-10.322 21.343-20.638 34.237-32.267m-34.29 33.209c10.073-12.422 21.734-22.427 35.45-35.271m-28.635 40.924c7.383-12.401 18.385-29.228 28.206-39.675m-29.225 39.82c8.845-12.53 17.219-24.172 28.45-41.346m-.182-6.627c18.647-15.409 32.043-34.914 78.037-80.961m-77.832 82.785c30.165-33.75 61.125-65.284 78.733-83.589m-73.862 87.974c19.219-23.016 38.005-46.972 72.607-86.8m-71.174 87.183c27.2-32.072 53.362-63.923 71.077-88.423M109.64 206.184c13.703-14.168 24.926-26.451 32.741-30.778M109.8 204.69c8.231-8.884 15.854-16.19 31.709-30.473m-28.15 34.501c8.689-11.392 17.506-23.858 29.284-36.822m-26.795 38.542c10.313-14.998 19.038-29.553 25.89-37.321m-3.066-3.525c20.67-20.778 36.98-39.475 75.62-79.882m-74.931 79.168c16.193-17.216 32.159-33.948 74.194-79.199m-66.184 82.985c18.465-23.994 39.246-47.917 66.856-83.171m-67.78 84.191c16.79-20.974 34.232-43.243 66.674-83.253M118.656 208.24c17.356-21.642 32.792-37.967 77.248-85.946m-78.738 86.29c26.791-29.103 51.302-56.077 81.03-86.405m-74.243 89.316c21.778-28.468 46.363-57.726 74.599-88.669m-76.317 90.081c18.765-22.852 37.097-44.01 75.437-91.408m-71.195 87.665c22.425-24.661 43.399-44.566 69.207-73.916m-69.245 72.61c27.455-26.87 53.132-55.178 69.164-71.806m-62.899 78.222c25.63-31.693 47.459-60.47 61.023-77.331m-60.166 76.764c17.199-21.967 35.212-42.83 61.387-77.565m-60.074 76.84c23.426-27.96 49.654-52.1 61.946-65.451m-63.274 63.92c21.437-20.246 41.141-41.413 60.826-63.303m-55.651 68.854c16.058-15.446 30.896-32.764 57.502-67.867m-55.557 68.1c18.25-23.346 36.442-46.468 55.493-67.887m-47.716 55.962c16.896-14.208 34.38-31.844 46.456-46.506m-44.698 48.948c10.046-12.933 22.004-23.364 44.416-47.923m-37.194 50.371c8.463-9.05 17.295-24.178 38.176-51.705m-39.717 53.108c15.021-19.772 31.302-39.658 39.185-51.407" /><path stroke="#000" d="M116.75 32.76c-1.833 1.688-2.925 1.099-2.26 2.66m2.894-.71c-2.55-.053-1.503-.899-.91-.554m-2.104-.586c-3.187 3.28-2.335 3.054-5.604 5.925m6.152-6.134c-2.687 1.383-3.755 5.454-2.962 8.934m-2.266-1.465c-1.675-.067.167 4.217 1.573 3.008m-1.505-2.459c-.613 2.473-.303 2.903-.354 2.562m.086 1.469c1.264.153-.41 3.153 17.78 32.413m-19.682-33.83c.214 1.01 1.824 3.665 15.57 36.332m2.162-1.125c6.798 19.288 16.086 34.552 17.495 32.346M124.48 78.56c10.748 17.13 17.475 33.52 17.446 33.916m-.795-.055c.58.137.627 2.134-.357-.723m.359 2.502c-.112-2.473-.393-2.017.474-1.395m-.426-.054c-.018.173.04-2.464-3.466-.887m3.433.195c-2.122-.344-1.132-1.357-4.708-.734m1.231-.544c-3.241-.123-2.617-.106-18.214-37.104m19.158 36.39c-4.3-1.352-2.147-2.905-19.65-35.914m-1.024.458c-10.967-26.259-14.888-33.234-15-36.216m16.216 35.98c-13.287-23.53-17.391-35.646-17.915-33.45m-.181-1.364c-1.49-1.343-1.64-3.892-2.265-1.986m.55 2.036c.123-.584-2.514-3.97-2.914-3.643m1.249.153c-.837-1.134-5.771-2.293-7.472-.753m9.11-.466c-5.031 1.207-6.156-.969-9.05.023M89.9 33.66c-2.779 1.142-1.165.611-4.57 2.565m5.594-1.682c-3.376.68-3.497-2.152-7.983 2.878m2.189-1.991c-4.017 1.238-1.587 6.355-4.025 8.632m2.194-10.106c-1.522 2.957.347 7.404-1.272 8.221m-.887.673c-1.85 2.735.032 2.543 1.49 6.264m-1.704-6.047c1.624.278 1.345 3.502-.017 5.07m.281-.467c-.341-.139-.622 1.133 1.33 6.714m-.843-7.713c.384 1.804-1.042 3.538.397 7.648m1.446-.819c2.296 2.896 1.533 4.648 2.062 4.99m-.982-6.702c-2.039 2.048.082 6.033-.684 4.937m1.354.455c1.746 1.222.215 4.467 3.325 6.507m-3.396-5.052c-1.932-2.73 3.41 1.236 2.535 4.936m1.376 1.709c4.415 12.462 27.236 59.625 27.075 60.333M89.418 66.341c3.22 11.894 29.68 56.134 26.885 58.234m.867-.395c-1.31 1.13 1.295-.742-3.486-.233m3.6-.24c.154 1.49-.501-1.715-2.805-.364m-.989-1.073c-3.396-2.643-3.735-.124-19.572-32.938m20.825 34.934c-3.442-5.868-5.45-1.97-16.902-32.734M95.75 90.08C85.288 68.158 80.73 58.502 81.855 57.443m12.299 34.403c-7.256-22.697-12.936-30.457-12.42-34.848M80.78 59c-4.047-2.909-10.521-8.206-13.831-4.679m14.325 3.716c-4.307-5.242-10.024-6.656-16.132-4.703m1.868-.084c-1.281.94-1.314-.898.925.177m-.767-1.99c-.278 1.61-.476-.226 1.214 2.96M66.12 53.36c-1.382-.092-1.391-2.015-.44-.723m2.426 1.403c-3.244-1.6-4.164-2.68-.78-.418m-1.016-.592c-1.164.578-.865-.412.237.25m.326-.11c.49-2.56-.349 1.758-.45 1.352M64.6 54.4c-2.925 1.403-4.094 5.092-5.334 6.988m4.896-5.724c-3.673 1.955-2.587 2.974-1.31 5.072m-1.962.524c.315-.61-.727-.704 1.245 1.623m-1.02.072c1.306-2.43-1.545-1.016-.085-.95m-.36 1.895c.51 1.593-.791 2.234 2.458 5.065m-1.58-3.169c-1.296-.175.317 2.728-1.404 1.825m1.196.479c.073-.698 6.34 17.71 15.644 34.035m-16.33-34.882c1.796 2.14 8.995 19.65 18.08 37.791m-.354-1.084c7.414 18.072 18.052 36.937 16.955 33.527m-15.382-35.09c8.215 22.333 14.952 34.994 17.346 37.235m-2.199-.652c-1.892-.261-.003 1.76.756-.297m-1.63-1.584c2.898 4.058 1.644 4.027-1.283 3.801m1.807-2c.056 1.831.738-.827.061-1.317m1.869-.351c-.846 3.459-3.4 2.66-3.79 3.185m1.69-1.717c-.54.136-2.953-2.207-3.956-3.458m5.681 3c-1.806.796-4.908-1.905-5.464-1.39m.209-.172c-2.126-2.68-2.218-2.148-14.16-25.193m12.734 25.469c-2.418-1.303-4.067-3.176-11.437-25.313m-1.437.217C62.192 83.056 64.492 84.377 62.914 84.082m15.727 27.431C61.348 84.657 65.584 84.1 64.266 81.191M62.83 83.25c-3.84-2.574-3.967-5.344-7.29-4.794m6.198 4.589c-.21-.67-5.096-4.043-5.776-3.82m-.382-.685c-1.461-2.212-4.422-.035-4.25.488m4.254-1.944c-2.875 1.842-3.41 1.784-4.654-.175m-1.16 2.071c-.753 1.586-3.119 2.268-4.076 1.24m5.974.247c-4.187-1.032-3.352 1.348-5.457 2.399M47.58 81.3c-3.218 4.89-1.305 8.438-2.02 9.814m1.702-9.084c-1.911 1.376-4.688 5.607-.925 10.01m-.287.43c1.123-1.026 7.184 12.218 13.895 33.664M46.309 92.801c.815 2.137 4.103 11.533 15.868 31.202m-.977.387c12.101 27.946 13.411 32.064 16.76 31.933m-16.02-31.015c11.354 23.087 13.251 30.28 15.3 32.698m-.59-.916c6.027 12.131 11.588 27.668 17.645 37.11m-16.578-37.615c2.648 12.068 11.28 29.2 18.128 34.95m-.915.815c.973 4.063 6.176 4.119 6.039 8.058m-7.593-7.418c2.128 2.392 4.387 5.758 8.278 6.047m.056 1.113c1.758 3.793 5.373 4.662 9.76 5.97m-9.168-5.232c4.174 4.015 4.055 2.529 9.84 4.22m-1.292 1.812c2.776 2.245 3.595 2.147 3.718 1.788m-4.08-2.036c2.275 2.746 3.261.266 5.28.625m.212 1.753c2.47.604 3.946 2.661 6.419 2.637m-4.563-2.54c-.531-.239 3.282.186 4.845-.867m-.881 1.68c.481-1.369 8.684-1.448 7.974-.264m-8.166-.786c2.332 3.374 8.814-.738 8.364 2.67m1.528-1.56c13.467-2.101 22.336-5.768 33.826-11.049m-33.871 11.643c12.525-2.36 25.605-5.62 34.568-14.537m-.363 1.613c4.644-1.636 7.001-6.229 10.333-8.63m-12.282 8.902c4.174-1.542 7.11-6.328 12.972-9.97m-1.473 1.718c2.186-3.995 5.818-4.807 7.98-6.002m-9.361 6.712c5.343-2.006 6.434-3.742 6.346-6.751m1.195-.999c6.502-5.386 8.482-14.986 12.522-24.987m-12.515 24.821c4.299-6.91 6.901-14.468 8.939-23.739m2.024-.765c2.565-5.325.623-9.017-.145-16.732m1.651 18.495c-1.144-5.715 1.877-10.99-2.051-18.319m1.775.506c-1.065-5.924-1.014-8.656.616-16.545m-.545 15.5c-.14-6.703-1.176-8.45 2.442-17.298m-1.223 2.293c-.097-9.188 5.005-14.763 9.213-31.073m-10.052 31.62c4.641-7.274 5.906-14.703 8.21-31.171m2.179 1.264c2.612-11.567 3.67-14.811 7.809-19.278m-8.715 20.102c4.61-13.615 7.095-13.304 7.337-18.052m-.531-.602c-.06-.52.434-3.063-1.653-7.115m1.402 8.713c2.495-1.896 2.748-3.832-1.023-8.837m1.424 1.639c-1.827.103-1.793-3.78-2.83-5.307m1.858 5.051c1.623-3.05.553-1.739-2.18-3.883m1.882.359c-.535.124-2.06-4.579-3.878-3.32m4.32 4.054c-1.56-.865-2.02-1.43-2.553-4.08m-.729.356c1.446.39 1.239.336-.902.9m.31.726c-.058-3.656 2.17-2.804.87.14M205.5 65.98c.354-1.694-1.09-.568-3.055 1.288m1.06-3.109c-.624 2.663 2.608-.455.583 3.483m-.288-1.812c1.164-1.39-2.153-1.016-2.528-.94m2.505-.279c1.104 1.07-2.324 2.755-.934 2.481m-.993-1.052c-6.887 3.198-13.793 11.753-17.905 21.285m15.958-21.49c-7.476 3.932-13.187 9.827-17.952 24.968m.749-2.053c-1.193-.971-2.47 4.524-2.544 5.38m2.495-4.525c-1.614-.219.822 4.41-3.52 5.189m1.609.306c-4.162 8.303-4.66 9.712-5.843 11.46m4.975-11.975c-3.386 9.656-2.247 9.497-5.086 11.043m1.544 1.972c.018 3.825-1.682 6.328-5.673 5.89m5.54-6.479c.745 5.01-4.127 3.774-7.575 6.72m1.308.709c-1.09 1.813.561 1.097-.657 1.638m.075-.522c-1.056.836.447-1.328-2.242-1.571m2.194.925c-1.263-1.145.443 1.39.92.856m-2.153-1.274c-.053-.415 2.924-.83 2.43-.864m-1.877 1.712c.753-1.62-.778 2.127-2.109-.112m1.83-.544c-.479-1.182-2.722-.249-.365 3.36M167 116.31c.763 1.724-1.725.194-1.225.91m.113-1.92c2.827 1.367-2.18.986.913.937m-1.401 1.023c-2.138 1.116-5.05 1.064-4.424 1.019m4.172-1.867c-.35 1.19-2.511.847-5.555 4.295m.467-.437c-2.782 3.45-7.681 4.496-11.73 9.508m13.591-8.784c-6.302.696-11.222 2.616-12.405 7.356m.184.15c-5.531 8.06-11.677 16.217-13.827 24.178m12.942-23.043c-7.876 7.73-10.736 15.335-13.085 22.948m1.46.267c-1.48 3.435 1.555 5.805-1.419 8.417m-.112-9.317c.273 2.17.173 6.53-.634 10.135m2.205-1.405c2.323 5.102.995 6.874 3.647 12.863m-3.11-12.273c2.109 4.223.954 8.447 2.027 11.369m1.126 1.091c-1.596-.724.074.003.483 1.046m-1.776.723c3.156-2.354 1.092-1.703 3.764-2.366m-1.931 2.037c-2.018 1.367.335.203-1.955-1.442m.362-.01c3.205 3.824 2.816 2.947.628.75m-.245-1.018c-4.553-3.48-4.632-9.38-3.78-15.116m4.144 13.919c-1.4-6.308-7.12-10.454-5.541-17.482m-.383 2.239c-1.752-3.64 1.733-5.432 1.149-8.098m-1.572 8.488c-1.677-2.419.388-4.607 2.13-9.827m-1.557 2.047c.418-5.496 3.15-10.203 4.784-14.524m-2.988 13.395c-2.278-5.535 1.818-8.244 3.005-13.453m.869-.558c4.88-8.678 16.1-17.14 24.745-19.874m-25.666 20.18c4.3-8.932 16.926-14.554 27.27-17.275m-2.109-1.771c1.843-.51 3.079-.428 2.502-.965m-2.083-.144c-1.894.6 1.563 1.762.79-1.3m.011 2.029c-.986.292.057-2.54-1.98-3.57m2.237 3.723c1.92-.631-1.188-1.01-1.769-3.992m.762 2.169c-.202-2.328-7.166-16.278-16.837-36.34m14.975 34.542c1.949 1.466-8.395-16.93-16.1-35.186m-.188-.826c-8.573-20.007-17.738-35.982-16.582-36.164m15.268 34.959c-8.003-19.966-16.326-37.127-15.576-35.499m-.79.004c-1.462-4.13-5.955-4.92-6.605-6.649m4.695 6.062c-1.32-1.15-2.056-2.893-8.534-7.5m1.954 1.897c-.172.698-2.839-1.835-5.574.907m5.435-2.125c-.475-.579-4.652 2.486-2.274-.877m-1.737 1.865" /></g></svg>