<svg xmlns="http://www.w3.org/2000/svg" viewBox="0 0 240 240"><path fill="none" stroke="#ffde8c" stroke-width="4" d="M22.212 83.686C41.937 62.548 65.083 43.2 75.535 30.262m-51.93 54.126c18.508-17.714 34.559-34.844 52.493-52.217M28.27 88.227c12.311-8.339 21.67-22.055 49.178-55.762M30.022 89.053c16.942-22.005 34.66-44.716 45.105-58.488m-57.51 72.767c24.635-21.526 45.545-45.86 74.567-77.751m-73.679 78.018C37.232 83.684 55.917 62.422 89.83 25.554m-65.58 83.04c14.537-19.223 29.612-36.17 67.852-82.408m-68.058 82.223c24.64-30.468 49.833-59.05 67.029-82.899m-72.428 90.415c20.125-21.89 39.675-42.129 88.183-93.467m-89.603 94.605c29.532-32.216 59.12-63.92 88.988-96.079M22.18 123.774c30.368-38.436 58.976-76.093 82.875-102.93M23.726 122.67c27.171-33.816 54.76-68.361 81.516-102.273M18.769 125.91C52.365 89.122 91.907 47.883 119.09 18.954M19.046 126.43C51.291 91.106 85.423 52.4 118.271 20.48M23.264 131.746c35.158-41.935 68.678-81.251 94.86-110.848M24.245 133.57C57.748 90.878 92.4 48.5 116.553 19.994M21.916 138.818C48.72 106.148 80.154 70.355 124.785 20.73M19.475 138.08C47.753 107.82 73.889 78.595 126.97 22.09M23.993 145.151c34.437-40.605 67.535-78.273 103.84-124.63M26.45 143.64c20.44-24.884 42.294-49.588 99.852-121.88M20.94 146.84c43.669-46.635 84.794-89.7 115.471-126.31M22.027 147.127c46.146-49.216 89.904-97.38 114.16-125.654M28.328 152.907c26.459-31.394 48.385-62.332 109.076-132.19M29.138 152.881c33.168-39.69 65.71-79.91 107.038-131.122M23.861 154.876c44.377-47.933 87.695-96.783 121.86-131.17M24.699 154.98c40.489-41.196 81.07-85.387 121.766-131.239M31.912 159.46c31.887-35.505 62.91-74.562 114.006-136.72M31.01 161.346c41.448-49.48 84.114-99.629 114.25-138.16M30.713 165.201c30.319-39.77 63.552-76.322 124.77-139.797M28.824 164.399c32.11-35.483 65.17-71.813 125.917-137.338M36.24 167.716c44.29-52.38 86.158-109.402 117.82-142.565M35.968 168.553c31.478-40.413 65.087-80.79 118.887-141.585M33.724 172.97c36.534-41.8 74.984-81.616 128.203-144.564M32.708 170.21C81.451 118.021 129.5 66.04 162.78 29.54M40.562 174.806c34.19-43.13 71.696-89.08 121.116-145.313M39.27 176.375c46.544-55.78 93.524-111.773 121.948-147.816M35.778 178.375c44.016-49.337 88.858-97.119 134.547-145.104M37.438 179.147C82.12 127.673 128.275 77.681 169.776 33.533M44.791 183.797c28.186-35.544 58.39-71.158 124.82-148.847M44.13 184.06c31.602-37.479 64.236-76.395 124.831-149.892M44.356 183.146c32.492-35.136 67.296-72.329 131.771-144.532M43.232 184.42c35.041-36.712 68.341-73.4 133.663-146.908M49.113 190.206c32.008-37.4 62.922-75.661 127.57-152.97M48.861 189.88c32.82-40.728 67.75-82.696 126.816-152.472M47.265 191.062c41.931-47.041 80.466-92.013 133.664-148.305m-132.05 146.01c33.935-38.028 70.27-75.67 132.181-144.88M56.424 193.207c39.28-45.047 76.215-91.606 125.218-150.682m-127 152.462C94.4 150.69 133.516 104.237 182.106 43.55M54.091 195.38c35.722-37.042 67.928-75.71 134.667-148.85M54.35 195.71c46.087-52.062 92.823-104.73 135.25-148.322M62.09 199.012C104 149.33 146.384 93.79 188.26 46.45M61.512 199.262c46.163-55.693 93.126-113.897 127.674-152.417M61.173 201.232c45.308-49.448 90.478-101.043 131.06-149.005M62.384 198.629c35.397-37.034 67.692-73.9 132.031-145.319M68.578 203.79c46.25-55.362 92.172-108.263 125.692-149.92M68.36 204.748c41.196-51.899 83.008-103.608 125.116-152.142M67.946 204.468c48.802-53.713 96.007-105.022 132.966-144.36M68.298 204.302c36.682-38.262 71.115-77.7 130.603-144.687M73.132 210.011c33.856-37.479 63.637-76.08 124.776-152.17m-124.26 152.14c43.416-52.076 85.88-103.095 125.687-151.354M74.819 209.593c31.508-35.13 64.111-72.098 129.92-141.77M75.855 208.06c31.36-37.076 65.053-72.895 128.312-140.665M82.084 212.456c40.648-46.683 81.4-95.352 122.892-143.656M81.457 213.516c44.008-54.097 89.934-108.808 122.141-147.443M85.01 210.623c39.47-41.756 76.85-82.833 123.13-135.714M83.56 211.62c39.247-42.112 77.93-85.537 124.701-137.17M87.398 218.593c25.936-32.466 53.317-63.024 121.051-146.292M89.896 217.71c41.67-53.845 86.56-106.21 119.103-144.043M90.134 212.735c37.529-36.867 71.533-77.865 121.56-130.585M91.01 213.89c38.942-42.883 78.655-86.06 120.721-132.842M96.912 221.491c28.034-36.148 59.812-73.805 115.03-140.288M97.967 219.262c35.292-45.146 73.045-90.309 114.701-138.856M100.838 215.17c44.77-48.018 90.247-100.697 113.66-124.075m-114.09 124.81c38.445-39.458 74.132-78.97 114.23-126.308M106.153 219.261c34.428-35.657 66.714-73.22 109.187-128.768m-108.77 129.939c35.976-40.137 69.893-83.011 108.113-129.68M107.992 216.606c33.619-34.673 65.305-70.457 109.5-117.224M110.011 217.885c26.736-29.893 55.575-61.115 106.919-118.004M115.893 221.376c33.671-37.922 64.602-80.31 101.842-122.991m-101.36 123.42c29.554-37.603 61.872-75.234 101.223-122.997m-95.133 120.377c26.067-31.353 53.737-62.43 95.924-109.394m-98.732 106.602c30.897-30.391 62.177-63.445 98.946-106.21M128.095 222.53c30.518-39.27 65.065-80.363 93.092-112.431m-93.988 111.973c25.3-32.7 51.071-65.328 92.675-112.448m-89.792 106.084c36.173-36.949 70.46-75.41 92.444-94.326m-90.494 94.555c29.31-29.96 58.057-61.579 89.443-96.164m-81.96 100.854c28.029-33.467 61.023-72.063 81.79-100.577M137.34 221.906c19.569-21.625 37.572-43.11 83.57-100.82m-77.163 91.888c18.471-14.732 31.724-31.022 76.653-79.138m-74.16 79.593c24.017-27.774 49.697-54.967 73.195-79.339m-66.34 85.811c16.108-24.683 32.143-45.184 67.917-85.805m-68.492 83.211c24.334-31.81 49.506-62.792 66.523-82.884m-58.006 73.914c14.093-16.561 30.943-32.754 53.456-55.962m-52.26 54.336c20.417-21.467 41.418-43.307 52.234-55.602m-48.175 61.613c13.244-19.86 30.543-36.65 49.286-60.924m-48.087 59.17c10.612-10.61 20.681-23.01 46.518-58.971"/></svg>