<svg xmlns="http://www.w3.org/2000/svg" viewBox="0 0 240 240"><g fill="none"><path stroke="#d93025" stroke-width="4" d="M18.005 59.533c8.307-8.33 21.722-18.214 44.173-45.464m-45.602 47.74C32.91 48.058 45.381 33.012 63.31 14.888M22.23 65.859c16.254-17.606 30.764-39.056 40.578-48.523M23.086 67.211c8.77-11.967 17.405-23.117 39.757-50.986M23.591 69.442C43.574 43.2 67.14 23.102 78.771 11.076M21.135 68.972C34.35 56.292 46.625 43.627 78.34 9.737M28.806 74.315C37.848 57.7 50.75 45.295 77.533 9.613M28.394 73.737c11.313-16.086 24.982-31.303 48.282-62.893m-50.88 65.965C49.203 48.978 74.655 21.547 92.57 7.824M25.905 76.628C43.64 58.68 59.685 41.095 90.86 6.127M33.863 80.086c12.184-17.218 28.463-36.256 59.02-73.37m-60.014 74.2c10.744-16.79 23.471-33.24 58.854-74.333M29.607 81.99c18.556-18.984 36.2-40.006 76.633-79.287M29.626 82.431C56.83 53.774 84.866 23.881 106.94 3.02M34.394 88.435C54.408 64.485 74.92 41.066 106.164.417M35.575 87.82c24.392-28.062 45.954-56.457 71.454-86.372m-73.95 89.37c31.294-30.595 64.292-64.672 84.238-89.26M34.577 90.162c32.076-34.806 64.11-69.177 82.45-87.886M40.254 97.793c23.43-28.87 43.42-53.472 75.192-94.621M40.03 96.39c18.63-23.247 36.003-45.926 76.103-93.346m-76.687 97.12c31.213-37.576 67.279-73.282 86.01-98.728M38.696 98.102c17.436-19.203 34.554-39.212 88.43-96.395M43.968 104.425c33.544-40.562 64.54-81.71 84.077-102.772M45.212 104.467c19.744-27.7 41.908-55.27 82.02-102.223M42.968 103.456c22.354-22.85 43.642-42.635 96.04-100.522M42.392 104.87c33.92-36.025 68.23-72.083 94.93-102.582M50.764 110.186c28.274-37.471 60.057-77.043 87.724-108.392M49.67 110.636C80.382 72.093 112.107 34.271 136.574 2.76M45.212 112.807c10.132-7.98 21.649-17.474 27.064-19.472m-25.072 19.132c8.808-8.413 18.471-16.197 22.565-20.012m-16.772 24.21c4.578-4.628 6.754-7.9 18.454-24.128m-17.558 25.688C60.066 107.94 66.896 96.4 71.334 91.45m14.107-26.573c19.706-15.639 36.667-33.385 63.103-62.441M86.339 67.239c24.307-26.625 48.332-49.878 61.079-63.69m-55.12 69.477c22.3-24.338 42.178-52.57 55.56-69.596M93.105 71.657c12.252-14.596 22.837-29.978 52.72-68.38M50 118.506c9.239-3.82 11.742-5.835 16.227-10.068m-14.129 11.487c3.623-2.718 6.064-6.36 14.802-10.813m-10.19 14.344c3.01-4.191 5.257-5.857 9.094-16.043m-8.32 18.25c2.03-4.679 4.183-7.813 9.413-17.574m36.109-48.028c18.608-17.793 36.582-33.955 50.898-54.056M102.489 60.25c20.35-21.06 40.028-41.057 52.719-52.316m-46.79 58.583a6219.585 6219.585 0 0 0 45.845-59.58m-46.41 59.486c10.159-12.126 19.902-24.12 47.121-59.946M56.097 127.104c1.904-.766 3.62-2.02 8.197-3.553m-9.183 4.08c2.832-1.463 4.678-2.384 9.1-4.57m-3.871 9.858c2.439-2.295 3.343-4.643 3.935-9.17m-3.42 9.454c1.119-3.69 2.089-7.439 3.225-9.504m51.043-62.08c15.516-16.94 29.864-34.487 47.56-49.615m-47.667 47.99c10.258-9.67 19.217-20.96 47.01-48.89m-41.358 55.254c17.892-24.104 33.03-46.577 43.875-56.834M119.726 65.7c18.913-22.131 35.777-45.05 42.175-55.5M59.749 134.36c1.217.954 2.792 1.231 3.886 1.901m-3.797-2.087c1.702.83 3.09 1.712 4.046 1.91m2.378 3.816c-.973-.786-1.715-1.68-2.82-3.822m2.457 3.392c-.93-1.342-1.432-2.303-2.305-3.383m57.537-75.263c15.42-14.95 32.68-28.526 48.96-48.682m-48.1 50.542c16.75-15.896 31.196-32.566 49.07-50.067M128.89 66.015c15.73-18.939 32.926-41.227 44.674-55.752m-44.99 57.894c10.474-14.315 22.428-29.148 42.578-56.645M132.554 62.12C149.18 46.65 168.565 27.413 180 17.658m-47.457 45.785c10.898-11.415 23.33-22.776 45.566-46.584m-38.455 50.466c12.691-14.265 22.97-33.453 38.1-51.232m-38.578 52.13c8.494-13.37 18.534-24.087 39.422-51.192m-36.747 47.407c15.051-18.237 31.42-29.348 44.295-44.59m-41.964 42.358c11.131-11.435 23.015-23.81 42.216-43.022m-36.282 47.832c12.83-16.407 23.343-32.253 36.856-45.596m-36.695 47.21c10.575-15.54 21.335-28.822 36.695-48.526m-32.343 41.728c12.82-13.21 26.969-28.019 38.187-38.606m-38.759 39.873c10.29-10.493 18.519-19.126 38.936-38.404m-33.311 42.267c6.76-10.594 15.95-21.555 33.987-43.424m-33.412 45.06c11.416-17.425 23.281-31.82 33.25-44.297m-29.995 38.66c8.167-9.638 15.301-15.242 36.252-31.88M164.656 62.78c11.723-10.345 20.73-21.005 34.487-32.168m-26.35 36.333c5.29-9.908 13.092-19.6 24.97-37.531m-27.82 37.858c6.75-8.162 12.565-17.094 28.467-37.15m-22 33.28c8.853-10.082 15.348-18.023 27.308-30.495m-28.601 29.015c6.195-6.31 12.592-10.974 30.533-26.107m-25.16 31.208c7.053-10.259 16.99-20.525 23.412-30.363m-22.52 31.443c5.618-7.872 10.227-14.886 24.36-33.361m-20.517 27.863c7.528-7.202 13.308-11.622 23.36-22.308m-22.57 21.492c9.362-7.199 17.103-14.514 23.592-21.395m-18.259 26.139c4.756-5.15 9.82-13.757 19.374-24.862m-19.494 26.75c6.402-9.275 13.412-19.269 18.188-27.635M198.17 61.497c5.893-5.602 12.594-8.56 17.199-14.816M195.992 61.68c7.836-4.312 14.41-9.9 19.427-13.129m-13.296 19.716c6.614-9.199 8.123-14.334 13.636-22.214M203.243 67.66c2.915-5.738 5.693-10.751 11.273-20.322m-7.558 14.826c5.343-2.381 9.965-4.25 13.103-8.807m-12.189 8.568c3.685-1.891 6.01-5.101 11.984-8.906m-5.405 14.889c.278-5.161 1.52-7.324 4.239-14.023m-5.441 13.724c2.617-3.436 3.655-6.919 7.224-14.168"/><path d="M118.81 59.932c38.642.968 77.173-1.871 106.855-1.81m-105 1.218c32.918 2.414 66.716 2.493 103.13 1.488m.11-.828C177.192-18.862 63.43-21.634 14.225 58.44m207.932.238c-45.755-80.739-160.21-78.459-205.108.075m-.938 1.217c-.815-.063-.558-.456-2.022-1.553m.84.022c3.217 1.172.53 2.843 2.058-.424m-1.612 2.564c14.4 27.02 32.105 54.056 52.983 88.617M15.3 60.486c16.267 25.002 31.136 49.474 53.075 89.86m-.342-.347c.016-.007.027-.001.05-.005m-.048.006.05-.01m.001 0c-21.81-41.51 4.623-88.496 52.694-88.833m-54.383 90.749c-19.227-43.898 6.247-90.94 54.155-91.323m-.747-.583c1.388.967.681 1.073 1.997-1.76m-1.295 1.783c.428-1.194-1.764-.85-2.087.423M120 60"/></g><g fill="none"><path stroke="#1a73e8" stroke-width="4" d="M69.627 108.841c10.957-5.78 19.613-13.64 37.494-33.276m-35.792 34.312c7.708-7.906 18.028-17.516 35.107-32.875m-27.602 39.924c7.995-17.005 19.436-32.727 28.226-40.55m-29.227 37.898c8.165-13.293 19.665-24.98 28.583-38.138m-37.097 48.246c16.024-18.243 30.65-33.061 49.314-51.628m-48.578 49.035c15.56-13.066 29.276-27.872 48.397-48.88m-40.03 55.87c15.566-21.803 32.17-41.716 39.096-53.478m-41.525 51.885c13.452-13.631 24.936-28.995 41.543-53.913M71.95 131.7c20.619-18.458 38.6-38.19 54.72-57.993m-53.419 59.287c18.073-18.028 35.681-35.995 54.639-58.54m-50.335 64.08c13.728-18.082 27.245-34.1 49.165-62.033m-46.812 61.85c17.242-24.79 33.312-45.867 49.531-63.113M77.846 142.09c18.68-23.09 36.788-43.304 60.423-67.467M77.125 139.74c18.856-18.692 35.814-36.248 61.115-63.207m-55.043 69.034c15.091-18.878 29.367-40.013 53.238-68.634m-53.322 68.641c14.5-18.95 31.646-39.175 54.636-68.604m-57.648 69.036c22.575-21.937 43.531-44.948 65.857-64.125m-63.982 66.1c23.346-26.211 47.093-49.868 63.395-67.617m-56.288 72.871c13.338-21.358 29.074-39.532 53.436-72.217m-55.002 70.724c15.312-17.883 29.064-35.5 56.834-71.5m-57.685 71.397c21.625-19.024 41.667-42.348 63.142-67.508M87.47 153.273c22.618-23.625 45.557-47.532 63.917-68.185m-58.832 74.446c13.281-17.693 25.573-34.323 57.005-73.54m-56.726 72.511c19.288-24.862 38.353-48.757 58.112-73.916m-55.893 72.203c12.108-14.04 25.697-29.382 60.326-66.784M94.16 158.82c13.646-15.693 27.178-31.574 61.516-68.481m-56.16 70.95c22.081-24.097 38.678-48.389 56.653-70.192m-56.823 71.856c15.703-19.51 30.815-38.676 57.882-72.188m-56.031 72.68c19.023-22.31 36.138-41.655 60.828-65.839M99.601 162.38c19.674-19.555 38.775-40.091 61.416-65.387m-54.182 70.055c20.422-25.112 41.049-48.955 55.377-68.947m-56.451 68.703c19.847-23.974 37.438-46.856 56.089-69.893m-54.577 66.61c19.82-20.623 40.507-39.828 55.662-56.285m-53.143 56.627c16.45-19.315 33.75-37.406 54.238-57.943m-50.486 62.685c16.804-19.661 30.657-34.63 49.41-63.52m-48.157 64.903c17.447-23.035 34.35-46.253 49.97-64.16m-47.114 57.771c16.752-16.802 34.231-35.735 50.985-48.701m-50.874 50.491c15.027-14.8 29.511-30.942 49.831-49.64m-42.247 53.656c9.524-13.109 20.215-24.622 40.55-52.938m-40.487 54.197c8.874-13.466 19.308-26.984 40.429-53.995m-35.37 48.189c9.417-10.526 15.725-15.388 37.113-34.717m-35.465 32.447c7.587-6.962 15.163-14.15 34.255-34.571m-29.225 40.85c6.77-9.903 14.06-18.462 30.337-38.923m-30.487 37.779c10.118-12.494 20.217-26.145 30.019-38.151"/><path d="M72.5 120c-1.966 37.383 39.627 59.553 71.291 40.966M70.685 120.5c1.45 37.475 43.55 59.117 72.824 41.062m.241-.425c15.401-6.645 25.393-22.426 22.352-41.222m-23.153 39.705c17.172-8.704 25.65-20.612 25.165-41.62M167.5 120c1.96-37.471-40.953-58.03-71.966-39.926m73.815 41.036c-1.083-39.472-41.987-62.658-70.961-40.386m-2.138-1.86c-13.784 10.475-24.161 25.956-24.755 42.009m24.588-43.095c-12.489 9.252-23.015 27.238-24.475 40.171"/></g><g fill="none"><path stroke="#fbbc04" stroke-width="4" d="M126.317 58.5c1.517.117 2.294.854 4.202 2.006m-3.851-2.1c1.01.413 1.902 1.13 3.74 1.835m1.978 3.134c-.332-.334-1.166-1.24-2.041-2.994m2.268 3.26c-.598-1.042-1.256-1.924-2.135-3.279m4.658.215c2.554-.47 4.82.205 5.414-.509m-5.112.605c1.529-.148 3.159-.066 5.595-.136m-.03 5.138c-.297-1.543-.225-4.306.014-5.936m.56 6.067c-.633-1.469-.777-3.254-.844-5.738m3.342 2.98c2.23.058 3.887-.548 7.915-2.338m-8.386 3.209c3.359-1.716 5.971-2.909 7.954-3.971m-2.815 8.389c1.67-1.345 2.527-4.719 3.693-8.103m-3.186 8.619c1.33-3.042 1.83-6.328 2.316-8.812m-1.192 8.987c4.253-4.794 8.839-8.238 12.511-8.883m-12.203 7.809c2.464-1.929 5.844-4.667 11.67-8.16m-6.169 12.793c2.915-2.283 4.76-7.408 6.033-12.33m-6.103 12.444c2.355-3.729 3.538-8.393 6.32-12.718m-5.152 14.137c1.332-4.523 6.955-5.37 17.02-15.293m-18.034 13.599c4.712-2.938 8.194-5.923 17.464-13.028m-11.688 18.577c3.404-6.999 5.466-11.855 10.175-19.191m-8.764 19.18c2.105-6.317 7.047-12.435 10.052-18.387m-9.77 17.252c7.286-5.46 12.404-10.855 20.403-18.639m-21.523 20.843c5.443-4.399 11.173-10.886 20.962-18.656M167.737 84.27c2.411-4.874 7.737-10.074 14.024-25.329M168.822 83.1c4.796-6.806 9.116-16.677 14.236-23.942M167.77 87.21c8.044-10.729 13.921-15.445 25.873-26.883m-26.675 26.024c9.986-10.867 20.091-19.693 27.525-26.75m-21.136 29.98c5.134-6.911 9.465-13.02 19.378-28.302m-19.473 29.758c6.304-9.39 12.798-19.39 21.508-31.236m-23.488 30.986c8.93-6.949 18.815-13.812 31.762-28.767m-31.398 29.983c11.377-10.751 22.63-21.253 32.695-31.284m-26.239 35.247c8.3-10.465 13.608-20.96 27.84-35.33m-28.859 36.041c7.042-6.95 11.682-15.977 27.045-37.31m-31.698 42.399c16.18-15.615 29.197-27.99 42.549-40.143m-41.207 40.357c9.426-10.816 20.136-21.052 41.182-41.58m-36.026 44.128c10.797-7.185 17.704-16.81 36.734-46.315m-35.003 47.477c14.475-17.404 28.67-37.288 35.384-45.917m-38.395 49.195c16.265-16.475 30.9-33.908 45.103-47.04m-45.632 49.214c17.602-18.7 35.804-36.573 48.128-49.992m-42.104 54.738c12.098-15.17 24.704-31.98 41.356-53.156m-42.81 53.222c9.406-11.505 20.34-23.41 43.457-54.37m-48.055 62.38c11.299-14.708 22.095-25.66 52.15-56.838m-52.006 55.428c20.255-20.492 40.391-40.665 50.727-53.256m-43.25 56.94c10.616-12.776 21.479-30.56 43.194-58.782m-43.808 60.83c9.405-12.954 19.348-27.723 43.875-60.055m-54.537 72.107c16.564-18.193 34.735-37.734 59.19-63.619m-61.124 64.496c25.434-26.36 47.034-50.885 60.892-64.856m-53.038 68.127c16.037-20.038 31.704-39.838 54.302-68.102m-55.082 69.88c11.605-14.953 22.99-29.077 53.113-68.917m-74.98 93.246c17.514-19.063 36.355-40.201 77.099-85.41m-77.093 85.612c32.043-33.613 62.461-67.18 79.253-85.11m-74.1 88.891c23.542-30.075 48.177-59.388 72.363-87.524m-71.119 88.957c15.629-21.449 30.998-40.324 72.292-90.7M134.29 206.26c20.667-21.981 42.32-47.732 105.366-110.49M136.1 205.667c27.163-26.712 52.026-55.05 100.815-110.032M142.17 211.477c24.723-32.606 52.4-65.252 96.462-115.904m-96.02 115.586c23.9-29.179 47.41-57.711 94.85-116.651M119.585 239.442c32.016-39.241 65.877-73.967 119.551-133.545M118.722 237.75c43.185-48.93 86.503-98.233 121.136-132.024m-113.914 138.77c29.35-36.001 55.515-68.761 113.298-140.486m-113.12 139.395c28.2-35.944 57.723-70.861 114.515-139.11M131.38 236.25c23.102-25.066 48.049-50.21 107.725-118.455M130.345 236.028c38.425-40.576 74.61-82.973 109.334-119.517M137.873 240.163c23.145-28.786 48.483-59.062 100.427-123.241M136.63 242.753c21.117-27.512 42.975-53.132 103.027-126.405m-96.25 120.837c33.846-39.49 68.437-77.4 94.975-109.15m-96.72 107.06c32.324-35.457 64.112-69.979 97.963-105.98m-89.818 113.098c28.005-34.1 53.577-66.577 88.542-111.592M148.45 240.576c27.278-35.019 57.568-70.072 91.296-109.88m-83.825 98.092c24.082-22.22 49.883-46.505 81.963-85.059m-79.708 86.242c25.968-29.576 53.897-58.496 80.118-85.23m-74.777 89.72c24.274-32.397 50.148-61.475 75.97-90.99m-75.443 91.445c20.259-26.567 43.479-52.634 73.228-91.085m-60.982 81.04c18.85-20.368 36.8-41.994 53.397-61.734m-55.858 60.228c20.33-20.84 39.28-40.201 57.595-60.178m-51.6 64.828c13.523-16.46 27.837-35.064 51.824-63.215m-51.346 64.291c15.844-19.644 31.098-39.992 50.479-66.048"/><path d="M120.005 240c91.775 1.856 151.684-98.547 104.096-178.349M121.512 241.398C212.43 238.817 268.977 141.193 224.05 62.32m-.125-2.26c.724 1.204 1.107.486 1.596.7m.19 1.173c-1.007-3.848-.3-.997-1.921-3.581m1.074 1.519c-43.592-1.274-84.342-1.744-103.684 2.027m102.676-2.804c-34.723-.078-69.378-.296-104.001 1.604m.139-.682c-.009.012-.005.034-.017.052m.02-.053c-.007.015-.008.029-.02.05m.003.001c47.326 1.399 75.39 48.72 53.77 91.055m-53.066-90.853c44.663-1.168 73.841 49.274 52.65 90.39m-1.286-.804c.956-.533-.733.84-1.203-.101m2.01.949c.974.15 1.194-2.832-2.962.938m2.544-.64c-13.857 28.565-29.352 54.267-50.676 90.326m49.446-91.54c-13.743 28.442-30.415 54.562-51.272 91.021"/></g><g fill="none"><path stroke="#1e8e3e" stroke-width="4" d="M8.166 73.948c3.391-2.427 8.134-2.396 10.483-7.141m-10.04 8.27c2.699-1.732 5.586-3.515 11.648-7.471m-5.286 12.14c1.54-2.894 2.31-7.991 5.266-12.303M14.69 80.465c.857-3.595 3.157-7.914 5.03-12.816M4.233 92.577c5.133-5.154 8.492-8.133 21.278-18.66M4.02 91.877c5.196-6.14 10.737-9.078 21.33-16.856M9.07 95.377c4.737-5 11.798-11.864 15.395-19.334M10.954 95.84c3.977-5.71 8.212-11.722 13.777-20.658m-21.623 32.1c1.932-4.243 9.6-9.49 25.895-24.244M2.449 108.086c5.73-7.62 10.965-12.69 25.775-26.77m-21.29 32.7c6.632-7.653 11.462-17.89 20.77-31.615M7.11 112.999c8.273-10.135 14.4-20.606 20.955-30.744m-29.59 40.338C11.08 111.26 22.534 99.997 33.466 91.13M-.493 121.826c6.975-7.297 13.202-12.948 34.243-31.41M4.835 125.423c8.55-8.972 17.862-18.974 27.115-35.403M5.768 126.444c6.11-9.017 12.88-18.204 28.036-37.423M-.726 132.01c11.363-10.306 24.192-21.244 36.22-34.581M.457 132.2c12.312-11.705 26.099-23.372 35.797-35.38M5.18 138.21c8.59-10.132 14.157-18.644 30.158-41.03M7.92 138.124c7.987-11.156 14.92-22.467 29.907-41.85M3.093 142.67c9.074-10.564 20.736-21.897 39.173-37.358M1.573 141.785c14.538-12.712 29.9-26.505 40.983-37.059m-34.47 44.57c13.575-18.585 26.772-34.114 35.211-44.93M8.69 147.307c7.038-9.608 14.25-19.94 33.605-43.045M6.26 153.717c13.066-16.68 24.784-28.027 40.992-43.061m-43.156 41.69c13.662-11.62 25.704-24.183 41.516-41.715m-33.386 47.042c9.478-13.46 18.044-28.104 33.895-46.858m-35.214 47.541c7.306-11.674 17.229-23.44 34.468-47.294M6.072 160.216c13.446-7.118 23.319-17.58 43.085-40.735M7.19 161.413c17.392-18.14 33.9-33.367 43.434-42.584m-35.11 48.17c10.433-20.87 25.224-39.297 33.888-47.154M13.72 166.408c10.575-13.802 19.8-25.582 36.132-47.179m-36.457 48.313c9.691-12.95 22.433-24.706 42.388-41.134m-45.208 42.533c9.182-8.323 19.11-16.342 43.615-42.815m-37.57 49.205c13.39-15.295 24.007-29.343 35.878-50.84M18.21 174.365c8.217-13.907 19.679-25.585 35.556-47.102m-39.835 50.525c13.831-16.106 30.767-32.078 46.003-44.46M15.21 178.498c15.117-15.659 30.081-32.269 44.021-45.816m-40.391 49.37c17.81-20.324 33.064-36.829 40.663-48.936m-39.839 50.83c7.627-11.973 16.819-21.255 38.697-50.97M18.018 184.87c10.319-7.3 19.614-18.391 46.095-42.28m-44.75 41.285c15.854-14.92 31.124-31.803 44.19-42.53m-38.804 47.01c11.522-15.35 27.495-33.81 38.58-48.244m-39.267 49.453c9.148-9.11 15.727-19.02 38.465-49.712m-36.982 52.146c6.591-10.81 16.146-20.218 42.628-45.216m-43.522 45.026c10.006-11.3 19.268-21.655 41.485-43.375m-37.51 47.548c10.812-9.879 18.66-21.3 38.89-48.644m-38.18 49.897c7.9-9.721 16.111-20.865 37.38-48.378M30.462 196.16c11.461-9.623 25.423-25.58 42.156-41.956M29.476 196.6c13.66-12.857 27.27-27.158 42.82-43.47m-37.892 49.48c8.494-11.262 16.232-23.025 36.038-48.116m-34.593 48.498c13.615-19.36 27.148-35.492 36.104-48.345M34.246 203.08c12.85-12.616 25.554-25.069 42.103-41.348m-42.188 42.487c13.717-15.251 27.208-28.348 42.662-44.949m-36.22 49.588c14.748-17.414 27.893-34.76 37.657-49.418m-39.276 49.604c10.814-12.306 20.53-25.576 39.429-48.593m-39.394 48.25c17.2-16.917 29.29-30 43.9-42.075M40.706 209.23c15.188-17.539 33.128-34.008 42.027-41.757m-34.366 44.777c4.808-8.19 14.817-19.557 34.046-45.78m-36.835 46.684c12.89-15.197 23.674-30.704 36.348-46.947m-36.83 48.997c14.232-13.414 27.487-25.252 43.264-45.593m-42.126 44.363c15.114-13.933 28.54-28.718 42.17-41.74m-35.823 46.914c13.37-19.745 29.405-37.354 34.623-45.929m-34.884 46.75c12.32-15.388 22.476-30.436 35.878-49.12m-33.626 47.078c8.686-10.571 21.693-19.815 41.062-43.24M52.3 217.852c9.444-8.473 19.249-18.328 42.64-40.356m-35.035 47.398c12.839-16.949 23.284-34.318 33.81-47.203M58.68 224.009c12.223-15.182 23.98-31.26 36.718-47.025m-36.975 48.42c15.453-17.698 29.284-29.767 45.936-48.345m-44.677 46.649c14.307-15.081 28.502-29.02 43.558-44.329m-39.542 51.25c11.854-14.064 23.785-26.894 40.062-52.287m-38.463 50.86c9.625-11.939 18.816-23.737 38.18-49.742m-36.031 46.344c14.303-10.408 28.275-24.491 47.1-44.28m-47.048 45.027c12.976-13.971 25.857-27.1 45.53-45.55m-38.852 50.911c7.894-10.888 17.475-21.958 39.406-50.215m-40.245 50.38c15.086-17.705 29.042-37.399 40.557-52.744m-39.808 53.425c18.65-22.883 39.47-42.346 50.468-52.695m-51.571 50.462c20.176-18.26 36.854-36.606 51.977-50.627M80.03 235.4c11.86-13.925 23.693-32.133 42.582-54.044m-41.971 55.596c15.056-18.966 30.192-38.682 43.902-58.342m-44.537 54.458c18.943-18.726 41.423-38.55 53.605-52.364m-50.936 54.264c18.849-20.281 37.457-40.812 52.834-55.653M87 239.021c17.113-21.627 34.69-43.97 47.644-59.91m-46.855 60.196c11.782-15.272 25.47-30.85 47.653-61.47m-48.032 61.68c23.98-25.222 47.369-51.016 64.046-67.08M89.2 237.625c16.596-18.675 34.334-37.733 62.11-64.89m-56.47 69.587c18.778-20.544 35.685-42.355 54.763-69.935m-53.366 70.28c11.496-13.817 24.087-30.619 54.347-69.885M98.789 236.28c27.924-26.719 54.452-56.28 79.165-80.081m-76.719 80.52c23.897-25.614 48.736-49.836 76.18-81.496m-70.468 86.318c26.704-32.665 55.265-68.399 71.022-87.33m-70.873 88.014c22.889-28.061 44.69-56.54 69.972-87.796m-66.554 81.599c8.088-9.02 19.007-16.844 44.272-45.3m-45.064 47.1c12.872-12.815 25.041-26.16 45.942-46.166m-37.822 50.251c11.262-14.18 21.313-27.5 38.033-50.508m-38.342 51.224c7.837-10.109 15.852-19.746 38.512-50.243"/><path d="M16.09 60.03c-47.25 78.676 13.08 180.441 104.935 180.987M16.19 60.087c-47.226 78.878 10.949 180.4 103.657 181.529m.115-1.616c.931-.887-1.09-1.744-1.486 1.335m2.04-2.58c-.835-.205-.631 2.442-1.874 1.386m2.833 1.028c14.767-26.714 30.604-54.908 51.248-93.1m-51.794 91.783c10.706-17.979 20.673-38.336 51.084-90.5m-.046.663c-.002 0-.004-.004-.008-.007m.007.007a.07.07 0 0 0-.007-.007m0 0c-24.326 39.876-80.82 41.328-102.427.344m102.34 1.258c-20.637 38.805-82.403 40.729-105.318-2.422m1.612 1.014c-.318 1.599 1.57-1.28.186-1.475m-.618 1.324c1.465 1.235 2.49-.593-.743 1.708m-.128.151c-10.487-21.959-21.118-41.398-52.414-91.637m53.263 89.749c-11.834-18.656-21.978-40.052-52.047-89.858"/></g></svg>
