<svg xmlns="http://www.w3.org/2000/svg" viewBox="0 0 240 240"><g fill="none" stroke-width="4"><path stroke="red" d="M19.425 73.826C26.421 62.84 34.367 53.12 58.098 31.318m-38.887 41.27c12.262-13.351 24.612-26.055 39.3-41.591M23.818 76.058c10.44-14.403 23.705-29.863 34.874-46.086m-34.74 46.8C33.426 64.18 44.31 52.794 58.57 31.696M18.218 84.38C33.104 70.713 47.791 53.94 72.952 29.37M16.975 84.48c12.14-11.823 23.817-23.06 54.651-56.54M25.247 91.67c14.877-23.622 31.567-43.255 48.825-64.59M23.448 91.088c17.287-22.965 34.01-44.878 48.049-62.715M17.73 94.178c24.489-25.092 51.724-51.55 64.226-63.197M19.754 95.9c20.054-22.034 42.5-45.249 62.267-67.65m-56.458 71.878C47.695 74.54 69.667 46.88 81.35 28.181M24.7 100.765c11.283-15.024 23.213-29.92 57.785-71.152m-62.26 76.49C38.118 84.395 56.84 68.44 93.188 29.008m-71.786 76.405c20.633-20.262 39.723-41.301 70.127-74.59m-63.598 80.604c14.594-18.853 25.864-35.588 63.68-80.726m-64.028 79.231c24.491-30.258 49.992-62.3 64.705-79.726m-64.717 81.638c29.04-32.343 59.66-60.583 73.785-77.475m-75.883 78.033c19.183-18.922 36.98-38.954 73.95-78.643m-68.857 83.684C49.9 93.668 70.298 70.694 100.62 31.968m-69.506 85.915c26.643-33.757 52.833-67.17 70.075-84.171m-71.74 85.997C59.95 88.873 85.565 61.785 107.331 35.83m-77.593 83.007c26.26-28.123 53.005-55.329 78.88-83.289M34.56 124.457c18.348-20.603 32.533-37.536 74.974-89.678m-73.21 90.69c27.564-34.881 53.66-67.41 71.905-88.709m-70.825 88.28c25.392-27.332 52.438-58.428 78.73-83.957M36.3 126.243c27.681-30.857 56.413-61.57 78.136-84.565m-71.44 87.72c24.568-29.602 45.208-56.811 70.192-88.293M42.88 131.154c20.273-23.859 39.085-49.189 72.02-90.807M41.936 129.77c21.507-21.368 41.24-43.788 83.191-86.643m-82.93 87.92c15.883-18.08 31.288-36.167 81.453-89.436M49.004 137.84C64.525 116.535 78.92 98.05 122.6 41.778M48.276 135.82c16.869-20.914 34.322-43.205 75.792-93.652m-77.05 93.199c35.369-33.11 69.215-70.27 99.465-106.856M46.763 135.68c27.366-27.989 54.957-57.322 97.626-106.113M53.96 139.792c17.408-23.917 38.435-50.23 91.656-107.448M54.338 141.163c19.994-24.398 40.143-50.088 90.182-111.43M52.842 143.668c20.026-26.647 45.1-47.81 102.85-115.21M51.99 143.113c39.92-43.531 79.858-85.419 104.6-114.183M59.096 147.511c21.376-27.838 41.867-53.69 99.456-118.833M58.139 147.744C90.663 111.212 120.93 72.88 155.872 29.86M59.537 145.923c28.237-28.415 56.64-61.23 108.666-116.811m-108.55 119.5c30.803-33.516 61.464-67.816 108.323-120.263M65.441 154.806c25.25-32.612 51.437-64.155 103.873-125.845M64.502 152.463c29.12-33.489 56.835-67.366 103.578-123.781M64.055 152.124c36.126-38.978 69.486-77.38 113.927-121.552M64.192 152.777c37.751-40.877 76.91-82.313 111.619-121.82M71.12 160.558c29.545-39.024 62.369-77.068 103.68-131.29M69.271 158.795c24.854-29.352 49.855-58.227 107.406-128.473M69.867 160.567c35.562-42.612 76.035-85.165 114.572-127.36M69.302 159.422c35.009-36.718 67.387-74.851 114.972-125.074M77.941 165.497c23.389-33.02 48.996-62.708 108.646-130.98M76.529 164.25c29.92-38.218 63.136-77.742 107.877-130.927M75.105 163.593c27.22-27.183 50.718-52.977 117.981-125.663M76.23 165.615c32.273-37.827 66.263-72.387 114.902-128.279M80.752 169.94C113.68 131.248 148.474 91.346 192.4 37.63M81.894 170.844c30.934-36.497 60.065-72.916 108.913-133.139M79.971 170.236c39.568-42.203 76.613-81.224 119.51-127.391M81.809 171.402A143726.159 143726.159 0 0 0 197.904 42.12M86.844 175.662c39.764-46.24 76.501-91.57 110.456-132.297M87.606 176.82c28.227-34.627 56.283-68.507 110.32-134.085M87.968 177.545c32.873-39.058 66.287-75.81 117.968-131.153M87.558 177.018c23.87-30.388 49.518-58.853 115.755-128.71M94.79 182.433C136.167 130.263 177.814 80.9 205.26 48.4M93.835 180.589c23.667-30.145 51.113-62.236 110.698-132.434M91.364 183.067c35.258-40.922 67.273-78.634 116.422-128.947M91.56 181.377c46.273-49.84 90.195-99.18 116.984-126.195M98.766 188.419c36.454-46.242 71.476-89.015 108.66-136.01M97.844 188.15c37.525-42.972 71.911-85.568 110.95-133.709M97.663 188.721c26.09-29.817 56.384-62.036 116.162-128.117M97.585 187.78c31.34-33.514 62.353-67.66 115.146-126.78M106.34 193.189c29.743-38.318 60.581-76.014 104.659-132.909M104.127 192.746c40.273-50.638 83.61-101.889 108.422-131.793M102.02 194.728c33.774-38.85 66.98-71.71 112.72-126.212M103.441 194.069c33.058-34.985 64.431-69.313 113.38-123.022M108.887 199.275c36.043-40.987 69.714-82.285 107.206-130.908M109.876 198.65c38.416-47.94 75.572-93.19 107.267-127.674M109.87 197.652c20.705-21.469 46.199-46.627 108.404-116.096M108.29 200.194c40.389-42.532 78.126-85.062 109.363-119.69M115.918 205.658c31.952-38.785 63.648-80.599 103.734-123.907m-104.28 122.53c30.436-36.947 62.317-72.635 102.085-122.926M113.664 204.451c34.43-36.842 68.637-70.188 104.728-112.46m-102.67 112.977c36.136-38.009 69.834-76.152 101.046-111.93M120.81 209.96c22.98-29.84 47.1-58.182 98.378-117.04m-98.964 116.285c27.502-30.38 53.184-60.627 97.635-115.793m-41.025 53.438c15.06-14.394 27.334-26.556 37.188-34.921m-37.452 34.495c11.643-9.97 20.633-20.332 37.132-36.247m-30.908 41.162c9.018-9.05 16.021-17.534 31.328-42.418m-31.154 41.866c7.63-9.918 15.332-20.887 30.203-41.434"/><path stroke="#000" d="M203.153 128.124c-33.126 29.62-62.316 57.798-82.89 80.206m80.72-81.158c-26.997 26.926-51.979 53.027-81.262 81.814m1.418-1.464c-30.19-29.654-58.9-59.275-84.64-82.158m83.298 84.165c-27.416-28.689-55.466-56.432-83.292-83.527m.661.774C5.08 93.356 21.24 41.501 61.753 29.376M36.22 128.038C4.217 93.705 22.13 40.062 61.321 27.833m1.845 1.906c20.53-4.105 42.526-.608 54.921 13.687m-56.64-13.478c20.775-5.105 42.879-1.58 58.032 14.082m-.289.72c32.456-29.89 86.71-16.477 95.523 26.77m-94.674-26.225c31.212-32.3 86.565-19.862 96.674 25.514m-.487-.058c4.547 20.786-1.585 41.391-15.497 57.343M214.8 70.936c4.87 21.14.385 41.956-11.386 57.516m-2.201-1.677v.001"/></g></svg>