<svg xmlns="http://www.w3.org/2000/svg" viewBox="0 0 224 224" fill="#822a7c"><title>Innovation</title><desc>A stylized lightbulb with the writing "innovation" around it</desc><path d="M94.57 101.205c-2.252 1.519-2 4.712-1.013 6.911 1.541 3.447 5.05 5.37 8.43 6.64-.315-3.731-.218-7.51-.826-11.21-.542-2.885-4.335-4.053-6.591-2.341Zm23.273-58.877a3.492 3.492 0 0 0 1.8.813 5.744 5.744 0 0 0 4.2-.866 13.757 13.757 0 0 0 3.549-3.3 22.13 22.13 0 0 0 2.634-4.419 21.082 21.082 0 0 0 1.446-4.165q.8-3.815-.338-5.623t-4.73-2.442a3.786 3.786 0 0 0-2.14.209 6.244 6.244 0 0 0-1.888 1.244 3.3 3.3 0 0 1-.171 2.721 23.272 23.272 0 0 1-1.759 2.966q-1.082 1.57-2.2 3.381a10.962 10.962 0 0 0-1.493 3.911 12.791 12.791 0 0 0-.2 2.159 5.581 5.581 0 0 0 .308 1.94 3.664 3.664 0 0 0 .982 1.471Zm5.805 59.523c-1.03 1.181-1.062 2.838-1.168 4.322-.129 2.86-.346 5.721-.493 8.581 3.384-1.244 6.849-3.22 8.425-6.631.791-1.87 1.19-4.286-.071-6.04a4.4 4.4 0 0 0-6.693-.232Zm75.821 8.781a3.291 3.291 0 0 1-2.718.205 23.138 23.138 0 0 1-3.18-1.334q-1.705-.856-3.654-1.718a10.944 10.944 0 0 0-4.077-.94 12.6 12.6 0 0 0-2.166.1 5.576 5.576 0 0 0-1.879.57 3.675 3.675 0 0 0-1.322 1.17 3.5 3.5 0 0 0-.557 1.9 5.74 5.74 0 0 0 1.436 4.042 13.762 13.762 0 0 0 3.756 3.062 22.188 22.188 0 0 0 4.739 2 21.187 21.187 0 0 0 4.324.858q3.889.264 5.523-1.107t1.768-5.022a3.793 3.793 0 0 0-.5-2.09 6.275 6.275 0 0 0-1.493-1.696Z"/><path d="M222.107 94.886a3.325 3.325 0 0 1-.581.536 2.451 2.451 0 0 1-2.249.245 5.918 5.918 0 0 1-1.065-.339c-.1-.064-.146-.1-.149-.126s-.076-.015-.215.014a9.829 9.829 0 0 1-1.2.061 2.57 2.57 0 0 1-2.088-.782 2.9 2.9 0 0 1-.78-1.828 2.715 2.715 0 0 1 .609-1.867 2.644 2.644 0 0 1 2.013-.943q1.229-.066 1.622-.117a2.435 2.435 0 0 1 .651-.01 3.3 3.3 0 0 1 .628.182q.369.141 1.5.469a3.479 3.479 0 0 1 .549.2 110.6 110.6 0 0 0-6.571-21.618 3.649 3.649 0 0 1-.141.475 2.536 2.536 0 0 1-1.667 1.485q-3.839 1.261-7.729 2.48t-7.8 2.314l3.326 7.382a2.488 2.488 0 0 1 .061 2.209 2.893 2.893 0 0 1-3.441 1.551 2.488 2.488 0 0 1-1.614-1.51l-3.7-8.214q-5.81 1.482-11.474 2.765t-11.354 2.305a2.4 2.4 0 0 1-2.175-.456 2.9 2.9 0 0 1-.992-1.757 3.3 3.3 0 0 1 .327-2.016 2.312 2.312 0 0 1 1.86-1.206q10.7-1.884 21.443-4.721l-1.4-2.507a2.444 2.444 0 0 1-.266-2.219 2.866 2.866 0 0 1 1.341-1.472 3.106 3.106 0 0 1 2-.3 2.515 2.515 0 0 1 1.769 1.407l1.929 3.538.049.111q4.1-1.115 8.107-2.384t8.031-2.55a2.446 2.446 0 0 1 2.117.123 111.456 111.456 0 0 0-178.6-34.077q3.021 3.689 5.726 7.34 3.2 4.326 6.33 8.633t6.37 8.546q3.238 4.241 6.971 8.444a2.517 2.517 0 0 1 .747 2.133 2.953 2.953 0 0 1-2.838 2.511 2.532 2.532 0 0 1-2.03-1q-3.732-4.2-6.992-8.464t-6.392-8.568q-3.133-4.305-6.352-8.654a191.355 191.355 0 0 0-5.448-6.971 111.434 111.434 0 0 0 69.094 187.2 11.383 11.383 0 0 1-.99-3.663c8.921-.056 17.846-.034 26.767-.009a11.368 11.368 0 0 1-.963 3.583 111.529 111.529 0 0 0 97.324-127.895Zm-84.318-49.625a43.8 43.8 0 0 1 1.5-5.652q.946-2.805 2.072-5.622t2.212-5.755a3.818 3.818 0 0 1 1.567-2.545 2.514 2.514 0 0 1 2.134-.31 2.688 2.688 0 0 1 1.577 1.567 4.148 4.148 0 0 1-.1 3.089q-.737 2.023-1.452 3.814t-1.4 3.6q-.69 1.805-1.3 3.655t-1.1 3.934a17.813 17.813 0 0 1 2.6-2.34q1.695-1.3 3.849-2.81t4.564-3.118q2.413-1.608 4.853-3.2a2.487 2.487 0 0 1 2.218-.4 3.084 3.084 0 0 1 1.629 1.216 2.922 2.922 0 0 1 .463 1.974 2.523 2.523 0 0 1-1.276 1.871q-5.268 3.4-8.8 6t-5.95 4.483q-2.421 1.88-3.923 3.08a18.446 18.446 0 0 1-2.665 1.821 2.411 2.411 0 0 1-2.671.091 3.139 3.139 0 0 1-1.1-2.59 27.862 27.862 0 0 1 .499-5.853Zm-25.93-13.694a28.617 28.617 0 0 1 1.292-2.77 36.813 36.813 0 0 1 1.979-3.329 38 38 0 0 1 2.509-3.36 20.588 20.588 0 0 1 2.919-2.886 12.124 12.124 0 0 1 3.271-1.9 7.042 7.042 0 0 1 3.532-.4 15.432 15.432 0 0 1 5.323 1.712 9.032 9.032 0 0 1 3.21 3.008 9.21 9.21 0 0 1 1.32 4.251 21.956 21.956 0 0 1-.341 5.441 20.483 20.483 0 0 1-1.1 3.793 26.961 26.961 0 0 1-4.87 7.98 19.941 19.941 0 0 1-3.527 3.18 14.258 14.258 0 0 1-4.122 1.992 9.8 9.8 0 0 1-4.557.247 8.391 8.391 0 0 1-4.29-1.962 9 9 0 0 1-2.429-3.581 12.894 12.894 0 0 1-.778-4.526 17.2 17.2 0 0 1 .65-4.738 2.729 2.729 0 0 1 .009-2.152ZM85.645 21.59a3.03 3.03 0 0 1 1.867-.8 2.853 2.853 0 0 1 1.934.611 2.521 2.521 0 0 1 .951 2.026q.051 1.66.21 3.58t.21 3.581q.77-1.561 1.649-3.39a29.027 29.027 0 0 1 1.973-3.478 14.006 14.006 0 0 1 2.433-2.817 5.763 5.763 0 0 1 3.025-1.411 5.336 5.336 0 0 1 3.514.452 5.947 5.947 0 0 1 2.133 2.061 9.673 9.673 0 0 1 1.156 2.823 25.407 25.407 0 0 1 .514 2.691q.321 2.478.439 4.683t.069 4.349q-.048 2.142-.187 4.3t-.269 4.532a2.491 2.491 0 0 1-.966 2.029 3.056 3.056 0 0 1-1.929.626 2.791 2.791 0 0 1-1.841-.784 2.562 2.562 0 0 1-.752-2.122q.1-2.552.266-5.923t.18-6.4a42.622 42.622 0 0 0-.24-5.121q-.252-2.089-.872-2.1t-1.462 1.159a22.422 22.422 0 0 0-1.773 3.041q-.932 1.869-1.929 4.241t-1.94 4.864q-.945 2.49-1.792 4.837t-1.514 4.138a3.121 3.121 0 0 1-1.354 1.759 2.475 2.475 0 0 1-3.291-.583 3.035 3.035 0 0 1-.651-2.08q.056-5.884-.111-11.64t-.421-11.645a2.494 2.494 0 0 1 .774-2.089ZM59.997 49.436q-2.218-5.31-4.567-10.72a2.5 2.5 0 0 1-.029-2.223 3.015 3.015 0 0 1 1.457-1.415 2.845 2.845 0 0 1 2.025-.123 2.518 2.518 0 0 1 1.614 1.549q.642 1.533 1.479 3.267t1.479 3.268q.16-1.734.325-3.755a29.009 29.009 0 0 1 .6-3.953 13.981 13.981 0 0 1 1.261-3.5 5.757 5.757 0 0 1 2.319-2.4 5.32 5.32 0 0 1 3.442-.837 5.95 5.95 0 0 1 2.729 1.158 9.642 9.642 0 0 1 2.091 2.222 25.675 25.675 0 0 1 1.445 2.327q1.187 2.2 2.088 4.216t1.623 4.034q.723 2.018 1.367 4.083t1.375 4.327a2.5 2.5 0 0 1-.174 2.24 3.048 3.048 0 0 1-1.577 1.275 2.8 2.8 0 0 1-2-.07 2.566 2.566 0 0 1-1.463-1.712q-.823-2.418-1.875-5.625t-2.126-6.042a42.4 42.4 0 0 0-2.06-4.7q-.982-1.86-1.566-1.649t-.949 1.606a22.393 22.393 0 0 0-.566 3.474q-.2 2.079-.28 4.652t-.069 5.236q.011 2.661.062 5.157t.069 4.406a3.119 3.119 0 0 1-.634 2.127 2.471 2.471 0 0 1-3.281.633 3.033 3.033 0 0 1-1.354-1.707q-2.062-5.514-4.28-10.826Zm73.4 160.837a4.354 4.354 0 0 1-4.338 3.705q-16.706.013-33.415 0a4.3 4.3 0 0 1-1.943-8.159 4.949 4.949 0 0 1 2.409-.454c10.979.013 21.958 0 32.932.009a4.355 4.355 0 0 1 4.358 4.899Zm-39.324-17.816a6.676 6.676 0 0 1 2.435-.3c10.838.026 21.679-.013 32.521.017a4.366 4.366 0 0 1 4.326 3.521 4.314 4.314 0 0 1-4.317 5.074q-16.7.006-33.4 0a4.293 4.293 0 0 1-1.566-8.313Zm63.94-70.561c-4.495 15.057-16.518 26.356-21.523 41.19a62.775 62.775 0 0 0-3.185 19.938 4.856 4.856 0 0 1-4.863 4.779q-16.456.06-32.916 0a4.873 4.873 0 0 1-4.872-4.783 62.658 62.658 0 0 0-2.958-19.263c-3.038-9.336-8.839-17.357-13.959-25.614-4.157-6.529-7.577-13.649-9.069-21.283-2.128-10.748-1.5-22.265 3.118-32.307 6.707-14.963 21.6-25.632 37.766-27.839a47.289 47.289 0 0 1 29.616 5.352 49.437 49.437 0 0 1 23.287 28.794 55.1 55.1 0 0 1-.439 31.036Zm6.554-47.786a3.016 3.016 0 0 1-1.676-1.146 3.1 3.1 0 0 1-.587-1.941 2.392 2.392 0 0 1 1.178-1.911q.932-.7 1.887-1.322t1.927-1.277q-1.68-.026-3.466-.079a25.757 25.757 0 0 1-3.5-.339 15.566 15.566 0 0 1-3.217-.888 6.845 6.845 0 0 1-2.535-1.721 15.779 15.779 0 0 1-2.607-3.6 5.984 5.984 0 0 1-.667-3.151 6.219 6.219 0 0 1 1.227-3.073 22.466 22.466 0 0 1 3.114-3.4 13.476 13.476 0 0 1 3.7-2.367 22.255 22.255 0 0 1 4.649-1.466 26.738 26.738 0 0 1 5.105-.52 25.224 25.224 0 0 1 5.107.471 18.584 18.584 0 0 1 4.59 1.526 11.875 11.875 0 0 1 3.554 2.6 6.4 6.4 0 0 1 1.84 4.47 9.108 9.108 0 0 1-1.269 4.6 2.433 2.433 0 0 1 1.1.973 2.658 2.658 0 0 1-.032 2.841 3.039 3.039 0 0 1-1.362 1.171q-3.872 1.909-8.056 4.1a60.394 60.394 0 0 0-7.828 4.888 2.394 2.394 0 0 1-2.173.556Zm8.521 17.459a2.433 2.433 0 0 1 2.019-.912q5.8-.2 12.267-.2t12.527-.437a2.5 2.5 0 0 1 2.105.717 3.02 3.02 0 0 1 .846 1.846 2.851 2.851 0 0 1-.562 1.95 2.521 2.521 0 0 1-2 1q-3 .244-6.184.311t-6.387.072q-3.2.007-6.334.031t-6.034.124a2.562 2.562 0 0 1-2.088-.782 2.916 2.916 0 0 1-.78-1.828 2.85 2.85 0 0 1 .608-1.892Zm26.879 49.382a2.852 2.852 0 0 1-1.561 1.3 2.519 2.519 0 0 1-2.218-.3q-1.424-.857-3.125-1.761t-3.124-1.761q.894 1.492 1.957 3.221a28.96 28.96 0 0 1 1.856 3.541 13.949 13.949 0 0 1 1.054 3.57 5.753 5.753 0 0 1-.452 3.305 5.326 5.326 0 0 1-2.28 2.711 5.953 5.953 0 0 1-2.887.679 9.677 9.677 0 0 1-3-.555 25.559 25.559 0 0 1-2.541-1.023q-2.259-1.072-4.176-2.166t-3.694-2.293q-1.775-1.2-3.517-2.485t-3.666-2.679a2.494 2.494 0 0 1-1.184-1.909 3.064 3.064 0 0 1 .518-1.961 2.794 2.794 0 0 1 1.655-1.124 2.567 2.567 0 0 1 2.192.516q2.093 1.463 4.838 3.429t5.286 3.616a42.7 42.7 0 0 0 4.437 2.571q1.893.919 2.238.4t-.184-1.856a22.516 22.516 0 0 0-1.6-3.135q-1.068-1.8-2.524-3.918t-3.039-4.264q-1.583-2.142-3.1-4.125t-2.66-3.512a3.119 3.119 0 0 1-.745-2.09 2.468 2.468 0 0 1 2.271-2.451 3.032 3.032 0 0 1 2.1.577q4.919 3.231 9.848 6.205t10.021 5.947a2.5 2.5 0 0 1 1.338 1.776 3.022 3.022 0 0 1-.329 2.004Zm6-20.82a9.039 9.039 0 0 1-2.538 3.592 9.22 9.22 0 0 1-4.029 1.894 21.96 21.96 0 0 1-5.437.41 20.5 20.5 0 0 1-3.908-.57 26.943 26.943 0 0 1-8.575-3.725 19.98 19.98 0 0 1-3.635-3.058 14.244 14.244 0 0 1-2.541-3.809 9.81 9.81 0 0 1-.871-4.479 8.4 8.4 0 0 1 1.354-4.519 9.007 9.007 0 0 1 3.213-2.9 12.86 12.86 0 0 1 4.377-1.393 17.167 17.167 0 0 1 4.782-.008 2.725 2.725 0 0 1 2.143-.287 28.635 28.635 0 0 1 2.921.9 37.324 37.324 0 0 1 3.57 1.5 38.018 38.018 0 0 1 3.672 2.023 20.569 20.569 0 0 1 3.26 2.5 12.09 12.09 0 0 1 2.327 2.979 7.024 7.024 0 0 1 .879 3.444 15.462 15.462 0 0 1-.957 5.505Z"/><path d="M170.305 60.519q1.087-.256 2.26-.467a23.77 23.77 0 0 0 2.349-.547 5.381 5.381 0 0 0 2.163-1.247 8.67 8.67 0 0 0 .856-.913 5.331 5.331 0 0 0 .668-1.027 2.045 2.045 0 0 0 .217-1.067 1.723 1.723 0 0 0-.5-1.034 8.107 8.107 0 0 0-3.873-2.186 19.371 19.371 0 0 0-5.356-.7 20.692 20.692 0 0 0-5.481.742 10.169 10.169 0 0 0-4.249 2.213 6.287 6.287 0 0 0-1.964 2.677q-.306 1.151 1.219 2.808a4.405 4.405 0 0 0 1.953 1.222 11.744 11.744 0 0 0 2.521.493 19.157 19.157 0 0 0 2.733.048 46.29 46.29 0 0 1 2.632-.062 4.029 4.029 0 0 1 1.852-.953Zm-39.626 10.056a38.011 38.011 0 0 0-23.944-4.322c-12.583 1.785-24.21 9.865-29.767 21.368-3.94 7.955-4.668 17.2-3.1 25.867 1.31 7.582 4.757 14.608 8.883 21.035 3.464 5.592 7.155 11.055 10.175 16.909a64.307 64.307 0 0 1 6.946 23.988 6.388 6.388 0 0 0 .573 2.723c6.791.24 13.6 0 20.4.111.964-.08 2.07.2 2.914-.391a35.049 35.049 0 0 0 .484-3.789 63.948 63.948 0 0 1 5.516-20.009c3.1-6.684 7.293-12.769 11.13-19.036a63.811 63.811 0 0 0 7.995-16.424c2.527-8.585 2.829-18.01-.142-26.529a39.524 39.524 0 0 0-18.063-21.501Zm1.439 41.963c-2.616 3.211-6.489 5.041-10.366 6.249-1.066 17.739-2.065 35.483-3.131 53.226h-3.78q1.519-26.2 3.065-52.4a40.078 40.078 0 0 1-11.841 0q1.552 26.2 3.069 52.4h-3.8q-1.546-26.615-3.109-53.235c-4.379-1.319-8.776-3.567-11.321-7.519-1.99-3.176-2.674-7.519-.737-10.873 2.35-4 8.319-4.917 11.916-2.1a8.107 8.107 0 0 1 3.069 6.045c.315 3.793.413 7.608.7 11.406a37.124 37.124 0 0 0 12.281.022c.222-3.811.431-7.622.68-11.432a8.175 8.175 0 0 1 3.331-6.227 8.534 8.534 0 0 1 10.224.542c3.952 3.591 2.98 10.147-.25 13.895Z"/></svg>