<svg xmlns="http://www.w3.org/2000/svg" viewBox="0 0 240 240"><g fill="none" stroke-width="4"><path stroke="#bbb" d="M17.16 79.495c2.79-4.326 7.336-4.753 12.718-7.722m-13.176 8.331c3.302-3.622 7.857-6.092 13.073-9.774M22.91 85.656c1.548-3.844 1.615-7.293 7.274-14.018m-7.506 13.525c3.538-4.71 5.063-10.812 8.528-15.44M15.137 91.347C26.424 83 30.455 77.388 40.187 71.061M16.486 90.797c9.778-5.907 18.035-14.25 24.103-20.582M22.442 97.463c5.828-6.967 10.23-15.223 18.702-28.223m-17.35 27.076c6.96-8.444 13.1-18.532 17.294-25.278m-23.173 34.617c12.407-15.699 25.137-26.722 33.423-33.728m-34.27 31.608C29.963 91.141 44.113 77.45 52.686 70.767m-27.523 37.686c5.185-6.847 10.239-17.217 27.872-36.837m-30.178 36.42c8.121-10.83 17.358-21.42 27.915-38.82m-32.704 46.267c13.51-14.297 30.738-31.325 42.796-43.986m-44.158 45.219c9.897-9.573 17.716-18.745 44.799-47.6m-39.545 50.998c8.193-7.277 18.652-19.745 42.219-48.891M23.336 121.13c11.05-15.576 22.854-30.275 38.071-50.4m-45.76 59.198c18.278-19.052 31.905-35.19 58.763-59.578m-58.287 57.218c22.42-22.66 44.668-45.25 56.33-57.833m-49.56 64.804c10.652-14.573 21.346-31.06 51.465-64.316M22.61 133.052c16.515-22.388 34.099-43.049 50.132-62.308m-55.266 71.669c17.189-20.654 37.861-39.727 66.99-71.582m-68.034 68.918C38.517 116.6 61 94.79 83.469 69.139m-62.167 75.118c15.05-14.703 26.687-30.657 63.322-75.791M23.505 146.29c23.127-30.187 48.349-61.835 59.158-75.405m-64.899 82.133c20.515-27.547 47.357-50.855 76.322-81.494m-77.59 80.398c18.162-18.56 35.354-36.445 77.383-82.246m-72.162 89.995c20.918-24.816 38.029-44.047 70.901-87.92M23.133 158.34c13.984-18.125 29.685-35.44 70.659-88.013M18.87 164.192c19.681-24.46 43.57-51.089 87.334-94.783m-89.88 94.294c21.194-21.582 41.838-43.82 87.859-94.743m-81.625 99.63C51.16 137.7 75.12 104.18 104.968 71.54M24.21 169.805c23.118-29.97 47.54-59.35 81.226-100.563M25.412 165.77c28.357-30.436 59.634-63.918 89.61-95.008m-88.9 96.034c20.09-20.592 41.315-44.07 88.903-96.22M32.16 173.178c33.087-39.43 67.176-78.593 82.976-105.238m-84.44 105.043c22.375-26.714 42.752-51.46 84.362-102.84m-77.979 99.42c25.058-31.202 50.75-58.603 89.711-99.876m-90.994 98.092c33.872-37.982 69.113-74.403 89.58-98.631M42.798 171.322c28.49-34.093 60.185-69.899 83.294-100.01M41.329 173.383c33.79-41.427 66.117-81.358 84.087-103.36M44.71 167.35c37.434-38.92 74.074-76.022 90.155-96.923m-87.917 96.836c35.136-36.468 68.32-74.111 90.755-97.97M52.26 172.804c14.894-19.526 34.422-43.465 83.549-104.717M52.056 173.68c18.945-23.704 39.42-45.5 85.339-103.355m-80.793 98.47c19.308-22.428 41.87-45.786 91.311-99.834m-89.931 98.284c35.274-37.085 69.085-76.78 90.225-97.015M64.44 172.07c29.671-37.842 61.434-75.447 83.918-101.552M64.068 173.032c23.852-31.548 51.4-62.441 83.563-103.508m-81.75 96.411c35.807-32.92 64.76-67.253 93.558-96.583M68.07 168.213c35.24-39.43 71.562-76.92 89.396-97.88m-83.52 103.442c17.607-23.37 32.869-41.276 82.745-104.692M74.355 171.84c25.884-32.997 54.886-68.92 84.171-103.018m-80.162 97.583c23.254-23.348 44.035-45.882 91.984-96.125m-91.758 96.7c19.51-19.656 38.631-41.965 89.838-98.166m-83.697 104.7c17.538-23.82 36.838-48.88 83.463-103.057M84.09 172.405c27.88-32.012 53.829-64.648 84.544-102.04m-80.042 97.491c26.976-29.523 53.505-59.465 91.286-97.942M89.391 166.72c22.496-26.935 47.732-52.36 90.437-96.68M96.7 171.666c22.18-29.541 48.34-59.095 82.629-102.93M95.457 173.464c16.744-22.341 36.828-45.006 82.925-103.927m-79.731 97.37c29.678-26.799 56.73-59.277 91.94-96.68m-91.934 97.103c31.115-33.678 61.211-66.406 91.676-98.424M104.63 173.597c23.49-30.806 47.5-57.505 86.521-104.965m-86.493 104.144c24.427-28.29 45.553-53.975 84.791-102.294m-80 95.26c22.469-25.752 47.105-48.503 90.172-95.26m-88.466 97.531c29.121-35.51 62.111-68.88 89.264-99.188m-83.328 103.213a8062.674 8062.674 0 0 1 82.634-101.077m-82.927 102.57c24.906-34.134 51.706-67.082 84.486-104.845m-81.568 98.324c34.602-38.782 72.34-76.692 91.028-96.64m-89.382 97.03c31.33-34.698 63.137-71.608 89.08-96.223M126.099 174.03c24.007-30.949 42.922-57.627 83.977-102.849m-83.962 102.016c21.946-28.338 45.337-54.52 84.127-103.487m-80.346 96.64c23.387-23.643 45.148-46.686 88.02-95.496m-86.464 96.422c28.538-28.22 54.632-59.254 89.105-96.21m-84.704 101.36c25.885-27.421 50.85-60.108 85.797-100.21m-83.176 100.161c24.17-30.154 50.97-63.103 81.943-101.233m-77.906 94.875c27.628-26.405 52.647-56.475 77.919-80.64m-77.744 82.858c19.138-21.837 38.771-43.252 76.974-84.083m-71.537 87.05c26.168-30.328 49.865-60.824 72.865-87.256m-73.511 87.869c27.13-33.392 53.633-65.483 72.248-87.314m-69.232 83.359c27.507-26.672 53.721-54.82 68.88-70.489m-67.52 70.177c17.821-20.242 36.217-38.53 67.254-72.53m-61.718 78.922c21.16-29.928 45.842-57.242 63.017-78.504m-61.942 78.093c16.205-22.54 34.034-44.443 62.175-76.918m-58.93 70.398c15.432-13.57 27.422-27.58 59.108-58.16m-57.781 58.208c20.453-20.278 40.048-43.2 56.39-59.001m-49.101 66.868c10.267-16.877 24.266-34.013 48.723-67.254m-51.2 66.28c12.844-17.106 25.14-33.36 52.784-65.612M172.075 167c18.428-18.422 36.016-38.064 48.484-48.877m-47.555 50.705c9.825-10.741 20.554-21.437 46.4-48.248m-39.697 52.952c11.9-16.544 24.896-31.561 42.322-52.407m-43.528 51.738c13.133-15.346 24.146-31.26 41.52-52.23m-36.058 48.324c12.79-11.81 23.2-23.348 34.294-35.337m-34.362 33.517c11.35-12.104 25.021-23.278 35.59-33.898M189.066 171.8c9.26-8.409 16.035-16.602 30.436-37.477m-29.396 39.226c7.054-7.921 13.488-17.01 30.565-41.457m-24.731 35.653c5.251-6.281 14.66-13.457 22.051-21.948m-23.495 22.639c8.065-7.807 15.388-15.31 24.51-23.856m-19.42 30.204c8.633-8.982 10.879-19.019 18.582-29.41m-17.136 27.428c2.844-6.026 7.998-11.785 19.692-27.159m-17.213 21.406c4.785-3.294 7.42-3.532 16.655-11.843m-14.066 12.62c2.803-3.704 6.665-6.414 13.372-10.129m-8.248 15.721c4.258-6.178 7.055-12.055 9.303-18.209m-9.481 17.614c4.141-5.912 6.885-12.369 9.763-16.792m-4.505 11.798c.243.066 2.003.575 3.87.816m-4.278-.994c.824.236 1.713.445 4.502 1.142m1.854 3.958c-.625-.688-1.33-1.733-1.798-4.197m1.429 4.403c-.432-1.187-.929-2.992-1.445-4.189"/><path stroke="#000" d="M19.07 71.287c81.064-2.28 161.354-1.485 201.25.512M19.512 70.202c39.915-.95 80.082-1.018 200.538.3m-.646.173c2.18 21.193.933 46.322.789 98.899m.746-100.408c-.32 33.718-1.169 65.354-.77 101.332m.68-2.012c-45.783-.678-95.016 2.464-199.813 2.61m198.73-1.538c-40.462.96-80.475 1.197-199.575-.414m.744.52c.009-26.104-1.904-53.872-.324-89.01m-1.414 88.39c.817-26.002-.13-53.457 1.09-89.825m-.364.405c.844-2.014.27-6.639.913-10.236m-.563 10.559c-.093-3.12-.081-5.908-.012-10.365"/></g><g fill="none" stroke-width="4"><path stroke="#777" d="M28.143 90.591c1.64-2.711 3.602-4.185 12.046-8.937m-13.522 7.395c4.79-3.54 10.074-6.884 13.995-8.264m-6.828 12.963c1.412-4.062 4.991-8.142 6.963-14.707m-7.683 15.122c1.373-3.135 3.815-7.2 7.274-13.995m-6.6 12.609c3.817-3.454 7.441-4.233 12.492-6.009M34.49 92.643c4.011-1.313 7.762-4.58 11.903-6.4M40.85 99.081c1.654-4.652 3.937-9.566 4.577-12.057m-4.948 11.18c2.318-4.89 3.77-9.097 5.767-12.168"/><path stroke="#000" d="M29.272 79.494c5.383-.904 12.488.218 14.588 1.384m-13.584-1.106c4.751.528 10.984.118 15.324-.112m-2.004 1.325c1.627 2.473 2.21 7.034 2.226 15.316m-1.075-16.04c.335 3.639-.34 6.143-.215 14.6m.817-.162c-3.956-.158-10.198 1.636-16.573 1.395m15.504-.47c-2.184-1.396-6.401-.705-14.874-.73m1.937-.876c-2.135-2.4-1.564-6.91-2.576-12.585m1.708 13.645c-.588-5.707.017-10.656-.022-15.467"/></g><g fill="none" stroke-width="4"><path stroke="#777" d="M47.465 89.65c1.822-1.03 5.453-4.053 13.081-7.8m-14.052 8.489c4.393-4.182 8.547-6.63 13.208-10.209M53.05 95.837c.563-5.189 4.738-8.454 5.884-13.913m-5.695 12.631c2.639-3.741 4.727-9.029 7.242-14.874m-4.855 14.03c1.651-1.94 5.412-4.239 10.031-7.418m-10.893 6.082c3.77-1.761 8.882-4.416 10.741-5.929m-4.004 11.657c1.364-4.92 3.592-7.551 4.958-11.65m-5.461 12.072c1.485-3.643 2.915-8.056 4.33-11.822"/><path stroke="#000" d="M49.505 81.034c3.913-1.715 10.19-.964 16.194-2.063m-14.968 1.386c5.09-.64 10.4-.816 14.463-.935m-1.54.305c1.703 7.596 2.028 13.061.462 15.036m.54-14.408c.1 3.613.615 8.377.403 14.625m1.137-.945c-5.026.997-7.743.711-15.407.823m13.775.16c-3.816.294-9.05.564-15.164-.665m.973 1.341c-1.317-5.094-1.035-13.415.872-17.08m-.907 16.713c-.635-4.824-.446-8.989-.786-14.61"/></g><g fill="none" stroke-width="4"><path stroke="#777" d="M67.32 89.704c3.123-.748 5.672-3.286 13.92-8.541m-14.47 8.812c5.386-3.706 9.382-7.03 13.523-9.715m-8.09 15.718c1.752-5.137 5.582-11.299 7.26-17.117m-7.096 16.672c2.193-3.884 4.09-8.91 9.168-15.45m-7.461 13c1.894-1.232 5.118-2.397 11.334-7.195m-10.956 6.976c4.34-1.828 7.54-4.68 11.303-5.938m-5.189 11.996c2.335-4.863 3.262-11.018 6.191-12.656m-5.565 11.878c.71-2.627 2.15-6.678 4.905-11.251"/><path stroke="#000" d="M70.704 79.064c4.006 1.84 6.55 1.847 13.21 2.017m-13.836-.41c3.26-.315 6.354.064 14.43-.37m-.388-.326c.904 5.942.98 10.293 1.424 15.64M84.56 79.29c-.042 5.092.411 10.32-.223 15.505m-.435-.4c-4.804 2.017-9.366 2.114-14.978 1.194m15.84-1.193c-4.422.883-10.309.472-14.295.247m-1.702.439c.002-1.997 1.52-7.514 1.044-16.083m.23 15.736c.606-5.727-.124-10.885.646-14.62"/></g><g fill="none" stroke-width="4"><path stroke="#777" d="M87.32 88.918c2.413-2.059 8.876-5.2 13.45-9.276M87.526 89.928c2.684-1.766 5.8-4.954 12.468-10.937m-6.317 15.334c.578-4.12 3.16-7.244 6.457-13.316m-6.813 14.508c2.005-4.667 3.724-10.176 8.05-15.776m-9.495 16.802c6.649-5.599 10.68-9.89 15.214-13.86M90.964 96.661c4.983-4.86 11.804-9.234 17.49-14.092m-10.607 20.776c.302-6.46 3.703-10.673 10.2-22.274m-11.584 20.5c3.399-5.252 8.504-11.481 11.88-18.388"/><path stroke="#000" d="M90.116 81.26c4.666-.802 12.022-.945 15.705-.024m-15.434-1.438c4.545.575 8.64.774 14.94-.262m-1.472 1.686c.409 4.631-.199 10.031-.064 12.377m.964-13.007c.355 3.135.817 5.355.318 14.416m.356 1.382c-2.955-2.38-7.449-2.001-14.342-.804m14.474-.376c-4.464-.073-7.096.443-16.077-.833m-.72 1.705c2.525-8.117 1.811-12.904 2.166-16.251m-.954 15.49c.843-5.792.365-10.326-.708-15.26"/></g><g fill="none" stroke-width="4"><path stroke="#777" d="M107.519 89.899c2.754-1.445 6.491-3.993 12.678-10.706m-13.749 10.612c6.442-3.922 11.598-7.513 14.916-9.772m-7.84 14.327c4.07-6.717 4.089-11.574 5.632-16.172m-5.287 16.103c2.172-5.44 5.006-10.109 6.145-15.202m-4.73 12.132c2.17-1.647 5.84-1.876 11.296-3.704m-11.87 4.892c2.663-1.54 4.948-1.884 11.222-6.418m-5.25 10.4c.817-2.566 1.983-3.944 3.94-9.41m-3.675 10.939c1.574-2.622 2.009-5.613 4.75-10.986"/><path stroke="#000" d="M110.025 80.803c4.394-1.38 7.69.686 13.757-1.059m-13.783.625c2.724-.343 5.361-1.168 14.952-.258m-.784 1.023c.12 4.487-.447 8.32 1.569 14.636m-.34-15.752c-.568 4.608.063 8.663-.702 15.362m.293-.705c-6.438 1.282-10.717.245-13.698 1.67m13.37-1.502c-3.747 0-9.136-.332-14.107.136m.14-1.401c-.138-2.879-1.48-8.294-.67-13.933m-.48 15.686c.168-6.536-.36-10.732.282-14.67"/></g><g fill="none" stroke-width="4"><path stroke="#777" d="M125.945 88.074c7.529-2.462 11.705-6.514 13.879-9.036m-12.972 9.834c3.638-1.416 6.468-4.23 14.304-8.878m-8.327 13.6c2.986-3.46 3.924-7.769 8.93-14.667m-8.859 15.56c2.733-5.546 5.312-11.826 7.065-14.414m-5.206 11.163c3.897.084 5.185-2.784 9.979-5.21m-9.253 6.352c3.486-2.927 7.4-4.624 9.785-5.92m-4.845 11.664c1.427-3.566 4.212-7.084 4.285-10.49m-3.866 9.983c1.225-3.347 2.635-6.6 4.81-10.4"/><path stroke="#000" d="M130.873 80.806c2.57-.08 8.235-2.111 13.745.547m-15.134-2.097c7.037 1.195 12.137.487 14.97.21m1.1 1.893c-1.019 3.608-1.301 4.618-.735 13.847m.441-15.85c-.07 5.636.263 11.158-.985 16.377m.337.063c-3.75-1.819-6.099.648-15.45-.948m15.658.465c-2.992-.337-7.132-.853-15.165-.404m-.455 1.44c.251-5.849 1.126-7.547 2.17-15.935m-1.816 14.052c.074-4.888 1.22-10.808-.205-13.8"/></g><g fill="none" stroke-width="4"><path stroke="#777" d="M147.125 88.393c5.414-3.858 8.677-4.782 14.08-7.723m-14.013 8.158c4.364-2.193 10.297-5.767 13.31-8.637m-7.857 13.637c1.113-4.063 3.584-5.214 6.503-13.929m-5.93 15.028c1.68-4.355 3.367-7.484 6.806-15.273m-5.221 11.97c1.927-1.039 5.202-2.02 10.786-5.959m-10.246 6.46c2.348-1.073 3.456-1.47 10.337-5.048m-4.736 11.047c1.697-3.73 2.34-5.378 5.12-11.795m-4.455 11.902c.738-5.436 2.715-9.32 3.392-11.996"/><path stroke="#000" d="M150.584 79.603c3 .314 6.74-.475 14.36.734m-15.118-.851c5.02.1 8.4.875 15.129-.143m.51 2.112c-.732 1.226.705 5.267-1.65 14.606m1.272-16.089c.31 4.582-.842 7.972.645 14.837m-.852.08c-5.411-.973-10.057-.01-15.634-.754m15.365 1.534c-4.618-.668-8.204-1.118-15.36-1.01m.348 1.307c-.195-6.275.632-13.152-.77-15.505m1.625 13.866c.178-4.162-.632-9.995-.665-13.722"/></g><g fill="none" stroke-width="4"><path stroke="#777" d="M165.827 88.172c5.896-1.45 9.668-5.048 13.568-7.747m-13.169 8.496c5.592-3.903 11.14-7.466 13.932-9.584m-8.055 14.883c3.245-1.173 3.247-5.533 7.631-15.408m-6.09 16.478c2.932-5.8 6.085-11.685 7.351-15.738m-5.282 12.326c1.707-.121 5.543-1.835 8.372-5.07m-8.967 6.177c2.533-2.419 5.185-4.02 9.737-5.728m-4.849 11.187c1.518-3.52 2.296-4.413 4.768-12.272m-3.998 11.147c1.264-2.788 2.754-4.742 4.287-9.905"/><path stroke="#000" d="M169.62 81.365c6.673-2.784 12.163-1.213 13.927.075m-13.057-1.957c3.263.339 6.268-.114 14.863.802m-1.104-.572c.982 4.382-.542 8.031 1.525 15.676m-.59-14.813c-.47 3.453-.512 7.775-.453 13.693m.522 1.871c-4.898-2.222-6.97-1.734-15.395.117m14.933-.638c-5.01.067-9.637-.228-14.215-1.175m-1.67 1.857c1.532-4.686-.05-7.893-.328-16.224m2.126 14.272c-1.37-2.87-.637-6.632-1.382-14.224"/></g><g fill="none" stroke-width="4"><path stroke="#777" d="M185.543 90.264c3.9-1.046 8.602-4.95 13.393-8.503m-12.013 8.386c4.394-4.621 10.02-6.507 13.632-9.36m-7.284 15.439c2.522-4.366 2.853-6.21 8.603-16.307m-8.155 15.035c1.94-3.86 3.678-8.613 7.048-14.195m-8.65 16.452c4.85-6.507 11.845-10.632 16.883-16.214m-16.532 15.422c4.039-4.23 7.723-6.166 17.111-15.681m-9.885 21.535c-.52-7.664 4.57-13.397 12.262-20.134M196.94 102.57c2.393-6.137 5.634-9.633 13.656-20.757m-8.998 14.428c3.57-.597 6.12-1.354 8.606-2.521m-7.477 2.705c2.107-.697 4.43-1.862 7.934-3.71m-1.631 8.25c-.831-2.585-.03-4.814 1.275-8.221m-1.896 9.03c.796-3.3 1.346-7.485 2.55-8.901"/><path stroke="#000" d="M191.403 78.511c6.3 1.999 12.68 2.06 16.681 1.665m-18.786-.198c8.82-.736 15.593-.035 20.099-.4m.854-1.002c-1.249 6.066.176 11.913.43 17.502m-1.134-15.402c.923 4.818 1.113 10.655.664 14.346m-1.364.19c-7.698-.393-11.788.61-17.752-1.433m18.248.657c-4.608.687-10.43.171-19.667.724m.918.142c-1.813-3.97-.823-9.01.233-15.753m-.392 14.8c-1.059-4.988-.811-9.571-.288-14.646"/></g><g fill="none" stroke-width="4"><path stroke="#777" d="M26.321 108.287c3.638-2.174 5.538-1.054 14.908-8.704M27.47 109.05c3.835-2.751 9.52-6.729 12.35-9.282m-5.98 16.482c1.572-6.18 2.283-9.92 5.163-15.717m-6.583 13.91c2.453-2.599 3.657-5.246 7.88-14.014m-10.568 17.389c7.15-7.886 13.316-8.937 22.478-17.56M32.24 115.524c5.054-2.647 11.312-8.565 17.474-14.847m-12.02 21.983c5.097-8.415 9.342-18.164 14.285-21.529M36.973 121.36c5.887-7.034 10.759-15.866 14.172-19.98m-8.33 14.801c.48-1.285 2.587-.898 7.35-2.46M42.286 116c2.24-.444 3.81-1.698 8.078-3.075m-1.463 9.307c.826-4.272 1.21-8.005 2.163-9.572m-2.303 9.122c-.285-2.815 1.08-4.642 2.153-8.835"/><path stroke="#000" d="M30.099 98.877c3.034 3.153 10.236 1.68 19.934 1.435m-19.903-.06c4.583.187 9.45.644 19.053-.595m1.865-.77c-1.845 5.03-.85 11.096-1.59 16.72m.4-16.12c.236 4.194.026 7.16-.409 15.677m.704-.17c-8.69.66-16.564 1.723-20.378 1.074m20.246-.418c-4.984-.57-8.23-1.31-20.785-.505m.994-.567c1.132-4.436-.232-5.626.885-14.64m-1.465 15.456c1.007-5.886.13-11.102.316-15.482"/></g><g fill="none" stroke-width="4"><path stroke="#777" d="M51.322 108.932c5.218-2.12 5.534-5.318 15.973-7.581m-15.834 7.681c4.08-2.995 8.878-5.22 14.986-9.95m-6.998 16.765c1.226-3.252 2.674-6.343 4.77-17.723m-7.194 17.492c2.539-5.513 5.673-9.66 8.303-16.208m-3.843 11.552c2.03-.843 8.18-4.172 8.335-4.257m-9.279 5.54c3.21-2.44 6.185-3.81 9.865-6.101m-3.25 10.585c1.096-2.46 2.402-4.458 4.226-9.78m-5.08 10.982c1.591-4.236 2.958-7.325 4.648-11.93"/><path stroke="#000" d="M54.265 99.317c5.835 1.536 10.833-.305 15.655.083m-14.771 1.19c3.934-1.41 6.61-.416 14.939-.696m.927 1.162c-2.3 3.98-1.186 10.638-2.508 13.254m.924-13.652c.19 2.143 1.343 5.374.69 13.987m1.316.239c-6.714 1.116-12.261 1.358-16.948-.445m15.416-.135c-4.03.687-9.08.813-14.601.39m1.186 1.326c-.104-6.345-1.76-10.1-.989-15.608m-.747 14.186c-.439-3.902-.511-8.473.572-14.398"/></g><g fill="none" stroke-width="4"><path stroke="#777" d="M71.33 110.705c6.147-3.48 9.523-7.355 15.758-11.564m-14.006 9.453c3.257-2.205 7.24-4.65 13.154-8.513m-8.994 15.81c4.083-4.548 6.097-8.055 8.416-16.255m-7.029 15.529c1.693-6.043 4.285-10.65 6.707-14.793m-4.43 12.652c1.42-3.16 4.144-4.065 9.071-7.488m-9.648 6.26c2.568-.978 5.187-2.645 10.625-4.937m-4.603 10.494c.124-1.801 2.468-5.666 3.375-11.942m-3.202 11.507c1.44-3.865 2.774-7.564 3.512-10.331"/><path stroke="#000" d="M74.13 100.89c4.82-.584 6.857-.766 15.607.196M75.09 99.958c3.592.668 6.352-.253 14.507-.286m-.358-.84c.819 6.01.588 9.863.713 17.028m-.446-16.602c.162 4.068.047 8.617.176 16.2m1.763.52c-6.531-.843-8.668.21-15.818-2.231m14.761.581c-6.282 1.17-12.097.597-16.075.193m.89 1.183c-.048-5.933 1.206-9.763-.718-15.633m-.222 14.317c1.335-3.004 1.1-5.152.97-14.703"/></g><g fill="none" stroke-width="4"><path stroke="#777" d="M91.792 109.03c4.152-3.182 5.55-2.662 13.927-9.595M91.66 109.463c5.056-4.368 11.43-8.224 14.585-9.64m-6.452 14.39c-.17-1.89.776-6.959 6.858-15.232m-7.595 15.439c1.047-2.058 2.433-6.064 6.161-13.834m-4.182 11.42c1.447-1.567 4.365-2.615 8.707-5.466m-9.515 5.736c2.613-1.906 5.182-3.273 10.211-5.939m-4.907 10.99c1.766-4.29 3.564-7.298 5.763-11.098m-5.143 10.765c1.537-1.115 2.332-4.156 4.559-9.891"/><path stroke="#000" d="M95.729 100.217c3.58-1 10.286-1.467 13.651-.498m-13.68.724c3.634-.493 8.5-.973 14.486-.952m.96-.031c.191 2.629-.09 5.683-1.012 15.075m-.762-14.2c1.021 3.203 1.199 7.632.327 14.815m.096-1.477c-2.738.173-8.09.017-13.84 1.841m14.461.202c-4.791-1.272-11-.667-15.202-1.053m-.293.894c-.758-5.504 1.32-12.294.142-16.157m-.273 15.602c.43-5.01-.066-11.128.452-15.369"/></g><g fill="none" stroke-width="4"><path stroke="#777" d="M113.565 109.609c4.271-2.703 8.095-8.104 12.217-10.673m-13.787 9.785c4.545-1.595 8.326-4.208 14.337-9.198m-9.563 15.794c3.063-6.315 5.29-10.398 8.74-15.984m-8.082 15.864c2.595-5.903 5.337-9.838 7.673-14.874m-4.513 12.015c1.427-1.26 5.11-4.084 10.705-5.305m-10.849 5.734c2.025-1.578 5.823-3.472 9.848-6.166m-3.025 10.996c-.799-2.639-.047-3.948 1.993-10.025m-2.978 10.022c1.888-4.07 3.303-7.976 3.776-11.352"/><path stroke="#000" d="M114.976 101.376c4.849-2.62 8.166-.417 15.072-.154m-15.716-.81c4.763-.82 7.92.24 16.24-.485m.758.212c-1.56 4.298-1.138 6.956.117 15.736m-1.85-16.466c.19 5.065.507 8.626.309 14.96m.076.137c-4.847.506-11.322-.146-13.948 1.24m13.254-.436c-2.572-.962-6.341-.464-14.544-.168m-.521-.837c2.174-3.15 1.34-9.314.175-14.755m.974 14.94c-.48-4.727-.102-10.736-.245-14.417"/></g><g fill="none" stroke-width="4"><path stroke="#777" d="M130.972 110.518c4.384-4.386 7.006-6.11 13.315-9.14m-12.009 7.372c3.943-2.91 8.636-6.285 14.005-9.232m-8.718 14.15c4.348-4.864 6.21-11.041 6.522-13.4m-5.627 15.076c1.29-4.37 3.3-7.655 7.51-15.905m-7.44 18.449c.693-6.21 6.26-7.17 13.34-14.897m-15.743 14.24c7.703-6.202 13.504-11.508 17.43-13.447m-11.449 16.91c4.56-5.887 7.888-10.658 9.936-17.812m-9.109 18.33c2.485-6.379 7.544-11.842 10.704-17.902"/><path stroke="#000" d="M134.347 99.52c3.706.964 6.41-1.168 14.374 1.602m-13.291-1c3.797-.525 8.127.055 14.434.377m-1.306-.562c1.499 4.218 1.345 10.822 1.398 16.093m-.471-16.17c-.158 2.84 1.198 6.29 1.148 15.245m-1.969 1.332c-3.728-2.075-10.836-.16-14.612-1.772m16.498-.015c-5.612.777-10.184.24-15.565.604m.37 1.203c-.495-4.36-1.232-9.904.18-15.051m-.036 13.8c-.901-3.548-1.175-8.267-.948-15.385"/></g><g fill="none" stroke-width="4"><path stroke="#777" d="M152.266 109.008c3.46-.556 7.575-6.145 11.72-8.778m-12.336 9.268c5.553-2.516 9.31-6.821 14.46-9.459m-7.613 14.212c2.842-2.37 2.983-6.495 7.332-14.677m-7.086 15.444c1.82-4.315 2.489-8.196 6.278-15.592m-7.074 18.849c1.55-3.8 7.44-10.59 15.244-15.875m-16.849 13.2c5.364-2.203 9.437-6.151 17.17-12.784m-10.398 19.191c2.986-3.788 6.372-12.33 11.517-19.184m-11.182 19.725c2.99-5.698 5.783-12.064 9.689-19.493"/><path stroke="#000" d="M154.077 99.769c5.545-.88 11.882 1.066 14.942.816m-13.617-.266c3.003.418 7.64.481 14.84-.728m.063 1.322c-1.627 2.482-1.512 8.468-1.528 13.698m.556-14.988c.257 4.783 1.348 10.675.99 14.712m.63.361c-5.144.614-12.184.446-16.222-.041m15.649.398c-6.216.305-11.373-.143-15.185-.562m.12-.392c-1.298-2.478.638-5.02.96-14.078m-1.4 15.546c-.402-5.154.42-9.14.394-15.947"/></g><g fill="none" stroke-width="4"><path stroke="#777" d="M170.39 109.642c7.83-4.808 9.546-5.82 16.539-10.214m-14.626 10.25c2.01-2.576 6.57-4.774 12.556-9.273m-7.488 16.111c.875-5.236 5.269-7.154 7.069-17.804m-6.123 16.938c1.18-5.02 2.916-9.961 7.7-15.375m-11.125 15.511c5.372-4.077 12.256-5.963 20.389-11.505m-18.516 12.964c2.793-3.015 7.703-6.372 17.053-14.93m-10.953 21.354c4.298-6.785 8.494-14.424 10.689-19.951m-10.742 17.134c3.482-4.922 4.9-9.328 10.762-17.777"/><path stroke="#000" d="M174.864 100.257c4.604.5 11.276-1.144 13.681-.161m-13.253.573c3.86-.98 7.373-.131 15.392-.738m-2.179.365c2.71 2.124 1.545 7.827 1.732 13.544m-.391-13.232c.477 2.206-.197 6.556-.168 14.691m-.18.99c-1.854-2.024-5.194-1.647-14.11-.645m14.258-1.013c-4.693.626-9.194.037-14.49.793m1.255-.83c-1.376-2.664-.482-6.09.058-14.159m-1.243 15.23c-1.01-6.355-.302-13.041-.698-15.314"/></g><g fill="none" stroke-width="4"><path stroke="#777" d="M190.781 108.623c6.651-3.396 11.94-4.91 15.55-9.267m-15.03 10.64c3.4-3.152 7.3-5.45 14.353-9.811m-9.045 15.2c3.287-5.559 5.824-8.285 8.51-16.325m-6.996 15.638c.805-3.604 3.634-7.324 6.754-15.021m-6.568 16.57c3.166-2.562 6.14-3.998 13.547-8.973m-14.264 8.409c3.91-2.452 8.522-5.13 12.395-8.605m-6.94 15.47c2.149-5.988 3.816-9.378 6.867-16.415M203 121.597c2.444-5.19 5.657-10.596 7.358-14.777m-13.803 22.051c4.694-4.773 9.817-5.278 13.325-10.737m-12.962 9.078c3.057-1.7 5.499-3.055 13.15-8.337m-7.978 13.177c1.704-1.756 4.565-3.928 8.274-12.315M203.29 132.9c1.265-3.652 4.152-6.699 7.607-14.265m-6.748 14.302c1.381-1.258 4.564-1.763 5.799-2.006m-5.65 1.065c1.19-.314 3.175-.479 5.718-.726m-.42 6.632c.139-2.932 1.097-3.89 1.101-6.611m-.348 5.96c-.46-1.458.004-3.657-.028-6.137"/><path stroke="#000" d="M195.469 101.396c4.777-1.625 8.958-.7 14.372-1.474m-14.767-.476c2.89 1.252 5.655-.014 15.655.137m-1.71 1.491c1.991 10.297-.283 19.462 1.726 34.25m-.865-35.338c-1.121 9.948-.3 21.253.096 35.518m.638.368c-4.07-.174-7.563-.403-11.16-.148m10.518-.56c-3.64-.557-7.905-.173-10.392-.057m-1.39-.155c.613-8.133 1.886-15.62 1.653-18.768m.417 18.947c.55-8.334.216-15.378.681-20.242m-.797.597c-1.621-1.024-2.774-.19-4.696-.272m4.337-.397c-1.02-.087-2.048.363-4.91.06m-.354.447c.982-4.771 1.549-7.048-.955-14.186m1.102 13.439c-.371-3.38.223-5.893.801-14.526"/></g><g fill="none" stroke-width="4"><path stroke="#777" d="M28.22 127.968c1.43-1.025 7.83-5.659 10.845-7.757m-11.89 9.625c5.42-3.948 10.067-6.524 12.665-10.235m-7.606 14.158c2.776-3.01 6.37-9.778 9.5-14.273m-8.27 14.931c1.943-5.1 4.237-8.781 7.806-14.841m-5.665 14.382c3.95-7.445 12.058-11.307 16.608-13.393m-17.494 12.74c6.1-5.052 12.252-10.813 15.737-13.325m-9.829 17.612c4.57-4.854 7.475-10.464 10.731-18.16m-9.83 19.233c3.998-8.56 7.154-13.908 8.715-19.369m-4.106 13.592c1.913-2.499 4.686-2.233 9.796-4.752m-10.256 4.007c2.414-1.26 5.035-2.29 9.41-4.635m-2.527 10.015c1.265-3.03.91-6.173 1.926-9.379m-2.893 9.458c1.047-2.509 1.838-4.856 3.56-9.854"/><path stroke="#000" d="M30.275 121.133c8.29-.82 18.81-1.187 26.21-.545m-25.602-.333c8.172.582 15.518.647 23.205.571m-.016-1.958c.656 5.692-.151 10.26 1.558 16.262m-1.087-15.285c.535 5.731-.191 11.622 1.12 14.65m-2.514 2.422c-7.338.234-14.729.255-24.87-.938m26.643-1.375c-5.739.72-11.97.225-25.393.506m1.239.846c-1.287-7.771.504-12.976-.214-14.935m-.248 13.555c.255-4.66.262-9.698-.575-14.888"/></g><g fill="none" stroke-width="4"><path stroke="#777" d="M58.316 128.472c3.129-1.511 5.934-6.273 12.197-8.13m-13.953 8.845c4.842-2.285 9.257-5.593 13.717-10.052m-7.247 16.117c2.628-6.684 7.441-11.836 8.012-15.9m-8.33 15.338c2.273-4.926 6.164-10.141 7.637-14.483m-4.971 13.157c2.17-3.57 5.271-4.663 10.253-7.53m-10.381 6.2c3.796-1.318 7.863-3.26 10.782-5.775m-4.236 11.418c-.321-2.273 1.204-5.388 4.006-10.512m-4.07 10.267c1.567-4.35 2.857-7.908 4.07-10.718"/><path stroke="#000" d="M59.991 119.177c4.616 1.196 10.427-.498 14.41.79m-13.72-.042c4.35.374 9.333-.597 14.588.265m-.279-.39c.758 6.48-.59 10.891-1.385 14.996m1.488-14.197c-.156 3.033.117 6.148.263 14.312m.79-.302c-5.456 1.855-12.777 1.743-17.101.657m15.95-.773c-4.135 1.164-9.023 1.301-14.43.486m-1.154-1.427c1.172-3.392 1.387-5.79 1.301-13.808m-1.36 15.615c.6-5.377.93-8.832.759-15.984"/></g><g fill="none" stroke-width="4"><path stroke="#777" d="M76.787 129.577c3.824-2.09 7.54-5.47 14.163-9.08m-14.207 8.076c3.57-.759 6.886-3.281 13.458-8.762m-6.182 13.88c.54-5.663 4.606-11.739 5.2-14.488m-5.475 14.962c1.29-4.871 5.291-10.022 6.45-14.69m-3.971 12.62c2.233-1.61 5.72-4.225 9.327-5.779m-10.057 6.533c2.892-3.093 7.49-4.914 10.433-5.612m-4.642 10.745c1.704-2.553 1.733-5.636 4.326-11.636m-4.094 10.743c.836-3.074 2.175-6.501 3.38-10.6"/><path stroke="#000" d="M79.088 120.486c3.892.682 7.05.044 15.226-.591m-14.02-.449c4.256.116 9.24.074 14.052.23m1.385.38c-.977 2.441-.92 4.652-2.21 14.81m1.397-14.155c.378 2.663-.493 5.316.59 13.991m.063 1.643c-5.554-2.295-9.643-.173-14.515-1.692m13.805 1.031c-3.514-1.066-6.35-.064-15.365-.256m1.913-.07c-.664-6.262-.474-10.254-2.081-16.105m.877 15.892c.095-3.404-.146-6.876.09-14.615"/></g><g fill="none" stroke-width="4"><path stroke="#777" d="M97.415 130.731c2.759-5.46 6.674-5.93 11.728-9.346m-12.042 8.42c3.238-2.378 5.093-5.019 12.974-9.725m-7.564 14.403c3.14-2.942 4.774-6.968 8.527-14.002m-7.856 13.741c2.523-5.032 4.14-9.288 6.611-14.024m-4.548 11.67c3.686-1.44 6.634-3.466 8.956-4.588m-8.702 4.657c1.855-.416 3.95-2.19 9.63-4.799m-3.917 10.642c2.019-3.967 2.121-7.545 4.393-9.915m-4.426 9.577c1.37-1.888 1.426-4.377 3.822-10.196"/><path stroke="#000" d="M99.45 121.42c5.926-1.383 13.946-2.418 15.592-.933m-15.765-.608c6.006.631 10.677-.347 14.982.562m1.818.538c-.649 4.106-1.336 9.439-1.046 15.312m-.691-15.725c.617 3.089.202 7.179 1.248 15.014m-1.256-.146c-3.255.937-6.692-1.26-12.833.434m13.568-1.565c-4.35 1.213-9.054.96-14.975.29m1.03.793c-.53-3.748-1.317-10.65-1.766-14.793m1.25 13.947c-.709-3.409-.651-6.188-1.187-14.231"/></g><g fill="none" stroke-width="4"><path stroke="#777" d="M117.056 128.41c6.103-3.23 9.181-7.302 12.593-7.22m-12.277 8.078c3.259-2.072 6.592-5.382 13.265-9.659m-8.895 15.24c3.816-4.345 6.023-9.732 8.682-13.783m-7.496 13.87c3.933-5.302 6.092-11.11 7.8-14.186m-9.42 15.237c5.295-2.58 8.382-6.313 16.062-14.311m-15.018 14.257c3.624-3.16 6.728-6.181 16.358-12.335m-12.715 19.939c3.04-9.135 7.974-14.845 13.652-21.604m-11.946 20.156c2.474-4.765 6.072-9.944 11.705-18.57"/><path stroke="#000" d="M119.472 119.28c6.064 2.082 9.285-.061 16.36 1.224m-16.01.243c4.314-.251 7.807-.013 14.859-.476m1.604-.383c-2.15 2.94-1.968 7.347-1.602 14.741m.315-14.886c-.281 3.789-.506 7.034.166 15.612m.267.782c-6.904-.309-13.484-.795-16.516-2.536m16.408 1.418c-6.515-.294-12.843-.59-14.588.513m-.443-.102c.008-5.613-1.548-11.105.178-14.697m.248 13.517c-.522-2.306-1.29-5.847-.585-13.732"/></g><g fill="none" stroke-width="4"><path stroke="#777" d="M137.667 129.441c2.423-.969 5.008-2.632 12.861-9.775m-14.294 10.142c3.866-3.308 8.217-4.34 13.578-9.957M142.436 136c3.9-7.414 5.508-12.667 9.257-15.147m-8.724 13.59c2.941-4.485 5.997-10.381 7.803-13.774m-6.96 11.539c6.335-2.352 9.582-5.554 11.673-5.833m-10.879 6.405c3.057-1.895 6.942-3.924 10.971-6.034m-5.217 10.27c1.189-3.32 4.948-6.016 4.777-10.51m-4.041 10.823c.927-1.72 2.571-5.299 5.04-11.716"/><path stroke="#000" d="M140.101 118.712c5.082 2.388 9.984 2.692 15.904 2.69m-15.589-.927c2.217-.63 6.348-.904 14.01-.964m-.064-.309c-.307 4.796 1.888 10.071 1.479 16.719m-.76-15.25c.04 4.151-.047 8.737.23 14.071m-.95.33c-2.154-.902-6.362 1.23-14.252.898m14.749-1.258c-3.848-.454-8.739-.219-15.51-.235m.19-.36c1.348-3.906-.81-10.988.914-15.295m-.578 15.884c-.037-2.582-.003-5.285.84-14.38"/></g><g fill="none" stroke-width="4"><path stroke="#777" d="M158.008 130.272c2.886-2.176 5.36-6.806 12.085-10.693m-12.71 10.743c4.353-3.96 8.721-6.863 12.432-9.578m-6.942 13.87c.957-3.584 4.572-7.123 7.11-14.253m-7.501 14.023c2.964-3.977 4.827-9.349 7.242-13.3m-4.601 11.752c3.968-2.515 6.39-4.118 11.607-5.404m-11.377 5.777c2.097-2.139 4.63-4.363 10.292-6.972m-6.01 11.108c1.037-2.983 3.964-4.53 5.66-12.26m-4.048 12.306c.912-1.625 1.146-4.312 4.085-11.319"/><path stroke="#000" d="M161.486 119.647c3.95.069 10.383 1.806 14.21.387m-15.948.699c4.92-.766 9.871-.84 15.007-.804m-.756-.516c.599 4.301 1.567 7.69.43 15.14m.83-14.099c-.19 4.286-.732 8.348-.924 14.67m1.998.119c-3.874.475-6.622.102-16.685.831m15.817-1.47c-5.846.635-11.549 1.182-14.723.173m-.531 1.279c-1.443-5.985-.13-13.664-1.535-15.038m1.977 14c-.56-3.294-.344-6.941.062-14.808"/></g><g fill="none" stroke-width="4"><path stroke="#777" d="M177.031 128.773c6.564-2.304 11.33-6.709 12.639-7.165m-12.134 8.957c3.289-4.15 9.031-7.514 12.054-10.612m-7.935 15.476c2.599-6.121 4.861-8.419 6.993-14.508m-6.578 14.839c2.833-5.649 5.103-10.054 8.42-15.881m-6.453 13.443c3.865-1.501 7.72-5.036 11.327-5.755m-10.247 5.436c2.912-1.66 6.317-4.43 10.471-6.577m-4.762 12.102c.852-4.233 3.4-6.183 4.123-11.524m-3.613 11.09c1.11-4.239 3.854-9.14 3.747-11.877"/><path stroke="#000" d="M180.95 119.414c4.479 1.312 7.728 1.248 14.876.415m-15.68.796c5.075-1.078 10.353-1.071 14.652-1.185m-.296 1.7c1.804 3.392.404 9.241.644 13.39m-.255-15.266c-.402 3.21.086 6.388-.191 15.853m.726-1.449c-4.154 1.223-7.655 1.63-16.724 1.144m16.73-.55c-6.627.187-12.136.178-14.705.802m-.815-.236c-.556-7.008-.52-11.546.993-14.48m-1.267 14.979c1.002-3.534-.152-6.51.251-14.783"/></g><g fill="none" stroke-width="4"><path stroke="#777" d="M25.984 150.382c6.6-2.352 9.896-7.822 15.502-10.445m-13.881 10.21c4.035-3.048 6.727-6.573 12.588-9.503m-7.448 15.465c1.517-3.84 3.08-6.815 7.138-15.043m-7.012 14.43c1.695-3.193 2.789-7.865 8.449-15.312m-6.146 13.16c3.75-2.596 7.888-4.265 10.967-6.482M34.72 152.16c2.527-1.02 4.995-2.007 10.09-5.238m-3.348 11.73c1.83-3.047 2.053-8.157 3.877-11.775m-4.761 10.716c1.702-4.207 3.705-7.096 4.633-10.8"/><path stroke="#000" d="M29.072 141.426c5.919-.418 10.46-.237 15.9-2.802m-15.023 1.063c3.016-.046 5.892-.236 14.976-.15m-.14-.422c-.51 5.723-1.108 12.3-1.093 14.68m1.51-13.701c.366 3.482-.068 7.613.504 15.29m-1.235 1.005c-3.104-.85-10.202-1.906-13.824-1.293m14.541-.25c-5.765.904-10.722-.371-15.545.449m-1.034 1.14c2.508-3.898 2.624-6.675 1.578-15.422m.105 14.576c-.197-6.446-.918-12.313.002-14.973"/></g><g fill="none" stroke-width="4"><path stroke="#777" d="M45.422 149.474c4.852-3.937 11.404-4.327 16.479-7.977m-14.671 7.61c3.246-1.39 6.833-3.562 14.02-8.455m-7.591 12.491c3.173-4.028 3.19-9.119 8.444-12.612m-8.447 13.462c1.243-4.557 3.599-8.717 7.178-14.732m-5.318 13.449c3.004-1.527 4.623-2.944 10.143-6.882m-10.9 6.15c2.832-.25 5.269-1.463 10.597-4.883m-3.526 9.999c-.706-2.79 1.027-4.428 4.035-9.351m-4.999 10.36c1.275-4.508 3.2-7.782 4.71-10.873"/><path stroke="#000" d="M49.69 140.875c6.593-2.266 11.749-.985 15.315-1.34m-15.518.872c5.551-.012 11.122-.364 14.912.177m1.444-.26c-1.736 4.746-2.403 7.62-.67 14.961m-.866-15.07c1.101 4.94.162 11.434 1.222 14.513m.755.028c-3.23 1.773-6.927-.821-16.042.941m15.265-1.22c-5.431 1.021-10.251.324-16.233.775m1.676 1.178c-1.862-3.834-.39-6.762.335-14.942m-.85 13.595c.034-4.603.383-8.55-.779-15.375"/></g><g fill="none" stroke-width="4"><path stroke="#777" d="M65.655 148.887c5.896-2.764 9.374-5.295 16.042-7.734m-14.262 8.362c3.182-1.72 6.754-4.72 13.776-9.822m-9.237 15.293c4.232-3.814 6.825-10.998 8.45-14.216m-7.603 13.842c2.556-2.707 4.635-7.22 8.155-14.992m-4.484 14c4.667-6.047 8.225-9.348 14.198-13.9m-16.335 12.404c4.458-2.624 7.804-4.8 17.622-12.03M80.17 159.219c3.22-6.735 5.829-8.696 11.906-17.62m-11.482 15.965c2.816-4.806 7.774-12.191 10.03-16.817m-4.359 11.579c1.436-2.993 5.078-5.118 15.988-10.991m-16.14 10.451c2.095-1.602 6.04-4.377 15.368-11.182m-9.326 17.602c-.1-4.106 2.826-7.83 9.876-18.662m-10.074 17.32c2.444-3.534 4.61-8.642 10.404-16.219m-6.639 12.257c5.636-3.49 10.623-6.571 18.558-10.992m-17.93 10.386c4.498-3.065 6.621-4.95 15.431-13.223m-7.656 17.853c3.87-4.3 4.93-12.369 8.068-15.479m-9.986 16.194c3.434-4.159 6.07-9.319 10.135-18.187m-6.395 11.291c7.204-3.444 10.096-6.001 15.557-11.46m-15.056 13.104c3.698-2.363 8.207-5.363 16.91-12.706m-11.223 16.675c1.973-2.907 8.225-8.129 12.567-15.624m-11.792 17.348c3.735-8.16 7.786-13.182 9.977-17.705m-6.28 13.775c4.86-5.348 8.309-6.535 16.673-14.282m-16.347 13.423c4.038-3.179 7.823-7.818 16.87-12.889m-10.242 17.462c2.227-4.088 3.83-11.667 9.977-19.777m-9.676 19.868c3-5.402 6.602-10.504 8.913-16.977m-4.027 10.29c2.332-1.017 6.585-5.189 14.537-11.118m-16.046 11.99c7.144-4.405 11.836-9.245 17.073-12.013m-8.236 17.097c.025-7.276 3.664-10.622 9.102-17.788m-11.233 19.142c3.503-7.745 7.519-13.694 10.414-19.44m-6.364 12.216c6.283-.258 8.138-4.71 18.81-11.127m-17.101 12.017c3.262-2.091 6.505-6.625 15.796-12.783m-10.738 16.887c3.511-2.106 6.343-8.955 11.738-18.188m-11.849 19.036c1.674-3.633 3.565-7.593 10.923-16.32m-7.177 11.051c5.275-3.22 6.547-4.147 15.234-10.422m-13.598 10.27c3.894-1.609 6.004-6.186 15.011-11.837m-9.18 19.398c3.681-7.545 6.57-13.65 9.087-17.542m-8.762 15.494c2.755-6.802 6.059-12.655 10.06-17.139m-5.848 12.81c2.625-2.039 4.339-3.377 10.959-6.432m-11.34 6.234c3.448-2.952 7.081-5.073 10.071-5.642m-5.223 10.86c2.626-1.952 2.394-5.527 5.465-12.482m-4.813 11.625c1.339-3.476 3.199-6.835 4.54-10.32"/><path stroke="#000" d="M68.817 140.066c37.763 1.235 75.183-2.237 102.602 1.377M69.085 140.1c28.765-.184 56.148-.257 101.66-.357m.46 1.085c-.014 1.289-1.474 4.543-1.501 15.44m.053-16.385c.047 3.759.059 7.615.206 15.646m-1.754-2.22c-30.01 2.395-64.159 2.3-98.598 3.61m100.543-1.202c-28.769-.475-56.165-1.316-99.196-.73m.018.008c-2.022-4.614.349-11.18.17-14.056m-1.429 14.698c-.401-4.306.2-7.37.602-15.01"/></g><g fill="none" stroke-width="4"><path stroke="#777" d="M171.9 150.537c5.017-4.541 10.413-8.636 12.878-8.87m-12.066 7.752c3.886-3.859 10.217-6.905 12.902-9.278m-6.098 15.955c.956-4.512 2.99-9.225 6.529-15.138m-7.536 14.616c1.666-5.86 3.75-9.903 6.37-15.573m-9.812 17.453c5.457-5.143 10.263-5.59 17.83-14.102m-16.92 13.848c5.478-4.25 11.859-10.05 17.176-14.86m-10.926 18.934c3.684-4.332 5.234-11.705 9.646-18.769m-8.492 19.87c2.845-7.145 7.142-15.52 9.948-19.444"/><path stroke="#000" d="M176.446 139.285c4.02-.257 9.572.405 12.17 1.667m-13.823-.4c4.078-.757 9.042-1.069 15.243-.546m-.638-1.327c2.084 7.557.207 12.194 1.713 17.801m-1.78-16.561c1.047 4.344-.08 6.582 1.082 15.672m-1.4-1.82c-3.905.967-7.398.094-12.695 2.683m14.248-.937c-3.445-.719-7.552-.781-15.562-1.051m.68 1.289c-.593-4.79-1.625-8.274-1.618-14.849m1.682 14.195c-.322-4.293-1.42-8.426-.53-15.735"/></g><g fill="none" stroke-width="4"><path stroke="#777" d="M190.804 150.729c4.42-4.815 9.798-8.06 14.28-9.497m-12.375 8.928c2.868-2.511 6.338-5.593 13.327-9.753m-7.055 15.099c2.232-5.749 3.51-12.486 6.627-14.183m-8.29 13.718c2.443-3.601 3.86-7.54 8.15-14.57m-6.132 13.169c3.14-2.42 7.6-4.798 11.149-8.439m-11.028 6.93c4.674-2.04 8.695-3.842 11.74-6.382m-4.73 11.515c.17-1.82 2.768-5.62 4.709-10.362m-4.768 11.105c1.812-4.728 2.834-8.074 4.044-12.148"/><path stroke="#000" d="M194.76 140.86c3.016-.808 7.348.15 14.345.002m-14.061-1.089c3.425-.269 7.383.475 15.427.755m-.477.467c.137 3.872.555 8.748-1.374 12.972m1.233-13.755c.68 4.627.142 9.26-.53 14.715m-.8.346c-.87-1.314-5.982-1.562-13.836.639m15.21-1.537c-5.563 1.287-10.366.62-15.5.184m.99-.997c-.017-4.08-.701-6.251-1.048-13.718m1.102 14.63c-.422-4.124.002-10.678-.408-14.514"/></g></svg>