<svg xmlns="http://www.w3.org/2000/svg" viewBox="0 0 240 240"><g fill="none" stroke-width="4"><path stroke="red" d="M26.271 209.228c.4-2.37-2.151-3.711-3.09-10.375m3.896 10.644c-1.459-2.126-2.578-5.074-4.6-9.48m10.739 4.409c-3.46-1.208-6.53-2.163-11.797-4.292m10.665 3.469c-3.076-1.652-6.169-2.644-9.34-3.68m12.284 7.898c-.587-4.744-3.98-11.187-10.337-18.695m11.262 17.408c-4.34-4.921-6.994-9.305-11.865-15.618m17.716 8.978c-6.877-3.148-11.525-4.396-18.757-10.193m17.75 12.008c-3.321-3.303-8.692-6.565-16.063-12.084m20.59 14.36c-7.075-5.958-10.1-13.797-18.504-23.142m17.725 22.84c-3.138-3.223-7.56-10.18-18.411-22.277m24.124 15.9c-8.503-3.365-18.821-12.577-23.74-16.048m24.354 18.234c-6.451-3.925-11.828-9.138-24.876-19.215m27.522 21.138c-6.038-10.113-15.338-17.93-26.761-30.27m27.215 32.3c-8.682-10.71-19.183-22.972-26.41-31.836m31.515 25.138c-13.167-8.686-21.313-19.613-30.6-26.277m32.094 27.871c-9.824-8.45-20.58-16.04-32.856-27.735M64.059 203.2c-4.678-10.126-12.943-15.7-32.244-41.634m33.835 40.092c-11.39-10.753-21.16-24.306-34.703-40.07m39.495 37.033c-11.73-13.32-26.027-22.41-38.45-37.813m39.533 36.615c-16.151-13.559-31.22-25.544-42.157-34.686m45.976 41.473c-14.603-21.754-35.723-39.703-41.899-50.477m42.675 48.92c-15.902-17.166-31.756-35.856-43.557-50.939m50.252 46.088c-12.633-12.389-22.407-21.202-52.53-44.532m52.565 44.148c-13.985-10.648-25.747-22.556-51.998-44.71m58.308 52.949c-17.512-22.198-38.138-40.502-54.656-64.543m56.119 62.695c-20.298-20.141-38.871-41.017-57.64-60.895m64.148 55.249c-17.444-12.058-29.762-24.026-64.99-56.742m63.355 57.135c-15.32-13.84-32.026-28.389-62.654-56.934m70.706 61.812c-17.603-13.372-31.054-32.66-71.243-70.902m68.88 73.555c-25.14-28.581-49.648-55.9-68.306-75.123m75.898 68.672c-18.504-14.653-33.509-29.993-75.6-69.624m73.582 69.04c-18.629-16.254-35.6-33.09-73.934-67.27m80.7 74.417c-25.257-28.874-52.663-59.461-77.883-85.294m77.422 83.644c-19.33-18.065-35.075-37.367-77.752-82.872m83.313 77.426c-19.812-16.752-36.646-32.465-84.892-77.657m85.096 77.449c-19.207-18.13-40.19-35.42-83.928-76.215m87.544 82.554c-27.114-29.754-52.382-58.358-83.96-92.38m84.662 92.15c-20.272-22.742-38.47-43.9-85.034-92.202m90.904 86.375c-27.545-27.841-55.439-50.943-91.488-87.627m91.958 87.135c-29.155-25.836-56.21-53.586-92.294-85.662m94.302 90.171c-15.66-16.506-28.374-37.718-38.139-48.35m39.85 48.235c-13.775-15.507-27.787-31.273-41.36-48.322m47.392 42.413c-15.21-12.443-28.62-27.31-45.614-42.434m45.564 42.967c-12.3-10.895-22.574-20.512-46.63-41.546m-3.643-.118c-11.41-9.246-19.366-19.13-47.98-50.11m46.708 50.97c-15.804-17.67-31.806-36.341-45.257-51.105m52.283 48.1c-17.657-18.61-32.656-29.908-50.914-45.92m49.64 44.739c-12.781-11.195-23.618-22.466-51.844-46.491m101 93.555c-7.625-9.001-18.764-20.87-43.263-46.31m43.02 46.688c-11.108-11.85-22.47-24.129-42.019-48.037m47.445 42.66c-13.752-11.183-23.896-21.896-47.48-42.248m46.671 41.64c-18.184-16.71-36.738-32.134-46.879-41.206m-9.073-4.146c-11.471-12.825-21.283-22.489-44.225-48.71m43.846 49.925C82.3 139.08 72.777 129.2 48.934 100.714m49.125 44.346c-14.22-13.077-31.722-29.618-47.962-45.646M96.56 143.57c-11.345-10.014-22.456-20.127-47.706-43.031m103.245 97.76c-12.542-14.065-27.185-25.192-42.961-50.6m41.819 49.494c-15.797-16.503-32.793-34.75-43.418-47.643m47.698 42.07c-17.464-16.452-36.756-33.215-49.004-43.609m50.937 45.295c-17.2-15.21-34.001-29.48-49.586-44.516m-15.538-9.888C84.08 128.124 74.36 117.8 56.71 96.586m37.073 44.92c-8.437-9.124-15.75-19.026-35.89-43.93m41.301 36.319c-14.819-10.392-27.157-23.433-41.676-36.81m41.279 37.726c-7.493-6.647-16.452-14.112-42.291-36.813m102.868 95.52c-9.88-10-16.894-17.063-41.972-46.375m41.18 46.988c-11.135-12.022-22.334-24.097-42.547-46.597m48.684 40.034c-12.6-7.72-24.93-19.265-46.662-39.836m47.229 40.48c-17.893-14.21-35.199-28.305-48.46-41.17m-20.845-14.734c-13.443-14.726-23.81-27.274-32.258-38.995m33.532 39.804c-10.86-12.684-21.142-24.617-31.898-37.889m35.258 32.936c-13.032-13.423-29.271-27.718-36.452-31.891m38.998 30.279c-9.859-8.697-22.002-17.299-38.535-30.723m101.76 95.576c-15.434-16.97-31.56-33.15-40.853-50.075m39.67 49.326c-15.99-20.133-30.92-37.242-40.745-48.092m45.252 42.771c-17.09-17.223-30.234-28.747-45.107-44.066m46.386 42.474c-13.132-11.64-24.89-21.884-46.924-39.816m-23.157-17.917c-7.823-6.516-11.44-15.587-27.557-36.566m28.152 36.592c-9.25-10.925-20.268-24.024-29.321-35.589m33.783 29.376c-11.845-8.194-20.715-18.48-32-29.048m33.137 29.94c-9.027-9.08-19.594-16.31-34.705-29.934m100.075 91.986c-11.822-11.62-22.615-25.82-42.246-43.42m40.901 45.118c-14.225-16.518-28.996-34.345-39.95-45.636m46.249 39.388c-14.44-13.549-33.12-26.379-47.264-37.922m47.898 38.054c-16.85-14.788-34.176-30.14-46.816-38.878m-21.81-16.488c-13.04-15.26-22.487-26.778-29.055-35.171m27.645 33.617c-7.255-9.089-14.752-17.483-29.864-34.497m35.99 27.917c-8.664-4.677-14.94-12.705-34.969-27.751m35.212 27.451c-13.232-8.813-25.447-19.075-36.327-29.092m98.744 94.958c-12.09-14.065-24.472-30.891-39.644-48.387m40.379 47.337c-8.091-10.139-17.341-18.589-39.491-45.022m46.78 37.734c-19.17-15.231-36.3-27.761-45.735-39.257m44.15 39.954c-18.263-15.276-35.112-30.664-45.612-39.552m-24.079-15.419c-8.11-11.167-11.82-17.623-26.916-35.747M114.88 116.9c-10.127-11.329-18.445-22.276-29.645-36.213m34.553 29.94c-11.505-10.518-18.9-17.889-34.715-28.65m35.402 29.198c-10.616-10.226-23.22-19.735-35.887-30.43m96.68 93.024c-9.607-14.281-21.71-26.202-40.33-45.028m40.695 43.133c-13.37-14.48-27.423-31.738-39.3-43.942m43.977 38.23c-10.374-11.28-24.591-21.809-44.96-38.974m45.98 39.85c-10.288-9.745-19.41-17.806-44.133-39.505m-25.799-15.85c-6.715-10.58-12.183-17.216-26.7-36.024m29.322 33.713c-11.797-13.46-24.267-27.362-31.234-34.69m37.617 29.422c-9.003-6.978-21.306-15.052-36.594-30.255m35.438 30.046c-8.495-6.633-15.334-12.042-36.11-29.166m97.623 93.322c-11.303-16.281-24.5-29.717-42.131-49.163m41.786 47.057c-8.746-10.759-20.604-24.477-39.24-45.64m44.145 41.996c-15.776-13.757-28.07-26.862-43.253-43.993m43.908 41.545c-15.969-15.2-33.415-29.482-46.666-40.681m-19.634-16.671c-8.825-8.394-15.929-17.185-31.886-33.452m30.129 34.785c-7.383-9.076-14.102-18.246-28.782-35.892m34.105 29.72c-10.165-9.929-20.324-20.264-34.749-27.953m35.42 28.37c-11.689-10.078-24.699-20.217-36.25-29.591m98.415 89.378c-12.402-10.442-20.246-20.244-41.886-46.421m40.93 47.557c-14.185-16.03-29.925-34.629-42.184-47.517m46.515 42.346c-12.506-12.616-26.873-25.062-44.33-42.937M196.4 153.39c-13.87-11.856-25.822-24.12-46.47-42.138m-18.805-13.75c-7.766-8.032-13.857-16.027-32.36-36.413m32.503 38.5c-11.71-13.16-22.926-26.128-33.814-39.737m39.21 32.448c-15.075-12.31-28.536-22.165-39.939-30.729m40.1 32.398a1944.818 1944.818 0 0 0-38.76-33.548m99.464 92.66c-16.855-17.506-30.998-36.921-43.692-48.56m41.234 47.318c-8.825-11.5-19.184-22.526-42.686-47.464m49.025 41.49c-18.211-14.312-34.833-28.673-48.67-41.726m48.813 43.03c-10.493-10.29-23.429-20.215-49.7-42.985m-10.308-7.355c-15.774-15.75-32.095-33.137-40.35-44.423m38.1 44.027c-8.498-10.836-18.117-21.877-37.83-44.102m44.205 38.547c-9.434-8.984-23.227-21.265-44.731-37.517m43.882 37.315C129.29 75.26 110.805 61.56 102.18 53.056m98.183 91.173c-11.998-11.715-19.287-21.69-44.342-49.161m42.373 48.756c-8.742-10.773-18.756-22.748-43.122-49.805m47.584 42.607c-15.379-16.972-37.18-30.056-45.577-40.208m46.56 42.568c-10.436-9.876-20.474-19.27-49.241-44.746m-5.319.046c-12.929-17.443-28.32-33.349-45.288-52.242m44.947 52.44c-14.795-15.522-27.003-30.943-45.133-50.019M154.266 88c-17.433-12.707-31.73-28.087-49.14-44.974m49.38 45.82c-13.156-12.708-24.692-23.889-50.952-44.395m95.463 88.997c-19.458-20.878-41.589-47.441-89.411-94.042m89.518 93.494c-27.65-30.35-55.626-60.752-89.49-94.087m97.701 87.497c-30.685-27.177-62.802-57.236-97.669-87.25m95.52 88.78c-28.34-28.467-60.188-57.338-95.199-89.159m90.375 86.35c-33.25-37.844-64.053-71.05-80.78-90.607m80.744 88.165c-25.104-27.767-51.527-55.311-82.318-88.616m87.216 83.599c-22.453-23.93-47.65-45.402-88.846-82.802m89.155 83.705c-29.109-29.39-59.612-57.124-86.909-83.52m81.695 79.692c-26.668-32.758-57.317-63.372-71.343-81.5m73.6 79.379C178.93 90.14 156.299 64.162 126.737 33m81.45 74.157c-24.964-22.96-52.318-46.29-82.762-75.891m82.658 75.472c-25.626-23.124-51.682-48.757-81.44-73.885m75.651 66.897c-20.949-21.173-41.81-43.875-64.67-70.45m63.778 71.358c-14.677-15.668-29.771-30.11-63.7-70.077m71.04 65.425c-28.196-24.144-54.825-47.914-69.993-66.2m67.78 66.273C189.013 78.306 172.469 62.7 136.08 31.035m64.307 55.56c-15.886-17.422-31.33-32.265-53.469-56.865m52.706 58.063c-18.49-19.88-36.706-40.794-51.986-58.694m58.599 54.943c-22.177-20.24-38.73-37.639-57.549-55.9m56.434 55.093C188.175 65.71 168.75 49.214 147.11 29.454m53.766 47.29c-18.417-19.173-31.883-34.708-42.113-47.93M198.45 75.62c-12.965-15.479-28.925-31.678-41.569-46.347m48.492 43.349c-15.416-16.778-29.027-28.052-46.46-41.96m45.393 40.42c-13.62-13.216-27.843-25.29-46.53-42.013m40.13 35.497c-10.23-10.383-17.713-24.04-28.524-35.403m29.413 35.218c-9.989-12.784-20.602-24.507-31.26-36.717m36.185 30.942c-13.298-12.583-28.447-24.575-38.216-30.476m39.16 31.306c-13.558-11.119-28.115-24.141-37.313-31.05m30.62 25.888c-5.988-9.335-13.056-19.558-21.5-27.595m24.455 27.316c-6.704-6.152-12.474-13.978-23.904-28.657m27.892 24.135c-6.585-4.99-16.538-14.078-27.212-23.792m28.392 22.99c-8.355-5.696-17.165-12.299-28.656-22.972m25.238 21.512c-5.218-9.405-9.673-14.237-17.513-24.991m16.974 24.137c-6.92-8.551-12.263-16.977-14.65-21.795m18.363 15.05c-5.969-6.474-15.65-9.673-20.215-15.748m22.264 16.25c-6.264-5.12-11.1-8.873-21.337-15.063m16.524 12.546c-2.153-4.182-4.296-7.444-6.304-15.508M205 35.649c-2.229-2.163-3.47-6.002-8.88-13.571m13.448 7.428c-1.633-2.222-4.558-2.923-12.986-7.259m13.459 8.015c-4.093-2.878-9.17-4.816-14.398-8.928m10.043 5.056c-.502-1.826-.133-3.854-.115-5.988m.825 6.83c-.792-2.54-.794-4.453-1.572-7.231m6.747 2.053c-1.95-1.676-4.855-1.644-7.256-2.752m7.919 1.847c-2.556.003-5.352-.547-7.366-1.187"/><path stroke="#000" d="M38.814 109.288c-1.04 3.02-1.051 7.832-4.678 12.262m3.656-14.18c-.4 3.963-2.97 7.792-1.143 11.806m-1.647 1.892c1.189 3.568-2.823 6.949-2.459 18.31m.495-18.661c-1.097 5.917 2.626 6.595-1.411 19.802m1.173-.468c-.636 10.89-2.104 18.256-2.114 27.226m2.411-26.515c-.998 10.288-1.715 16.05-4.25 22.416m.883 2.117c-1.754 15.767-6.909 30.197-7.115 40.892m7.751-42.385c-4.566 17.314-7.89 31.257-11.289 43.676m1.818-1.273c-1.554 2.837-1.953 2.027 1.29 1.477m-2.276-3.036c-1.488 2.01.262 2.427 2.481 4.795m-1.594-.712c2.208-.668 16.216-5.94 25.04-7.628m-25.128 9.412c-.919-2.876 16.692-6.224 25.405-8.704m-.667-.06c12.919-4.892 22.484-2.453 45.879-.314M47.2 201.31c13.804-1.144 20.345-.615 44.837-.452m.579.446c19.885 3.584 28.766 2.299 37.586 1.652m-39.107-.684c20.06 1.436 28.284.751 41.082 1.821m-1.101-2.294c15.92-4.01 27.723-6.111 36.684-13.829m-34.8 12.802c12.982-2.4 24.318-4.523 34.504-12.268m1.576-2.049c4.11-2.288 14.28-13.462 17.87-18.581m-19.62 18.92c6.552-6.095 14.959-13.611 21.29-21.16m-.805 2.086c7.87-9.555 13.55-22.517 15.91-39.795m-16.455 41.243c7.982-13.784 15.724-21.928 16.074-38.927m.286-1.797c2.842-9.013 2.303-20.897.445-38.169m-.834 37.031c-.325-7.688 3.58-16.336.583-39.33m-1.061.498c-1.266-16.359-1.569-26.63.355-36.187m1.113 36.025c-2.808-16.292-4.695-24.91-4.714-36.064m2.157 1.726c2.084-6.44 5.936-28.283 7.855-33.323m-8.918 34.033c.962-11.013 5.59-28.407 6.952-33.092m2.18-.781c1.72-3.016 1.48-.547-.586-3.277m-.611 1.937c1.804 1.115 1.495 1.457-.045-2.164m1.935 1.376c.28-.137-2.701-1.429-1.689-.769m.438.327c1.506.9 1.309 1.577-3.423.45m2.124.562c-3.849.776-14.8 4.028-25.672 7.406m24.059-8.332c-3.137 3.027-12.706 5.851-21.932 8.043m-.659-1.376c-16.781 4.164-24.895 4.718-40.122 6.041m41.4-5.93c-20.374 1.446-27.983 5.515-43.796 5.7m1.238.277c-18.382.324-24.655 1.854-29.242 4.9m27.615-3.29c-14.433-.316-23.302-.082-29.423 1.618m1.895 1.772c-5.327-.334-6.323 4.511-7.598 6.887m9.217-7.477c-3.93 3.412-7.273 2.5-7.633 6.409m-2.153 1.111c-.438 2.385-3.705 4.44-5.646 11.893m5.867-10.875c-2.374.846-4.807 2.904-2.76 10.822m-1.421-1.694c-2.2 12.873-7.886 17.798-12.373 20.544m11.984-21.625c-4.835 14.39-6.705 18.377-9.507 21.657m-.721 1.723c-1.096 2.593-8.587 9.137-12.123 12.654m10.783-12.054c.314 1.985-6.153 12.164-14.436 12.243m1.867.818c-6.106 3.786-8.676 4.714-20.825 10.358m19.695-12.277c-3.15 5.877-8.322 6.09-18.808 10.731m-1.296 1.285c-6.344 2.548-10.767 5.049-8.35 5.025m8.316-6.113c-4.181 4.687-9.29 5.567-12.495 6.396m2.184-1.348c-2.842.294-4.87 4.32-5.471 6.451m4.351-8.2c1.22 5.001-4.243 5.454-6.866 7.535m69.734 12.553c4.64-.794 6.389-5.312 8.277-6.244m-6.513 5.113c1.463.893 5.652-1.838 6.809-7.217m1.252 1.394c3.848-2.745 2.498-3.71 6.587-9.194m-5.563 9.663c1.384-3.003 2.077-3.936 6.58-10.31m-.946.263c-.067-1.347 3.992-4.539 2.628-4.247m-2.035 4.867c.225-4.492 1.5-4.034 5.24-7.607m-2.294 1.963c1.912-.307 3.27-.1 15.964-6.842m-17.664 8.144c2.564-1.278 1.033-1.474 18.262-6.56m-.723-.781c2.251-1.785 7.8-1.978 10.53-4.719m-11.72 3.835c3.87-1.575 9.219.328 9.651-1.624m1.76-1.13c2.443-2.769 2.724-1.364 4.548-3.752m-4.335 4.527c.376-2.26 3.023-.646 5.077-3.567m-.588.867c.283-.175.436-.167.756-.267m-.731.273c.238-.192.526-.297.675-.312m.026-.087c-.112.288-.248.482-.279.72m.26-.686c-.12.224-.182.497-.328.677m.017.023c-.024 2.333-3.309 10.764-3.77 11.928M156.94 87.1c1.044 4.454-3.739 11.65-2.214 13.273m-1.648.573c-1.554 5.961-7.161 19.534-6.892 25.58m4.981-24.917c1.962 5.494-7.02 19.716-9.194 22.937m2.27.481c-2.065 5.355-12.73 13.565-16.232 17.808m15.006-18.69c-.126 7.37-8.136 16.855-18.282 18.94m1.937-.486c-.126 2.003-6.582 2.654-7.948 3.241m9.673-4.153c-5.251 2.069-8.162 5.29-7.79 4.962m-1.805-.783c-3.044 2.641-4.702 1.147-6.532 4.611m7.532-3.158c-2.098.838-8.529-.955-7.103 1.856m-2.04-.315c-1.648 1.934-6.734 1.429-6.962 2.636m5.72-3.074c1.047 1.688-3.318 2.35-7.6 4.089m1.17-1.176c-2.98.594-11.154 4.032-12.322 6.492m11.39-5.74c-1.625.763-9.074 2.985-10.536 4.056m-1.179.117c-2.334-.55.706-.81.054-3.456m1.31 2.856c-3.607.48.417-1.633.028-3.198m-.377.111c1.367-5.776 4.352-9.509 7.574-18.477m-8.45 19.234c5.458-5.917 5.107-11.22 6.29-17.287m.674-.893c1.858-11.175 3.45-8.696 10.248-15.094M97.27 133.82c3.657-7.262 3.562-8.686 7.394-12.192"/></g></svg>