<svg xmlns="http://www.w3.org/2000/svg" viewBox="0 0 240 240"><g fill="none" stroke-width="4"><path stroke="#bbb" d="M65.018 58.266c6.192-.617 12.5-6.924 22.546-14.499M67.32 60.151c5.904-5.266 12.298-10.432 19.73-16.16M74.952 65.921c1.089-3.81 2.266-10.756 9.588-21.202M73.368 65.24c4.894-8.613 9.174-15.936 12.61-22.74M68.944 71.04c8.86-10.412 17.038-19.938 28.66-28.652M67.47 71.277c9.167-7.358 18.746-16.953 30.92-27.855m-26.965 34.7c10.889-10.166 17.495-23.952 26.38-37.407M74.038 77.257c4.921-10.62 12.329-19.412 23.405-34.28m-28.782 39.5C79.585 70.433 94.308 55.524 107.752 39.7M67.481 82.746C78.519 71.514 90.388 60.722 109.185 41.9M72.757 89.082c9.82-15.263 20.662-25.985 37.877-48.955M72.732 88.51c9.112-9.693 15.711-19.436 37.708-47.724M68.59 95.972C82.554 82.39 96.772 64.64 120.406 38.36M67.594 96.416c16.368-16.906 32.378-34.532 54.389-58.11m-47.638 62.217C90.874 78.747 107.6 56.39 121.55 37.303m-49.228 64.595c14.125-15.334 25.437-32.352 49.092-63.864m-54.574 71.251c14.494-18.39 31.334-32.974 64.286-67.938m-64.717 66.13c22.01-24.138 45.351-46.731 65.748-67.261M73.55 112.039c19.47-19.537 34.994-43.678 56.172-71.843m-55.82 73.268c19.72-24.57 39.25-50.616 57.42-73.066m-65.515 78.178c23.76-19.107 44.521-43.136 73.853-78.049M67.058 120.67c26.398-28.153 50.386-54.178 74.693-80.271m-68.823 86.128c18.138-20.57 31.682-41.222 70.008-84.637M72.5 124.999c27.86-33.1 53.93-65.397 69.603-84.636M66.869 131.62c16.75-18.424 34.363-33.824 82.916-86.003m-83.09 86.013c24.863-23.491 46.366-48.412 83.386-88.356m-76.607 94.396c22.705-28.043 46.72-57.344 75.939-94.614M73.864 138.35c22.5-29.894 45.322-58.191 75.11-94.564M66.226 145.097c29.75-30.23 56.76-58.718 90.383-99.993M67.633 145.28c34.212-35.638 66.522-70.96 89.477-97.545M73.268 151.572c23.57-30.811 47.218-57.73 86.257-104.83m-85.761 102.45c29.584-35.987 60.331-73.293 83.407-102.971m-89.43 107.817c35.22-36.466 72.595-72.522 99.575-105.917M69.358 153.535c25.46-26.917 53.229-57.415 97.106-103.569M76.982 159.971c23.828-31.464 47.739-59.323 87.035-109.574M75.328 159.565c23.921-27.944 46.543-58.198 90.875-110.334M71.259 162.874c26.703-27.364 53.214-51.66 103.27-110.014M71.266 164.388c40.871-41.87 79.51-84.236 101.746-112.04M78.147 170.81c24.488-29.956 45.405-57.8 94.692-119.803M77.01 170.4c37.741-47.466 76.955-93.378 95.7-117.272M71.734 173.954C109.53 135.994 141.42 95.9 174.267 65.178m-99.909 108.39c23.295-25.991 47.382-51.629 98.609-107.905M80.545 177.958c29.586-36.096 57.838-69.305 93.172-112.897M80.093 179.149c26.674-34.644 54.15-68.47 94.583-113.502M78.498 180.858c27.981-32.358 56.554-59.632 92.724-101.911m-93.06 102.72c20.714-23.601 42.771-45.97 94.069-104.084M83.726 186.638c21.067-26.796 40.261-50.175 89.521-110.185M85.002 184.94c26.403-33.21 52.03-65.316 87.593-108.089M81.813 188.75c19.775-20.432 40.1-43.11 91.002-100.678M82.445 188.27c27.448-31.928 57.87-62.666 90.74-99.094M90.212 191.821c27.625-34.341 60.043-70.234 81.22-101.793m-83.51 102.615c33.117-40.627 66.26-80.674 85.84-101.986M89.903 191.703c26.312-28.614 57.14-60.79 82.572-91.35m-83.94 92.622c18.494-19.45 36.659-39.686 85.725-90.677m-79.659 94.167c23.265-28.252 48.922-56.23 77.998-94.322m-76.632 95.443c24.527-31.024 50.823-62.304 77.096-95.541m-77.553 96.113c27.546-30.32 53.082-55.027 78.276-83.247m-77.71 82.426c19.869-22.294 40.097-43.756 76.861-82.408m-71.726 88.169c17.72-19.646 34.52-39.113 70.776-87.056m-69.466 86.5c23.504-28.476 47.058-59.98 69.4-88.526m-68.994 86.77c25.061-25.622 52.15-54.81 70.91-75.443m-71.172 76.167c22.372-25.612 46.676-50.103 71.246-74.993m-67.755 79.534c26.646-27.831 51.229-59.181 67.568-78.284m-66.436 79.856c21.067-24.07 39.462-48.323 65.948-80.448m-61.061 75.867c13.593-11.86 26.21-26.533 61.824-64.631m-63.696 65.28c22.57-23.142 44.657-46.306 62.652-64.519M118.478 207.3c19.599-25.421 42.014-51.103 53.998-68.244m-54.816 70.648c19.704-26.688 41.637-53.368 55.25-70.1m-50.6 64.002c12.351-11.402 23.872-23.855 52.314-54.205M121 204.917c12.333-13.727 26.582-27.332 52.163-53.448m-47.09 57.942c17.051-22.125 36.649-41.771 46.063-60.266m-46.44 60.687c16.107-20.275 33.352-42.606 47.77-58.47M136.9 196.744c9.239-5.16 14.497-14.76 34.627-33.829m-33.858 35.847c10.82-11.331 21.989-23.291 34.262-34.048m-29.827 40.69c8.024-12.01 17.935-23.387 29.326-43.183m-28.26 41.706c11.685-15.5 22.835-29.664 29.277-39.836"/><path stroke="#000" d="M70 50c29.577-16.497 67.912-19.448 99.83-1.778m-99.745.33c30.101-14.872 68.822-15.856 99.537 3.159m-.52-.527c2.451 25.612.4 54.424 2.203 102.632m-1.1-102.902c-1.108 27.13-.556 53.865.12 103.708M170 155c-1.982 37.996-40.54 62.849-75.894 41.82m76.68-43.73c-3.02 38.281-43.84 63.638-77.602 46.005m1.816-.794c-13.831-9.3-24.274-25.46-24.068-44.66m24.466 45.849c-16.145-9.9-23.596-27.434-25.4-43.823m-.783-1.995c.43-30.343-1.928-58.122.862-101.828m-.26 102.584c.648-38.931-.502-76.532.88-104.486"/></g><g fill="none" stroke-width="4"><path stroke="#444" d="M109.069 69.165c1.329-3.817 8.552-4.805 14.97-11.972M106.384 70.32c3.71-3.462 8.208-6.673 17.903-14.537m-9.525 18.892c.448-3.554 3.689-8.017 9.237-17.41m-10.77 17.767c4.737-4.68 7.517-11.993 10.512-18.071m-18.36 25.226c10.87-7.164 15.698-12.983 25.34-20.58m-22.605 20.895c3.118-5.011 8.254-7.714 22.25-19.063M112.94 88.01c4.85-7.534 10.141-15.39 19.068-25.317m-18.164 24.818c2.302-5.01 5.996-9.841 16.917-25.023M107.191 93.72c4.887-3.565 12.733-7.779 24.045-19.463m-24.567 21.175c5.13-4.35 10.841-9.756 23.69-21.297m-18.032 27.825c4.262-8.155 10.967-15.933 18.177-28.478m-17.882 26.204c6.616-7.175 11.882-17.281 17.473-25.462m-16.973 27.673c5.304-4.093 12.737-11.842 19.085-13.343m-19.394 12.123c5.202-5.348 13.244-10.005 16.84-13.59m-9.607 21.41c2.47-9.892 4.81-13.394 8.524-22.031m-10.818 20.39c5.299-8.581 9.847-16.248 11.672-20.255"/><path stroke="#000" d="M110 65c1.925-5.786 9.453-11.575 16.453-6.67m-15.608 5.225c-1.199-8.112 5.557-10.5 12.263-7.724m1.892.509c2.905 1.308 4.554 5.961 5.444 8.696m-6.57-6.763c2.715-.01 6.2 1.2 5.156 5.38m1.151.04c-.26 12.18.28 23.601-.32 30.811m.922-29.005c-1.129 4.669-.09 11.236-1.454 28.538M130 95c-1.648 7.323-7.935 13.204-15.857 9.977m15.735-9.953c-1.281 8.11-7.402 12.966-14.314 9.915M115 103.66c-2.43-.592-4.607-5.99-3.886-9.46m5.636 11.368c-4.92-3.488-7.304-6.014-7.782-9.912m.56-.454c1.289-8.391 1.04-14.507-.087-31.56m-.062 32.35c.106-8.65.156-18.537 1.007-31.761"/></g><path fill="none" stroke="#000" stroke-width="4" d="M120.646 35.37c-1.278 3.654-.562 9.934-2.037 19.915m1.975-18.817c-1.314 5.12-.68 8.26-.553 17.876m.16 51.512c.751 3.238.75 5.574-1.054 8.998m1.126-10.248c.053 3.768.09 7.165-.181 9.992m-51.496-.77c25.119 1.622 46.91.456 100.413 2.167m-98.73-.729c29.973-.102 61.666.61 99.954.691"/></svg>