<svg xmlns="http://www.w3.org/2000/svg" viewBox="0 0 240 240"><g fill="none" stroke-width="4"><path stroke="#ffbe1a" d="M28.812 81.74c7.318-10.101 15.03-19.6 34.974-37.818m-36.65 35.384c9.781-7.606 19.1-17.63 37.032-34.906M33.392 85.15C44.725 70.357 59.32 53.091 65.31 46.024M33.853 84.218C41.955 75.662 49.697 64 63.573 44.963M16.84 102.168c22.552-20.88 44.646-48.916 70.704-68.815m-68.603 69.706C37.35 83.304 57.163 63.213 85.7 31.109m-60.642 76.518C43.364 86.594 60.93 62.925 84.533 33.846M23.81 107.648c21.111-23.291 41.117-48.29 62.026-74.75m-70.005 85.008c33.203-35.7 61.154-68.131 91.035-95.412m-89.923 93.43C53 78.821 88.085 40.684 106.662 20.56M24.839 122.9C41.083 99.245 62.354 73.142 106.42 21.767M23.018 123c22.096-25.21 42.144-52.096 83.885-101.966M25.084 123.516C58.204 87.162 89.487 48.07 117.743 18.5M23.207 121.269C56.953 83.958 90.723 48.59 116.873 19.115M28.31 128.424C54.09 96.65 81.037 63.493 116 19.653M29.554 127.99c19.052-26.972 40.19-52.703 86.934-107.572m-95.598 116.13C57.85 97.923 90.772 60 123.496 23.636M22.188 134.498c26.639-27.75 51.017-55.367 100.964-109.574M30.046 141.62c35.938-44.635 71.823-92.976 93.43-115.746m-94.01 114.378C55.57 107.798 82.65 76.048 123.648 23.333M26.1 145.583c32.875-35.8 62.041-70.075 105.512-120.991M24.525 144.088c39.68-44.465 80.249-88.917 109.734-119.214M29.401 149.069C59.823 115.424 86.059 84.273 132.483 25.92M30.638 149.366c20.92-23.82 41.97-50.39 103.204-122.933M24.316 155.907c30.319-33.104 62.189-66.312 120.76-130.475M25.965 155.003c46.212-49.6 90.093-99.412 119.238-131.608M29.74 161.633c34.539-42.72 68.653-80.238 115.481-136.02M31.157 160.62c32.86-40.403 66.915-82.128 113.124-136.989M28.121 161.62c31.206-31.052 59.486-62.856 127.798-137.012M28.99 163.991c42.234-47.285 84.514-93.717 125.287-136.637M35.135 168.388C74.69 121.724 114.641 73.472 153.282 25.75M34.704 168.183c29.27-33.74 56.826-66.1 119.73-142.04M35.564 170.046c39.75-43.132 80.971-88.994 124.87-139.768M32.887 169.995C71.463 131.008 105.72 92.146 161.313 30.93M40.516 178.04C85.34 122.696 132.253 64.363 161.96 30.315M40.636 176.706c22.898-31.435 46.015-59.346 120.429-147.174M38.21 177.936c34.105-35.827 64.605-70.968 132.282-142.973M36.926 179.18C87.768 122.878 138.855 64.73 168.199 34.73M44.42 183.253c34.655-40.209 70.722-83.004 125.056-149.328M44.598 183.183c45.447-52.192 90.44-107.238 124.108-149.441M43.646 184.267C80.14 145.075 116.28 106.88 173.99 40.4M42.083 185.204C88.224 134.264 134.7 83.947 174.958 38.89M47.388 188.263c28.051-33.897 59.94-69.217 127.336-150.6M49.114 189.007c29.2-35.023 59.162-70.238 127.076-150.449m-128.547 153.8C90.757 140.394 136.21 93.942 180.4 43.34M48.082 190.729c29.045-32.589 58.497-63.71 133.493-146.851M55.661 194.472c45.828-56.737 94.653-116.609 124.381-152.739M54.78 195.794C87.282 156.868 119.142 116.432 182.7 42.1m-126 153.75c43.975-49.455 87.615-99.904 129.505-146.67M54.862 195.088c43.349-48.883 85.773-97.17 132.987-147.16M62.628 198.607c26.589-32.253 55.995-64.153 124.895-150.618M61.681 200.55c39.575-46.485 78.126-92.165 125.78-151.994M59.918 201.285c46.37-47.98 88.595-98.819 133.972-147.852M60.823 200.375c34.857-36.448 66.2-71.977 133.94-148.608M68.886 206.96c47.75-60.765 95.339-122.38 125.709-152.625M66.319 205.108c40.097-49.29 80.847-97.683 128.716-152.256M69.28 205.618c31.9-42.262 68.958-77.2 128.598-144.642M68.356 204.557c37.414-41.472 75.178-84.855 131.94-144.513M71.952 210.06c47.294-58.32 95.434-114.026 129.266-151.046M73.105 210.38c36.196-42.221 73.335-85.191 126.441-150.89M76.775 207.56c40.771-45.919 81.399-93.565 128.251-140.694M75.37 208.55c47.21-52.185 94.18-103.096 129.105-142.421M79.984 212.887c50.739-57.31 99.027-112.626 123.933-145.554M81.36 213.418c43.053-49.912 85.352-98.534 123.126-146.619M82.705 213.718c33.577-37.784 71.828-77.504 125.487-139.389M83.1 212.279c36.188-38.228 71.585-77.763 124.574-139.417M89.881 219.234c31.046-37.953 58.476-73.906 117.699-146.997M88.602 217.043c27.866-32.548 55.416-64.384 119.863-143.313M89.352 214.873c43.449-44.368 86.806-91.857 121.095-133.977M90.786 214.85c49.046-52.144 97.293-105.54 121.612-133.77M95.536 221.945c37.48-43.007 73.6-86.526 118.475-139.615M95.918 219.754c33.244-39.878 66.903-79.432 116.244-139.254M96.803 218.91c28.977-28.945 54.824-60.248 121.953-130.762M98.03 219.076c45.288-50.362 89.568-100.803 120.398-132.88M102.442 222.793c40.652-47.323 82-95.842 115.792-135.582M103.292 223.855C147.92 172.446 191.071 119.299 219.25 86.69M108.105 220.753c33.37-39.253 70.04-74.844 112.095-126.007m-111.963 126.47c31.217-35.607 63.266-69.701 111.467-125.125M111.498 226.737c31.83-39.033 62.845-74.146 108.097-132.323M113.573 224.88c37.653-44.146 74.956-90.542 107.83-129.263m-102.268 122.5c37.637-40.756 75.525-83.526 102.615-111.544M120.177 217.266c25.177-26.71 48.382-53.064 99.973-108.66m-95.395 114.67c27.523-31.219 51.852-62.08 95.611-114.39m-95.453 114.69c26.517-33.089 53.382-64.268 95.803-115.644m-88.581 107.712c32.612-35.609 70.1-73.583 88.653-96.062m-89.598 97.687c19.297-21.136 37.735-41.485 88.6-97.432m-83.407 102.076c24.714-29.22 47.757-56.449 84.894-100.758M137.41 221.529c18.442-21.106 36.055-43.962 84.276-101.676m-75.015 92.073c19.335-24.396 41.488-46.897 72.209-79.331m-73.437 79.373c19.06-18.909 38.303-40.17 74.94-77.425m-67.182 81.544c20.972-24.094 41.697-48.723 67.557-80.228m-69.978 82.453c27.166-33.058 51.755-63.951 69.685-83.938m-63.984 76.808c20.79-16.538 38.936-38.169 58.57-57.965m-57.565 57.74c15.898-16.886 31.499-33.433 57.873-59.265m-52.713 64.476c20.683-22.363 34.6-44.78 51.632-63.725m-50.232 64.463c13.626-17.562 27.782-36.11 50.377-64.079"/><path stroke="#000" d="M20 120c-.637-76.42 83.715-125.288 149.92-86.076M20.489 121.15c1.288-80.406 82.137-124.779 147.55-87.59m1.962-.164c30.887 17.252 48.63 49.975 48.863 85.217M168.85 33.471c32.659 17.112 50.25 52.026 48.927 88.782M220 120c-.222 75.847-84.922 124.8-150.117 85.66m149.552-84.706c.49 76.544-84.01 123.893-148.622 86.805M70 206.603c-32.262-16.697-51.173-48.905-51.084-84.981m51.878 86.602c-31.155-17.355-50.273-53.364-50.218-89.277"/></g><path fill="#fff" d="M50 85c-1.955-20.784 23.403-39.045 45.406-22.525 10.409.127 17.853 12.605 11.961 20.566 2.42 21.645-24.33 41.418-45.306 25.393-3.918-.875-8.857-13.492-9.156-20.308"/><path fill="none" d="M50 85c1.754-23.78 23.942-37.785 46.972-25.285M48.25 85.953c2.369-24.146 28.796-40.14 48.228-27.576M95 59.019c9.788 7.034 16.354 16.059 14.242 26.873m-12.284-28.42c6.252 4.91 15.155 15.455 13.973 29.244M110 85c.441 24.845-24.206 38.305-46.88 27.332m45.505-28.018c1.38 22.946-23.542 40.41-42.838 25.267m-.787 1.4c-11.058-4.553-16.19-17.09-14.27-24.543m13.49 24.356c-7.248-5.832-13.33-17.056-15.38-24.4"/><path fill="#fff" d="M130 85c-1.879-24.906 27.717-37.34 45.823-24.716 7.73 6.714 13.948 13.613 13.077 26.533 2.017 23.6-26.35 38.444-41.404 23.055-13.744-6.983-14.742-12.786-20.73-24.336"/><path fill="none" d="M130 85c.383-23.478 24.31-39.004 46.905-27.633M131.617 85.97c.395-24.667 24.281-40.536 45.385-27.744m-2.002.793c8.17 4.404 16.665 16.183 13.965 26.885m-12.982-27.548c7.11 5.676 15.05 16.559 13.713 26.391M190 85c-1.023 23.27-26.986 36.063-43.733 24.818m45.445-25.752c-2.587 24.338-25.64 39.449-46.077 29.21m-.635-2.295c-10.664-5.157-13.077-13.641-15.569-25.38m16.75 25.53c-12.759-7.261-17.627-14.816-15.756-26.254"/><g fill="none" stroke-width="4"><path stroke="#222" d="M78.078 90.28c2.89-3.385 6.046-8.53 11.984-12.51M78.05 89.558c4.46-4.038 8.451-9.322 11.139-12.035m-4.647 15.865c3.7-3.42 5.148-6.142 10.228-9.41M83.962 95.211c3.261-3.478 5.471-5.276 10.725-12.26m-4.349 8.127c-6.303-4.83-9.844-8.344-11.951-11.923m12.8 12.997c-3.593-1.837-6.783-5.632-13.6-12.237m17.638 5.135c-1.853-2.074-5.414-3.903-10.688-9.364m10.094 9.592c-2.772-3.575-7.94-6.446-12.194-10.029"/><path stroke="#000" d="M75 85c-1.21-7.107 9.832-14.367 15.453-8.75m-16.03 9.103c-.413-6.839 10.76-11.526 15.416-11.179M90 76.34c1.886 2.087 5.986 5.174 6.785 8.747m-8.059-8.588c4.383 1.138 6.299 2.998 6.436 9.86M95 85c1.647 9.428-6.703 14.466-15.603 7.957m13.816-8.66c3.914 6.517-6.036 14.757-12.056 7.608M80 93.66c-1.84-1.1-3.81-6.262-3.438-9.01m4.388 10.066c-2.896-1.572-3.9-7.762-4.008-9.865"/></g><g fill="none" stroke-width="4"><path stroke="#222" d="M147.941 91.401c.407-4.963 3.164-5.548 10.836-13.71m-10.874 12.543c3.552-3.076 6.433-7.356 10.805-13.382m-4.919 18.222c3.407-3.644 5.545-7.32 9.514-11.482m-9.165 11.389c2.171-2.225 4.027-5.778 10.305-12.118M158.932 93.094c-2.555-6.163-8.159-7.761-12.842-13.36m15.061 12.011c-4.776-3.208-10.626-8.183-13.306-11.811m18.877 5.64c-7.06-3.045-9.656-5.902-12.244-11.674m10.947 11.347c-4.652-2.156-8.338-5.44-12.685-9.092"/><path stroke="#000" d="M145 85c-.078-9.642 6.374-12.493 13.094-10.177M143.897 86.58c.826-8.235 8.465-15.142 13.852-10.654m2.251.414c1.315 2.025 6.43 5.239 3.96 10.495m-3.153-11.374c1.811 2.461 1.963 4.702 5.224 9.632M165 85c1.59 7.896-7.62 13.689-16.113 8.093m16.543-7.373c1.13 8.79-8.956 14.084-15.024 6.789M150 93.66c-4.74-.419-3.554-5.448-4.28-9.075m3.675 7.103c-.477.075-3.613-3.884-5.597-6.965"/></g><path fill="#fff" d="M120 155c12.657 3.071 23.926-2.62 33.11-15.776 3.16-5.177 6.74-4.774.122-3.79-.7-.766-1.793-6.062-1.552-2.478-21.605 16.889-47.353 14.824-60.79.165-3.547.683-3.69 1.188-8.054 4.602 2.643 2.788-2.232.056 3.191 5.407 4.746 6.488 20.814 15.357 33.032 13.765.948-1.894.945-1.896.94-1.896"/><path fill="none" d="M120 155c12.22-.146 25.748-6.55 33.974-16.566m-35.75 14.892c15.092-.438 29.541-5.44 38.024-12.791m-.888-.175c3.322-4.675 3.336-8.559-1.128-7.078m1.45 8.377c.46-4.248 2.972-10.678-2.925-11.182m.217 1.558c-3.48-.962-3.59-.129-6.37.738m8.108-1.334c-2.645 2.127-6.855 2.66-6.312 3.422m-.11-1.571c-14.238 16.138-40.66 16.524-55.86.44m53.954-2.434c-13.963 16.052-37.723 16.102-54.882 2.21m.218-.216c-.78-.86-7.513.113-6.728 2.58m5.433-1.37c.66-4.678-7.065-3.047-9.125 3.273m2.095-2.097c.648.657-.019 4.126 2.178 4.395m-1.54-4.069c-.91 2.692-1.427 2.861 1.958 4.357m-1.341.001c10.59 8.796 20.773 14.95 36.445 15.494m-37.036-14.552c8.04 6.58 23.709 11.805 36.38 14.406m-.43-.708H120m.01 0H120"/><g fill="none" stroke-width="4"><path stroke="#222" d="M88.139 142.497c2.003-2.218 3.713-5.55 5.303-7.837m-6.218 7.191c2.687-2.697 5.521-5.576 6.37-7.58m-.566 12.638c2.594-2.326 3.88-4.013 7.291-8.737m-7.095 9.338c3.139-3.257 5.462-6.061 7.263-8.089m.43 10.339c2.368-1.818 4.853-3.773 7.525-6.183m-6.67 6.944c1.471-2.034 3.384-4.869 6.388-7.464m.494 10.834c3.956-2.386 5.9-6.002 7.29-7.71m-6.799 6.923c2.237-2.124 3.955-4.444 7.515-7.769m1.996 10.295c3.598-2.225 3.589-4.719 11.083-11.12m-11.608 10.99c2.961-2.838 5.11-5.322 11.077-11.596m2.919 10.072c4.367-9.374 10.39-15.005 13.57-20.64m-13.66 19.558c2.142-4.407 6.238-9.348 15.288-18.163m2.463 9.918c1.89-1.614 2.818-5.224 7.886-9.172m-9.406 9.629c3.022-3.88 5.864-6.34 8.796-8.81M112.547 152.536c-5.913-4.018-12.376-10.695-26.732-19.902m26.033 20.77c-7.338-6.4-16.745-13.684-23.46-21.242m36.078 21.541c-2.042-3.688-5.648-4.049-12.385-12.166m12.52 12.056c-3.482-1.796-5.747-4.732-12.05-11.202m22.704 9.695c-1.955-1.139-5.448-3.919-11.063-8.966m9.964 9.21c-1.732-1.785-3.59-4.432-9.08-8.207m16.68 3.498c-1.295-1.155-3.793-3.145-6.417-6.676m7.404 7.444c-2.283-2.39-4.946-4.503-7.447-6.761m14.86 1.8c-4.149-1.05-5.805-4.698-7.366-6.03m7.034 6.087c-2.617-1.571-5.39-4.676-7.78-6.094m14.91 1.056c-3.19-1.36-4.482-3.025-8.06-5.289m6.998 5.502c-2.044-2.154-4.83-3.808-6.721-5.535"/><path stroke="#000" d="M120 155c14.172-.277 27.958-5.475 35.762-16.508m-37.673 15.95c15.523-1.084 29.34-2.506 39.23-12.84m-1.959-1.242c3.899-3.348 1.44-9.17-.387-9.477m-1.007 10.736c4.61-1.736 3.218-7.344 1.229-7.353m-2.221-2.23c-.809-2.306-2.215 1.006-6.456 1.175m5.681-.174c.32-.332-4.25-1.853-5.282-1.872m1.373 2.125c-14.951 13.856-39.932 17.477-56.557-1.1m57.732 2.31c-15.012 12.552-43.61 13.932-56.281-1.652m-1.464.442c-3.92-.754-6.259-3.242-6.935 4.196m6.533-4.086c-.218-1.95-7.212.25-8.394 3.438m.471-1.162c-1.64.762-1.129 4.547 2.349 5.897m-4.227-4.301c-.67-.855 4.16 4.06 2.206 5.177m.927-2.089c10.693 9.017 22.703 15.115 37.356 16m-37.393-15.668c9.105 7.94 22.878 16.446 35.532 12.25M120.01 155H120m.01 0H120"/></g></svg>