<svg xmlns="http://www.w3.org/2000/svg" viewBox="0 0 240 240"><g fill="none" stroke-width="4"><path stroke="#ffbe1a" d="M22.556 83.16c14.725-13.85 29.308-29.278 53.093-50.977m-52.034 52.59c18.341-18.92 36.646-37.167 51.86-52.679M32.05 89.372c9.486-13.75 18.324-25.874 43.082-59.626M29.072 89.9c16.736-19.837 32.992-41.854 46.369-58.28m-57.66 70.225c24.997-24.08 52.727-51.614 71.578-74.964m-70.397 77.152C34.863 85.576 51.718 69.206 90.02 26.148m-66.292 83.804c27.85-31.874 53.622-66.683 66.433-83.817m-66.709 82.988C44.357 83.5 62.86 59.442 90.571 25.217m-73.123 91.24C44.824 87.42 71.84 56.048 106.785 20.322m-88.746 97.49c17.509-19.63 36.867-40.907 88.689-96.56M22.693 121.897c25.76-31.73 48.456-60.242 82.647-102.693M22.875 121.257c28.38-32.218 55.977-66.889 83.583-99.926m-88.45 104.151c40.377-39.642 78.13-84.35 100.801-106.049M18.02 127.68c21.735-24.637 43.347-49.161 99.75-108.353M25.82 131.418c20.352-21.974 38.166-44.978 92.342-112.822M25.02 132.62c29.227-36.697 59.82-73.621 92.32-112.48M18.787 136.626C46.296 109.376 70.844 82.83 126.2 20.477M20.889 138.544c22.8-26.643 45.849-50.43 105.486-118.204M24.396 143.61c26.03-30.443 53.724-60.587 103.27-120.724M25.49 143.332C45.646 119.742 66.925 94.61 126.182 20.74M21.965 147.362c31.936-35.806 65.404-72.802 115.2-127.237M22.394 147.155c38.579-41.6 76.226-82.705 114.722-125.87M27.375 151.447c43.37-48.055 84.62-99.374 108.338-128.473M29.463 152.308c29.49-36.439 61.011-73.825 106.38-130.974M25.69 155.124c25.007-25.464 46.482-53.948 120.185-130.812M26.157 155.922C61.232 116.89 97.684 76.374 146.034 22.995M29.998 161.062c42.06-45.981 84.346-93.793 115.32-138.674M32.273 161.745c34.24-42.195 68.76-84.382 113.86-139.185M31.472 163.504c23.834-28.548 48.275-55.835 121-137.287M30.182 163.12C57.307 130.846 85.94 100.298 154.89 27.27M34.335 167.437c27.22-34.052 56.676-65.238 118.345-140.186M34.939 169.205c33.62-39.092 64.098-76.337 118.99-142.302M32.88 172.288C64.06 137.958 93.015 100.573 160.93 30.4M33.198 171.96C82.56 118.638 129.372 64.925 161.542 29.088M40.429 178.008C85.05 123.512 128.7 68.975 163.542 27.55M39.902 176.971c30.644-38.402 61.64-73.18 121.341-146.575M39.253 180.489C68.388 145.94 98.16 110.114 169.64 32.3M38.546 177.848c27.674-31.128 57.313-63.238 130.92-145.054M45.003 184.255c33.225-42.603 67.045-86.82 122.833-150.336M42.779 184.23c48.585-57.67 95.928-113.635 126.372-150.33M45.012 183.002c29.659-28.666 56.525-62.04 132.187-147.103M43.626 184.111c35.54-36.422 69.576-73.91 132.643-146.1M48.272 189.297c37.787-43.778 76.733-89.168 129.602-152.627M48.371 189.875c41.38-52.087 84.537-102.328 126.893-152.233M47.713 188.57C102.06 131.764 152.69 75.197 181.358 44.723M48.881 189.644c38.802-42.534 76.23-82.75 132.17-146.077M56.816 195.602c23.036-32.143 51.7-62.671 124.658-152.337M54.433 195.632c29.142-33.274 55.763-67.118 126.75-152.808M55.911 194.456c44.707-52.669 93.338-106.096 133.73-146.653M55.854 194.647c36.76-39.995 72.487-80.62 132.398-147.163M61.457 198.964c39.3-43.708 74.95-86.379 125.934-151.742M60.783 200.002c29.587-30.967 55.875-63.589 128.78-152.452M60.71 199.34c49.988-51.034 95.777-101.692 135.28-145.204M61.186 200.085c44.518-49.428 88.715-96.793 132.398-146.483M65.905 206.25c27.392-32.799 57.172-66.31 126.838-152.64M68.468 204.142c29.363-35.02 58.317-70.576 125.486-150.995M69.073 203.404c41.134-41.432 77.756-86.507 128.67-143.696M67.83 204.741c46.411-51.114 92.645-100.891 131.578-144.912m-126.39 149.8c37.9-44.01 76.448-89.827 124.813-149.676M74.527 210.307C114.95 161.035 156.15 111.559 200.264 59.8M75.44 207.085c26.995-31.64 54.001-62.066 128.164-138.508M75.474 207.959c48.59-53.154 98.444-109.845 128.632-140.759M80.072 215.052c36.225-45.469 71.032-86.634 122.929-149.19M80.38 214.067c43.426-51.582 88.281-104.714 122.177-147.62M82.067 209.894c44.038-41.796 87.212-90.001 126.369-134.859M84.145 211.28c36.464-41.836 74.697-85.053 124.224-136.99M88.004 218.207c34.843-42.172 70.473-85.685 119.836-143.093M88.52 215.77c39.44-47.426 80.334-96.725 120.178-141.52M89.454 215.383c23.866-28.495 50.732-58.24 124.18-134.937M91.299 214.52c25.157-29.165 51.158-57.66 121.56-133.644M98.456 218.323c36.078-43.437 74.25-90.276 113.657-136.453M97.948 219.493c27.03-32.769 55.234-65.532 114.98-138.277M99.939 215.32c38.267-40.767 73.825-82.858 114.46-125.868m-114.201 127.1c41.089-45.84 80.898-90.644 115.782-127.002M107.57 220.653c30-35.79 59.984-70.477 107.274-129.574M106.643 220.896c32.42-37.407 62.56-74.425 107.61-130.52M108.497 216.493c30.812-30 57.508-59.506 107.85-119.028M110.464 217.12c23.225-25.278 47.255-51.772 107.002-118.106M117.165 222.242c38.661-47.953 77.073-93.878 99.677-122.862M116.48 223.198c25.549-32.412 50.68-63.534 101.066-124.897m-95.74 117.994c32.643-33.831 65.35-69.139 97.938-107.92m-98.892 109.543c37.297-41.589 73.163-80.54 98.99-108.702m-94.287 114.919c26.305-33.153 54.671-67.253 94.86-114.273M127.25 223.258c27.432-36.818 55.469-71.394 91.92-113.375m-85.851 105.729c22.553-21.874 44.719-48.996 87.582-96.293m-88.39 98.2c30.878-35.604 61.832-70.434 88.46-98.083M137.964 222.2c30.526-35.56 58.936-70.584 84.327-100.577m-84.625 100.812c18.325-22.01 36.12-44.632 82.174-103.025m-72.371 93.58c16.224-19.845 30.907-36.215 72.742-80.7m-73.963 80.404c14.579-15.588 29.642-33.003 72.4-79.084m-68.36 85.79c20.188-24.296 38.693-46.7 69.146-84.818m-68.04 84.323c25.945-32.884 50.252-63.571 67.183-85.03m-57.518 74.562c17.23-16.6 31.25-32.116 52.709-55.356m-53.058 53.907c17.486-17.287 33.322-33.301 54.093-55.217m-45.573 61.78c14.425-19.06 28.057-37.684 45.647-61.213m-48.124 60.405c15.198-19.48 29.511-36.067 47.392-60.227"/><path stroke="#000" d="M20 120c-.615-77.025 83.652-125.57 149.437-86.735M19.791 118.813C21.189 44.42 104.175-2.931 171.61 31.87M170 33.397c32.41 16.408 50.832 51.924 50.71 86.947m-51.245-88.84c30.401 18.893 49.145 54.824 50.96 86.486M220 120c-1.6 75.634-83.055 125.033-151.71 88.502m152.073-86.604c.562 76.693-84.537 122.072-150.05 86.341M70 206.603c-32.672-18.184-50.668-50.89-51.94-87.129m52.335 87.28c-32.062-19.39-51.521-52.702-50.324-88.758"/></g><path fill="#fff" d="M50 80c9.26-10.362 30.825-9.178 41.905-.176 3.882 40.59 3.482 74.382-4.604 132.037-15.561 1.152-23.429-10.86-36.124-19.49 1.762-44.687-2.424-86.247-1.543-109.133"/><path fill="none" d="M50 80c11.071-11.158 27.532-10.607 40.488-1.375m-39.21 1.49c9.865-12.316 25.444-11.023 39.729-.972m-2.864 2.442c1.274 37.723.616 81.076 3.008 135.194M89.286 79.388c.215 39.217.032 76.517.58 135.046m.134.966c-13.245-5.455-27.909-12.196-41.262-25.03m41.874 24.274c-13.84-4.653-30.535-13.222-42.25-22.313m2.01.76c-.41-38.844.888-77.681-2.103-113.499m.94 111.677c.853-27.128 1.327-55.425-.114-110.513"/><g fill="none" stroke-width="4"><path stroke="#0a68ff" d="M44.999 91.152c5.87-6.818 12.147-9.589 20.973-21.086M46.021 89.353c9.2-5.237 15.773-12.351 21.971-17.517m-15.169 23.69c1.665-4.467 6.248-9.087 14.86-25.36m-14.56 25.166c5.039-8.104 10.897-17.517 15.123-23.61M46.638 100.44c8.333-6.372 21.422-14.868 29.285-26.878m-27.96 29.095C53.003 95.185 61.7 88.425 77.355 72.7m-25.549 33.543c8.064-9.59 16.729-23.597 24.934-33.902m-23.685 35.299c7.81-12.723 17.563-25.286 23.056-35.147m-28.077 43.05c5.574-8.182 16.54-17.655 37.486-38.223m-39.022 36.246c12.441-10.965 23.1-21.12 37.446-37.592m-31.868 42.028C61.22 105.74 71.71 95.607 85.365 78.166m-31.288 40c6.625-9.999 13.42-19.017 31.008-42.317M48.938 124.23c11.494-12.134 26.183-24.285 43.293-43.33m-45.374 45.344c13.225-13.291 24.45-25.058 43.919-45.206m-37.757 50.766c9.865-17.491 23.279-29.31 38.305-50.305M52.53 131.216c14.398-18.947 30.22-37.063 37.688-49.17m-41.851 56.466c9.78-12.449 20.292-21.213 42.959-43.647M46.483 138.77c14.075-13.524 29.057-28.308 43.28-43.303m-37.678 47.307c9.306-9.383 16.485-17.733 39.963-46.885m-39.794 48.736C63.627 130.45 74.23 116.51 89.489 94.693m-43.432 57.89c15.789-18.247 31.22-34.777 42.988-44.837m-42.917 42.276c17.365-16.532 35.455-33.27 44.344-44.032m-39.268 50.33c14.063-19.268 29.262-35.72 38.186-49.39m-36.924 49.778c11.71-16.556 24.045-33.194 37.993-51.034M48.851 161.19c9.145-8.958 19.598-20.39 41.522-44.412m-42.875 46.762c9.912-9.627 19.984-20.88 43.497-45.804m-37.84 51.086c13.614-18.37 28.605-40.104 36.425-52.09m-36.13 52.032c12.76-19.008 26.422-36.998 38.034-49.217m-44.1 55.976c14.88-13.385 24.97-28.396 41.827-46.803m-41.767 45.965c8.46-9.955 18.134-19.174 43.946-43.537m-38.158 50.284c11.075-18.355 23.883-32.545 39.048-51.357M52.46 179.57c8.836-10.649 18.117-21.774 38.298-49.256m-43.657 58.395c17.969-16.663 33.499-36.743 43.612-47.253m-42.842 44.728c14.253-12.633 26.704-26.165 43.685-42.582M55.1 191.711c12.094-17.984 25.38-33.445 34.963-48.357M53.62 192.46c13.419-17.881 26.78-35.224 37.83-49.996m-37.246 51.885c11.112-13.287 20.186-21.538 34.332-38.085m-35.205 35.564c10.952-10.415 22.396-22.196 37.431-37.194M59.19 197.25c12.846-16.854 23.986-33.347 32.824-42.07m-32.39 42.176c8.874-12.34 19.19-25.147 29.98-41.94m-32.224 40.97c10.108-9.191 19.136-15.195 32.327-28.993m-30.39 30.56c9.585-8.073 17.865-17.962 31.279-31.365m-24.873 38.68c6.016-12.657 14.23-19.96 25.933-37.654m-26.458 35.953c4.763-7.665 11.37-14.93 25.53-36.07m-26.064 36.431c7.91-7.164 11.05-12.323 27.852-24.64m-26.408 22.43c5.798-6.318 14.33-12.52 25.187-21.957m-21 28.733c8.067-7.766 13.524-15.454 19.608-28.732m-18.796 27.99c6.002-7.39 11.694-14.838 19.652-27.871m-19.741 26.682c7.45-5.857 12.14-6.725 21.441-15.598M71.88 206.73c5.692-5.45 10.955-8.07 19.61-15.348m-12.759 19.14c3.952-2.88 5.713-7.354 13.924-19.905m-14.607 20.888c4.784-5.356 7.646-12.46 13.52-20.872m-11.135 19.232c2.588-.673 5.157-3.592 8.839-5.801m-8.872 5.543c1.688-.878 4.596-1.816 10.383-4.688m-4.312 10.29c.572-2.32 1.347-6.516 4.43-10.006m-4.384 10.02c1.172-3.265 1.606-5.447 3.302-10.726"/><path stroke="#000" d="M50 80c12.767-9.55 29.857-9.315 41.843.581m-42.705-2.537c11.28-10.313 30.78-8.957 40.572.405m1.477.503c-1.018 42.256-.424 85.7-2.386 138.201m.93-137.695c-1.522 35.572-.318 69.47.962 135.76M90 215.4c-15.991-6.095-30.53-12.443-39.76-23.734m39.556 24.31c-13.903-4.518-30.271-11.607-39.761-26.723m.8.309c.616-26.916-1.942-56.614-2.085-110.496m.913 112.843c.233-39.489-.084-78.76-.513-111.004"/></g><path fill="#fff" d="M190 80c-9.35-14.475-29.707-11.578-39.866 3.119 2.875 24.674-.22 54.05 1.072 133.888 11.369-6.476 29.62-16.92 36.702-28.866 4.694-27.294 4.229-57.406 4.968-111.498"/><path fill="none" d="M190 80c-11.195-9.49-28.505-10.17-40.94 1.06m42.116.306c-13.07-12.695-30.763-11.833-39.237-.55m-.706.948c-2.787 32.833-1.35 67.08-.607 133.851m.12-134.699c-.321 52.415-1.44 105.307-1.433 134.827m.687-.343c13.967-3.465 28.444-12.359 38.611-22.013m-37.133 21.433c14.714-4.394 27.02-11.269 37.945-22.13m.325-1.246c-1.136-41.083-.21-84.327 1.754-112.805m-1.602 112.79c-1.252-39.773-1.086-80.673-.565-111.507"/><g fill="none" stroke-width="4"><path stroke="#0a68ff" d="M146.51 88.61c7.485-5.012 15.917-13.361 19.057-17.883m-18.215 19.188c4.876-4.74 7.672-7.493 20.533-18.062m-13.233 24.36c.297-5.61 7.151-10.42 11.335-22.061m-12.403 20.164c3.987-4.806 7.427-9.968 13.137-21.364m-19.208 28.783c8.836-6.285 14.203-15.122 30.725-28.02M148.01 101.13c8.674-8.747 20.634-18.436 29.747-28.264m-24 34.651c6.768-9.54 11.936-18.333 24.174-35.664m-25.332 35.355c6.79-8.756 12.209-16.965 24.584-33.452m-28.848 41.617c11.875-14.318 25.06-30.14 34.706-36.85m-35.787 35.348c11.248-11.027 21.369-21.716 36.921-37.311m-33.082 42.18c7.919-10.076 16.776-19.108 31.701-43.6m-29.782 44.409c11.135-15.192 21.997-29.204 31.615-42.087m-39.131 50.707c9.774-9.493 20.645-18.944 43.86-46.262m-41.802 45.247c11.63-14.345 26.374-27.554 43.419-44.676m-39.782 48.596c14.332-16.614 27.117-30.376 37.59-48.435m-36.324 49.301c12.398-15.61 24.284-31.782 37.416-49.221M148.33 137.93c11.581-13.394 25.492-27.278 43.108-45.502m-44.667 46.818c17.088-17.511 33.897-34.325 44.608-45.806m-36.658 48.871c11.507-15.708 24.119-30.616 36.537-47.433m-38.992 48.435c8.325-11.042 17.807-21.59 38.032-48.473m-43.59 53.586c13.158-9.706 23.95-21.364 46.076-42.46m-45.202 45.13c13.982-14.31 26.956-28.263 44.082-45.141m-38.754 50.107c7.81-8.972 17.298-22.543 37.324-48.175m-36.833 47.059c8.226-8.703 15.985-18.855 37.647-49.517m-45.693 57.92c19.71-16.782 35.665-35.147 44.318-46.278m-41.687 44.877c8.599-10.03 18.53-20.104 41.968-43.153m-37.273 49.809c13.46-19.902 31.456-37.77 36.498-49.574m-35.16 49.445c12.6-17.896 24.402-34.556 37.678-49.294M148.32 173.71c13.015-14.183 31.065-30.397 42.443-43.506m-44.872 44.752c14.148-14.37 27.151-26.954 45.388-44.226m-40.257 49.998c12.308-17.496 24.112-32.358 39.658-48.7m-38.905 47.576c8.949-9.887 17.328-19.544 39.566-49.407M144.86 186.1c18.706-15.521 32.514-28.159 46.82-44.362m-44.512 44.975c12.313-12.968 26.896-26.59 43.412-44.071m-36.44 49.701c8.015-16.129 21.576-27.484 36.565-49.576m-38.58 49.33c15.442-19.918 29.994-39.263 37.598-49.657m-43.171 58.009c19.126-18.27 36.124-34.586 43.985-44.84m-42.648 44.216c15.913-18.096 31.326-33.182 42.808-43.796m-36.317 50.017c6.538-11.761 17.357-25.979 38.11-49.793m-39.851 47.821c8.73-9.694 18.303-22.13 37.958-48.52m-42.742 55.51c13.068-12.208 23.676-23.562 41.195-44.384m-42.705 44.29c11.587-12.123 23.196-22.82 43.995-43.011m-35.245 48.98c4.614-10.703 12.622-22.026 34.127-50.544m-35.373 50.593c13.414-18.018 26.236-35.375 36.714-50.091M160.36 206.67c10.293-6.398 13.9-14.873 32.454-28.342m-31.29 28.09c7.823-6.145 15.214-13.587 30.378-27.077m-23.314 32.449c5.142-12.06 13.65-19.25 20.836-34.041m-20.355 33.486c5.698-7.537 11.12-15.748 21.52-31.501"/><path stroke="#000" d="M190 80c-12.767-10.77-30.835-12.066-41.27 1.52m41.87-2.828c-10.989-8.677-27.31-11.681-39.824 3.145m-1.9-3.202c1.208 50.034 3.884 94.357 2.93 135.7m-2.325-134.177c-.216 37.867.183 77.686.225 136.075m.294-.833c16.833-4.314 30.654-12.33 41.823-25.378m-42.002 23.68c15.21-2.509 29.375-13.201 42.25-22.998m-2.056-.778c.31-28.14-1.544-56.862 1.054-111.021m-2.06 111.531c.38-37.804 1.921-76.447 1.582-109.912"/></g><path fill="#fff" d="M100 100c-2.663-14.63 17.619-21.528 33.171-15.22 2.534-.058 6.447 7.125 8.837 15.458-1.563 11.006 1.824 18.84-2.313 21.273 2.814 10.964-13.533 24.146-30.013 16.893-2.789-5.365-8.577-14.033-8.99-15.928-1.701-6.44-1.509-15.164.805-22.684"/><path fill="none" d="M100 100c.593-16.614 17.158-24.985 31.396-16.68m-32.73 18.615c-.966-15.332 19.597-25.21 31.566-17.96M130 82.679c7.5 4.935 8.51 10.656 8.498 15.84m-7.849-14.001c6.63.565 9.053 6.278 7.677 13.912m2.643 2.062c-3.08 4.628.247 9.493-2.803 19.203m2.236-20.257c-.986 5.43.013 11.953-.744 20.811M140 120c-1.824 16.047-15.33 25.843-30.334 16.752m29.774-17.034c2.096 17.326-16.892 24.13-31.356 16.674m1.916.929c-6.586-3.578-8.743-9.63-11.808-16.783m13.344 16.787c-9.953-2.986-11.46-11.772-12.867-15.073m1.256-4.155c.385-4.758 1.847-7.437-1.125-16.172m1.988 18.498c-.36-5.41-1.35-9.527-1.752-19.806"/><g fill="none" stroke-width="4"><path stroke="#7c1355" d="M96.647 99.918c7.374-5.457 16.043-12.93 22.443-17.682M96.75 102.74c9.002-8.228 17.705-16.851 24.71-21.932m-17.578 26.007c4.917-6.972 7.708-10.11 16.266-24.658m-17.54 23.911c5.991-8.263 11.152-15.136 17.957-24.153m-22.633 33.682c10.573-11.708 18.185-22.816 32.082-33.833m-32.673 32.517c10.917-10.994 23.012-21.055 32.93-31.798m-25.01 37.34c6.58-11.458 14.568-24.246 22.47-35.525m-24.6 33.901c6.636-8.256 12.207-16.365 26.298-35.525m-31.401 42.852c12.578-11.845 25.694-25.809 39.555-37.882m-39.516 36.65c13.733-11.986 25.205-24.215 37.377-36.548m-32.479 42.627c10.954-11.225 19.052-23.792 33.636-41.261m-32.614 41.339c7.219-10.642 14.332-18.619 31.443-42.808m-33.78 42.292c7.667-4.116 18.2-12.553 36.953-32.918m-34.718 34.464c11.366-11.547 23.192-24.715 36.326-35.94m-32.674 41.008c8.242-8.977 16.123-15.162 33.986-41.744m-33.031 41.802c7.884-11.36 16.433-23.594 32.468-40.842M111.33 134.8c9.704-10.597 21.952-18.706 29.924-29.036m-31.362 28.998c12.476-10.613 24.597-21.138 30.34-26.875M115.71 142.39c8.41-13.697 15.041-23.686 22.584-36.885m-22.43 34.7c9.113-11.311 19.022-24.524 24.548-33.28m-22.793 29.612c5.425-3.31 11.13-5.282 22.127-15.649m-21.124 17.353c8.457-5.571 14.921-13.02 21.883-18.428m-15.872 23.965c5.29-6.982 8.241-14.014 15.674-24.2m-14.84 23.19c2.275-5.991 6.48-10.713 14.273-23.81"/><path stroke="#000" d="M100 100c-1.496-16.134 17.104-25.716 28.087-16.613M99.65 101.15c-1.698-17.365 15.847-27.724 32.578-20.727M130 82.68c7.528 2.09 10.126 9.077 8.35 18.634m-8.388-19.773c7.287 5.489 9.137 10.193 10.481 20.434m-1.29-1.027c-.726 4.776 1.932 11.756 2.445 21.008M140.2 99.182c-1 6.613-.024 10.213.13 21.42M140 120c1.933 16.66-16.9 23.885-29.456 15.38m30.818-17.2c-.263 15.202-16.844 27.41-32.098 21.148m.736-2.007c-6.306-2.299-8.17-10.113-11.198-15.58m9.739 15.659c-4.563-5.28-9.213-9.813-8.964-17.32m.275-.641c-.542-5.278 2.03-8.685-1.287-20.02m1.438 21.528c-.764-7.4.48-15.732.61-20.99"/></g><path fill="#fff" d="M53.5 83.5c-.433 2.532-9.715.464-7.401-3.283.234 2.073 1.106-5.024-1.897-.137 14.807-15.258 35.652-16.032 45.982-.604 3.361 2.81 4.18 5.83-.174 4.333-1.9-1.057-2.697 2.564-5.094.26-10.25-3.288-22.319-7.743-31.55-3.836L53.5 83.5"/><path fill="none" d="M53.5 83.5c-5 4.192-9.178-.114-8.9-3.798m10.79 2.884c-2.874 5.032-9.523 1.538-7.904-3.148m-1.95.66c-1.595-2.609-1.264-2.83-.468-4.059m-.113 4.733c1.674-3.45 2.1-5.413 2.407-4.865m-.862.593c11.363-11.794 34.914-13.99 48.677 1.07m-47.174-1.582c12.546-12.533 32.908-12.52 47.054.562M93.5 76.5c1.222 3.878-1.189 6-4.975 8.577m3.915-7.77c2.925 1.814.762 7.803-4.638 5.923m2.296 1.234c-1.452.272-2.288-1.879-4.607.12m5.88 1.023c-3.118-.537-3.79-.815-5.013-3.911M86.5 83.5c-9.711-5.128-22.569-7.356-32.79-.218m34.626 1.575c-10.462-8.297-24.672-6.124-35.33-1.045m.494-.312"/><g fill="none" stroke-width="4"><path stroke="#222" d="M49.551 83.538c4.543-6.289 9.705-8.132 14.062-17.715m-12.788 18.32c3.267-3.769 6.873-9.65 14.323-16.332m-1.154 12.651c3.625-3.612 5.779-4.97 10.22-14.106M64.023 80.42c3.14-3.789 6.519-6.927 12.559-13.44M75.53 81.228c1.483-3.783 5.274-8.376 8.925-9.767m-8.96 8.253c2.708-3.212 5.276-6.23 8.8-9.273m-.135 12.144c3.006-2.627 4.202-5.738 5.995-7.69m-5.739 7.501c1.522-2.713 4.104-5.604 5.975-7.936M57.43 80.602c-2.106-1.678-4.378-3.494-7.47-5.879m7.448 6.62c-2.292-1.605-4.698-4.327-8.556-6.924m18.451 4.115c-3.508.012-6.059-3.41-10.087-10.328M67.492 79.54c-3.496-3.504-7.537-6-11.355-10.299m23.667 11.385C77.7 77.959 69.702 72.818 64.67 64.962m16.46 16.19c-5.932-5.134-10.37-8.876-16.243-15.219m28.047 14.635c-2.972-3.398-7.522-7.757-15.129-11.472M93.124 81.64c-3.615-4.855-8.172-9.252-15.422-13.512"/><path stroke="#000" d="M53.5 83.5c-2.364 2.242-7.93 1.074-7.422-2.746m8.185 3.992c-4.742.6-9.576-.242-10.7-3.987m1.973-.66c.242-.06 1.943-4.181 1.913-2.715m-1.57.776c-.203 1.431-.73 1.628 2.425-1.595M46.5 76.5c12.601-11.301 33.483-13.602 47.166-.226m-47.681-1.316c12.018-9.68 34.841-11.43 48.025 1.549m-.51-.007c4.104 2.48 1.488 6.204-2.515 6.454m2.457-4.49c3.305-1.154 2.124 5.366-4.898 5.912m1.554.088c-1.113-1.385-1.13-.197-5.42-.617m4.87-1.064c-.663.487-3.445.41-4.617.24m1.569.477c-12.014-4.53-21.374-5.474-34.962.336m34.198-1.197c-11.075-3.961-20.168-4.826-33.79-.084m1.554.945"/></g><path fill="#fff" d="M153.5 83.5c-3.872 2.944-6.232 1.993-6.642-.388-3.438-7.714-2.299-4.21-2.825-8.735 13.794-12.688 38.357-8.936 50.055 3.808 2.76.656-3.408 8.486-1.01 4.638-5.825.44-6.46 4.86-3.472.392-15.391-3.876-29.262-4.823-38.602-.223l2.496.508"/><path fill="none" d="M153.5 83.5c-4.22.744-7.29-.23-9.148-5.26m8.592 5.044c-3.604 3.088-6.708.365-7.238-3.497m-.17.311c-.242-.746-1.106-2.38 1.406-3.475m-.197 5.33c-3.156-5.133-1.143-2.709.914-4.41M146.5 76.5c13.367-14.577 35.184-11.756 47.43 1.833m-46.653-2.994c13.857-10.948 31.773-10.414 48.368 3.402M193.5 76.5c3.631 2.12-.44 7.768-2.59 9.628m2.752-8.674c1.434 1.863 1.64 5.74-5.006 5.567m1.442 1.443c-.167 1.73-3.665-.824-5.441-.964m5.734.658c-1.714 1.854-4.886-1.978-2.477-.958m-1.414.3c-9.261-6.468-20.946-5.932-34.844 1.323m35.059-2.542c-8.511-4.576-24.598-3.48-31.865 1.171m-1.35.048"/><g fill="none" stroke-width="4"><path stroke="#222" d="M150.762 86.145c3.801-6.688 7.892-10.094 15.697-19.17M150.522 83.84c4.335-4.98 7.86-10.27 14.522-15.161m-1.147 9.6c5.2-2.026 9.272-7.345 11.754-11.09m-10.8 12.473c3.433-2.812 5.619-6.179 11.073-11.54m-.114 12.145c3.166-5.112 5.859-8.532 8.428-10.52m-8.75 10.73c1.96-3.123 4.717-6.538 8.493-10.344m-1.065 11.851c2.16-1.151 6.05-4.872 7.637-7.605m-6.693 8.45c2.77-3.106 5.527-6.361 7.119-8.591m-32.306 8.466c-2.78-2.505-4.587-3.12-9.284-8.849m9.116 8.392c-4.058-3.012-7.536-6.603-9.924-8.287m17.458 6.415c-2.4-5.058-5.85-9.545-8.969-10.35m9.787 9.096c-3.989-2.638-7.351-6.52-9.845-9.581M182.9 82.513c-3.275-6.024-7.511-5.914-16.374-15.648m15.072 13.706c-6.296-4.581-12.503-10.078-17.025-13.935m29.619 15.679c-2.804-5.412-9.492-8.234-14.244-12.687m13.597 12.085c-2.741-4.248-6.587-5.276-15.673-13.94"/><path stroke="#000" d="M153.5 83.5c-3.866 1.158-9.276-1.333-6.699-4.906m6.299 3.293c-2.864 3.31-7.49.33-8.515-.315m.95-1.474c-.738-2.44-1.625-.62.587-2.744m.067 2.327c.894-2.391.764-.6-.255-2.172m.566-1.009c13.304-12.346 35.982-14.235 48.183.79m-47.672.175c12.773-12.977 32.02-15.163 46.047-2.74m.442 1.775c1.898 4.764-1.084 6.03-2.727 8.25m.9-8.59c6.055 3.028 3.504 8.52-.437 9.844m-1.138-1.54c.053-1.374-4.125.297-5.278-.465m6.473-.853c-3.746 3.574-5.988-1-7.066 1.05m2.273-.696c-11.254-6.602-24.6-7.676-32.612.563m32.973-2.438c-12.026-4.227-23.191-4.788-35.017 1.995m1.656-.12"/></g></svg>