<svg xmlns="http://www.w3.org/2000/svg" viewBox="0 0 450 450"><g stroke-width="10"><path fill="#f005" stroke="#f005" d="M436.6 435.7c.3-.8.3-4.9.1-9.3-.3-7.9-.3-7.9-.5.8-.1 5.8-.6 8.8-1.5 9.1-.9.4-.9.6.1.6.7.1 1.5-.5 1.8-1.2zm-140.4.6c-1.8-.2-4.5-.2-6 0s0 .4 3.3.4 4.5-.2 2.7-.4zm-28.5-3c-1.5-.2-3.9-.2-5.5 0-1.5.2-.2.4 2.8.4s4.3-.2 2.7-.4zm-121.4-1c-1.8-.2-5-.2-7 0-2.1.2-.7.4 3.2.4 3.8 0 5.5-.2 3.8-.4zm283-7c.2-2.1.1-4.5-.4-5.3-.5-1-.9.4-.9 3.8 0 6.1.6 6.8 1.3 1.5zm-55.1-18c-1.7-.2-4.7-.2-6.5 0-1.7.2-.3.4 3.3.4s5-.2 3.2-.4zM42.7 358c0-4.7-.2-6.6-.4-4.2-.2 2.3-.2 6.1 0 8.5.2 2.3.4.4.4-4.3zm389.9-139c0-8-.2-11.2-.3-7.2-.2 3.9-.2 10.5 0 14.5.1 3.9.3.7.3-7.3zM17.7 173c0-3-.2-4.3-.4-2.7-.2 1.5-.2 3.9 0 5.5.2 1.5.4.2.4-2.8zm421-39.5c0-4.4-.2-6.1-.4-3.7-.2 2.3-.2 5.9 0 8 .2 2 .4.1.4-4.3zm-142-87.2c-1.5-.2-3.9-.2-5.5 0-1.5.2-.2.4 2.8.4s4.3-.2 2.7-.4zm61-4c-2-.2-5.4-.2-7.5 0-2 .2-.3.4 3.8.4s5.8-.2 3.7-.4zm-90-1c-1.5-.2-3.7-.2-5 0-1.2.2 0 .4 2.8.4 2.7 0 3.8-.2 2.2-.4zm136.5-28c-2.8-.2-7.6-.2-10.5 0-2.8.2-.5.3 5.3.3s8.1-.1 5.2-.3z"/><path fill="#f00a" stroke="#f00a" d="M48.7 442.3c-2.6-.2-6.7-.2-9 0s-.2.3 4.8.3c4.9 0 6.8-.1 4.2-.3zm272-6c-4.3-.2-11-.2-15 0-4 .1-.5.3 7.8.3 8.2 0 11.5-.2 7.2-.3zm-63.5-3c-1.8-.2-4.5-.2-6 0s0 .4 3.3.4 4.5-.2 2.7-.4zm-26-8c-1.7-.2-4.7-.2-6.5 0-1.7.2-.3.4 3.3.4s5-.2 3.2-.4zm-44.5-14c-1.5-.2-3.9-.2-5.5 0-1.5.2-.2.4 2.8.4s4.3-.2 2.7-.4zm249-10.3c0-4.1-.2-5.8-.4-3.7-.2 2-.2 5.4 0 7.5.2 2 .4.3.4-3.8zm-422-56c0-4.7-.2-6.6-.4-4.2-.2 2.3-.2 6.1 0 8.5.2 2.3.4.4.4-4.3zm391-46.5c0-3.8-.2-5.3-.4-3.2-.2 2-.2 5.2 0 7 .2 1.7.4.1.4-3.8zm28-61c0-2.7-.2-3.8-.4-2.2-.2 1.5-.2 3.7 0 5 .2 1.2.4 0 .4-2.8zm-391-16c0-2.7-.2-3.8-.4-2.2-.2 1.5-.2 3.7 0 5 .2 1.2.4 0 .4-2.8zm391-21c0-2.7-.2-3.8-.4-2.2-.2 1.5-.2 3.7 0 5 .2 1.2.4 0 .4-2.8zm-303-162.2c-2.6-.2-6.7-.2-9 0s-.2.3 4.8.3c4.9 0 6.8-.1 4.2-.3zm255.5-25c-2.3-.2-5.9-.2-8 0-2 .2-.1.4 4.3.4s6.1-.2 3.7-.4z"/><g fill="red" stroke="red"><path d="M65 440.9c28-4.1 61.5-8.1 71.5-8.5 6.6-.3 15.9-1.2 20.7-2.1 7.2-1.4 9.6-1.5 13.8-.5 7.4 1.7 12.7 1.5 28.9-1.3 7.9-1.3 18.8-2.7 24.1-3.1 9.8-.7 9.8-.7 11.6 2.1 2.9 4.5 6.9 5.5 21.8 5.5 8 0 16.7.6 21.7 1.6 6.9 1.3 13.6 1.5 38.9 1.1 41.4-.8 69.2-2.2 77-4 3.6-.9 11-1.9 16.5-2.2 17.4-1 16.5-.6 16.5-7.3 0-4 .3-5.3 1-4.2.5.8 1 4 1 7.1 0 5.7 0 5.7-4.8 6.9-4.4 1.2-4.6 1.3-2 2 1.5.4 5 1.1 7.8 1.5 5.2.7 5.2.7 4.9-21.1-.2-14.2.1-24.9.9-30.4 1.1-7.6 1-11.5-1.4-37-2.7-28.5-2.7-28.5.5-47 1.7-10.2 3.1-18.8 3.1-19.2 0-.5-.8-.8-1.9-.8-1.5 0-1.9-1-2.4-5.2-1.9-16.3-2.9-46.8-2.4-69 .6-23.8.7-24.9 2.9-27.9 2.3-3 2.3-3.4 2.3-32.2 0-16.1-.2-35.5-.5-43.2-.2-7.7 0-16.7.4-20 .6-4.5.4-8.2-.9-14.5-1.8-8.5-1.7-22 .2-46.7.6-8.3.6-8.3-31.8-7.7-28 .4-34.8.8-49.6 3.1-16.9 2.5-17.3 2.5-22.5.8-2.9-1-10.3-2.1-16.3-2.5-6.1-.4-14.8-1.6-19.3-2.5-8.4-1.8-8.4-1.8-28 1-12.7 1.8-24.8 2.9-34.2 3-10.8.2-16.4.8-22 2.3-4.1 1.1-15.6 3.7-25.5 5.7s-20.1 4.5-22.7 5.6c-2.6 1-6.6 1.9-9 1.9-5.5 0-11.8-1.1-11.8-2 0-.4 9.3-3.1 20.7-6 11.5-2.9 21.4-5.6 22.2-6 1.1-.6 1-1.1-.7-2.8-5.3-5.3-14.8-4.1-55.3 6.7-31 8.3-41.4 11.8-41.4 13.9 0 .7 1.2 2 2.7 3 2.3 1.5 3.9 1.7 10 1 4-.4 16.1-1.2 26.8-1.7 16.5-.8 21.3-1.4 31.3-4 13.7-3.6 15-3.7 11.9-1.2C171 34 170 35 170 35.2c0 .3 2.6.1 5.7-.3 4.4-.6 6.3-.4 8.7.9 2.6 1.3 5.8 1.6 19.2 1.4 13.5-.2 17.6.1 25.5 1.9 7.2 1.6 13.2 2.2 25.9 2.4 13.3.2 17.9.6 23.5 2.3 9 2.7 20.4 2.8 31.5.2 7-1.6 12.3-2 30.3-2 21.1 0 51.1-1.9 64.9-4.1 3.7-.6 7.1-.8 7.6-.5s.4 3.6-.4 7.8c-.7 4-1.6 15.4-2 25.3-.5 13.9-1.3 21.3-3.6 32.5-4.3 21.3-4.6 31.5-1.4 47 1.4 6.9 3.5 15.9 4.6 20 1.9 7.5 1.9 7.5 1.5-4.5-.2-6.6-.7-16-1.1-21-.4-4.9-.4-8.8-.1-8.5 1 1 6.7 40.1 6.7 46.3 0 6.7-1.4 10.6-2.6 7.4-.3-1-.4-3.6 0-5.8.4-2.7.3-3.8-.4-3.4-.5.3-1 1.6-1 2.8s-1.1 6.4-2.5 11.6c-3.8 14.4-4.6 26.7-3.2 47.6 1.2 17.7 1 24.2-1.2 38-2.4 15.3-.7 49.1 3.4 70 3.1 16 6.5 36.9 6.5 40.3-.1 4.5-1.7.5-3.5-8.8-1-4.7-2.1-8.9-2.6-9.4-.5-.6-1.8-.1-3.3 1.3-2.4 2.3-2.5 2.5-1 5.9 1.3 3.2 1.3 4-.2 7.9-1.2 3.1-1.5 6.1-1.2 10.8.6 6.5.6 6.5-3.9 6.5-2.5 0-9.1.7-14.7 1.6-11.7 1.9-24.3 1.5-35.1-1.2-13.4-3.3-36.8-2.2-71 3.3-10.8 1.7-19.3 2.5-26.2 2.4-9-.2-24.3 1.7-44.8 5.5-3 .6-3 .6 0-1.9 2.9-2.5 2.9-2.5-2.6-3.6-4-.8-7.5-.9-12.9-.1-5.1.7-11.7.7-21.9 0-8-.6-22.5-1.5-32.1-2.1-9.6-.5-21.3-1.2-25.9-1.5-15-1.1-62.7 5.6-71 9.8-4.3 2.3-7.1 2.6-7.1.9 0-1.3 15.2-7.9 22.5-9.8 7-1.8 7-1.8-1-2.1-6.1-.2-8.3-.7-9.6-2.1-3-3.2-5.1-24.6-4.8-50.1.2-27.2-1.2-46.6-5.1-70.2-3.5-20.4-3.5-20.8-1.5-20.8 2.5 0 3.6-6.8 4.8-27.6 1-18.7.9-21.1-1.1-34.5-1.3-9-2.1-18.5-2-25.4.2-12.4-2.4-33-10.2-80-3.9-23.6-7.9-56.9-8-66.8 0-.7-.4-.6-1 .3-1.7 2.6-1.1 10.2 3 38.2 2.3 15 3.9 29.6 3.8 32.3-.3 4.6-.5 4.2-2.7-6.5C19 77.7 17 64.6 17 58.8c0-5.4-1.2-6.8-2.9-3.2-1.7 3.8-1.4 11.6 1.3 29.6 3.8 25.7 3.7 24.1.7 28.5-2.5 3.6-2.6 4.4-2.5 15.8 0 7.4.7 15.6 1.9 21.5 1.4 7.1 1.9 14.4 1.9 29 .1 10.7.4 20 .8 20.5 1.4 2.2 3.8 23 5.8 49.4 2.5 34 2.5 32.4.1 31.6-1-.3-2.4.1-3.1 1-.7.8-2.6 9-4.2 18.3-2.5 14.1-3 20.3-3.5 40.2-.3 12.9-.4 26.9-.2 31 .6 13.9-.5 40-2.6 61.1-.6 5.8-.5 6.7 1.2 7.4 2.8 1.1 46 1.5 53.3.4zm-.5-23.8c-1.4-.6.3-1.1 6-2 11-1.7 22.1-2.5 21.3-1.7-2.9 3.2-22 5.7-27.3 3.7zM20.4 294.5c-.7-1.7 1.4-7.5 2.6-7.5.4 0 1.3 1.4 2 3 1 2.4 1 3.3 0 4.5-1.6 1.9-3.9 1.9-4.6 0zm410.3-179c-.6-3.7-.5-3.8.8-2.1.9 1.2 1.5 4 1.4 7-.1 4.5-.2 4.7-.9 2.1-.4-1.6-1-4.8-1.3-7zM102 33.5c0-1.6 2.7-2 5.7-.8 1.5.6 1.3.9-1.2 1.4-1.7.4-3.3.7-3.8.8-.4 0-.7-.6-.7-1.4z"/><path d="M45.2 37c3.7-.3 7.6-1.3 8.5-2.2 1.7-1.4 17.9-5.3 32.6-7.9 7.5-1.2 8-2.2 2.6-5.4-7.6-4.5-29.6-1.4-46.9 6.6-7.2 3.3-14 7.7-14 9 0 1 7.1 1 17.2-.1z"/></g></g></svg>