<svg xmlns="http://www.w3.org/2000/svg" viewBox="0 0 1500 800" preserveAspectRatio="xMinYMin slice">
  <defs>
    <style>
      text {
        fill: #000;
        font-size: 200px;
        font-size: 10vw;
        font-weight: bold;
        font-family: sans-serif;
        text-transform: uppercase;
        text-anchor: middle;
      }

      /* @media (max-width: 600px) {
        text {
          font-size: 110px;
          transform: translate(-750px, 440px);
        }
      }

      @media (max-height: 200px) and (max-width: 600px) {
        text {
          transform: translate(-750px, 335px);
        }

        tspan:nth-child(odd) {
          display: none;
        }
      }

      @media (max-height: 150px) and (max-width: 600px) {
        text {
          display: none;
        }
      } */
    </style>
  </defs>
  <path fill="#ff2" stroke="red" stroke-linejoin="round" stroke-width="50" d="m280 30 250 450H30z" />
  <path
    d="M268.8 161.7c-2.5.2-5.1.9-5.6 1.6s-2.1 4.5-3.6 8.4c-2.1 5.5-3.2 7.3-4.6 7.3-3.3 0-3 1.7.8 4.1 2.2 1.4 4 3.6 4.5 5.4.5 1.6 1.7 4.8 2.8 7 1 2.2 1.9 4.7 1.9 5.5s-2.5 3.4-5.5 5.7c-6.8 5.3-6.8 5.7-1.5 23.5 5.3 17.3 5.6 18 11.1 26.5s6.4 12.3 4.8 20.2c-.7 3.5-1 11.8-.7 20.3.3 12.5.6 14.9 2.6 18.8 1.8 3.4 2.6 7.2 3.2 15.5.5 6 1.4 17.3 2.1 25 1.1 13.4.7 48.3-.7 51.9-.3.9-2.2 1.6-4.7 1.8-2.2.2-4.2.8-4.4 1.5-.7 2.2 3.6 3.3 16.6 4.5 10.1.9 13.5.9 15.6 0 2.7-1.2 2.7-1.4 2.2-8.5-2.6-34.4-3.1-77.5-1.1-80.9 1.1-1.7 3.4 2.1 3.4 5.5 0 1.5 1.2 7.9 2.6 14 2.1 9.3 2.6 14.1 2.8 28.7.3 14.5.7 18.6 2.4 24 1.1 3.6 2.2 8.3 2.4 10.5.3 3.7.6 4.1 3.9 4.9 6.4 1.6 8.3.4 10.4-6.6 1.6-5.3 1.7-6.9.7-11.8-.8-3.7-1.2-18.5-1.2-43.1 0-36.7.1-37.5 2.3-42 1.2-2.6 3.7-6 5.5-7.7 2.7-2.5 3.2-3.7 3.2-7.4 0-2.4-1.1-6.5-2.4-9.5-3.6-7.7-4.1-12.8-2-20.9 1.2-4.5 1.8-10.4 1.8-16.9-.1-9.6-.2-10.3-3.7-16.5-2-3.6-5.2-10.6-7.2-15.5-2-5-5-10.4-6.7-12.2-3.9-4-10.6-6.9-20.4-8.8-6-1.1-8.5-2.2-12-5-4.6-3.8-5.7-7.2-2.9-9.5 2-1.6 1.9-2.7-.3-3.2-1.1-.3-2.4-2.5-3.5-6-1.9-6.2-5.7-10.9-8.4-10.6-1 .1-3.9.3-6.5.5m-66.705 178.95c-1.8.33-3.33 1.245-4.08 2.445-.15.27-.69 1.665-1.185 3.105s-1.41 4.035-2.04 5.76-1.14 3.33-1.14 3.57c0 .345.165.6.63 1.035 1.92 1.755 5.67 2.805 10.17 2.85 1.875.03 6.33-.855 7.74-1.515 1.275-.615 2.61-1.845 2.61-2.4 0-.24-.345-1.35-.765-2.505-.42-1.14-1.365-3.795-2.115-5.895-.735-2.1-1.515-4.095-1.74-4.41-.9-1.32-2.805-2.055-5.505-2.13-.99-.015-2.145.015-2.58.09m-13.755 29.37c-.57 1.635-1.605 4.5-2.295 6.39-1.71 4.71-1.695 5.07.39 7.14 1.41 1.395 3.03 2.31 5.505 3.135 5.685 1.905 12.195 2.4 18.735 1.425 4.005-.585 7.92-1.935 10.2-3.51 1.485-1.02 2.775-2.88 2.775-3.975 0-.255-.3-1.335-.66-2.4-1.08-3.225-3.855-10.935-3.975-11.07-.06-.06-.315.165-.54.51-1.59 2.265-5.835 4.05-11.055 4.62-2.01.225-3.795.21-6.375-.06-5.325-.57-8.34-1.725-10.62-4.065l-1.05-1.08z" />
  <path
    d="M174.45 389.535c-10.41 4.2-9.945 3.99-10.92 4.98-1.185 1.2-1.365 2.295-.585 3.585.72 1.2 1.485 1.74 5.355 3.825 23.925 12.93 28.755 15.465 30.615 16.05 2.1.66 3.72.87 5.985.78 3.135-.135 4.56-.555 8.175-2.385 5.925-3 30-15.99 30.99-16.71 1.605-1.17 2.31-2.805 1.695-3.99-.405-.795-1.44-1.785-2.34-2.235-1.095-.555-16.74-6.885-17.01-6.885-.12 0-.21.015-.21.03 0 .03.345 1.02.765 2.22 1.2 3.42 1.065 4.41-.885 6.48-1.725 1.815-3.69 2.91-7.53 4.185-4.68 1.53-8.13 2.01-14.625 1.995-3.93-.015-4.98-.06-6.75-.33-2.865-.42-5.04-.93-7.56-1.755-4.365-1.425-7.515-3.525-8.58-5.73-.27-.57-.315-.855-.24-1.965.06-1.065.195-1.65.78-3.225.375-1.065.675-1.95.645-1.98s-3.525 1.35-7.77 3.06" />
  <text y="155">
    <tspan x="1040" dy="0">Warning</tspan>
    <tspan x="1040" dy="1em" font-size="87%">Umarells</tspan>
    <tspan x="1040" dy="1em" font-size="87%">nearby</tspan>
  </text>
</svg>